<svg width="16" height="16" viewBox="0 0 16 16" fill="none" xmlns="http://www.w3.org/2000/svg">
<path opacity="0.5" d="M9.70706 0H2V16H15V5.293L9.70706 0Z" fill="white"/>
<path d="M9.293 1L14 5.707V15H3.00003V1H9.293Z" fill="white"/>
<path opacity="0.2" d="M9.707 0H2V16H15V5.293L9.707 0ZM10 1.707L13.293 5H10V1.707ZM3 15V1H9V6H14V15H3Z" fill="black"/>
<path opacity="0.08" d="M10 1.70703V5.00006H13.293L10 1.70703Z" fill="black"/>
<path d="M6.5 8C7.32843 8 8 7.32843 8 6.5C8 5.67157 7.32843 5 6.5 5C5.67157 5 5 5.67157 5 6.5C5 7.32843 5.67157 8 6.5 8Z" fill="#FF794C"/>
<path fill-rule="evenodd" clip-rule="evenodd" d="M7.50002 10.8571L9.5 8L13 13H6L6.00005 12.9999H4L6.5 9.4285L7.50002 10.8571Z" fill="#39BF68"/>
</svg>
