<svg width="16" height="16" viewBox="0 0 16 16" fill="none" xmlns="http://www.w3.org/2000/svg">
<path d="M15 5H1V14H15V5Z" fill="#DADADA"/>
<path d="M12.0622 9.5L6 13L6 6L12.0622 9.5Z" fill="#B4B4B4"/>
<path fill-rule="evenodd" clip-rule="evenodd" d="M15 2V4H12.9999L14.9999 2H15ZM6.52856 2H4.41421L2.41421 4H4.52856L6.52856 2ZM7.94278 2L5.94278 4H8.05713L10.0571 2H7.94278ZM11.5857 4H9.47134L11.4713 2H13.5857L11.5857 4ZM1 2H3L1 4V2ZM1 5H15V14H1V5ZM16 1H0V15H16V1ZM6 6L12.0622 9.5L6 13V6ZM7 7.73205L10.0622 9.5L7 11.2679V7.73205Z" fill="#444444"/>
</svg>
