<svg width="16" height="16" viewBox="0 0 16 16" fill="none" xmlns="http://www.w3.org/2000/svg">
<path opacity="0.5" fill-rule="evenodd" clip-rule="evenodd" d="M0 1H16V11.0505C15.3647 10.4022 14.4793 10 13.5 10C12.7564 10 12.0669 10.2317 11.5 10.6272C10.9331 10.2317 10.2436 10 9.5 10C7.567 10 6 11.5669 6 13.5C6 14.0368 6.12084 14.5454 6.33679 15H0V1Z" fill="white"/>
<path fill-rule="evenodd" clip-rule="evenodd" d="M1 2H15V11.4998C14.5822 11.186 14.0628 11 13.5 11C12.6822 11 11.9561 11.3927 11.5 11.9998C11.0439 11.3927 10.3178 11 9.5 11C8.11929 11 7 12.1193 7 13.5C7 13.6712 7.01722 13.8384 7.05001 14H1V2Z" fill="white"/>
<path d="M10.5 7C11.3284 7 12 6.32843 12 5.5C12 4.67157 11.3284 4 10.5 4C9.67157 4 9 4.67157 9 5.5C9 6.32843 9.67157 7 10.5 7Z" fill="#FF794C"/>
<path opacity="0.2" fill-rule="evenodd" clip-rule="evenodd" d="M15 10.3368V2H1V14H6.03544C6.08594 14.3531 6.18913 14.6892 6.33679 15H0V1H16V11.0505C15.7129 10.7575 15.3748 10.5148 15 10.3368Z" fill="black"/>
<path fill-rule="evenodd" clip-rule="evenodd" d="M13.0311 10.0311L11.5 8.5L9.96889 10.0311C10.5328 10.1066 11.0543 10.3163 11.5 10.6272C11.9457 10.3163 12.4672 10.1066 13.0311 10.0311ZM8.61329 10.1133L6 7.5L1 12.5V14H6.03544C6.01208 13.8367 6 13.6698 6 13.5C6 11.8733 7.10966 10.5059 8.61329 10.1133Z" fill="#B0E5C3"/>
<path fill-rule="evenodd" clip-rule="evenodd" d="M13.7135 10.0064L11.5001 7.79297L9.28665 10.0064C9.35722 10.0022 9.42836 10 9.5 10C9.86502 10 10.217 10.0558 10.5478 10.1594L11.5001 9.20718L12.4523 10.1594C12.7831 10.0558 13.135 10 13.5 10C13.5717 10 13.6429 10.0022 13.7135 10.0064ZM9.21828 10.0112L6.00008 6.79297L1 11.793V13.2073L6.00008 8.20718L8.08896 10.2961C8.43905 10.1417 8.81924 10.043 9.21828 10.0112Z" fill="#39BF68"/>
<path fill-rule="evenodd" clip-rule="evenodd" d="M9.5 11C10.3178 11 11.0439 11.3927 11.5 11.9998C11.9561 11.3927 12.6822 11 13.5 11C14.8807 11 16 12.1193 16 13.5C16 14.8807 14.8807 16 13.5 16C12.6822 16 11.9561 15.6073 11.5 15.0002C11.0439 15.6073 10.3178 16 9.5 16C8.11929 16 7 14.8807 7 13.5C7 12.1193 8.11929 11 9.5 11ZM10.9146 13H9.5C9.22386 13 9 13.2239 9 13.5C9 13.7761 9.22386 14 9.5 14H10.9146C10.7087 14.5826 10.1531 15 9.5 15C8.67157 15 8 14.3284 8 13.5C8 12.6716 8.67157 12 9.5 12C10.1531 12 10.7087 12.4174 10.9146 13ZM12.0854 14H13.5C13.7761 14 14 13.7761 14 13.5C14 13.2239 13.7761 13 13.5 13H12.0854C12.2913 12.4174 12.8469 12 13.5 12C14.3284 12 15 12.6716 15 13.5C15 14.3284 14.3284 15 13.5 15C12.8469 15 12.2913 14.5826 12.0854 14Z" fill="#888888"/>
</svg>
