<svg width="16" height="16" viewBox="0 0 16 16" fill="none" xmlns="http://www.w3.org/2000/svg">
<path opacity="0.5" fill-rule="evenodd" clip-rule="evenodd" d="M13 2H14C14.2652 2 14.5196 2.10536 14.7071 2.29289C14.8946 2.48043 15 2.73478 15 3V10.3368C14.5454 10.1208 14.0368 10 13.5 10C12.9632 10 12.4546 10.1208 12 10.3368V12H6.33682C6.12085 12.4546 6 12.9632 6 13.5C6 14.0368 6.12085 14.5454 6.33682 15H5C4.73481 14.9999 4.48049 14.8945 4.293 14.707L2.293 12.707C2.10545 12.5195 2.00006 12.2652 2 12V1C2 0.734784 2.10536 0.48043 2.29289 0.292893C2.48043 0.105357 2.73478 0 3 0H12C12.2652 0 12.5196 0.105357 12.7071 0.292893C12.8946 0.48043 13 0.734784 13 1V2Z" fill="white"/>
<path d="M12 1H5V12H12V1Z" fill="white"/>
<path opacity="0.2" fill-rule="evenodd" clip-rule="evenodd" d="M13 2H14C14.2652 2 14.5196 2.10536 14.7071 2.29289C14.8946 2.48043 15 2.73478 15 3V10.3368C14.6891 10.1891 14.3531 10.0859 14 10.0354V3L13 2ZM13 10.0354V2V1C13 0.734784 12.8946 0.48043 12.7071 0.292893C12.5196 0.105357 12.2652 0 12 0H3C2.73478 0 2.48043 0.105357 2.29289 0.292893C2.10536 0.48043 2 0.734784 2 1V12C2.00006 12.2652 2.10545 12.5195 2.293 12.707L4.293 14.707C4.48049 14.8945 4.73481 14.9999 5 15H6.33682C6.18915 14.6891 6.08595 14.3531 6.03544 14H5L4 13H6.03544C6.08595 12.6469 6.18915 12.3109 6.33682 12H5V1H12V10.3368C12.3109 10.1891 12.6469 10.0859 13 10.0354ZM4 1H3V12H4V1Z" fill="black"/>
<path fill-rule="evenodd" clip-rule="evenodd" d="M13 10.0354V2L14 3V10.0354C13.8367 10.0121 13.6698 10 13.5 10C13.3302 10 13.1633 10.0121 13 10.0354ZM6.03544 13H4L5 14H6.03544C6.01209 13.8367 6 13.6698 6 13.5C6 13.3302 6.01209 13.1633 6.03544 13Z" fill="#EBEBEB"/>
<path d="M4 1H3V12H4V1Z" fill="white"/>
<path d="M8 4H1V6H8V4Z" fill="#B0E5C3"/>
<path d="M8 4V6H1V4H8ZM9 3H0V7H9V3Z" fill="#39BF68"/>
<path fill-rule="evenodd" clip-rule="evenodd" d="M9.5 11C10.3178 11 11.0439 11.3927 11.5 11.9998C11.9561 11.3927 12.6822 11 13.5 11C14.8807 11 16 12.1193 16 13.5C16 14.8807 14.8807 16 13.5 16C12.6822 16 11.9561 15.6073 11.5 15.0002C11.0439 15.6073 10.3178 16 9.5 16C8.11929 16 7 14.8807 7 13.5C7 12.1193 8.11929 11 9.5 11ZM10.9146 13H9.5C9.22386 13 9 13.2239 9 13.5C9 13.7761 9.22386 14 9.5 14H10.9146C10.7087 14.5826 10.1531 15 9.5 15C8.67157 15 8 14.3284 8 13.5C8 12.6716 8.67157 12 9.5 12C10.1531 12 10.7087 12.4174 10.9146 13ZM12.0854 14H13.5C13.7761 14 14 13.7761 14 13.5C14 13.2239 13.7761 13 13.5 13H12.0854C12.2913 12.4174 12.8469 12 13.5 12C14.3284 12 15 12.6716 15 13.5C15 14.3284 14.3284 15 13.5 15C12.8469 15 12.2913 14.5826 12.0854 14Z" fill="#888888"/>
</svg>
