<svg width="16" height="16" viewBox="0 0 16 16" fill="none" xmlns="http://www.w3.org/2000/svg">
<path opacity="0.5" fill-rule="evenodd" clip-rule="evenodd" d="M1.5 0H9.70706L14.5 4.793V10.1449C14.1831 10.0506 13.8475 10 13.5 10C12.7564 10 12.0669 10.2317 11.5 10.6272C10.9331 10.2317 10.2436 10 9.5 10C7.567 10 6 11.5669 6 13.5C6 14.4794 6.40222 15.3648 7.05047 16H1.5V0Z" fill="white"/>
<path fill-rule="evenodd" clip-rule="evenodd" d="M13.5 5.207L9.293 1H2.50003V15H7.49982C7.18597 14.5822 7 14.0628 7 13.5C7 12.1193 8.11929 11 9.5 11C10.3178 11 11.0439 11.3927 11.5 11.9998C11.9561 11.3927 12.6822 11 13.5 11C13.5 11 13.5 11 13.5 11V5.207Z" fill="white"/>
<path fill-rule="evenodd" clip-rule="evenodd" d="M9.5 11C10.3178 11 11.0439 11.3927 11.5 11.9998C11.9561 11.3927 12.6822 11 13.5 11C14.8807 11 16 12.1193 16 13.5C16 14.8807 14.8807 16 13.5 16C12.6822 16 11.9561 15.6073 11.5 15.0002C11.0439 15.6073 10.3178 16 9.5 16C8.11929 16 7 14.8807 7 13.5C7 12.1193 8.11929 11 9.5 11ZM10.9146 13H9.5C9.22386 13 9 13.2239 9 13.5C9 13.7761 9.22386 14 9.5 14H10.9146C10.7087 14.5826 10.1531 15 9.5 15C8.67157 15 8 14.3284 8 13.5C8 12.6716 8.67157 12 9.5 12C10.1531 12 10.7087 12.4174 10.9146 13ZM12.0854 14H13.5C13.7761 14 14 13.7761 14 13.5C14 13.2239 13.7761 13 13.5 13H12.0854C12.2913 12.4174 12.8469 12 13.5 12C14.3284 12 15 12.6716 15 13.5C15 14.3284 14.3284 15 13.5 15C12.8469 15 12.2913 14.5826 12.0854 14Z" fill="#888888"/>
<path opacity="0.2" fill-rule="evenodd" clip-rule="evenodd" d="M1.5 0H9.707L14.5 4.793V10.1449C14.1831 10.0506 13.8475 10 13.5 10V5.5H9V1H2.5V15H6.33679C6.51484 15.3748 6.75753 15.7129 7.05047 16H1.5V0ZM12.793 4.5L10 1.707V4.5H12.793Z" fill="black"/>
<path fill-rule="evenodd" clip-rule="evenodd" d="M9 8L7.00002 10.8571L6 9.4285L3.5 12.9999H5.50005L5.5 13H7.05001C7.28164 11.8589 8.29052 11 9.5 11C10.3178 11 11.0439 11.3927 11.5 11.9998C11.551 11.9318 11.6055 11.8666 11.663 11.8043L9 8Z" fill="#39BF68"/>
<path opacity="0.08" d="M10 1.70703V4.5H12.793L10 1.70703Z" fill="black"/>
<path d="M6.25 7.5C6.94036 7.5 7.5 6.94036 7.5 6.25C7.5 5.55964 6.94036 5 6.25 5C5.55964 5 5 5.55964 5 6.25C5 6.94036 5.55964 7.5 6.25 7.5Z" fill="#FF794C"/>
</svg>
