<svg width="16" height="16" viewBox="0 0 16 16" fill="none" xmlns="http://www.w3.org/2000/svg">
<path d="M15 4.5H1V14H15V4.5Z" fill="#DADADA"/>
<path d="M11.9952 9.25L5.5 13L5.5 5.5L11.9952 9.25Z" fill="#B4B4B4"/>
<path fill-rule="evenodd" clip-rule="evenodd" d="M11.9952 9.25L5.5 5.5V13L11.9952 9.25ZM9.99519 9.25L6.5 7.23205L6.5 11.2679L9.99519 9.25Z" fill="#444444"/>
<path fill-rule="evenodd" clip-rule="evenodd" d="M15 3.5V2H14.5L13 3.5H15ZM7.77627 2H9.72412L8.22412 3.5H6.27627L7.77627 2ZM9.63833 3.5L11.1383 2H13.0858L11.5858 3.5H9.63833ZM3 2H1V3.5H1.5L3 2ZM4.41421 2L2.91421 3.5H4.86206L6.36206 2H4.41421ZM15 4.5H1V14H15V4.5ZM0 1H16V15H0V1Z" fill="#444444"/>
</svg>
