<svg width="16" height="16" viewBox="0 0 16 16" fill="none" xmlns="http://www.w3.org/2000/svg">
<path d="M14 2H1V14H14V2Z" fill="white"/>
<path opacity="0.04" d="M14 2H1V5H14V2Z" fill="black"/>
<g opacity="0.5">
<path d="M14 2V14H1V2H14ZM14 1H1C0.734784 1 0.48043 1.10536 0.292893 1.29289C0.105357 1.48043 0 1.73478 0 2L0 15H15V2C15 1.73478 14.8946 1.48043 14.7071 1.29289C14.5196 1.10536 14.2652 1 14 1Z" fill="white"/>
</g>
<path opacity="0.2" d="M14 1H1C0.734784 1 0.48043 1.10536 0.292893 1.29289C0.105357 1.48043 0 1.73478 0 2L0 15H15V2C15 1.73478 14.8946 1.48043 14.7071 1.29289C14.5196 1.10536 14.2652 1 14 1ZM14 14H1V6H14V14ZM14 5H1V2H14V5Z" fill="black"/>
<path d="M3 3H2V4H3V3Z" fill="#E24940"/>
<path d="M5 3H4V4H5V3Z" fill="#E0A32A"/>
<path d="M7 3H6V4H7V3Z" fill="#28AD31"/>
<path d="M5 9.5H2.5V12.5H5V9.5Z" fill="#B3C7F5"/>
<path d="M5 12H3V10H5V9H2V13H5V12Z" fill="#4072E5"/>
<path d="M15 8.5H7C6.72386 8.5 6.5 8.72386 6.5 9V15C6.5 15.2761 6.72386 15.5 7 15.5H15C15.2761 15.5 15.5 15.2761 15.5 15V9C15.5 8.72386 15.2761 8.5 15 8.5Z" fill="#B4B4B4"/>
<path d="M11 13.5C11.8284 13.5 12.5 12.8284 12.5 12C12.5 11.1716 11.8284 10.5 11 10.5C10.1716 10.5 9.5 11.1716 9.5 12C9.5 12.8284 10.1716 13.5 11 13.5Z" fill="#DADADA"/>
<path d="M15 9V15H7V9H15ZM15 8H7C6.73478 8 6.48043 8.10536 6.29289 8.29289C6.10536 8.48043 6 8.73478 6 9V15C6 15.2652 6.10536 15.5196 6.29289 15.7071C6.48043 15.8946 6.73478 16 7 16H15C15.2652 16 15.5196 15.8946 15.7071 15.7071C15.8946 15.5196 16 15.2652 16 15V9C16 8.73478 15.8946 8.48043 15.7071 8.29289C15.5196 8.10536 15.2652 8 15 8ZM11 11C11.1978 11 11.3911 11.0586 11.5556 11.1685C11.72 11.2784 11.8482 11.4346 11.9239 11.6173C11.9996 11.8 12.0194 12.0011 11.9808 12.1951C11.9422 12.3891 11.847 12.5673 11.7071 12.7071C11.5673 12.847 11.3891 12.9422 11.1951 12.9808C11.0011 13.0194 10.8 12.9996 10.6173 12.9239C10.4346 12.8482 10.2784 12.72 10.1685 12.5556C10.0586 12.3911 10 12.1978 10 12C10 11.7348 10.1054 11.4804 10.2929 11.2929C10.4804 11.1054 10.7348 11 11 11ZM11 10C10.6044 10 10.2178 10.1173 9.88886 10.3371C9.55996 10.5568 9.30362 10.8692 9.15224 11.2346C9.00087 11.6001 8.96126 12.0022 9.03843 12.3902C9.1156 12.7781 9.30608 13.1345 9.58579 13.4142C9.86549 13.6939 10.2219 13.8844 10.6098 13.9616C10.9978 14.0387 11.3999 13.9991 11.7654 13.8478C12.1308 13.6964 12.4432 13.44 12.6629 13.1111C12.8827 12.7822 13 12.3956 13 12C13 11.4696 12.7893 10.9609 12.4142 10.5858C12.0391 10.2107 11.5304 10 11 10ZM13 10.5H14V9.5H13V10.5Z" fill="#444444"/>
</svg>
