<svg width="16" height="16" viewBox="0 0 16 16" fill="none" xmlns="http://www.w3.org/2000/svg">
<path d="M6.5 2.5C6.5 2.10218 6.65804 1.72064 6.93934 1.43934C7.22064 1.15804 7.60218 1 8 1C8.39782 1 8.77936 1.15804 9.06066 1.43934C9.34196 1.72064 9.5 2.10218 9.5 2.5V8.5C9.5 8.89782 9.34196 9.27936 9.06066 9.56066C8.77936 9.84196 8.39782 10 8 10C7.60218 10 7.22064 9.84196 6.93934 9.56066C6.65804 9.27936 6.5 8.89782 6.5 8.5V2.5Z" fill="#DADADA"/>
<path d="M8 0C7.33696 0 6.70107 0.263392 6.23223 0.732233C5.76339 1.20107 5.5 1.83696 5.5 2.5V8.5C5.5 9.16304 5.76339 9.79893 6.23223 10.2678C6.70107 10.7366 7.33696 11 8 11C8.66304 11 9.29893 10.7366 9.76777 10.2678C10.2366 9.79893 10.5 9.16304 10.5 8.5V2.5C10.5 1.83696 10.2366 1.20107 9.76777 0.732233C9.29893 0.263392 8.66304 0 8 0ZM9.5 8.5C9.5 8.89782 9.34196 9.27936 9.06066 9.56066C8.77936 9.84196 8.39782 10 8 10C7.60218 10 7.22064 9.84196 6.93934 9.56066C6.65804 9.27936 6.5 8.89782 6.5 8.5V2.5C6.5 2.10218 6.65804 1.72064 6.93934 1.43934C7.22064 1.15804 7.60218 1 8 1C8.39782 1 8.77936 1.15804 9.06066 1.43934C9.34196 1.72064 9.5 2.10218 9.5 2.5V8.5ZM8.5 12.949V15H11.5V16H4.5V15H7.5V12.949C6.40305 12.8286 5.38887 12.3084 4.65106 11.4878C3.91325 10.6671 3.50349 9.60353 3.5 8.5V6H4.5V8.5C4.5 9.42826 4.86875 10.3185 5.52513 10.9749C6.1815 11.6313 7.07174 12 8 12C8.92826 12 9.8185 11.6313 10.4749 10.9749C11.1313 10.3185 11.5 9.42826 11.5 8.5V6H12.5V8.5C12.4965 9.60353 12.0868 10.6671 11.3489 11.4878C10.6111 12.3084 9.59695 12.8286 8.5 12.949Z" fill="#444444"/>
</svg>
