<svg width="16" height="16" viewBox="0 0 16 16" fill="none" xmlns="http://www.w3.org/2000/svg">
<path d="M12.5 9C12.5 7 10.463 6.282 8.66502 5.653C6.75302 4.984 5.50002 4.455 5.50002 3.25C5.50002 2.187 6.48102 1.5 8.00002 1.5C9.51902 1.5 10.5 2.285 10.5 3.5H11.5C11.5 1.706 10.094 0.5 8.00002 0.5C5.90602 0.5 4.50002 1.605 4.50002 3.25C4.49551 3.7734 4.66506 4.28346 4.98202 4.7C4.53911 4.89911 4.16341 5.22232 3.90039 5.63052C3.63737 6.03872 3.4983 6.5144 3.50002 7C3.50002 9.005 5.53702 9.718 7.33502 10.347C9.24702 11.017 10.5 11.547 10.5 12.747C10.5 13.81 9.51902 14.497 8.00002 14.497C6.48102 14.497 5.50002 13.712 5.50002 12.497H4.50002C4.50002 14.291 5.90602 15.497 8.00002 15.497C10.094 15.497 11.5 14.392 11.5 12.747C11.5049 12.2257 11.3368 11.7176 11.022 11.302C11.4638 11.1012 11.8382 10.7772 12.1004 10.3689C12.3626 9.96058 12.5013 9.48525 12.5 9ZM10.232 10.546C9.42801 10.0574 8.56552 9.6724 7.66502 9.4C5.75302 8.733 4.50002 8.205 4.50002 7C4.50972 6.63897 4.63811 6.2912 4.86533 6.01048C5.09255 5.72975 5.40594 5.53172 5.75702 5.447C6.56391 5.93923 7.43021 6.32668 8.33502 6.6C10.247 7.266 11.5 7.8 11.5 9C11.4872 9.361 11.3561 9.7078 11.1271 9.98711C10.898 10.2664 10.5835 10.4628 10.232 10.546Z" fill="#CC9200"/>
</svg>
