<svg width="16" height="16" viewBox="0 0 16 16" fill="none" xmlns="http://www.w3.org/2000/svg">
<path d="M13 8.5C13 6.5 10.963 5.782 9.16502 5.153C7.25302 4.484 6.00002 3.955 6.00002 2.75C6.00002 1.687 6.98102 1 8.50002 1C10.019 1 11 1.785 11 3H12C12 1.206 10.594 0 8.50002 0C6.40602 0 5.00002 1.105 5.00002 2.75C4.99551 3.2734 5.16506 3.78346 5.48202 4.2C5.03911 4.39911 4.66341 4.72232 4.40039 5.13052C4.13737 5.53872 3.9983 6.0144 4.00002 6.5C4.00002 8.505 6.03702 9.218 7.83502 9.847C9.74702 10.517 11 11.047 11 12.247C11 13.31 10.019 13.997 8.50002 13.997C6.98102 13.997 6.00002 13.212 6.00002 11.997H5.00002C5.00002 13.791 6.40602 14.997 8.50002 14.997C10.594 14.997 12 13.892 12 12.247C12.0049 11.7257 11.8368 11.2176 11.522 10.802C11.9638 10.6012 12.3382 10.2772 12.6004 9.86891C12.8626 9.46058 13.0013 8.98525 13 8.5ZM10.732 10.046C9.92801 9.55745 9.06552 9.1724 8.16502 8.9C6.25302 8.233 5.00002 7.705 5.00002 6.5C5.00972 6.13897 5.13811 5.7912 5.36533 5.51048C5.59255 5.22975 5.90594 5.03172 6.25702 4.947C7.06391 5.43923 7.93021 5.82668 8.83502 6.1C10.747 6.766 12 7.3 12 8.5C11.9872 8.861 11.8561 9.2078 11.6271 9.48711C11.398 9.76641 11.0835 9.96277 10.732 10.046Z" fill="#CC9200"/>
</svg>
