<svg width="16" height="16" viewBox="0 0 16 16" fill="none" xmlns="http://www.w3.org/2000/svg">
<path opacity="0.5" d="M14 0H2V16H14V0Z" fill="white"/>
<path d="M13 1H3V15H13V1Z" fill="white"/>
<path opacity="0.4" d="M11 3H5V5H11V3Z" fill="#CC7A52"/>
<path opacity="0.2" d="M13 1V15H3V1H13ZM14 0H2V16H14V0Z" fill="black"/>
<path d="M11 3V5H5V3H11ZM12 2H4V6H12V2Z" fill="#CC7A52"/>
<path d="M9 8H4V7H9V8ZM8 9H4V10H8V9ZM9 11H4V12H9V11ZM8 13H4V14H8V13Z" fill="#444444"/>
<g opacity="0.4">
<path d="M10 7H12V8H10V7ZM10 10H12V9H10V10ZM10 12H12V11H10V12Z" fill="#444444"/>
</g>
</svg>
