<svg width="16" height="16" viewBox="0 0 16 16" fill="none" xmlns="http://www.w3.org/2000/svg">
<path d="M7.938 1.872L7.719 1.723C6.789 1.092 4.3 0.607 1.516 0.517L1 0.5V13.5L1.485 13.515C3.46636 13.5226 5.43509 13.8308 7.324 14.429L8 14.684V2.179L7.938 1.872Z" fill="#B3C7F5"/>
<path d="M8.062 1.872L8.281 1.723C9.211 1.092 11.704 0.607 14.481 0.517L15 0.5V13.5L14.515 13.515C12.5336 13.5226 10.5649 13.8308 8.676 14.429L8 14.684V2.179L8.062 1.872Z" fill="white"/>
<path d="M8 1.309C6.874 0.546 3.946 0 0.5 0V14C2.87737 13.9087 5.25101 14.26 7.5 15.036C7.67376 15.1133 7.84098 15.2046 8 15.309C8.15902 15.2046 8.32624 15.1133 8.5 15.036C10.749 14.26 13.1226 13.9087 15.5 14V0C12.054 0 9.126 0.546 8 1.309ZM7.5 13.961C5.56008 13.341 3.53659 13.0219 1.5 13.015V1.015C4.461 1.115 6.688 1.627 7.439 2.136L7.5 2.178V13.961ZM14.5 13.015C12.4634 13.0219 10.4399 13.341 8.5 13.961V2.179L8.561 2.137C9.312 1.628 11.539 1.113 14.5 1.016V13.015Z" fill="#4072E5"/>
<path d="M13.5 4.06601C12.1472 4.13532 10.806 4.35159 9.5 4.71101V3.67001C10.8108 3.34112 12.1504 3.14018 13.5 3.07001V4.06601ZM13.5 6.06601C12.1471 6.13504 10.8058 6.35166 9.5 6.71201V5.67101C10.8107 5.34159 12.1503 5.14064 13.5 5.07101V6.06601ZM13.5 10.066C12.1471 10.135 10.8058 10.3517 9.5 10.712V9.67101C10.8107 9.34159 12.1503 9.14064 13.5 9.07101V10.066ZM13.5 8.06601C12.1471 8.13504 10.8058 8.35166 9.5 8.71201V7.67101C10.8107 7.34159 12.1503 7.14064 13.5 7.07101V8.06601Z" fill="#444444"/>
</svg>
