<svg width="16" height="16" viewBox="0 0 16 16" fill="none" xmlns="http://www.w3.org/2000/svg">
<path d="M13 2V13H12V14H3V15H14V2H13Z" fill="white"/>
<path d="M14 2H13L14 3V15H4L3 14H12C12.2652 14 12.5196 13.8946 12.7071 13.7071C12.8946 13.5196 13 13.2652 13 13V1C13 0.734784 12.8946 0.48043 12.7071 0.292893C12.5196 0.105357 12.2652 0 12 0L2 0C1.73478 0 1.48043 0.105357 1.29289 0.292893C1.10536 0.48043 1 0.734784 1 1V13C1.00006 13.2652 1.10545 13.5195 1.293 13.707L3.293 15.707C3.48049 15.8945 3.73481 15.9999 4 16H14C14.2652 16 14.5196 15.8946 14.7071 15.7071C14.8946 15.5196 15 15.2652 15 15V3C15 2.73478 14.8946 2.48043 14.7071 2.29289C14.5196 2.10536 14.2652 2 14 2ZM4 1H12V13H4V1ZM2 1H3V13H2V1Z" fill="#4072E5"/>
<path d="M12 1H4V13H12V1Z" fill="#B3C7F5"/>
<path d="M3 1H2V13H3V1Z" fill="#8DAAF0"/>
</svg>
