<svg width="16" height="16" viewBox="0 0 16 16" fill="none" xmlns="http://www.w3.org/2000/svg">
<path opacity="0.5" d="M4.99989 11H0.999891C0.922521 11 0.846201 10.9821 0.776938 10.9476C0.707675 10.9131 0.647359 10.863 0.600735 10.8013C0.554112 10.7395 0.522453 10.6678 0.508251 10.5918C0.49405 10.5157 0.497692 10.4374 0.518891 10.363L2.51889 3.36299C2.5486 3.25832 2.61164 3.1662 2.69845 3.1006C2.78525 3.035 2.89109 2.99951 2.99989 2.99951C3.10869 2.99951 3.21453 3.035 3.30134 3.1006C3.38814 3.1662 3.45118 3.25832 3.48089 3.36299L5.48089 10.363C5.50209 10.4374 5.50573 10.5157 5.49153 10.5918C5.47733 10.6678 5.44567 10.7395 5.39905 10.8013C5.35242 10.863 5.29211 10.9131 5.22284 10.9476C5.15358 10.9821 5.07726 11 4.99989 11ZM1.66289 9.99999H4.33689L2.99989 5.31999L1.66289 9.99999ZM14.9999 11H10.9999C10.9225 11 10.8462 10.9821 10.7769 10.9476C10.7077 10.9131 10.6474 10.863 10.6007 10.8013C10.5541 10.7395 10.5225 10.6678 10.5083 10.5918C10.494 10.5157 10.4977 10.4374 10.5189 10.363L12.5189 3.36299C12.5486 3.25832 12.6116 3.1662 12.6984 3.1006C12.7853 3.035 12.8911 2.99951 12.9999 2.99951C13.1087 2.99951 13.2145 3.035 13.3013 3.1006C13.3881 3.1662 13.4512 3.25832 13.4809 3.36299L15.4809 10.363C15.5021 10.4374 15.5057 10.5157 15.4915 10.5918C15.4773 10.6678 15.4457 10.7395 15.399 10.8013C15.3524 10.863 15.2921 10.9131 15.2228 10.9476C15.1536 10.9821 15.0773 11 14.9999 11ZM11.6629 9.99999H14.3369L12.9999 5.31999L11.6629 9.99999Z" fill="white"/>
<path opacity="0.2" d="M4.99989 11H0.999891C0.922521 11 0.846201 10.9821 0.776938 10.9476C0.707675 10.9131 0.647359 10.863 0.600735 10.8013C0.554112 10.7395 0.522453 10.6678 0.508251 10.5918C0.49405 10.5157 0.497692 10.4374 0.518891 10.363L2.51889 3.36299C2.5486 3.25832 2.61164 3.1662 2.69845 3.1006C2.78525 3.035 2.89109 2.99951 2.99989 2.99951C3.10869 2.99951 3.21453 3.035 3.30134 3.1006C3.38814 3.1662 3.45118 3.25832 3.48089 3.36299L5.48089 10.363C5.50209 10.4374 5.50573 10.5157 5.49153 10.5918C5.47733 10.6678 5.44567 10.7395 5.39905 10.8013C5.35242 10.863 5.29211 10.9131 5.22284 10.9476C5.15358 10.9821 5.07726 11 4.99989 11ZM1.66289 9.99999H4.33689L2.99989 5.31999L1.66289 9.99999ZM14.9999 11H10.9999C10.9225 11 10.8462 10.9821 10.7769 10.9476C10.7077 10.9131 10.6474 10.863 10.6007 10.8013C10.5541 10.7395 10.5225 10.6678 10.5083 10.5918C10.494 10.5157 10.4977 10.4374 10.5189 10.363L12.5189 3.36299C12.5486 3.25832 12.6116 3.1662 12.6984 3.1006C12.7853 3.035 12.8911 2.99951 12.9999 2.99951C13.1087 2.99951 13.2145 3.035 13.3013 3.1006C13.3881 3.1662 13.4512 3.25832 13.4809 3.36299L15.4809 10.363C15.5021 10.4374 15.5057 10.5157 15.4915 10.5918C15.4773 10.6678 15.4457 10.7395 15.399 10.8013C15.3524 10.863 15.2921 10.9131 15.2228 10.9476C15.1536 10.9821 15.0773 11 14.9999 11ZM11.6629 9.99999H14.3369L12.9999 5.31999L11.6629 9.99999Z" fill="black"/>
<path d="M5 10.5C5 11.8398 4.33984 12.5 3 12.5C1.66016 12.5 1 11.8398 1 10.5H5ZM15 10.5C15 11.8398 14.3398 12.5 13 12.5C11.6602 12.5 11 11.8398 11 10.5H15Z" fill="#EBD399"/>
<path d="M14.4609 11C14.3281 11.7031 13.8789 12 13 12C12.1211 12 11.6719 11.7031 11.5391 11H14.4609ZM15.5 10.5C15.5 10.2227 15.2773 10 15 10H11C10.7227 10 10.5 10.2227 10.5 10.5C10.5 12.1133 11.3867 13 13 13C14.6133 13 15.5 12.1133 15.5 10.5ZM4.46094 11C4.32812 11.7031 3.87891 12 3 12C2.12109 12 1.67188 11.7031 1.53906 11H4.46094ZM5.5 10.5C5.5 10.2227 5.27734 10 5 10H1C0.722656 10 0.5 10.2227 0.5 10.5C0.5 12.1133 1.38672 13 3 13C4.61328 13 5.5 12.1133 5.5 10.5ZM11 15H9.5C9.5 14.4492 9.05078 14 8.5 14V4H7.5V14C6.94922 14 6.5 14.4492 6.5 15H5C4.72266 15 4.5 15.2227 4.5 15.5C4.5 15.7773 4.72266 16 5 16H11C11.2773 16 11.5 15.7773 11.5 15.5C11.5 15.2227 11.2773 15 11 15ZM13.5 2.5C13.5 2.77734 13.2773 3 13 3H3C2.72266 3 2.5 2.77734 2.5 2.5C2.5 2.22266 2.72266 2 3 2H7.5V0.5C7.5 0.222656 7.72266 0 8 0C8.27734 0 8.5 0.222656 8.5 0.5V2H13C13.2773 2 13.5 2.22266 13.5 2.5Z" fill="#CC9200"/>
</svg>
