<svg width="16" height="16" viewBox="0 0 16 16" fill="none" xmlns="http://www.w3.org/2000/svg">
<path opacity="0.5" d="M5.50013 11H1.50014C1.42276 11 1.34645 10.9821 1.27718 10.9476C1.20792 10.9131 1.1476 10.863 1.10098 10.8013C1.05436 10.7395 1.0227 10.6678 1.0085 10.5918C0.994294 10.5157 0.997936 10.4374 1.01914 10.363L3.01914 3.36299C3.04884 3.25832 3.11188 3.1662 3.19869 3.1006C3.2855 3.035 3.39133 2.99951 3.50014 2.99951C3.60894 2.99951 3.71477 3.035 3.80158 3.1006C3.88839 3.1662 3.95143 3.25832 3.98114 3.36299L5.98113 10.363C6.00233 10.4374 6.00598 10.5157 5.99177 10.5918C5.97757 10.6678 5.94591 10.7395 5.89929 10.8013C5.85267 10.863 5.79235 10.9131 5.72309 10.9476C5.65382 10.9821 5.57751 11 5.50013 11ZM2.16314 9.99999H4.83714L3.50014 5.31999L2.16314 9.99999ZM15.5001 11H11.5001C11.4228 11 11.3464 10.9821 11.2772 10.9476C11.2079 10.9131 11.1476 10.863 11.101 10.8013C11.0544 10.7395 11.0227 10.6678 11.0085 10.5918C10.9943 10.5157 10.9979 10.4374 11.0191 10.363L13.0191 3.36299C13.0488 3.25832 13.1119 3.1662 13.1987 3.1006C13.2855 3.035 13.3913 2.99951 13.5001 2.99951C13.6089 2.99951 13.7148 3.035 13.8016 3.1006C13.8884 3.1662 13.9514 3.25832 13.9811 3.36299L15.9811 10.363C16.0023 10.4374 16.006 10.5157 15.9918 10.5918C15.9776 10.6678 15.9459 10.7395 15.8993 10.8013C15.8527 10.863 15.7924 10.9131 15.7231 10.9476C15.6538 10.9821 15.5775 11 15.5001 11ZM12.1631 9.99999H14.8371L13.5001 5.31999L12.1631 9.99999Z" fill="white"/>
<path opacity="0.2" d="M5.50013 11H1.50014C1.42276 11 1.34645 10.9821 1.27718 10.9476C1.20792 10.9131 1.1476 10.863 1.10098 10.8013C1.05436 10.7395 1.0227 10.6678 1.0085 10.5918C0.994294 10.5157 0.997936 10.4374 1.01914 10.363L3.01914 3.36299C3.04884 3.25832 3.11188 3.1662 3.19869 3.1006C3.2855 3.035 3.39133 2.99951 3.50014 2.99951C3.60894 2.99951 3.71477 3.035 3.80158 3.1006C3.88839 3.1662 3.95143 3.25832 3.98114 3.36299L5.98113 10.363C6.00233 10.4374 6.00598 10.5157 5.99177 10.5918C5.97757 10.6678 5.94591 10.7395 5.89929 10.8013C5.85267 10.863 5.79235 10.9131 5.72309 10.9476C5.65382 10.9821 5.57751 11 5.50013 11ZM2.16314 9.99999H4.83714L3.50014 5.31999L2.16314 9.99999ZM15.5001 11H11.5001C11.4228 11 11.3464 10.9821 11.2772 10.9476C11.2079 10.9131 11.1476 10.863 11.101 10.8013C11.0544 10.7395 11.0227 10.6678 11.0085 10.5918C10.9943 10.5157 10.9979 10.4374 11.0191 10.363L13.0191 3.36299C13.0488 3.25832 13.1119 3.1662 13.1987 3.1006C13.2855 3.035 13.3913 2.99951 13.5001 2.99951C13.6089 2.99951 13.7148 3.035 13.8016 3.1006C13.8884 3.1662 13.9514 3.25832 13.9811 3.36299L15.9811 10.363C16.0023 10.4374 16.006 10.5157 15.9918 10.5918C15.9776 10.6678 15.9459 10.7395 15.8993 10.8013C15.8527 10.863 15.7924 10.9131 15.7231 10.9476C15.6538 10.9821 15.5775 11 15.5001 11ZM12.1631 9.99999H14.8371L13.5001 5.31999L12.1631 9.99999Z" fill="black"/>
<path d="M5.50024 10.5C5.50024 11.8398 4.84009 12.5 3.50024 12.5C2.1604 12.5 1.50024 11.8398 1.50024 10.5H5.50024ZM15.5002 10.5C15.5002 11.8398 14.8401 12.5 13.5002 12.5C12.1604 12.5 11.5002 11.8398 11.5002 10.5H15.5002Z" fill="#EBD399"/>
<path d="M14.9612 11C14.8284 11.7031 14.3792 12 13.5002 12C12.6213 12 12.1721 11.7031 12.0393 11H14.9612ZM16.0002 10.5C16.0002 10.2227 15.7776 10 15.5002 10H11.5002C11.2229 10 11.0002 10.2227 11.0002 10.5C11.0002 12.1133 11.887 13 13.5002 13C15.1135 13 16.0002 12.1133 16.0002 10.5ZM4.96118 11C4.82837 11.7031 4.37915 12 3.50024 12C2.62134 12 2.17212 11.7031 2.03931 11H4.96118ZM6.00024 10.5C6.00024 10.2227 5.77759 10 5.50024 10H1.50024C1.2229 10 1.00024 10.2227 1.00024 10.5C1.00024 12.1133 1.88696 13 3.50024 13C5.11353 13 6.00024 12.1133 6.00024 10.5ZM11.5002 15H10.0002C10.0002 14.4492 9.55103 14 9.00024 14V4H8.00024V14C7.44946 14 7.00024 14.4492 7.00024 15H5.50024C5.2229 15 5.00024 15.2227 5.00024 15.5C5.00024 15.7773 5.2229 16 5.50024 16H11.5002C11.7776 16 12.0002 15.7773 12.0002 15.5C12.0002 15.2227 11.7776 15 11.5002 15ZM14.0002 2.5C14.0002 2.77734 13.7776 3 13.5002 3H3.50024C3.2229 3 3.00024 2.77734 3.00024 2.5C3.00024 2.22266 3.2229 2 3.50024 2H8.00024V0.5C8.00024 0.222656 8.2229 0 8.50024 0C8.77759 0 9.00024 0.222656 9.00024 0.5V2H13.5002C13.7776 2 14.0002 2.22266 14.0002 2.5Z" fill="#CC9200"/>
</svg>
