<svg width="16" height="16" viewBox="0 0 16 16" fill="none" xmlns="http://www.w3.org/2000/svg">
<path d="M15 1V14C12.7178 13.9532 10.4458 14.318 8.293 15.077C8.193 15.124 8.093 15.177 8 15.222C7.909 15.173 7.811 15.122 7.707 15.077C5.55418 14.318 3.28221 13.9532 1 14V1C4.456 1.053 6.89 1.657 7.719 2.219L8 2.414L8.281 2.223C9.11 1.661 11.544 1.057 15 1Z" fill="white"/>
<path opacity="0.4" d="M3.5 1.65698C4.17185 1.72452 4.83951 1.82868 5.5 1.96898V10.641L5.051 10.341L4.642 10.071L4.178 10.229L3.5 10.459V1.65698Z" fill="#DB2C3A"/>
<path d="M8 1.809C7.53341 1.52907 7.02792 1.3198 6.5 1.188V2.228C6.82975 2.32209 7.14552 2.45963 7.439 2.637L7.5 2.679V14.461C5.56008 13.841 3.53659 13.5219 1.5 13.515V1.515C1.844 1.527 2.177 1.545 2.5 1.566V0.566C1.858 0.528 1.194 0.5 0.5 0.5V14.5C2.87737 14.4087 5.25101 14.76 7.5 15.536C7.67376 15.6133 7.84098 15.7046 8 15.809C8.15902 15.7046 8.32624 15.6133 8.5 15.536C10.749 14.76 13.1226 14.4087 15.5 14.5V0.5C12.054 0.5 9.126 1.046 8 1.809ZM14.5 13.515C12.4634 13.5219 10.4399 13.841 8.5 14.461V2.679L8.561 2.637C9.312 2.128 11.539 1.613 14.5 1.516V13.515Z" fill="#4072E5"/>
<path d="M2.5 0.56897V11.859L4.5 11.179L6.5 12.5V1.18797C5.1915 0.844636 3.85107 0.637205 2.5 0.56897ZM5.5 10.641L5.051 10.341L4.642 10.071L4.178 10.229L3.5 10.459V1.65697C4.17185 1.72451 4.83951 1.82866 5.5 1.96897V10.641Z" fill="#DB2C3A"/>
</svg>
