<svg width="16" height="16" viewBox="0 0 16 16" fill="none" xmlns="http://www.w3.org/2000/svg">
<path d="M8 0.5C3.858 0.5 0.5 3.186 0.5 6.5C0.564737 7.66088 0.967724 8.77745 1.65929 9.7121C2.35086 10.6468 3.30079 11.3586 4.392 11.76C4.46255 12.1696 4.49868 12.5844 4.5 13C4.49962 13.7376 4.39079 14.4711 4.177 15.177C5.70308 14.7129 7.04197 13.7753 8 12.5C12.142 12.5 15.5 9.814 15.5 6.5C15.5 3.186 12.142 0.5 8 0.5Z" fill="#E0EFFF"/>
<path d="M3.428 15.927L3.698 15.032C3.89778 14.3731 3.99954 13.6885 4 13C3.99937 12.699 3.97866 12.3983 3.938 12.1C2.81718 11.6374 1.85144 10.865 1.15397 9.87314C0.456503 8.88131 0.0562058 7.71121 0 6.5C0 2.916 3.589 0 8 0C12.411 0 16 2.916 16 6.5C16 10.017 12.544 12.891 8.247 13C7.23366 14.2583 5.86654 15.1841 4.322 15.658L3.428 15.927ZM8 1C4.14 1 1 3.468 1 6.5C1.06604 7.56316 1.44129 8.58385 2.07962 9.43661C2.71795 10.2894 3.59154 10.937 4.593 11.3L4.84 11.409L4.885 11.675C4.96044 12.1127 4.99891 12.5559 5 13C5.00008 13.4619 4.95992 13.923 4.88 14.378C5.95416 13.8903 6.88921 13.1415 7.6 12.2L7.75 12H8C11.86 12 15 9.532 15 6.5C15 3.468 11.859 1 8 1Z" fill="#66ADFF"/>
</svg>
