<svg width="16" height="16" viewBox="0 0 16 16" fill="none" xmlns="http://www.w3.org/2000/svg">
<path opacity="0.5" d="M16 2H0V14H16V2Z" fill="white"/>
<path d="M15 3H1V13H15V3Z" fill="white"/>
<path opacity="0.2" d="M0 2V14H16V2H0ZM8.707 8.586C8.51947 8.77347 8.26516 8.87879 8 8.87879C7.73484 8.87879 7.48053 8.77347 7.293 8.586L1.707 3H14.293L8.707 8.586ZM6.586 9.293C6.96106 9.66794 7.46967 9.87857 8 9.87857C8.53033 9.87857 9.03894 9.66794 9.414 9.293L10 8.707L14.293 13H1.707L6 8.707L6.586 9.293ZM15 3.707V12.293L10.707 8L15 3.707ZM5.293 8L1 12.293V3.707L5.293 8Z" fill="black"/>
</svg>
