<svg width="16" height="16" viewBox="0 0 16 16" fill="none" xmlns="http://www.w3.org/2000/svg">
<path d="M14 3H3V15H14V3Z" fill="white"/>
<path d="M4 14V3H3V15H8V14H4Z" fill="#D9E3FA"/>
<path d="M4.5 13.5V0.5H7.5C7.76522 0.5 8.01957 0.605357 8.20711 0.792893C8.39464 0.98043 8.5 1.23478 8.5 1.5V13.5H4.5Z" fill="#B3C7F5"/>
<path d="M9 2V1.5C9 1.10218 8.84196 0.720644 8.56066 0.43934C8.27936 0.158035 7.89782 0 7.5 0L4 0V2H2V16H15V2H9ZM5 1H7.5C7.63261 1 7.75979 1.05268 7.85355 1.14645C7.94732 1.24021 8 1.36739 8 1.5V13H5V1ZM3 15V3H4V14H7.5C7.63261 14 7.75979 14.0527 7.85355 14.1464C7.94732 14.2402 8 14.3674 8 14.5C8 14.6326 7.94732 14.7598 7.85355 14.8536C7.75979 14.9473 7.63261 15 7.5 15H3ZM14 15H8.908C8.96722 14.8399 8.99834 14.6707 9 14.5V3H14V15Z" fill="#4072E5"/>
<path d="M10 10H13V11H10V10ZM10 13H13V12H10V13Z" fill="#444444"/>
<path d="M10 4V5H12V8H10V9H13V4H10Z" fill="#39BF68"/>
<path d="M12 5H10V8H12V5Z" fill="#B0E5C3"/>
</svg>
