<svg width="16" height="16" viewBox="0 0 16 16" fill="none" xmlns="http://www.w3.org/2000/svg">
<path opacity="0.5" d="M13 0H0V16H13V0Z" fill="white"/>
<path opacity="0.2" d="M12 1V15H1V1H12ZM13 0H0V16H13V0Z" fill="black"/>
<path d="M12 1H1V15H12V1Z" fill="white"/>
<path d="M13.4994 5.0002L12.9995 5.50012L13.4994 6.00005L13.9994 5.50012L13.4994 5.0002Z" fill="#E0AF97"/>
<path d="M13.9994 5.5002L13.4995 6.00012L13.9994 6.50005L14.4994 6.00012L13.9994 5.5002Z" fill="white"/>
<path d="M14.4994 6.0002L13.9995 6.50012L14.4994 7.00005L14.9994 6.50012L14.4994 6.0002Z" fill="#E0AF97"/>
<path d="M14.4998 3.9993L13.5 4.99915L14.9998 6.49892L15.9996 5.49907L14.4998 3.9993Z" fill="#DB2C3A"/>
<path d="M9 12.5L14.5 7L13 5.5L7.5 11L7 13L9 12.5Z" fill="#CC7A52"/>
<path d="M8.37517 11.125L8.13817 11.361L7.97217 12.028L8.63917 11.862L8.87517 11.625L8.37517 11.125Z" fill="#F5E4DC"/>
<path opacity="0.18" d="M8.37517 11.125L8.13817 11.361L7.97217 12.028L8.63917 11.862L8.87517 11.625L8.37517 11.125Z" fill="#CC7A52"/>
</svg>
