<svg width="16" height="16" viewBox="0 0 16 16" fill="none" xmlns="http://www.w3.org/2000/svg">
<path d="M2.5 14.5V1.5H15.5V13.551C15.4997 13.8026 15.3997 14.0438 15.2218 14.2218C15.0438 14.3997 14.8026 14.4997 14.551 14.5H2.5Z" fill="#F3F3F3"/>
<path d="M1.5 14.5C1.23478 14.5 0.98043 14.3946 0.792893 14.2071C0.605357 14.0196 0.5 13.7652 0.5 13.5V4H2.5V13.5C2.5 13.7652 2.39464 14.0196 2.20711 14.2071C2.01957 14.3946 1.76522 14.5 1.5 14.5Z" fill="#DBDBDB"/>
<path d="M13.5 4H4.5V6H13.5V4Z" fill="#C6D5F7"/>
<path d="M13 4.5V5.5H5V4.5H13ZM14 3.5H4V6.5H14V3.5Z" fill="#4072E5"/>
<path d="M14 7.5H10V8.5H14V7.5ZM14 9.5H10V10.5H14V9.5ZM14 11.5H4V12.5H14V11.5ZM2 1V3.5H0V13.5C0 13.8978 0.158035 14.2794 0.43934 14.5607C0.720644 14.842 1.10218 15 1.5 15H14.551C14.9353 15 15.3039 14.8473 15.5756 14.5756C15.8473 14.3039 16 13.9353 16 13.551V1H2ZM1 13.5V4.5H2V13.5C2 13.6326 1.94732 13.7598 1.85355 13.8536C1.75979 13.9473 1.63261 14 1.5 14C1.36739 14 1.24021 13.9473 1.14645 13.8536C1.05268 13.7598 1 13.6326 1 13.5ZM15 13.551C15 13.6701 14.9527 13.7843 14.8685 13.8685C14.7843 13.9527 14.6701 14 14.551 14H2.908C2.96722 13.8399 2.99834 13.6707 3 13.5V2H15V13.551Z" fill="#888888"/>
<path d="M8.5 8H4.5V10H8.5V8Z" fill="#D1E7FF"/>
<path d="M8 8.5V9.5H5V8.5H8ZM9 7.5H4V10.5H9V7.5Z" fill="#66ADFF"/>
</svg>
