<svg width="16" height="16" viewBox="0 0 16 16" fill="none" xmlns="http://www.w3.org/2000/svg">
<path d="M2.5 13.5V1.5H15.5V12.551C15.4997 12.8026 15.3997 13.0438 15.2218 13.2218C15.0438 13.3997 14.8026 13.4997 14.551 13.5H2.5Z" fill="#F3F3F3"/>
<path d="M1.5 13.5C1.23478 13.5 0.98043 13.3946 0.792893 13.2071C0.605357 13.0196 0.5 12.7652 0.5 12.5V3.5H2.5V12.5C2.5 12.7652 2.39464 13.0196 2.20711 13.2071C2.01957 13.3946 1.76522 13.5 1.5 13.5Z" fill="#DBDBDB"/>
<path d="M13.5 3.5H4.5V5.5H13.5V3.5Z" fill="#C6D5F7"/>
<path d="M13 4V5H5V4H13ZM14 3H4V6H14V3Z" fill="#4072E5"/>
<path d="M14 7H10V8H14V7ZM14 9H10V10H14V9ZM14 11H4V12H14V11ZM2 1V3H0L0 12.5C0 12.8978 0.158035 13.2794 0.43934 13.5607C0.720644 13.842 1.10218 14 1.5 14H14.551C14.9353 14 15.3039 13.8473 15.5756 13.5756C15.8473 13.3039 16 12.9353 16 12.551V1H2ZM1 12.5V4H2V12.5C2 12.6326 1.94732 12.7598 1.85355 12.8536C1.75979 12.9473 1.63261 13 1.5 13C1.36739 13 1.24021 12.9473 1.14645 12.8536C1.05268 12.7598 1 12.6326 1 12.5ZM15 12.551C15 12.6701 14.9527 12.7843 14.8685 12.8685C14.7843 12.9527 14.6701 13 14.551 13H2.908C2.96722 12.8399 2.99834 12.6707 3 12.5V2H15V12.551Z" fill="#888888"/>
<path d="M8.5 7.5H4.5V9.5H8.5V7.5Z" fill="#D1E7FF"/>
<path d="M8 8V9H5V8H8ZM9 7H4V10H9V7Z" fill="#66ADFF"/>
</svg>
