<svg width="16" height="16" viewBox="0 0 16 16" fill="none" xmlns="http://www.w3.org/2000/svg">
<path d="M6.5 11V11.5H9.5V11C9.61087 10.0955 10.0635 9.26761 10.765 8.686C11.2897 8.22193 11.7142 7.65568 12.0126 7.02189C12.3109 6.3881 12.4767 5.7001 12.5 5C12.5 3.80653 12.0259 2.66193 11.182 1.81802C10.3381 0.974106 9.19347 0.5 8 0.5C6.80653 0.5 5.66193 0.974106 4.81802 1.81802C3.97411 2.66193 3.5 3.80653 3.5 5C3.52497 5.71118 3.6939 6.4099 3.99658 7.05394C4.29926 7.69797 4.7294 8.27393 5.261 8.747C5.94186 9.3161 6.38407 10.1202 6.5 11Z" fill="white"/>
<path d="M7.5 15.5C7.23478 15.5 6.98043 15.3946 6.79289 15.2071C6.60536 15.0196 6.5 14.7652 6.5 14.5V11.5H9.5V14.5C9.5 14.7652 9.39464 15.0196 9.20711 15.2071C9.01957 15.3946 8.76522 15.5 8.5 15.5H7.5Z" fill="#E7E7E7"/>
<path d="M6 11V14.5C6 14.8978 6.15804 15.2794 6.43934 15.5607C6.72064 15.842 7.10218 16 7.5 16H8.5C8.89782 16 9.27936 15.842 9.56066 15.5607C9.84196 15.2794 10 14.8978 10 14.5V11H6ZM9 14.5C9 14.6326 8.94732 14.7598 8.85355 14.8536C8.75979 14.9473 8.63261 15 8.5 15H7.5C7.36739 15 7.24021 14.9473 7.14645 14.8536C7.05268 14.7598 7 14.6326 7 14.5V14H9V14.5ZM9 13H7V12H9V13Z" fill="#777777"/>
<path d="M7 11C6.89168 9.99364 6.40174 9.06709 5.631 8.411C5.14175 7.98301 4.74481 7.45983 4.46439 6.87338C4.18398 6.28694 4.02597 5.64952 4 5C4 3.93913 4.42143 2.92172 5.17157 2.17157C5.92172 1.42143 6.93913 1 8 1C9.06087 1 10.0783 1.42143 10.8284 2.17157C11.5786 2.92172 12 3.93913 12 5C11.9762 5.63791 11.8219 6.26417 11.5468 6.84016C11.2716 7.41616 10.8813 7.92966 10.4 8.349C9.60672 9.01729 9.10463 9.96804 9 11H10C10 9.25 13 8.391 13 5C13 3.67392 12.4732 2.40215 11.5355 1.46447C10.5979 0.526784 9.32608 0 8 0C6.67392 0 5.40215 0.526784 4.46447 1.46447C3.52678 2.40215 3 3.67392 3 5C3 8.391 6 9.328 6 11H7Z" fill="#FAA700"/>
</svg>
