<svg width="16" height="16" viewBox="0 0 16 16" fill="none" xmlns="http://www.w3.org/2000/svg">
<path opacity="0.5" d="M8.20703 0H0V16H13V4.79297L8.20703 0Z" fill="white"/>
<path d="M7.79297 1L12 5.20703V6L12.5 5.5L14.5 7.5L12 10V15H1V1H7.79297Z" fill="white"/>
<path d="M13.5 5.5L14 5L15 6L14.5 6.5L13.5 5.5Z" fill="#E7E7E7"/>
<path fill-rule="evenodd" clip-rule="evenodd" d="M12.5 5.5L13.5001 4.49992C13.7762 4.22382 14.2238 4.22382 14.4999 4.49992L15.5001 5.50007C15.7762 5.77617 15.7762 6.22382 15.5001 6.49992L14.5 7.5L12.5 5.5ZM14 5L13.5 5.5L14.5 6.5L15 6L14 5Z" fill="#CCCCCC"/>
<path opacity="0.4" fill-rule="evenodd" clip-rule="evenodd" d="M7.7071 11.2929V12.2929H8.70711L9.00001 12L8 11L7.7071 11.2929ZM7 11V13H9L10 12L8 10L7 11Z" fill="#CC7A52"/>
<path opacity="0.3" d="M7.70703 12.2929V11.2929L7.99993 11L8.99994 12L8.70704 12.2929H7.70703Z" fill="#CC7A52"/>
<path d="M12.5 5.5L8 10L8.5 10.5L13 6L12.5 5.5Z" fill="#FAA700"/>
<path d="M14 7L9.5 11.5L10 12L14.5 7.5L14 7Z" fill="#FAA700"/>
<path opacity="0.8" d="M13 6L8.5 10.5L9.5 11.5L14 7L13 6Z" fill="#FAA700"/>
<path d="M7 11.5V13H8.5V12.2929H7.7071V11.5H7Z" fill="#444444"/>
<path d="M3 5.5H6V4.5H3V5.5Z" fill="#444444"/>
<path d="M3 7H10V8H3V7Z" fill="#444444"/>
<path d="M8.5 9.5L7.5 10.5H3V9.5H8.5Z" fill="#444444"/>
<path d="M7 12V13H3V12H7Z" fill="#444444"/>
<path opacity="0.08" d="M8.5 1.70703V4.5H11.293L8.5 1.70703Z" fill="black"/>
<path opacity="0.2" fill-rule="evenodd" clip-rule="evenodd" d="M1 1V15H12V10L13 9V16H0V0H8.20703L13 4.79297V5L12 6V5.5H7.5V1H1ZM11.293 4.5L8.5 1.70703V4.5H11.293Z" fill="black"/>
</svg>
