<svg width="16" height="16" viewBox="0 0 16 16" fill="none" xmlns="http://www.w3.org/2000/svg">
<path opacity="0.5" d="M9.70703 0H2V16H15V5.29297L9.70703 0Z" fill="white"/>
<path d="M9.29297 1L14 5.70703V15H3V1H9.29297Z" fill="white"/>
<path d="M7 6H5V5H7V6ZM12 8H5V9H12V8ZM7.5 11H5V12H7.5V11Z" fill="#444444"/>
<path opacity="0.08" d="M10 1.70703V5H13.293L10 1.70703Z" fill="black"/>
<path opacity="0.2" fill-rule="evenodd" clip-rule="evenodd" d="M2 0H9.707L14.1035 4.3965L12.5 6H9V1H3V15H14V7.5L15 6.5V16H2V0ZM13.293 5L10 1.707V5H13.293Z" fill="black"/>
<path d="M13.4994 5.0002L12.9995 5.50012L13.4994 6.00005L13.9994 5.50012L13.4994 5.0002Z" fill="#E0AF97"/>
<path d="M13.9994 5.5002L13.4995 6.00012L13.9994 6.50005L14.4994 6.00012L13.9994 5.5002Z" fill="white"/>
<path d="M14.4994 6.0002L13.9995 6.50012L14.4994 7.00005L14.9994 6.50012L14.4994 6.0002Z" fill="#E0AF97"/>
<path d="M14.4998 3.9993L13.5 4.99915L14.9998 6.49892L15.9996 5.49907L14.4998 3.9993Z" fill="#DB2C3A"/>
<path d="M9 12.5L14.5 7L13 5.5L7.5 11L7 13L9 12.5Z" fill="#CC7A52"/>
<path d="M8.37517 11.125L8.13817 11.361L7.97217 12.028L8.63917 11.862L8.87517 11.625L8.37517 11.125Z" fill="#EBCABA"/>
</svg>
