<svg width="16" height="16" viewBox="0 0 16 16" fill="none" xmlns="http://www.w3.org/2000/svg">
<path opacity="0.5" d="M9.70703 0H1.5V16H14.5V4.79297L9.70703 0Z" fill="white"/>
<path d="M9.29297 1L13.5 5.20703V15H2.5V1H9.29297Z" fill="white"/>
<path opacity="0.2" d="M2.5 15V1H9V5.5H13.5V15H2.5ZM10 1.70703L12.793 4.5H10V1.70703ZM9.70703 0H1.5V16H14.5V4.79297L9.70703 0Z" fill="black"/>
<path opacity="0.08" d="M10 1.70703V4.5H12.793L10 1.70703Z" fill="black"/>
<path d="M4 12H5V13H4V12ZM4 9.5H5V10.5H4V9.5ZM4 7H5V8H4V7Z" fill="#39BF68"/>
<path d="M11 14.707L9.64453 13.3516L10.3555 12.6445L11 13.293L12.6445 11.6445L13.3555 12.3516L11 14.707ZM11.5 10C9.84375 10 8.5 11.3438 8.5 13C8.5 14.6562 9.84375 16 11.5 16C13.1562 16 14.5 14.6562 14.5 13C14.5 11.3438 13.1562 10 11.5 10Z" fill="#39BF68"/>
<path d="M6 8H12V7H6V8ZM6 9.5V10.5H8.40234C8.73047 10.0898 9.13672 9.75391 9.60156 9.5H6ZM7.5 4.5H4V5.5H7.5V4.5ZM6 12V13H7.5C7.5 12.6523 7.55859 12.3203 7.64062 12H6Z" fill="#444444"/>
</svg>
