<svg width="16" height="16" viewBox="0 0 16 16" fill="none" xmlns="http://www.w3.org/2000/svg">
<path opacity="0.5" d="M9.70703 0H2V16H15V5.29297L9.70703 0Z" fill="white"/>
<path d="M9.29297 1L14 5.70703V15H3V1H9.29297Z" fill="white"/>
<path opacity="0.2" d="M3 15V1H9V6H14V15H3ZM10 1.70703L13.293 5H10V1.70703ZM9.70703 0H2V16H15V5.29297L9.70703 0Z" fill="black"/>
<path opacity="0.08" d="M10 1.70703V5L13.293 5L10 1.70703Z" fill="black"/>
<path d="M4 11H5V12H4V11ZM4 8H5V9H4V8Z" fill="#39BF68"/>
<path d="M11.5 14.707L10.1445 13.3516L10.8555 12.6445L11.5 13.293L13.1445 11.6445L13.8555 12.3516L11.5 14.707ZM12 10C10.3438 10 9 11.3438 9 13C9 14.6562 10.3438 16 12 16C13.6562 16 15 14.6562 15 13C15 11.3438 13.6562 10 12 10Z" fill="#39BF68"/>
<path d="M6 9V8H13V9H6Z" fill="#444444"/>
<path d="M8.53513 11C8.35609 11.3095 8.21733 11.6452 8.12602 12H6V11H8.53513Z" fill="#444444"/>
<path d="M4 5H8V6H4V5Z" fill="#444444"/>
</svg>
