<svg width="16" height="16" viewBox="0 0 16 16" fill="none" xmlns="http://www.w3.org/2000/svg">
<path d="M2.00004 11.724V6.5H1.00004V11.724C0.57746 12.4029 0.400943 13.2065 0.500043 14C0.500043 14.276 0.948043 14.5 1.50004 14.5C2.05204 14.5 2.50004 14.276 2.50004 14C2.59914 13.2065 2.42262 12.4029 2.00004 11.724Z" fill="#FF794C"/>
<path d="M8 13C5.561 13 3.5 11.855 3.5 10.5V6.375H12.5V10.5C12.5 11.855 10.439 13 8 13Z" fill="#8F8F8F"/>
<path d="M1.02002 6L8.00002 2.073L14.98 6L8.00002 9.927L1.02002 6Z" fill="#B4B4B4"/>
<path d="M16 6L8 1.5L0 6L3 7.688V10.5C3 12.157 5.239 13.5 8 13.5C10.761 13.5 13 12.157 13 10.5V7.688L16 6ZM8 2.647L13.96 6L8 9.353L2.04 6L8 2.647ZM12 10.5C12 11.444 10.289 12.5 8 12.5C5.711 12.5 4 11.444 4 10.5V8.25L8 10.5L12 8.25V10.5Z" fill="#444444"/>
</svg>
