<svg width="16" height="16" viewBox="0 0 16 16" fill="none" xmlns="http://www.w3.org/2000/svg">
<path d="M2.00004 12.224V7H1.00004V12.224C0.57746 12.9029 0.400943 13.7065 0.500043 14.5C0.500043 14.776 0.948043 15 1.50004 15C2.05204 15 2.50004 14.776 2.50004 14.5C2.59914 13.7065 2.42262 12.9029 2.00004 12.224Z" fill="#FF794C"/>
<path d="M8 13.5C5.561 13.5 3.5 12.355 3.5 11V6.875H12.5V11C12.5 12.355 10.439 13.5 8 13.5Z" fill="#8F8F8F"/>
<path d="M1.02002 6.5L8.00002 2.573L14.98 6.5L8.00002 10.427L1.02002 6.5Z" fill="#B4B4B4"/>
<path d="M16 6.5L8 2L0 6.5L3 8.188V11C3 12.657 5.239 14 8 14C10.761 14 13 12.657 13 11V8.188L16 6.5ZM8 3.147L13.96 6.5L8 9.853L2.04 6.5L8 3.147ZM12 11C12 11.944 10.289 13 8 13C5.711 13 4 11.944 4 11V8.75L8 11L12 8.75V11Z" fill="#444444"/>
</svg>
