<svg width="16" height="16" viewBox="0 0 16 16" fill="none" xmlns="http://www.w3.org/2000/svg">
<path d="M14 4H2V14H14V4Z" fill="#DADADA"/>
<path d="M11 5.5H5C4.17157 5.5 3.5 6.17157 3.5 7V10C3.5 10.8284 4.17157 11.5 5 11.5H11C11.8284 11.5 12.5 10.8284 12.5 10V7C12.5 6.17157 11.8284 5.5 11 5.5Z" fill="#E0EFFF"/>
<path d="M14 3H10.707L12.854 0.853996L12.146 0.145996L9.293 3H6.707L3.854 0.145996L3.146 0.853996L5.293 3H2C1.73478 3 1.48043 3.10535 1.29289 3.29289C1.10536 3.48043 1 3.73478 1 4V14C1 14.2652 1.10536 14.5196 1.29289 14.7071C1.48043 14.8946 1.73478 15 2 15H3C3 15.2652 3.10536 15.5196 3.29289 15.7071C3.48043 15.8946 3.73478 16 4 16C4.26522 16 4.51957 15.8946 4.70711 15.7071C4.89464 15.5196 5 15.2652 5 15H11C11 15.2652 11.1054 15.5196 11.2929 15.7071C11.4804 15.8946 11.7348 16 12 16C12.2652 16 12.5196 15.8946 12.7071 15.7071C12.8946 15.5196 13 15.2652 13 15H14C14.2652 15 14.5196 14.8946 14.7071 14.7071C14.8946 14.5196 15 14.2652 15 14V4C15 3.73478 14.8946 3.48043 14.7071 3.29289C14.5196 3.10535 14.2652 3 14 3ZM14 14H2V4H14V14ZM5 12H11C11.5304 12 12.0391 11.7893 12.4142 11.4142C12.7893 11.0391 13 10.5304 13 10V7C13 6.46956 12.7893 5.96086 12.4142 5.58578C12.0391 5.21071 11.5304 5 11 5H5C4.46957 5 3.96086 5.21071 3.58579 5.58578C3.21071 5.96086 3 6.46956 3 7V10C3 10.5304 3.21071 11.0391 3.58579 11.4142C3.96086 11.7893 4.46957 12 5 12ZM4 7C4 6.73478 4.10536 6.48043 4.29289 6.29289C4.48043 6.10535 4.73478 6 5 6H11C11.2652 6 11.5196 6.10535 11.7071 6.29289C11.8946 6.48043 12 6.73478 12 7V10C12 10.2652 11.8946 10.5196 11.7071 10.7071C11.5196 10.8946 11.2652 11 11 11H5C4.73478 11 4.48043 10.8946 4.29289 10.7071C4.10536 10.5196 4 10.2652 4 10V7Z" fill="#444444"/>
</svg>
