<svg width="16" height="16" viewBox="0 0 16 16" fill="none" xmlns="http://www.w3.org/2000/svg">
<path d="M14 4H5V12H14V4Z" fill="#DADADA"/>
<path d="M4.49992 6.75194L0.707924 4.56294C0.653835 4.53352 0.59687 4.50973 0.537923 4.49194C0.507178 4.55064 0.493985 4.61695 0.499923 4.68294V11.3169C0.50111 11.3783 0.50882 11.4393 0.522923 11.4989H0.531924C0.594658 11.4924 0.654965 11.4712 0.707924 11.4369L4.49992 9.24694V6.75194Z" fill="#B4B4B4"/>
<path d="M13 5H12V6H13V5Z" fill="#DB2C3A"/>
<path d="M6.5 6H10.5C10.6326 6 10.7598 5.94732 10.8536 5.85355C10.9473 5.75979 11 5.63261 11 5.5C11 5.36739 10.9473 5.24021 10.8536 5.14645C10.7598 5.05268 10.6326 5 10.5 5H6.5C6.36739 5 6.24021 5.05268 6.14645 5.14645C6.05268 5.24021 6 5.36739 6 5.5C6 5.63261 6.05268 5.75979 6.14645 5.85355C6.24021 5.94732 6.36739 6 6.5 6Z" fill="#444444"/>
<path d="M15 5V4C15 3.73478 14.8946 3.48043 14.7071 3.29289C14.5196 3.10536 14.2652 3 14 3H5C4.73478 3 4.48043 3.10536 4.29289 3.29289C4.10536 3.48043 4 3.73478 4 4V5.886L0.958 4.13C0.829705 4.05039 0.682882 4.00559 0.532 4C0.217 4 0 4.251 0 4.683V11.317C0 11.749 0.217 12 0.532 12C0.682882 11.9944 0.829705 11.9496 0.958 11.87L4 10.114V12C4 12.2652 4.10536 12.5196 4.29289 12.7071C4.48043 12.8946 4.73478 13 5 13H14C14.2652 13 14.5196 12.8946 14.7071 12.7071C14.8946 12.5196 15 12.2652 15 12V8C15.2652 8 15.5196 7.89464 15.7071 7.70711C15.8946 7.51957 16 7.26522 16 7V6C16 5.73478 15.8946 5.48043 15.7071 5.29289C15.5196 5.10536 15.2652 5 15 5ZM4 8.959L1 10.69V5.309L4 7.042V8.959ZM14 12H5V4H14V12Z" fill="#444444"/>
</svg>
