<svg width="20" height="20" viewBox="0 0 20 20" fill="none" xmlns="http://www.w3.org/2000/svg">
<path d="M10 10C14.4183 10 18 13.5817 18 18V19H2V18C2 13.5817 5.58172 10 10 10ZM10 11.25C6.35579 11.25 3.3874 14.1379 3.25586 17.75H16.7441C16.6126 14.1379 13.6442 11.25 10 11.25ZM10 1C12.2091 1 14 2.79086 14 5C14 7.20914 12.2091 9 10 9C7.79086 9 6 7.20914 6 5C6 2.79086 7.79086 1 10 1ZM10 2.25C8.48122 2.25 7.25 3.48122 7.25 5C7.25 6.51878 8.48122 7.75 10 7.75C11.5188 7.75 12.75 6.51878 12.75 5C12.75 3.48122 11.5188 2.25 10 2.25Z" fill="context-fill"/>
</svg>
