<svg width="20" height="20" viewBox="0 0 20 20" fill="none" xmlns="http://www.w3.org/2000/svg">
<path fill-rule="evenodd" clip-rule="evenodd" d="M3 1H3.625H12.375H12.6339L12.8169 1.18306L17.8169 6.18306L18 6.36612V6.625V11.5666C19.2083 12.401 20 13.7955 20 15.375C20 17.9293 17.9293 20 15.375 20C14.2895 20 13.2914 19.6261 12.5024 19H3.625H3V18.375V1.625V1ZM16.75 7.25V10.9578C16.3156 10.8228 15.8538 10.75 15.375 10.75C12.8207 10.75 10.75 12.8207 10.75 15.375C10.75 16.2433 10.9893 17.0558 11.4056 17.75H4.25V2.25H11.75V6.625V7.25H12.375H16.75ZM13 17.75V17.7729C13.6098 18.377 14.4488 18.75 15.375 18.75C17.239 18.75 18.75 17.239 18.75 15.375C18.75 13.511 17.239 12 15.375 12C13.511 12 12 13.511 12 15.375C12 16.3012 12.373 17.1402 12.9771 17.75H13ZM13 3.13388L15.8661 6H13V3.13388ZM14.75 13V14.75H13V16H14.75V17.75H16V16H17.75V14.75H16V13H14.75Z" fill="context-fill"/>
</svg>
