<svg width="20" height="20" viewBox="0 0 20 20" fill="none" xmlns="http://www.w3.org/2000/svg">
<path fill-rule="evenodd" clip-rule="evenodd" d="M3.5 4H2.25C1.55964 4 1 4.55964 1 5.25V6.75V8V16.75C1 17.4404 1.55964 18 2.25 18H11.5666C12.401 19.2083 13.7955 20 15.375 20C17.9293 20 20 17.9293 20 15.375C20 14.2895 19.6261 13.2914 19 12.5024V5.25C19 4.55964 18.4404 4 17.75 4H11L10.3455 2.69098C10.1338 2.2675 9.70092 2 9.22746 2H5.27254C4.79908 2 4.36625 2.2675 4.15451 2.69098L3.5 4ZM10.75 15.375C10.75 15.8538 10.8228 16.3156 10.9578 16.75H2.25V8H17.75V11.4056C17.0558 10.9893 16.2433 10.75 15.375 10.75C12.8207 10.75 10.75 12.8207 10.75 15.375ZM17.75 6.75V5.25H11C10.5265 5.25 10.0937 4.9825 9.88197 4.55902L9.22746 3.25H5.27254L4.61803 4.55902C4.40629 4.9825 3.97346 5.25 3.5 5.25H2.25V6.75H17.75ZM15.375 18.75C17.239 18.75 18.75 17.239 18.75 15.375C18.75 13.511 17.239 12 15.375 12C13.511 12 12 13.511 12 15.375C12 17.239 13.511 18.75 15.375 18.75ZM14.75 13V14.75H13V16H14.75V17.75H16V16H17.75V14.75H16V13H14.75Z" fill="context-fill"/>
</svg>
