<svg width="20" height="20" viewBox="0 0 20 20" fill="none" xmlns="http://www.w3.org/2000/svg">
<path fill-rule="evenodd" clip-rule="evenodd" d="M3.625 1H3V1.625V4H1.25H0V5.25V7.75V9H1.25H3V18.375V19H3.625H12.5024C13.2914 19.6261 14.2895 20 15.375 20C17.9293 20 20 17.9293 20 15.375C20 13.7955 19.2083 12.401 18 11.5666V6.625V6.36612L17.8169 6.18306L12.8169 1.18306L12.6339 1H12.375H3.625ZM13 17.75V17.7729C13.6098 18.377 14.4488 18.75 15.375 18.75C17.239 18.75 18.75 17.239 18.75 15.375C18.75 13.511 17.239 12 15.375 12C13.511 12 12 13.511 12 15.375C12 16.3012 12.373 17.1402 12.9771 17.75H13ZM4.25 17.75H11.4056C10.9893 17.0558 10.75 16.2433 10.75 15.375C10.75 12.8207 12.8207 10.75 15.375 10.75C15.8538 10.75 16.3156 10.8228 16.75 10.9578V7.25H12.375H11.75V6.625V2.25H4.25V4H8.75H10V5.25V7.75V9H8.75H4.25V17.75ZM15.8661 6L13 3.13388V6H15.8661ZM8.75 5.25V7.75H1.25V5.25H8.75ZM14.75 13V14.75H13V16H14.75V17.75H16V16H17.75V14.75H16V13H14.75Z" fill="context-fill"/>
</svg>
