<svg width="20" height="20" viewBox="0 0 20 20" fill="none" xmlns="http://www.w3.org/2000/svg">
<g clip-path="url(#clip0_1132_37395)">
<path fill-rule="evenodd" clip-rule="evenodd" d="M3 11H17V9.75H3V11ZM3 6.75H17V8H3V6.75ZM3 12.75H12V14H3V12.75ZM6 4.5H3.5V2L4.5 0H5.5L4.5 2H6V4.5ZM1 0H2L1 2H2.5V4.5H0V2L1 0ZM16.5 15.5H14V18H15.5L14.5 20H15.5L16.5 18V15.5ZM18 20H19L20 18V15.5H17.5V18H19L18 20Z" fill="context-fill"/>
</g>
<defs>
<clipPath id="clip0_1132_37395">
<rect width="20" height="20" fill="white"/>
</clipPath>
</defs>
</svg>
