<svg width="20" height="20" viewBox="0 0 20 20" fill="none" xmlns="http://www.w3.org/2000/svg">
<path fill-rule="evenodd" clip-rule="evenodd" d="M15.1256 6.09925L14.7636 6.70249L15.0915 7.32492C15.2533 7.63216 15.388 7.95563 15.4925 8.29221L15.7011 8.96367L16.3832 9.1342L17.7502 9.47597V10.524L16.3832 10.8658L15.7011 11.0363L15.4925 11.7078C15.388 12.0444 15.2533 12.3679 15.0914 12.6752L14.7636 13.2976L15.1255 13.9009L15.8507 15.1095L15.1096 15.8506L13.901 15.1254L13.2977 14.7635L12.6753 15.0914C12.368 15.2532 12.0444 15.388 11.7078 15.4925L11.0363 15.701L10.8658 16.3831L10.5241 17.75H9.47603L9.13431 16.3831L8.96378 15.701L8.29231 15.4925C7.9557 15.388 7.63219 15.2533 7.32492 15.0914L6.70249 14.7635L6.09924 15.1255L4.89071 15.8506L4.14962 15.1095L4.8747 13.9011L5.23666 13.2978L4.90876 12.6753C4.74685 12.368 4.61209 12.0444 4.50755 11.7077L4.29905 11.0362L3.61694 10.8657L2.25024 10.524V9.47597L3.61694 9.1343L4.29905 8.96377L4.50755 8.29229C4.61208 7.95564 4.74681 7.6321 4.90869 7.32479L5.23657 6.70235L4.87462 6.0991L4.14944 4.89047L4.89053 4.14938L6.09916 4.87456L6.70241 5.23651L7.32485 4.90863C7.63215 4.74676 7.95567 4.61203 8.29231 4.5075L8.96378 4.299L9.13431 3.6169L9.47603 2.25H10.5241L10.8658 3.6169L11.0363 4.299L11.7078 4.5075C12.0445 4.61204 12.368 4.74678 12.6753 4.90867L13.2978 5.23656L13.9011 4.8746L15.1098 4.14936L15.8509 4.89045L15.1256 6.09925ZM19.0002 11.5V8.5L16.6863 7.92152C16.5588 7.511 16.3946 7.11667 16.1975 6.74237L17.4249 4.69669L15.3035 2.57536L13.2579 3.80274C12.8835 3.60552 12.4891 3.44123 12.0785 3.31373L11.5001 1H8.50006L7.92163 3.31373C7.51104 3.44122 7.11664 3.60549 6.74228 3.80269L4.69676 2.57538L2.57544 4.6967L3.80275 6.74222C3.60554 7.11659 3.44127 7.51101 3.31377 7.92162L1.00024 8.5V11.5L3.31377 12.0784C3.44128 12.489 3.60559 12.8835 3.80283 13.2579L2.57563 15.3033L4.69695 17.4246L6.74236 16.1974C7.1167 16.3945 7.51107 16.5588 7.92163 16.6863L8.50006 19H11.5001L12.0785 16.6863C12.4891 16.5588 12.8835 16.3945 13.2578 16.1973L15.3034 17.4246L17.4247 15.3033L16.1974 13.2578C16.3946 12.8834 16.5588 12.4891 16.6863 12.0785L19.0002 11.5ZM9.99998 14.25C12.3472 14.25 14.25 12.3472 14.25 10C14.25 7.65279 12.3472 5.75 9.99998 5.75C7.65277 5.75 5.74998 7.65279 5.74998 10C5.74998 12.3472 7.65277 14.25 9.99998 14.25ZM13 10C13 11.6569 11.6568 13 9.99998 13C8.34313 13 6.99998 11.6569 6.99998 10C6.99998 8.34315 8.34313 7 9.99998 7C11.6568 7 13 8.34315 13 10Z" fill="context-fill"/>
</svg>
