<svg width="20" height="20" viewBox="0 0 20 20" fill="none" xmlns="http://www.w3.org/2000/svg">
<path d="M11 13H14V10H12.5L13.5 7H12L11 10V13ZM6 10V13H9V10H7.5L8.5 7H7L6 10Z" fill="context-fill"/>
<path d="M3.25 14V16.75H6V18H3.25C2.60285 18 2.07092 17.5082 2.00684 16.8779L2 16.75V14H3.25ZM18 16.75C18 17.3972 17.5082 17.9291 16.8779 17.9932L16.75 18H14V16.75H16.75V14H18V16.75ZM16.75 2C17.4404 2 18 2.55964 18 3.25V6H16.75V3.25H14V2H16.75ZM6 3.25H3.25V6H2V3.25C2 2.55964 2.55964 2 3.25 2H6V3.25Z" fill="context-fill"/>
</svg>
