<svg width="20" height="20" viewBox="0 0 20 20" fill="none" xmlns="http://www.w3.org/2000/svg">
<path d="M10.0005 4C14.1006 4.0002 17.6223 6.4688 19.1655 10C17.6223 13.5312 14.1006 15.9998 10.0005 16C5.90005 16 2.37673 13.5315 0.833496 10C2.37673 6.46847 5.90005 4 10.0005 4ZM10.0005 5.25C6.6116 5.25 3.67094 7.17741 2.21729 10C3.67094 12.8226 6.6116 14.75 10.0005 14.75C13.3886 14.7498 16.3271 12.8223 17.7808 10C16.3752 7.27113 13.5816 5.37828 10.3354 5.25586L10.0005 5.25ZM10.0005 6.75C11.7952 6.75026 13.2505 8.20524 13.2505 10C13.2505 11.7948 11.7952 13.2497 10.0005 13.25C8.20556 13.25 6.75049 11.7949 6.75049 10C6.75049 8.20507 8.20556 6.75 10.0005 6.75ZM10.0005 8C8.89592 8 8.00049 8.89543 8.00049 10C8.00049 11.1046 8.89592 12 10.0005 12C11.1048 11.9997 12.0005 11.1044 12.0005 10C12.0005 8.89559 11.1048 8.00026 10.0005 8Z" fill="context-fill"/>
</svg>
