<svg width="20" height="20" viewBox="0 0 20 20" fill="none" xmlns="http://www.w3.org/2000/svg">
<path fill-rule="evenodd" clip-rule="evenodd" d="M3.5 4H2.25C1.55964 4 1 4.55964 1 5.25V16.75C1 17.4277 1.53933 17.9795 2.2122 17.9994C2.22419 17.9998 2.23622 18 2.24831 18H2.25H3H16.9739C17.5012 18 17.9577 17.6338 18.0721 17.119L19.8499 9.11905C20.006 8.41647 19.4714 7.75 18.7517 7.75H18V5.25C18 4.55964 17.4404 4 16.75 4H11L10.3455 2.69098C10.1338 2.2675 9.70092 2 9.22746 2H5.27254C4.79908 2 4.36625 2.2675 4.15451 2.69098L3.5 4ZM16.75 7.75V5.25H11C10.5265 5.25 10.0937 4.9825 9.88197 4.55902L9.22746 3.25H5.27254L4.61803 4.55902C4.40629 4.9825 3.97346 5.25 3.5 5.25H2.25V11.6814L2.92788 8.63095C3.04226 8.11622 3.4988 7.75 4.02609 7.75H16.75ZM2.40414 16.75H3H16.8736L18.5959 9H4.12636L2.40414 16.75Z" fill="context-fill"/>
</svg>
