<svg width="20" height="20" viewBox="0 0 20 20" fill="none" xmlns="http://www.w3.org/2000/svg">
<path fill-rule="evenodd" clip-rule="evenodd" d="M17.7501 10C17.7501 11.4635 17.3445 12.8323 16.6394 14H18.0646C18.6634 12.795 19.0001 11.4368 19.0001 10C19.0001 5.02944 14.9707 1 10.0001 1C5.02956 1 1.00012 5.02944 1.00012 10C1.00012 14.9706 5.02956 19 10.0001 19C11.2322 19 12.4065 18.7524 13.4759 18.3043L12.5071 17.3355C11.7208 17.6042 10.8775 17.75 10.0001 17.75C5.71992 17.75 2.25012 14.2802 2.25012 10C2.25012 5.71979 5.71992 2.25 10.0001 2.25C14.2803 2.25 17.7501 5.71979 17.7501 10ZM14.884 10L10.884 14L10.0001 13.1161L12.4912 10.625L5.00012 10.625V9.375L12.4912 9.375L10.0001 6.88388L10.884 6L14.884 10ZM17 19L14 16H20L17 19Z" fill="context-fill"/>
</svg>
