<svg width="20" height="20" viewBox="0 0 20 20" fill="none" xmlns="http://www.w3.org/2000/svg">
<g clip-path="url(#clip0_1067_43177)">
<path fill-rule="evenodd" clip-rule="evenodd" d="M9.9999 0L9.4999 1.5L7.99991 2V2.5L9.4999 3L9.9999 4.5H10.4999L10.9999 3L12.4999 2.5V2L10.9999 1.5L10.4999 0H9.9999ZM17.4999 7.5L16.9999 9L15.4999 9.5V10L16.9999 10.5L17.4999 12H17.9999L18.4999 10.5L19.9999 10V9.5L18.4999 9L17.9999 7.5H17.4999ZM16.9999 1.5L17.4999 0H17.9999L18.4999 1.5L19.9999 2V2.5L18.4999 3L17.9999 4.5H17.4999L16.9999 3L15.4999 2.5V2L16.9999 1.5ZM13.9999 4.76777L11.3838 7.38388L12.616 8.61612L15.2321 6L13.9999 4.76777ZM1.76767 17L4.38379 14.3839L5.61602 15.6161L2.99991 18.2322L1.76767 17ZM0.883789 16.1161L13.116 3.88388C13.6042 3.39573 14.3956 3.39573 14.8838 3.88388L16.116 5.11612C16.6042 5.60427 16.6042 6.39573 16.116 6.88388L3.88379 19.1161C3.39563 19.6043 2.60418 19.6043 2.11602 19.1161L0.883789 17.8839C0.395634 17.3957 0.395634 16.6043 0.883789 16.1161Z" fill="context-fill"/>
</g>
<defs>
<clipPath id="clip0_1067_43177">
<rect width="20" height="20" fill="white"/>
</clipPath>
</defs>
</svg>
