<svg width="20" height="20" viewBox="0 0 20 20" fill="none" xmlns="http://www.w3.org/2000/svg">
<path fill-rule="evenodd" clip-rule="evenodd" d="M16 4.125C16 3.64175 16.3918 3.25 16.875 3.25C17.3582 3.25 17.75 3.64175 17.75 4.125V5.75H16V4.125ZM6.125 3.25H14.9379C14.8172 3.51684 14.75 3.81307 14.75 4.125V10.0068C15.1861 10.0307 15.6057 10.1167 16 10.2561V7H18.375H19V6.375V4.125C19 2.95139 18.0486 2 16.875 2H6.125C4.9514 2 4 2.95139 4 4.125V13H2.25H1.625H1V15.875C1 17.0486 1.95139 18 3.125 18H11.6713C11.243 17.6534 10.8795 17.2297 10.602 16.75H3.125C2.64175 16.75 2.25 16.3582 2.25 15.875V14.25H10.0068C10.0307 13.8139 10.1167 13.3943 10.2561 13H5.25V4.125C5.25 3.64175 5.64175 3.25 6.125 3.25ZM20 19.1161L19.1162 20L16.4933 17.3773C15.9277 17.7699 15.2407 18 14.5 18C12.567 18 11 16.433 11 14.5C11 12.567 12.567 11 14.5 11C16.433 11 18 12.567 18 14.5C18 15.2407 17.7699 15.9277 17.3772 16.4934L20 19.1161ZM16.75 14.5C16.75 15.7426 15.7426 16.75 14.5 16.75C13.2574 16.75 12.25 15.7426 12.25 14.5C12.25 13.2574 13.2574 12.25 14.5 12.25C15.7426 12.25 16.75 13.2574 16.75 14.5Z" fill="context-fill"/>
<defs>
<clipPath id="clip0_5189_16925">
<rect width="20" height="20" fill="white"/>
</clipPath>
</defs>
</svg>
