<svg width="20" height="20" viewBox="0 0 20 20" fill="none" xmlns="http://www.w3.org/2000/svg">
<path fill-rule="evenodd" clip-rule="evenodd" d="M16.875 3.25C16.3918 3.25 16 3.64175 16 4.125V5.75H17.75V4.125C17.75 3.64175 17.3582 3.25 16.875 3.25ZM14.9379 3.25H6.125C5.64175 3.25 5.25 3.64175 5.25 4.125V13H11V14.25H2.25V15.875C2.25 16.3582 2.64175 16.75 3.125 16.75H11V18H3.125C1.95139 18 1 17.0486 1 15.875V13H1.625H2.25H4V4.125C4 2.95139 4.9514 2 6.125 2H16.875C18.0486 2 19 2.95139 19 4.125V6.375V7H18.375H16V12.1547L14.75 11.433V4.125C14.75 3.81307 14.8172 3.51684 14.9379 3.25ZM18.5442 14.7783L19.7942 15.5L18.5442 16.2217L13.25 19.2783L12 20V18.5566V12.4434V11L13.25 11.7217L18.5442 14.7783ZM13.25 13.1651L17.2942 15.5L13.25 17.8349V13.1651Z" fill="context-fill"/>
</svg>
