<svg width="20" height="20" viewBox="0 0 20 20" fill="none" xmlns="http://www.w3.org/2000/svg">
<path fill-rule="evenodd" clip-rule="evenodd" d="M3.25 2C2.55964 2 2 2.55964 2 3.25V16.75C2 17.4404 2.55964 18 3.25 18H16.75C17.4404 18 18 17.4404 18 16.75V6.375V6.11612L17.8169 5.93306L14.0669 2.18306L13.8839 2H13.625H3.25ZM12 3.25H13.3661L16.75 6.63388V16.75H15V11.25C15 10.5596 14.4404 10 13.75 10H6.25C5.55964 10 5 10.5596 5 11.25V16.75H3.25V3.25H5V5.75C5 6.44036 5.55964 7 6.25 7H10.75C11.4404 7 12 6.44036 12 5.75V3.25ZM10.75 3.25H6.25V5.75H10.75V3.25ZM6.25 16.75H13.75V11.25H6.25V16.75Z" fill="context-fill"/>
</svg>
