<svg width="20" height="20" viewBox="0 0 20 20" fill="none" xmlns="http://www.w3.org/2000/svg">
<path d="M7 7.25H4V6H7V7.25Z" fill="context-fill"/>
<path d="M7 10.25H4V9H7V10.25Z" fill="context-fill"/>
<path d="M7 13.25H4V12H7V13.25Z" fill="context-fill"/>
<path fill-rule="evenodd" clip-rule="evenodd" d="M2.25 3C1.55964 3 1 3.55964 1 4.25V15.75C1 16.4404 1.55964 17 2.25 17H17.75C18.4404 17 19 16.4404 19 15.75V4.25C19 3.55964 18.4404 3 17.75 3H2.25ZM17.75 4.25H10V15.75H17.75V4.25ZM2.25 4.25H8.75V15.75H2.25V4.25Z" fill="context-fill"/>
</svg>
