<svg width="20" height="20" viewBox="0 0 20 20" fill="none" xmlns="http://www.w3.org/2000/svg">
<path fill-rule="evenodd" clip-rule="evenodd" d="M17.75 10C17.75 14.2802 14.2802 17.75 10 17.75C5.71979 17.75 2.25 14.2802 2.25 10C2.25 5.71979 5.71979 2.25 10 2.25C14.2802 2.25 17.75 5.71979 17.75 10ZM19 10C19 14.9706 14.9706 19 10 19C5.02944 19 1 14.9706 1 10C1 5.02944 5.02944 1 10 1C14.9706 1 19 5.02944 19 10ZM6.00003 6.88388L9.1161 9.99999L5.99998 13.1161L6.88386 14L9.99999 10.8839L13.1162 14L14 13.1162L10.8839 9.99999L14 6.88388L13.1162 6L9.99999 9.1161L6.88391 6L6.00003 6.88388Z" fill="context-fill"/>
</svg>
