<svg width="20" height="20" viewBox="0 0 20 20" fill="none" xmlns="http://www.w3.org/2000/svg">
<path fill-rule="evenodd" clip-rule="evenodd" d="M15.7498 4.43755C14.2954 2.93446 12.2569 2 10.0001 2C5.9205 2 2.55411 5.05369 2.06201 9H3.32368C3.80688 5.74629 6.61198 3.25 10.0001 3.25C12.1173 3.25 14.0069 4.22477 15.2444 5.75H12.0001V7L17.0001 7V2H15.7498V4.43755ZM10.0001 18C7.74312 18 5.70442 17.0654 4.24996 15.562V18H3.0002V13H8.0002V14.25H4.75554C5.99312 15.7752 7.88266 16.75 9.99987 16.75C13.388 16.75 16.1931 14.2537 16.6763 11H17.9382C17.4461 14.9463 14.0797 18 10.0001 18Z" fill="context-fill"/>
</svg>
