<svg width="20" height="20" viewBox="0 0 20 20" fill="none" xmlns="http://www.w3.org/2000/svg">
<path fill-rule="evenodd" clip-rule="evenodd" d="M7.00016 4.5L6.49991 3L2.99991 1L0.999914 3L2.99991 6.5L4.49991 7L6.79236 9.29245L2.35482 12.7346C1.96238 13.039 1.63922 13.4234 1.40682 13.8623C1.17442 14.3013 1.03809 14.7847 1.00691 15.2803C0.975721 15.776 1.05039 16.2727 1.22595 16.7373C1.4015 17.2019 1.67393 17.6238 2.02513 17.975C2.37632 18.3262 2.79824 18.5986 3.26284 18.7741C3.72744 18.9497 4.22408 19.0244 4.71977 18.9932C5.21545 18.962 5.69882 18.8257 6.13775 18.5933C6.57669 18.3609 6.96113 18.0377 7.26554 17.6453L9.66634 14.5502L13.2323 18.1161C14.2086 19.0924 15.7915 19.0924 16.7678 18.1161L18.1162 16.7678C19.0925 15.7915 19.0925 14.2086 18.1162 13.2322L14.869 9.98511C17.1817 9.7974 19 7.86106 19 5.50002C19 4.98065 18.912 4.48184 18.7501 4.01766C18.6042 3.59931 18.3983 3.2091 18.1427 2.85734L15.5 5.50002L14.5 4.50003L17.1427 1.85734C16.7909 1.60171 16.4007 1.39579 15.9824 1.24989C15.5182 1.08801 15.0194 1.00003 14.5 1.00003C12.0147 1.00003 10 3.01474 10 5.50002C10 5.90926 10.0546 6.30574 10.157 6.68257L9.60832 7.10816L7.00016 4.5ZM14.1162 17.2322L10.4386 13.5546L13.161 10.0449L17.2323 14.1161C17.7204 14.6043 17.7204 15.3957 17.2323 15.8839L15.8839 17.2322C15.3958 17.7204 14.6043 17.7204 14.1162 17.2322ZM8.61278 7.88038L6.11627 5.38388L5.90769 5.1753L5.81436 4.89546L5.46518 3.84841L3.20869 2.55899L2.5589 3.20878L3.84827 5.46517L4.8952 5.81415L5.17514 5.90746L5.3838 6.11612L7.7879 8.52022L8.61278 7.88038ZM14.9513 2.28097C14.8039 2.26057 14.6533 2.25003 14.5 2.25003C12.7051 2.25003 11.25 3.7051 11.25 5.50002C11.25 5.79757 11.2897 6.08389 11.3633 6.35489C11.4956 6.842 11.322 7.36089 10.9231 7.67026L3.12096 13.7222C2.86868 13.9179 2.66093 14.1651 2.51153 14.4473C2.36213 14.7294 2.27449 15.0402 2.25444 15.3588C2.23439 15.6775 2.28239 15.9967 2.39525 16.2954C2.50811 16.5941 2.68324 16.8653 2.90901 17.0911C3.13477 17.3168 3.40601 17.492 3.70469 17.6048C4.00335 17.7177 4.32262 17.7657 4.64128 17.7457C4.95993 17.7256 5.27067 17.638 5.55284 17.4886C5.83502 17.3392 6.08216 17.1314 6.27785 16.8791L12.3299 9.07693C12.6392 8.67809 13.1581 8.50446 13.6452 8.63677C13.9162 8.71037 14.2025 8.75002 14.5 8.75002C16.2949 8.75002 17.75 7.29495 17.75 5.50002C17.75 5.34675 17.7395 5.19611 17.7191 5.04874L16.3839 6.38391C15.8957 6.87206 15.1043 6.87206 14.6161 6.38391L13.6161 5.38391C13.128 4.89575 13.128 4.1043 13.6161 3.61614L14.9513 2.28097ZM5.50004 15.5C5.50004 16.0523 5.05232 16.5 4.50004 16.5C3.94775 16.5 3.50004 16.0523 3.50004 15.5C3.50004 14.9477 3.94775 14.5 4.50004 14.5C5.05232 14.5 5.50004 14.9477 5.50004 15.5ZM12.5581 13.442L15.0581 15.942L15.942 15.0581L13.442 12.5581L12.5581 13.442Z" fill="context-fill"/>
</svg>
