<svg width="16" height="16" viewBox="0 0 16 16" fill="none" xmlns="http://www.w3.org/2000/svg">
<path opacity="0.5" d="M10.7071 0H2V15H14L15 14V4.293L10.7071 0Z" fill="white"/>
<path d="M10.293 1L14 4.707V14H3V1H10.293Z" fill="white"/>
<path opacity="0.2" d="M10.707 0H2V15H14L15 14V4.293L10.707 0ZM11 1.707L13.293 4H11V1.707ZM3 14V1H10V5H14V14H3Z" fill="black"/>
<path opacity="0.08" d="M11 1.70703V4.00006H13.293L11 1.70703Z" fill="black"/>
<path d="M11.5 16C13.9853 16 16 13.9853 16 11.5C16 9.01472 13.9853 7 11.5 7C9.01472 7 7 9.01472 7 11.5C7 13.9853 9.01472 16 11.5 16Z" fill="#999999"/>
<path d="M10.8014 12.309C10.7904 12.113 10.8074 11.939 10.8524 11.788C10.8974 11.637 10.9764 11.499 11.0894 11.375C11.2024 11.251 11.3534 11.133 11.5414 11.021C11.7154 10.917 11.8534 10.822 11.9544 10.735C12.0554 10.648 12.1264 10.556 12.1674 10.459C12.2084 10.362 12.2284 10.251 12.2284 10.126V10.118C12.2284 9.98702 12.1954 9.87102 12.1304 9.77102C12.0654 9.67102 11.9744 9.59202 11.8584 9.53602C11.7424 9.48002 11.6074 9.45202 11.4514 9.45202C11.2954 9.45202 11.1594 9.48302 11.0424 9.54602C10.9254 9.60902 10.8324 9.69502 10.7644 9.80302C10.6964 9.91102 10.6584 10.036 10.6504 10.175L10.6464 10.208H9.53442L9.53842 10.171C9.54942 9.84902 9.63342 9.56302 9.78942 9.31302C9.94542 9.06302 10.1704 8.86402 10.4614 8.71802C10.7524 8.57202 11.1074 8.49902 11.5244 8.49902C11.9144 8.49902 12.2544 8.56602 12.5444 8.70102C12.8344 8.83602 13.0604 9.02102 13.2224 9.25702C13.3844 9.49302 13.4654 9.76702 13.4654 10.081V10.089C13.4654 10.394 13.3914 10.658 13.2444 10.88C13.0974 11.102 12.8794 11.298 12.5904 11.467C12.4104 11.573 12.2704 11.671 12.1694 11.759C12.0684 11.847 11.9974 11.94 11.9564 12.037C11.9154 12.134 11.8954 12.246 11.8954 12.374V12.542H10.8084L10.8004 12.309H10.8014ZM10.8974 14.314C10.7684 14.19 10.7034 14.038 10.7034 13.858C10.7034 13.678 10.7684 13.526 10.8974 13.402C11.0264 13.278 11.1844 13.216 11.3694 13.216C11.5574 13.216 11.7164 13.278 11.8454 13.402C11.9744 13.526 12.0394 13.678 12.0394 13.858C12.0394 14.038 11.9744 14.19 11.8454 14.314C11.7164 14.438 11.5574 14.5 11.3694 14.5C11.1844 14.5 11.0264 14.438 10.8974 14.314Z" fill="white"/>
</svg>
