<svg width="16" height="16" viewBox="0 0 16 16" fill="none" xmlns="http://www.w3.org/2000/svg">
<g id="info">
<path id="Vector" fill-rule="evenodd" clip-rule="evenodd" d="M2 0H9.70711L14 4.29289V7.75777C15.206 8.56504 16 9.93979 16 11.5C16 13.9853 13.9853 16 11.5 16C10.4284 16 9.4442 15.6254 8.67133 15H2V0ZM7.75777 14C7.27914 13.285 7 12.4251 7 11.5C7 9.01472 9.01472 7 11.5 7C12.026 7 12.5308 7.09023 13 7.25606V5H9V1H3V14H7.75777ZM10 1.70711L12.2929 4H10V1.70711ZM15 11.5C15 13.433 13.433 15 11.5 15C9.567 15 8 13.433 8 11.5C8 9.567 9.567 8 11.5 8C13.433 8 15 9.567 15 11.5ZM10.875 9.625C10.875 9.27982 11.1548 9 11.5 9C11.8452 9 12.125 9.27982 12.125 9.625C12.125 9.97018 11.8452 10.25 11.5 10.25C11.1548 10.25 10.875 9.97018 10.875 9.625ZM12 14V11H11V14H12Z" fill="context-fill"/>
</g>
</svg>
