<svg width="16" height="16" viewBox="0 0 16 16" fill="none" xmlns="http://www.w3.org/2000/svg">
<g id="icon" clip-path="url(#clip0_5386_1543)">
<path id="Vector" fill-rule="evenodd" clip-rule="evenodd" d="M2 2.64987V3H9V2.64987L5.5 1.09432L2 2.64987ZM5.5 0L1 2V3V4H2V9H1V10H5V9V4H6V7H7V4H8V6H9V4H10V3V2L5.5 0ZM4 9H3V4H4V9ZM15 10H7V9H7.69098C8.06976 9 8.41602 8.786 8.58541 8.44721L8.80902 8H10.691L10.9146 8.44721C11.084 8.786 11.4302 9 11.809 9H15V10ZM15 11H7V15H15V11ZM0 11H5V12H0V11ZM8.80902 7C8.43025 7 8.08398 7.214 7.91459 7.55279L7.69098 8H7C6.44772 8 6 8.44772 6 9V15C6 15.5523 6.44772 16 7 16H15C15.5523 16 16 15.5523 16 15V9C16 8.44772 15.5523 8 15 8H11.809L11.5854 7.55279C11.416 7.214 11.0698 7 10.691 7H8.80902Z" fill="context-fill"/>
</g>
<defs>
<clipPath id="clip0_5386_1543">
<rect width="16" height="16" fill="white"/>
</clipPath>
</defs>
</svg>
