<svg width="16" height="16" viewBox="0 0 16 16" fill="none" xmlns="http://www.w3.org/2000/svg">
<path d="M13 7.25684C12.989 7.25296 12.9778 7.24989 12.9668 7.24609C14.7316 7.85452 16 9.52847 16 11.5C16 13.9853 13.9853 16 11.5 16C10.4288 16 9.44558 15.625 8.67285 15H5.29297L1 10.707V0H13V7.25684ZM11.5 8C9.567 8 8 9.567 8 11.5C8 13.433 9.567 15 11.5 15C13.433 15 15 13.433 15 11.5C15 9.567 13.433 8 11.5 8ZM2 10H6V14H7.75879C7.27996 13.2849 7 12.4253 7 11.5C7 9.01472 9.01472 7 11.5 7C11.669 7 11.8358 7.0092 12 7.02734V3H2V10ZM12 14H11V11H12V14ZM5 13.293V11H2.70703L5 13.293ZM11.5 9C11.8452 9 12.125 9.27982 12.125 9.625C12.125 9.97018 11.8452 10.25 11.5 10.25C11.1548 10.25 10.875 9.97018 10.875 9.625C10.875 9.27982 11.1548 9 11.5 9ZM2 2H12V1H2V2Z" fill="context-fill"/>
</svg>
