<svg width="16" height="16" viewBox="0 0 16 16" fill="none" xmlns="http://www.w3.org/2000/svg">
<path d="M8.5 1C12.6421 1 16 4.35786 16 8.5C16 12.6421 12.6421 16 8.5 16C4.35786 16 1 12.6421 1 8.5C1 4.35786 4.35786 1 8.5 1ZM8.5 2C4.91015 2 2 4.91015 2 8.5C2 12.0899 4.91015 15 8.5 15C12.0899 15 15 12.0899 15 8.5C15 4.91015 12.0899 2 8.5 2ZM9 11H10V12H7V11H8V8H7V7H9V11ZM8.25 4.5C8.66421 4.5 9 4.83579 9 5.25C9 5.66421 8.66421 6 8.25 6C7.83579 6 7.5 5.66421 7.5 5.25C7.5 4.83579 7.83579 4.5 8.25 4.5Z" fill="context-fill"/>
</svg>
