<svg width="16" height="16" viewBox="0 0 16 16" fill="none" xmlns="http://www.w3.org/2000/svg">
<g id="tag" clip-path="url(#clip0_188_882)">
<path id="Vector" d="M6.086 1L14.586 9.5L9.5 14.586L1 6.086V1H6.086ZM6.5 0H0.5C0.367392 0 0.240215 0.0526784 0.146447 0.146447C0.0526784 0.240215 0 0.367392 0 0.5L0 6.5L9.146 15.646C9.23976 15.7397 9.36692 15.7924 9.4995 15.7924C9.63208 15.7924 9.75924 15.7397 9.853 15.646L15.646 9.853C15.7397 9.75924 15.7924 9.63208 15.7924 9.4995C15.7924 9.36692 15.7397 9.23976 15.646 9.146L6.5 0ZM4 2.75C3.75277 2.75 3.5111 2.82331 3.30554 2.96066C3.09998 3.09801 2.93976 3.29324 2.84515 3.52165C2.75054 3.75005 2.72579 4.00139 2.77402 4.24386C2.82225 4.48634 2.9413 4.70907 3.11612 4.88388C3.29093 5.0587 3.51366 5.17775 3.75614 5.22598C3.99861 5.27421 4.24995 5.24946 4.47835 5.15485C4.70676 5.06024 4.90199 4.90002 5.03934 4.69446C5.17669 4.4889 5.25 4.24723 5.25 4C5.25 3.66848 5.1183 3.35054 4.88388 3.11612C4.64946 2.8817 4.33152 2.75 4 2.75Z" fill="context-fill"/>
</g>
<defs>
<clipPath id="clip0_188_882">
<rect width="16" height="16" fill="white"/>
</clipPath>
</defs>
</svg>
