<svg width="16" height="15" viewBox="0 0 16 15" fill="none" xmlns="http://www.w3.org/2000/svg">
<path d="M8 7.19238C7.0375 7.19238 6.21358 6.84972 5.52825 6.16438C4.84275 5.47888 4.5 4.65488 4.5 3.69238C4.5 2.72988 4.84275 1.90597 5.52825 1.22063C6.21358 0.535133 7.0375 0.192383 8 0.192383C8.9625 0.192383 9.78642 0.535133 10.4718 1.22063C11.1573 1.90597 11.5 2.72988 11.5 3.69238C11.5 4.65488 11.1573 5.47888 10.4718 6.16438C9.78642 6.84972 8.9625 7.19238 8 7.19238ZM0.5 14.8079V12.5846C0.5 12.095 0.633 11.6415 0.899 11.2241C1.165 10.8068 1.5205 10.486 1.9655 10.2616C2.95383 9.77713 3.95092 9.41372 4.95675 9.17138C5.96258 8.92905 6.977 8.80788 8 8.80788C9.023 8.80788 10.0374 8.92905 11.0433 9.17138C12.0491 9.41372 13.0462 9.77713 14.0345 10.2616C14.4795 10.486 14.835 10.8068 15.101 11.2241C15.367 11.6415 15.5 12.095 15.5 12.5846V14.8079H0.5ZM2 13.3079H14V12.5846C14 12.3821 13.9413 12.1946 13.824 12.0221C13.7067 11.8498 13.5474 11.7091 13.3462 11.6001C12.4846 11.1758 11.6061 10.8543 10.7107 10.6356C9.81525 10.4171 8.91167 10.3079 8 10.3079C7.08833 10.3079 6.18475 10.4171 5.28925 10.6356C4.39392 10.8543 3.51542 11.1758 2.65375 11.6001C2.45258 11.7091 2.29333 11.8498 2.176 12.0221C2.05867 12.1946 2 12.3821 2 12.5846V13.3079ZM8 5.69238C8.55 5.69238 9.02083 5.49655 9.4125 5.10488C9.80417 4.71322 10 4.24238 10 3.69238C10 3.14238 9.80417 2.67155 9.4125 2.27988C9.02083 1.88822 8.55 1.69238 8 1.69238C7.45 1.69238 6.97917 1.88822 6.5875 2.27988C6.19583 2.67155 6 3.14238 6 3.69238C6 4.24238 6.19583 4.71322 6.5875 5.10488C6.97917 5.49655 7.45 5.69238 8 5.69238Z" fill="white"/>
</svg> 