<svg width="20" height="20" viewBox="0 0 20 20" fill="none" xmlns="http://www.w3.org/2000/svg">
<path fill-rule="evenodd" clip-rule="evenodd" d="M3.5 1C2.11929 1 1 2.11929 1 3.5V7H2.25L2.25 3.5C2.25 2.80964 2.80964 2.25 3.5 2.25H7V1H3.5ZM13 2.25H16.5C17.1904 2.25 17.75 2.80964 17.75 3.5V7H19V3.5C19 2.11929 17.8807 1 16.5 1H13V2.25ZM2.25 16.5V13H1V16.5C1 17.8807 2.11929 19 3.5 19H7V17.75H3.5C2.80964 17.75 2.25 17.1904 2.25 16.5ZM19 16.5V13H17.75V16.5C17.75 17.1904 17.1904 17.75 16.5 17.75H13V19H16.5C17.8807 19 19 17.8807 19 16.5ZM11.1339 4H5V16.5H15.5V8.36612L11.1339 4ZM6.25 15.25V5.25H10.25V9.25H14.25V15.25H6.25ZM11.5 8V6.13388L13.3661 8H11.5Z" fill="context-fill"/>
</svg>
