<svg width="20" height="20" viewBox="0 0 20 20" fill="none" xmlns="http://www.w3.org/2000/svg">
<g id="info">
<path id="Vector" fill-rule="evenodd" clip-rule="evenodd" d="M3.625 1H3V1.625V18.375V19H3.625H12.5024C13.2914 19.6261 14.2895 20 15.375 20C17.9293 20 20 17.9293 20 15.375C20 13.7955 19.2083 12.401 18 11.5666V6.625V6.36612L17.8169 6.18306L12.8169 1.18306L12.6339 1H12.375H3.625ZM16.75 10.9578V7.25H12.375H11.75V6.625V2.25H4.25V17.75H11.4056C10.9893 17.0558 10.75 16.2433 10.75 15.375C10.75 12.8207 12.8207 10.75 15.375 10.75C15.8538 10.75 16.3156 10.8228 16.75 10.9578ZM13 17.7729V17.75H12.9771C12.373 17.1402 12 16.3012 12 15.375C12 13.511 13.511 12 15.375 12C17.239 12 18.75 13.511 18.75 15.375C18.75 17.239 17.239 18.75 15.375 18.75C14.4488 18.75 13.6098 18.377 13 17.7729ZM15.8661 6L13 3.13388V6H15.8661ZM14.625 13.75C14.625 13.3358 14.9608 13 15.375 13C15.7892 13 16.125 13.3358 16.125 13.75C16.125 14.1642 15.7892 14.5 15.375 14.5C14.9608 14.5 14.625 14.1642 14.625 13.75ZM14.75 15V17.75H16V15H14.75Z" fill="context-fill"/>
</g>
</svg>
