<svg width="20" height="20" viewBox="0 0 20 20" fill="none" xmlns="http://www.w3.org/2000/svg">
<g id="icon" clip-path="url(#clip0_5386_16770)">
<path id="Vector" fill-rule="evenodd" clip-rule="evenodd" d="M2.25 3.33333V3.75H11.75V3.33333L7 1.35417L2.25 3.33333ZM7 0L1 2.5V3.75V5H2V11H1V12.25H6.75V11H6.25V5H7.75V9H9V5H10.75V7.75H12V5H13V3.75V2.5L7 0ZM5 11H3.25V5H5V11ZM18.75 12.75H9V11.25H10.066C10.4921 11.25 10.8816 11.0092 11.0722 10.6281L11.3863 10H13.6137L13.9278 10.6281C14.1184 11.0092 14.5079 11.25 14.934 11.25H18.75V12.75ZM18.75 14H9V18.75H18.75V14ZM0 13.75H6.75V15H0V13.75ZM11.309 8.75C10.8829 8.75 10.4934 8.99075 10.3028 9.37189L9.98873 10H8.875C8.25368 10 7.75 10.5037 7.75 11.125V18.875C7.75 19.4963 8.25368 20 8.875 20H18.875C19.4963 20 20 19.4963 20 18.875V11.125C20 10.5037 19.4963 10 18.875 10H15.0113L14.6972 9.37188C14.5066 8.99075 14.1171 8.75 13.691 8.75H11.309Z" fill="context-fill"/>
</g>
<defs>
<clipPath id="clip0_5386_16770">
<rect width="20" height="20" fill="white"/>
</clipPath>
</defs>
</svg>
