<svg width="20" height="20" viewBox="0 0 20 20" fill="none" xmlns="http://www.w3.org/2000/svg">
<path d="M18 11.5674L18.1426 11.6689C19.2702 12.5124 20 13.8585 20 15.375C20 17.9293 17.9293 20 15.375 20C14.29 20 13.2928 19.6256 12.5039 19H8.36621L8.18262 18.8174L3.18262 13.8174L3 13.6338V1H18V11.5674ZM15.375 12C13.511 12 12 13.511 12 15.375C12 17.239 13.511 18.75 15.375 18.75C17.239 18.75 18.75 17.239 18.75 15.375C18.75 13.511 17.239 12 15.375 12ZM4.25 12.75H9.25V17.75H11.4062C10.9899 17.0557 10.75 16.2435 10.75 15.375C10.75 12.8207 12.8207 10.75 15.375 10.75C15.8538 10.75 16.3156 10.8229 16.75 10.958V5H4.25V12.75ZM16 17.75H14.75V15H16V17.75ZM8 16.8652V14H5.13477L8 16.8652ZM15.375 13C15.7892 13 16.125 13.3358 16.125 13.75C16.125 14.1642 15.7892 14.5 15.375 14.5C14.9608 14.5 14.625 14.1642 14.625 13.75C14.625 13.3358 14.9608 13 15.375 13ZM4.25 3.75H16.75V2.25H4.25V3.75Z" fill="context-fill"/>
</svg>
