<svg width="20" height="20" viewBox="0 0 20 20" fill="none" xmlns="http://www.w3.org/2000/svg">
<path fill-rule="evenodd" clip-rule="evenodd" d="M16.5581 4.44194C15.1453 3.02916 12.8548 3.02916 11.442 4.44194L2.942 12.9419C2.08151 13.8024 2.08151 15.1976 2.942 16.0581C3.80249 16.9185 5.19762 16.9185 6.05812 16.0581L14.5581 7.55805C14.8663 7.24985 14.8663 6.75014 14.5581 6.44194C14.2499 6.13373 13.7502 6.13373 13.442 6.44194L6.942 12.9419C6.69792 13.186 6.30219 13.186 6.05812 12.9419C5.81404 12.6979 5.81404 12.3021 6.05812 12.0581L12.5581 5.55805C13.3545 4.76169 14.6456 4.76169 15.442 5.55805C16.2384 6.35441 16.2384 7.64557 15.442 8.44194L6.942 16.9419C5.59335 18.2906 3.40676 18.2906 2.05812 16.9419C0.709469 15.5933 0.709469 13.4067 2.05812 12.0581L10.5581 3.55805C12.459 1.65712 15.5411 1.65712 17.442 3.55805C19.3429 5.45898 19.3429 8.541 17.442 10.4419L16.8827 11.0013C16.4101 10.8384 15.9029 10.75 15.3751 10.75L15.375 10.75C17.9293 10.75 20 12.8207 20 15.375C20 17.9293 17.9293 20 15.375 20C13.3486 20 11.6265 18.6967 11.0013 16.8826L10.942 16.9419C10.6979 17.186 10.3022 17.186 10.0581 16.9419C9.81404 16.6979 9.81404 16.3021 10.0581 16.0581L10.75 15.3662C10.7548 12.8174 12.8212 10.7525 15.3704 10.75L15.3662 10.75L16.5581 9.55805C17.9709 8.14528 17.9709 5.85471 16.5581 4.44194ZM18.75 15.375C18.75 17.239 17.239 18.75 15.375 18.75C13.511 18.75 12 17.239 12 15.375C12 13.511 13.511 12 15.375 12C17.239 12 18.75 13.511 18.75 15.375ZM14.625 13.75C14.625 13.3358 14.9608 13 15.375 13C15.7892 13 16.125 13.3358 16.125 13.75C16.125 14.1642 15.7892 14.5 15.375 14.5C14.9608 14.5 14.625 14.1642 14.625 13.75ZM14.75 15V17.75H16V15H14.75Z" fill="context-fill"/>
</svg>
