<svg width="20" height="20" viewBox="0 0 20 20" fill="none" xmlns="http://www.w3.org/2000/svg">
<path d="M10 1C14.9706 1 19 5.02944 19 10C19 14.9706 14.9706 19 10 19C5.02944 19 1 14.9706 1 10C1 5.02944 5.02944 1 10 1ZM10 2.25C5.71979 2.25 2.25 5.71979 2.25 10C2.25 14.2802 5.71979 17.75 10 17.75C14.2802 17.75 17.75 14.2802 17.75 10C17.75 5.71979 14.2802 2.25 10 2.25ZM10.625 13H12V14.25H8V13H9.375V9.25H8V8H10.625V13ZM9.75 5.25C10.2332 5.25 10.625 5.64175 10.625 6.125C10.625 6.60825 10.2332 7 9.75 7C9.26675 7 8.875 6.60825 8.875 6.125C8.875 5.64175 9.26675 5.25 9.75 5.25Z" fill="context-fill"/>
</svg>
