<svg width="20" height="20" viewBox="0 0 20 20" fill="none" xmlns="http://www.w3.org/2000/svg">
<g id="link" clip-path="url(#clip0_1132_37385)">
<path id="Vector" fill-rule="evenodd" clip-rule="evenodd" d="M0 8.125C0 5.70875 1.95875 3.75 4.375 3.75H9.625C12.0412 3.75 14 5.70875 14 8.125C14 10.5412 12.0412 12.5 9.625 12.5H8.60669C8.5376 12.3045 8.5 12.0941 8.5 11.875C8.5 11.6559 8.5376 11.4455 8.60669 11.25H9.625C11.3509 11.25 12.75 9.85089 12.75 8.125C12.75 6.39911 11.3509 5 9.625 5H4.375C2.64911 5 1.25 6.39911 1.25 8.125C1.25 9.85089 2.64911 11.25 4.375 11.25H4.78433C4.76165 11.4552 4.75 11.6637 4.75 11.875C4.75 12.0863 4.76165 12.2948 4.78433 12.5H4.375C1.95875 12.5 0 10.5412 0 8.125ZM10.3751 7.49999H11.3934C11.4625 7.69547 11.5001 7.90584 11.5001 8.12499C11.5001 8.34413 11.4625 8.5545 11.3934 8.74999H10.3751C8.64919 8.74999 7.25008 10.1491 7.25008 11.875C7.25008 13.6009 8.64919 15 10.3751 15H15.6251C17.351 15 18.7501 13.6009 18.7501 11.875C18.7501 10.1491 17.351 8.74999 15.6251 8.74999H15.2157C15.2384 8.54478 15.2501 8.33624 15.2501 8.12499C15.2501 7.91373 15.2384 7.7052 15.2157 7.49999H15.6251C18.0413 7.49999 20.0001 9.45874 20.0001 11.875C20.0001 14.2912 18.0413 16.25 15.6251 16.25H10.3751C7.95883 16.25 6.00008 14.2912 6.00008 11.875C6.00008 9.45874 7.95883 7.49999 10.3751 7.49999Z" fill="context-fill"/>
</g>
<defs>
<clipPath id="clip0_1132_37385">
<rect width="20" height="20" fill="white"/>
</clipPath>
</defs>
</svg>
