<svg width="20" height="20" viewBox="0 0 20 20" fill="none" xmlns="http://www.w3.org/2000/svg">
<g id="tag">
<path id="Vector" fill-rule="evenodd" clip-rule="evenodd" d="M1.9375 1C1.41973 1 1 1.41973 1 1.9375V8.625V8.88388L1.18306 9.06694L10.8371 18.721C11.2032 19.0871 11.7968 19.0871 12.1629 18.721L18.721 12.1629C19.0871 11.7968 19.0871 11.2032 18.721 10.8371L9.06694 1.18306L8.88388 1H8.625H1.9375ZM2.25 8.36612V2.25H8.36612L17.6161 11.5L11.5 17.6161L2.25 8.36612ZM5.125 6.375C5.81536 6.375 6.375 5.81536 6.375 5.125C6.375 4.43464 5.81536 3.875 5.125 3.875C4.43464 3.875 3.875 4.43464 3.875 5.125C3.875 5.81536 4.43464 6.375 5.125 6.375Z" fill="context-fill"/>
</g>
</svg>
