<svg width="101" height="121" viewBox="0 0 101 121" fill="none" xmlns="http://www.w3.org/2000/svg">
<path opacity="0.2" d="M99.9071 46.1855L77.7331 12.1408C77.4387 11.6892 77.06 11.3013 76.6188 10.9994C76.1777 10.6974 75.6826 10.4872 75.1619 10.3808L27.6052 0.625836C25.503 0.194638 23.3194 0.634618 21.5347 1.84899C19.7499 3.06336 18.5102 4.95264 18.0884 7.10122L0.590702 96.2146C0.168823 98.3632 0.599295 100.595 1.78742 102.419C2.97554 104.243 4.82399 105.51 6.92613 105.942L78.2612 120.574C80.3634 121.005 82.547 120.565 84.3318 119.351C86.1165 118.137 87.3562 116.247 87.7781 114.099L100.504 49.289C100.609 48.757 100.61 48.2091 100.507 47.6766C100.405 47.1441 100.201 46.6374 99.9071 46.1855ZM76.4099 25.0215L87.7701 42.4633L73.5575 39.548L76.4099 25.0215ZM79.8519 112.473L8.51683 97.8404L26.0145 8.72705L69.6082 17.6691L64.8361 41.9728C64.6251 43.0471 64.8404 44.163 65.4344 45.0751C66.0285 45.9872 66.9527 46.6207 68.0038 46.8363L91.7822 51.7138L79.8519 112.473ZM71.9532 68.7152C71.7422 69.7895 71.1224 70.7341 70.23 71.3413C69.3377 71.9485 68.2458 72.1685 67.1948 71.9529L35.4903 65.4495C34.4392 65.2339 33.515 64.6004 32.9209 63.6883C32.3268 62.7762 32.1116 61.6603 32.3226 60.586C32.5335 59.5117 33.1533 58.5671 34.0457 57.9599C34.9381 57.3527 36.0299 57.1327 37.081 57.3483L68.7855 63.8517C69.8365 64.0673 70.7608 64.7008 71.3548 65.6129C71.9489 66.525 72.1641 67.6409 71.9532 68.7152ZM68.7718 84.9176C68.5608 85.9919 67.941 86.9366 67.0486 87.5437C66.1563 88.1509 65.0644 88.3709 64.0134 88.1553L32.3089 81.652C31.2578 81.4364 30.3336 80.8028 29.7395 79.8908C29.1455 78.9787 28.9302 77.8627 29.1412 76.7884C29.3521 75.7142 29.9719 74.7695 30.8643 74.1623C31.7567 73.5551 32.8485 73.3352 33.8996 73.5508L65.6041 80.0541C66.6551 80.2697 67.5794 80.9032 68.1734 81.8153C68.7675 82.7274 68.9827 83.8433 68.7718 84.9176Z" fill="url(#paint0_linear_119_2574)"/>
<defs>
<linearGradient id="paint0_linear_119_2574" x1="63.2727" y1="7.94209" x2="41.7073" y2="113.076" gradientUnits="userSpaceOnUse">
<stop stop-color="#0AE2FF"/>
<stop offset="1" stop-color="#0687E5"/>
</linearGradient>
</defs>
</svg>
