<svg width="129" height="104" viewBox="0 0 129 104" fill="none" xmlns="http://www.w3.org/2000/svg">
<path opacity="0.2" d="M125.417 15.4661C124.333 14.565 123.055 13.9403 121.688 13.6436C120.322 13.347 118.906 13.3869 117.557 13.76L109.054 16.0995L106.765 7.40805C106.158 5.10294 104.68 3.13873 102.656 1.9475C100.632 0.756278 98.2278 0.435624 95.9726 1.05609L59.1255 11.1932L41.4122 3.94894C39.642 3.23112 37.6928 3.11382 35.8523 3.61433L7.50357 11.4135C5.24828 12.0339 3.32651 13.5447 2.16104 15.6134C0.995558 17.6821 0.681838 20.1392 1.28889 22.4443L21.8889 100.667C22.1924 101.82 22.9315 102.802 23.9435 103.397C24.9554 103.993 26.1575 104.153 27.2851 103.843L122.472 77.6558C123.364 77.4104 124.159 76.8841 124.742 76.1517C125.326 75.4192 125.669 74.5176 125.723 73.5747L128.638 22.9805C128.72 21.557 128.47 20.1339 127.91 18.8278C127.351 17.5216 126.496 16.3697 125.417 15.4661ZM38.1412 12.3057L57.2154 20.1077C58.1 20.4694 59.0754 20.5281 59.9954 20.275L98.2614 9.7475L100.55 18.4389L31.3366 37.4806C29.5518 37.9715 27.9633 39.0239 26.7962 40.4889C25.6291 41.9538 24.9426 43.757 24.8339 45.6429L23.3398 71.5472L9.79245 20.1049L38.1412 12.3057ZM117.122 69.8066L30.8956 93.5286L33.6255 46.172L119.846 22.4514L117.122 69.8066Z" fill="url(#paint0_linear_119_2575)"/>
<defs>
<linearGradient id="paint0_linear_119_2575" x1="58.5257" y1="-2.62343" x2="83.557" y2="88.3618" gradientUnits="userSpaceOnUse">
<stop stop-color="#0AE2FF"/>
<stop offset="1" stop-color="#0687E5"/>
</linearGradient>
</defs>
</svg>
