<svg width="9" height="10" viewBox="0 0 9 10" fill="none" xmlns="http://www.w3.org/2000/svg">
<g id="tag-crescent">
<g id="Vector">
<mask id="path-1-outside-1_4333_2740" maskUnits="userSpaceOnUse" x="0.399414" y="0" width="9" height="10" fill="black">
<rect fill="context-stroke" x="0.399414" width="9" height="10"/>
<path fill-rule="evenodd" clip-rule="evenodd" d="M2.39941 8.66685C3.38403 7.75368 4.00023 6.4488 4.00023 5C4.00023 3.5512 3.38403 2.24632 2.39941 1.33315C2.88957 1.11887 3.43097 1 4.00013 1C6.20927 1 8.00013 2.79086 8.00013 5C8.00013 7.20914 6.20927 9 4.00013 9C3.43097 9 2.88957 8.88113 2.39941 8.66685Z"/>
</mask>
<path fill-rule="evenodd" clip-rule="evenodd" d="M2.39941 8.66685C3.38403 7.75368 4.00023 6.4488 4.00023 5C4.00023 3.5512 3.38403 2.24632 2.39941 1.33315C2.88957 1.11887 3.43097 1 4.00013 1C6.20927 1 8.00013 2.79086 8.00013 5C8.00013 7.20914 6.20927 9 4.00013 9C3.43097 9 2.88957 8.88113 2.39941 8.66685Z" fill="context-fill"/>
<path d="M2.39941 8.66685L1.71941 7.93364L0.600161 8.97168L1.99886 9.58312L2.39941 8.66685ZM2.39941 1.33315L1.99886 0.416876L0.600161 1.02832L1.71941 2.06636L2.39941 1.33315ZM3.00023 5C3.00023 6.15906 2.50854 7.20177 1.71941 7.93364L3.07942 9.40006C4.25952 8.30559 5.00023 6.73854 5.00023 5H3.00023ZM1.71941 2.06636C2.50854 2.79823 3.00023 3.84094 3.00023 5H5.00023C5.00023 3.26146 4.25952 1.69441 3.07942 0.599942L1.71941 2.06636ZM2.79997 2.24942C3.1662 2.08932 3.57142 2 4.00013 2V0C3.29053 0 2.61295 0.148425 1.99886 0.416876L2.79997 2.24942ZM4.00013 2C5.65699 2 7.00013 3.34315 7.00013 5H9.00013C9.00013 2.23858 6.76156 0 4.00013 0V2ZM7.00013 5C7.00013 6.65685 5.65699 8 4.00013 8V10C6.76156 10 9.00013 7.76142 9.00013 5H7.00013ZM4.00013 8C3.57142 8 3.1662 7.91068 2.79997 7.75058L1.99886 9.58312C2.61295 9.85157 3.29053 10 4.00013 10V8Z" fill="context-stroke" mask="url(#path-1-outside-1_4333_2740)"/>
</g>
</g>
</svg>
