<svg width="12" height="12" viewBox="0 0 12 12" fill="none" xmlns="http://www.w3.org/2000/svg">
<g id="tag" clip-path="url(#clip0_3570_22211)">
<path id="Vector" fill-rule="evenodd" clip-rule="evenodd" d="M1 4.79289V1H4.79289L10.7929 7L7 10.7929L1 4.79289ZM0.75 0C0.335787 0 0 0.335786 0 0.75V5V5.20711L0.146447 5.35355L6.46967 11.6768C6.76256 11.9697 7.23744 11.9697 7.53033 11.6768L11.6768 7.53033C11.9697 7.23744 11.9697 6.76256 11.6768 6.46967L5.35355 0.146447L5.20711 0H5H0.75ZM3 4C3.55228 4 4 3.55228 4 3C4 2.44772 3.55228 2 3 2C2.44772 2 2 2.44772 2 3C2 3.55228 2.44772 4 3 4Z" fill="context-fill"/>
</g>
<defs>
<clipPath id="clip0_3570_22211">
<rect width="12" height="12" fill="white"/>
</clipPath>
</defs>
</svg>
