<?xml version="1.0" encoding="utf-8"?>
<!-- Generator: Adobe Illustrator 26.4.1, SVG Export Plug-In . SVG Version: 6.00 Build 0)  -->
<svg version="1.1" id="图层_2" xmlns="http://www.w3.org/2000/svg" xmlns:xlink="http://www.w3.org/1999/xlink" x="0px" y="0px"
	 viewBox="0 0 16 16" style="enable-background:new 0 0 16 16;" xml:space="preserve">
<style type="text/css">
	.st0{fill:#287DC2;}
</style>
<g>
	<g>
		<g>
			<path class="st0" d="M1.4,0.7h5.7c4.2,0,7,2.8,7,7.1c0,4.2-2.7,7.4-7.1,7.4H1.4V0.7z M4.6,12.7h2.3c2.8,0,4-2.1,4-4.9
				c0-2.4-1.1-4.5-4-4.5H4.6V12.7z"/>
		</g>
	</g>
	<g>
		<g>
			<path class="st0" d="M1.4,0.7h5.7c4.2,0,7,2.8,7,7.1c0,4.2-2.7,7.4-7.1,7.4H1.4V0.7z M4.6,12.7h2.3c2.8,0,4-2.1,4-4.9
				c0-2.4-1.1-4.5-4-4.5H4.6V12.7z"/>
		</g>
	</g>
</g>
</svg>
