<svg width="12" height="12" viewBox="0 0 12 12" fill="none" xmlns="http://www.w3.org/2000/svg">
<path d="M10 2H1V10H10V2Z" fill="white"/>
<path opacity="0.04" d="M10 2H1V3H10V2Z" fill="black"/>
<path opacity="0.5" d="M10 2V10H1V2H10ZM10 1H1C0.734784 1 0.48043 1.10536 0.292893 1.29289C0.105357 1.48043 0 1.73478 0 2L0 11H11V2C11 1.73478 10.8946 1.48043 10.7071 1.29289C10.5196 1.10536 10.2652 1 10 1Z" fill="white"/>
<path opacity="0.2" d="M10 1H1C0.734784 1 0.48043 1.10536 0.292893 1.29289C0.105357 1.48043 0 1.73478 0 2L0 11H11V2C11 1.73478 10.8946 1.48043 10.7071 1.29289C10.5196 1.10536 10.2652 1 10 1ZM10 10H1V4H10V10ZM10 3H1V2H10V3Z" fill="black"/>
<path d="M5 6H2V9H5V6Z" fill="#B3C7F5"/>
<path d="M11 6.5H5C4.72386 6.5 4.5 6.72386 4.5 7V11C4.5 11.2761 4.72386 11.5 5 11.5H11C11.2761 11.5 11.5 11.2761 11.5 11V7C11.5 6.72386 11.2761 6.5 11 6.5Z" fill="#B4B4B4"/>
<path d="M11 7V11H5V7H11ZM11 6H5C4.73478 6 4.48043 6.10536 4.29289 6.29289C4.10536 6.48043 4 6.73478 4 7V11C4 11.2652 4.10536 11.5196 4.29289 11.7071C4.48043 11.8946 4.73478 12 5 12H11C11.2652 12 11.5196 11.8946 11.7071 11.7071C11.8946 11.5196 12 11.2652 12 11V7C12 6.73478 11.8946 6.48043 11.7071 6.29289C11.5196 6.10536 11.2652 6 11 6Z" fill="#444444"/>
<path d="M8 10C8.55228 10 9 9.55228 9 9C9 8.44772 8.55228 8 8 8C7.44772 8 7 8.44772 7 9C7 9.55228 7.44772 10 8 10Z" fill="#DADADA"/>
<path fill-rule="evenodd" clip-rule="evenodd" d="M8 9.5C8.27614 9.5 8.5 9.27614 8.5 9C8.5 8.72386 8.27614 8.5 8 8.5C7.72386 8.5 7.5 8.72386 7.5 9C7.5 9.27614 7.72386 9.5 8 9.5ZM8 10.5C8.82843 10.5 9.5 9.82843 9.5 9C9.5 8.17157 8.82843 7.5 8 7.5C7.17157 7.5 6.5 8.17157 6.5 9C6.5 9.82843 7.17157 10.5 8 10.5Z" fill="#444444"/>
</svg>
