<svg width="12" height="12" viewBox="0 0 12 12" fill="none" xmlns="http://www.w3.org/2000/svg">
<path opacity="0.5" fill-rule="evenodd" clip-rule="evenodd" d="M12 11.5002V12H11.5002C11.6895 11.8578 11.8578 11.6895 12 11.5002ZM12 8.49976C11.5439 7.89267 10.8178 7.5 10 7.5H7C5.61929 7.5 4.5 8.61929 4.5 10C4.5 10.8178 4.89267 11.5439 5.49976 12H2V0H8.707L12 3.293V8.49976Z" fill="white"/>
<path fill-rule="evenodd" clip-rule="evenodd" d="M5.26756 11C5.09739 10.7058 5 10.3643 5 10C5 8.89543 5.89543 8 7 8H10C10.3643 8 10.7058 8.09739 11 8.26756V3.707L8.293 1H3V11H5.26756Z" fill="white"/>
<path opacity="0.08" d="M9 1.70703V3H10.293L9 1.70703Z" fill="black"/>
<path opacity="0.2" fill-rule="evenodd" clip-rule="evenodd" d="M5.49976 12H2V0H8.707L12 3.293V8.49976C11.7422 8.15661 11.3981 7.88197 11 7.70802V4H8V1H3V11H4.70802C4.88197 11.3981 5.15661 11.7422 5.49976 12ZM10.293 3L9 1.707V3H10.293Z" fill="black"/>
<path d="M6 3H1V4H6V3Z" fill="#F1ABB0"/>
<path d="M6 3V4H1V3H6ZM7 2H0V5H7V2Z" fill="#DB2C3A"/>
<path d="M8 9H7C6.44772 9 6 9.44772 6 10C6 10.4429 6.28791 10.8185 6.68677 10.95C6.85917 11.3693 7.14228 11.7314 7.49972 12H7C5.89543 12 5 11.1046 5 10C5 8.89543 5.89543 8 7 8H8C9.10457 8 10 8.89543 10 10C10 10.1726 9.97812 10.3402 9.93699 10.5H8.99997C8.95686 10.5 8.91502 10.4945 8.87512 10.4843C8.95469 10.3408 9 10.1757 9 10C9 9.44772 8.55228 9 8 9Z" fill="#888888"/>
<path d="M7 10C7 9.82735 7.02188 9.65981 7.06301 9.5H8C8.04312 9.5 8.08496 9.50546 8.12488 9.51572C8.04531 9.6592 8 9.82431 8 10C8 10.5523 8.44772 11 9 11H10C10.5523 11 11 10.5523 11 10C11 9.5571 10.7121 9.18145 10.3132 9.05002C10.1408 8.63068 9.85768 8.26855 9.50024 8H10C11.1046 8 12 8.89543 12 10C12 11.1046 11.1046 12 10 12H9C7.89543 12 7 11.1046 7 10Z" fill="#888888"/>
</svg>
