<svg width="12" height="12" viewBox="0 0 12 12" fill="none" xmlns="http://www.w3.org/2000/svg">
<path opacity="0.5" d="M6.707 0H1V12H11V4.293L6.707 0Z" fill="white"/>
<path d="M6.293 1L10 4.707V11H2V1H6.293Z" fill="white"/>
<path opacity="0.2" d="M6.707 0H1V12H11V4.293L6.707 0ZM7 1.707L9.293 4H7V1.707ZM2 11V1H6V5H10V11H2Z" fill="black"/>
<path opacity="0.08" d="M7 1.70703V4H9.293L7 1.70703Z" fill="black"/>
<path d="M4 6C4.55228 6 5 5.55228 5 5C5 4.44772 4.55228 4 4 4C3.44772 4 3 4.44772 3 5C3 5.55228 3.44772 6 4 6Z" fill="#FF794C"/>
<path fill-rule="evenodd" clip-rule="evenodd" d="M5.5 8.57132L7 6.42847L9.5 9.9999H6.5H4.5H2.5L4.5 7.14275L5.5 8.57132Z" fill="#88D9A4"/>
</svg>
