<svg width="12" height="12" viewBox="0 0 12 12" fill="none" xmlns="http://www.w3.org/2000/svg">
<path fill-rule="evenodd" clip-rule="evenodd" d="M5.5 3H2.5C1.67157 3 1 3.67157 1 4.5C1 5.32843 1.67157 6 2.5 6H3.54147C3.5142 6.16259 3.5 6.32962 3.5 6.49997C3.5 6.67033 3.5142 6.83738 3.54148 7H2.5C1.11929 7 0 5.88071 0 4.5C0 3.11929 1.11929 2 2.5 2H5.5C6.88071 2 8 3.11929 8 4.5C8 5.83649 6.95126 6.92804 5.63183 6.99658C5.54795 6.85026 5.5 6.68072 5.5 6.49997C5.5 6.31527 5.55007 6.14227 5.63738 5.99379C6.40142 5.92442 7 5.28211 7 4.5C7 3.67157 6.32843 3 5.5 3ZM6.5 4.49996C6.5 4.31924 6.45206 4.14972 6.36821 4.00341C5.04876 4.07194 4 5.1635 4 6.5C4 7.88071 5.11929 9 6.5 9H9.5C10.8807 9 12 7.88071 12 6.5C12 5.11929 10.8807 4 9.5 4H8.45853C8.4858 4.16259 8.5 4.32962 8.5 4.49996C8.5 4.67033 8.4858 4.83738 8.45851 5H9.5C10.3284 5 11 5.67157 11 6.5C11 7.32843 10.3284 8 9.5 8H6.5C5.67157 8 5 7.32843 5 6.5C5 5.7179 5.59856 5.07561 6.36257 5.00621C6.44991 4.85772 6.5 4.68469 6.5 4.49996Z" fill="#888888"/>
</svg>
