<svg width="12" height="12" viewBox="0 0 12 12" fill="none" xmlns="http://www.w3.org/2000/svg">
<path opacity="0.5" d="M12 1H0V11H12V1Z" fill="white"/>
<path opacity="0.2" d="M11 2V10H1V2H11ZM12 1H0V11H12V1Z" fill="black"/>
<path d="M11 2H1V10H11V2Z" fill="white"/>
<path d="M4 5C4.55228 5 5 4.55228 5 4C5 3.44772 4.55228 3 4 3C3.44772 3 3 3.44772 3 4C3 4.55228 3.44772 5 4 5Z" fill="#FF794C"/>
<path fill-rule="evenodd" clip-rule="evenodd" d="M5.00004 8.57138L7.5 5L11 10H4L4.00007 9.9999H1L3.5 6.42847L5.00004 8.57138Z" fill="#39BF68"/>
</svg>
