<svg width="16" height="16" viewBox="0 0 16 16" fill="none" xmlns="http://www.w3.org/2000/svg">
<g clip-path="url(#clip0_864_48172)">
<path fill-rule="evenodd" clip-rule="evenodd" d="M12.2379 1.96038C7.35382 -0.685304 3.87074 -0.185451 2.14056 1.6023C1.09277 2.68497 0.770104 4.18435 1.20189 5.49993C0.859503 5.9151 0.586015 6.39922 0.406392 6.94321C-0.251619 8.93602 0.392748 11.5506 3.14369 14.3518L3.55138 13.3325C1.22808 10.8298 0.880354 8.69716 1.35597 7.25675C1.44524 6.98637 1.56492 6.73451 1.70984 6.50322C2.01734 6.9348 2.42776 7.31991 2.94254 7.62876C5.08604 8.91477 7.00043 8.47453 7.78686 7.27398C8.17397 6.68302 8.24618 5.93402 7.87663 5.2695C7.51213 4.61407 6.76938 4.12858 5.69987 3.91011C4.4187 3.64842 3.08109 3.95856 2.04205 4.71173C1.9233 3.869 2.19892 2.97994 2.85915 2.29774C4.12914 0.98549 7.04616 0.285329 11.7616 2.83966L12.2379 1.96038ZM3.45701 6.77126C2.98486 6.48799 2.62971 6.12157 2.39003 5.71152C3.22891 4.98627 4.3888 4.66296 5.49973 4.88988C6.38853 5.07143 6.82496 5.43594 7.00268 5.75551C7.17534 6.06599 7.1528 6.41698 6.95036 6.72602C6.55769 7.32546 5.31375 7.88522 3.45701 6.77126ZM13.2929 4C13.6834 3.60948 14.3166 3.60948 14.7071 4L15.5 4.79289C15.8905 5.18342 15.8905 5.81658 15.5 6.20711L7.42612 14.281C7.33036 14.3767 7.21615 14.4521 7.09041 14.5024L4.6857 15.4642L3.60247 15.8975L4.03576 14.8143L4.99765 12.4096C5.04794 12.2839 5.12325 12.1696 5.21902 12.0739L13.2929 4ZM12.5 6.20715L5.92612 12.781L5.39753 14.1025L6.71902 13.5739L13.2929 7.00004L12.5 6.20715ZM13.2071 5.50004L14 6.29293L14.7929 5.5L14 4.70711L13.2071 5.50004Z" fill="context-fill"/>
</g>
<defs>
<clipPath id="clip0_864_48172">
<rect width="16" height="16" fill="white"/>
</clipPath>
</defs>
</svg>
