<svg width="16" height="16" viewBox="0 0 16 16" fill="none" xmlns="http://www.w3.org/2000/svg">
<g clip-path="url(#clip0_832_44685)">
<path fill-rule="evenodd" clip-rule="evenodd" d="M9.79282 0.499986C10.1833 0.109461 10.8165 0.109461 11.207 0.499986L15.4999 4.79288C15.8904 5.1834 15.8904 5.81657 15.4999 6.20709L6.20703 15.5C5.81651 15.8905 5.18334 15.8905 4.79282 15.5L0.499925 11.2071C0.109399 10.8166 0.109401 10.1834 0.499925 9.79288L9.79282 0.499986ZM10.4999 1.20709L4.70703 6.99999L8.99992 11.2929L14.7928 5.49999L10.4999 1.20709ZM1.20703 10.5L3.99992 7.70709L8.29282 12L5.49992 14.7929L1.20703 10.5ZM9.64637 3.35354L12.6464 6.35354L13.3535 5.64643L10.3535 2.64643L9.64637 3.35354ZM16 16H7.12126L8.12126 15H16V16Z" fill="context-fill"/>
</g>
<defs>
<clipPath id="clip0_832_44685">
<rect width="16" height="16" fill="white"/>
</clipPath>
</defs>
</svg>
