<svg width="16" height="16" viewBox="0 0 16 16" fill="none" xmlns="http://www.w3.org/2000/svg">
<path fill-rule="evenodd" clip-rule="evenodd" d="M10.0001 1H6.00015V2H10.0001V1ZM12.0001 4H4.00015V12H12.0001V4ZM3.00015 3V13H13.0001V3H3.00015ZM14.0001 14V12H15V15H12V14H14.0001ZM15.0001 6H14.0001V10H15.0001V6ZM1.0001 6H2.0001V10H1.0001V6ZM6.0001 14H10.0001V15H6.0001V14ZM12.0002 2L14.0003 2.00001L14.0002 4H15.0002V1H12.0002V2ZM2.0001 2.00001V4.00001H1.0001L1.0001 1.00001L4.0001 1.00001V2L2.0001 2.00001ZM4 14L2.00015 14L2.00015 12H1L1 15L4 15V14Z" fill="context-fill"/>
</svg>
