<svg width="16" height="16" viewBox="0 0 16 16" fill="none" xmlns="http://www.w3.org/2000/svg">
<g clip-path="url(#clip0_3830_27858)">
<path fill-rule="evenodd" clip-rule="evenodd" d="M13.8964 2.60356C12.8491 1.55618 11.1509 1.55618 10.1035 2.60356L1.85354 10.8536C1.22037 11.4867 1.22037 12.5133 1.85354 13.1465C2.4867 13.7796 3.51326 13.7796 4.14643 13.1465L7.23656 10.0563C7.08316 10.5095 6.99998 10.995 6.99998 11.5C6.99998 11.5679 7.00149 11.6355 7.00446 11.7026L4.85354 13.8536C3.82985 14.8772 2.17012 14.8772 1.14643 13.8536C0.12274 12.8299 0.12274 11.1701 1.14643 10.1465L9.39643 1.89645C10.8343 0.458549 13.1656 0.458546 14.6035 1.89645C16.0414 3.33435 16.0414 5.66565 14.6035 7.10356L13.9695 7.73756C15.1926 8.54196 16 9.92669 16 11.5C16 13.9853 13.9853 16 11.5 16C9.01472 16 7 13.9853 7 11.5C7 9.5197 8.27917 7.83815 10.0563 7.23658L12.3964 4.89645C12.6154 4.6775 12.6154 4.32251 12.3964 4.10356C12.1775 3.88461 11.8225 3.88461 11.6035 4.10356L4.85354 10.8536C4.65827 11.0488 4.34169 11.0488 4.14643 10.8536C3.95117 10.6583 3.95117 10.3417 4.14643 10.1465L10.8964 3.39645C11.5059 2.78697 12.4941 2.78697 13.1035 3.39645C13.713 4.00593 13.713 4.99408 13.1035 5.60356L11.7026 7.00448C12.1658 7.02501 12.6107 7.11553 13.0271 7.26575L13.8964 6.39645C14.9438 5.34907 14.9438 3.65094 13.8964 2.60356ZM7.14643 13.1465L7.26573 13.0271C7.38331 13.3531 7.53744 13.6615 7.72319 13.9476C7.53602 14.0409 7.30248 14.0096 7.14643 13.8536C6.95117 13.6583 6.95117 13.3417 7.14643 13.1465ZM15 11.5C15 13.433 13.433 15 11.5 15C9.567 15 8 13.433 8 11.5C8 9.567 9.567 8 11.5 8C13.433 8 15 9.567 15 11.5ZM10.875 9.625C10.875 9.27982 11.1548 9 11.5 9C11.8452 9 12.125 9.27982 12.125 9.625C12.125 9.97018 11.8452 10.25 11.5 10.25C11.1548 10.25 10.875 9.97018 10.875 9.625ZM12 14V11H11V14H12Z" fill="context-fill"/>
</g>
<defs>
<clipPath id="clip0_3830_27858">
<rect width="16" height="16" fill="white"/>
</clipPath>
</defs>
</svg>
