<svg width="16" height="16" viewBox="0 0 16 16" fill="none" xmlns="http://www.w3.org/2000/svg">
<g clip-path="url(#clip0_1575_30543)">
<path fill-rule="evenodd" clip-rule="evenodd" d="M0.5 0C3.946 0 6.874 0.546 8 1.309C9.126 0.546 12.054 0 15.5 0V14C12.481 14 9.86 14.419 8.5 15.036C8.307 15.123 8.14 15.214 8 15.309C7.86 15.215 7.693 15.123 7.5 15.036C6.14 14.419 3.519 14 0.5 14V0ZM1.5 13.014C3.934 13.087 6.087 13.428 7.5 13.96V2.179L7.439 2.137C6.688 1.628 4.461 1.113 1.5 1.016V13.014ZM8.5 13.96C9.913 13.428 12.066 13.087 14.5 13.014V1.016C11.539 1.113 9.312 1.628 8.561 2.137L8.5 2.179V13.96ZM9.5 4.71101C10.451 4.42401 11.813 4.17901 13.5 4.06601V3.07001C11.966 3.17001 10.581 3.37501 9.5 3.67001V4.71101ZM9.5 6.71101C10.451 6.42401 11.813 6.17901 13.5 6.06601V5.07001C11.966 5.16901 10.581 5.37501 9.5 5.67001V6.71101ZM9.5 10.711C10.451 10.424 11.813 10.179 13.5 10.066V9.07001C11.966 9.16901 10.581 9.37501 9.5 9.67001V10.711ZM9.5 8.71101C10.451 8.42401 11.813 8.17901 13.5 8.06601V7.07001C11.966 7.16901 10.581 7.37501 9.5 7.67001V8.71101Z" fill="context-fill"/>
</g>
<defs>
<clipPath id="clip0_1575_30543">
<rect width="16" height="16" fill="white"/>
</clipPath>
</defs>
</svg>
