<svg width="18" height="18" viewBox="0 0 18 18" fill="none" xmlns="http://www.w3.org/2000/svg">
<path fill-rule="evenodd" clip-rule="evenodd" d="M14.75 1.25V5.75H1.25V1.25H14.75ZM16 1.25C16 0.559644 15.4404 0 14.75 0H1.25C0.559644 0 0 0.559644 0 1.25V5.75C0 6.44036 0.559644 7 1.25 7H14.75C15.4404 7 16 6.44036 16 5.75V1.25ZM7 4.125H3V2.875H7V4.125ZM8.60201 14.75C8.87947 15.2297 9.24293 15.6534 9.67131 16H2V14.75H8.60201ZM8.06222 11.75C8.0213 11.9939 8 12.2445 8 12.5C8 12.669 8.00932 12.8358 8.02746 13H2V11.75H8.06222ZM8.75779 10C9.08901 9.50518 9.51578 9.07972 10.0117 8.75H2V10H8.75779ZM18 17.1161L17.1162 18L14.4933 15.3773C13.9277 15.7699 13.2407 16 12.5 16C10.567 16 9 14.433 9 12.5C9 10.567 10.567 9.00002 12.5 9.00002C14.433 9.00002 16 10.567 16 12.5C16 13.2408 15.7699 13.9278 15.3772 14.4934L18 17.1161ZM14.75 12.5C14.75 13.7427 13.7426 14.75 12.5 14.75C11.2574 14.75 10.25 13.7427 10.25 12.5C10.25 11.2574 11.2574 10.25 12.5 10.25C13.7426 10.25 14.75 11.2574 14.75 12.5Z" fill="black" fill-opacity="0.5"/>
</svg>
