<svg width="18" height="18" viewBox="0 0 18 18" fill="none" xmlns="http://www.w3.org/2000/svg">
<path fill-rule="evenodd" clip-rule="evenodd" d="M14.75 -3.05176e-05C15.4404 -3.05176e-05 16 0.559614 16 1.24997V9.67134C15.6534 9.24296 15.2297 8.87949 14.75 8.60202V6.99997L7 6.99997V14.75H8.60199C8.87946 15.2296 9.24292 15.6533 9.67129 16H1.25C0.559646 16 0 15.4403 0 14.75V1.24997C0 0.559614 0.559646 -3.05176e-05 1.25 -3.05176e-05H14.75ZM1.25 14.75H5.75V6.99997L1.25 6.99997L1.25 14.75ZM14.75 5.74997V1.24997L1.25 1.24997L1.25 5.74997H14.75ZM7 4.12497H3V2.87497H7V4.12497ZM18 17.1161L17.1161 18L14.4933 15.3773C13.9277 15.7699 13.2407 16 12.5 16C10.567 16 8.99998 14.433 8.99998 12.5C8.99998 10.567 10.567 8.99999 12.5 8.99999C14.433 8.99999 16 10.567 16 12.5C16 13.2407 15.7699 13.9277 15.3772 14.4934L18 17.1161ZM14.75 12.5C14.75 13.7426 13.7426 14.75 12.5 14.75C11.2573 14.75 10.25 13.7426 10.25 12.5C10.25 11.2573 11.2573 10.25 12.5 10.25C13.7426 10.25 14.75 11.2573 14.75 12.5Z" fill="black" fill-opacity="0.5"/>
</svg>
