<svg width="16" height="16" viewBox="0 0 16 16" fill="none" xmlns="http://www.w3.org/2000/svg">
<path fill-rule="evenodd" clip-rule="evenodd" d="M11 2.75C11.4142 2.75 11.75 2.41421 11.75 2C11.75 1.58579 11.4142 1.25 11 1.25C10.5858 1.25 10.25 1.58579 10.25 2C10.25 2.41421 10.5858 2.75 11 2.75ZM12.9004 2.625C12.638 3.42348 11.8863 4 11 4C10.1137 4 9.36204 3.42348 9.0996 2.625H0V1.375H9.0996C9.36204 0.576517 10.1137 0 11 0C11.8863 0 12.638 0.576517 12.9004 1.375L16 1.375V2.625L12.9004 2.625ZM5 8.75C5.41421 8.75 5.75 8.41421 5.75 8C5.75 7.58579 5.41421 7.25 5 7.25C4.58579 7.25 4.25 7.58579 4.25 8C4.25 8.41421 4.58579 8.75 5 8.75ZM5 10C5.8863 10 6.63796 9.42348 6.90041 8.625L16 8.625V7.375L6.90041 7.375C6.63796 6.57652 5.8863 6 5 6C4.1137 6 3.36204 6.57652 3.09959 7.375H0V8.625H3.09959C3.36204 9.42348 4.1137 10 5 10ZM11.75 14C11.75 14.4142 11.4142 14.75 11 14.75C10.5858 14.75 10.25 14.4142 10.25 14C10.25 13.5858 10.5858 13.25 11 13.25C11.4142 13.25 11.75 13.5858 11.75 14ZM12.9004 14.625C12.638 15.4235 11.8863 16 11 16C10.1137 16 9.36204 15.4235 9.0996 14.625H0V13.375H9.0996C9.36204 12.5765 10.1137 12 11 12C11.8863 12 12.638 12.5765 12.9004 13.375H16V14.625H12.9004Z" fill="black" fill-opacity="0.5"/>
</svg>
