<svg width="16" height="16" viewBox="0 0 16 16" fill="none" xmlns="http://www.w3.org/2000/svg">
<g clip-path="url(#clip0_1153_36703)">
<path fill-rule="evenodd" clip-rule="evenodd" d="M5 4V2H4L4.5 0.5H3.5L3 2V4H5ZM0 2V4H2V2H1L1.5 0.5H0.5L0 2ZM14 9H2V8H14V9ZM14 6H2V7H14V6ZM9 10H2V11H9V10ZM13 12H11V14H12L11.5 15.5H12.5L13 14V12ZM16 12H14V14H15L14.5 15.5H15.5L16 14V12Z" fill="context-fill"/>
</g>
<defs>
<clipPath id="clip0_1153_36703">
<rect width="16" height="16" fill="white"/>
</clipPath>
</defs>
</svg>
