<svg width="16" height="16" viewBox="0 0 16 16" fill="none" xmlns="http://www.w3.org/2000/svg">
    <path fill-rule="evenodd" clip-rule="evenodd" d="M15 8C15 11.866 11.866 15 8 15C4.13401 15 1 11.866 1 8C1 4.13401 4.13401 1 8 1C11.866 1 15 4.13401 15 8ZM16 8C16 12.4183 12.4183 16 8 16C3.58172 16 0 12.4183 0 8C0 3.58172 3.58172 0 8 0C12.4183 0 16 3.58172 16 8ZM12 11.292L11.2923 12L8.00011 8.70699L4.70796 12L4 11.2922L7.29311 7.99999L4 4.70774L4.70798 4L8.00011 7.29299L11.2922 4L12 4.70796L8.70711 7.99999L12 11.292Z" fill="context-fill"/>
</svg>
