<svg width="16" height="16" viewBox="0 0 16 16" fill="none" xmlns="http://www.w3.org/2000/svg">
<g clip-path="url(#clip0_3025_57744)">
<path fill-rule="evenodd" clip-rule="evenodd" d="M8 2H13C13.552 2 14 2.448 14 3V5V7.75777C15.206 8.56504 16 9.93979 16 11.5C16 13.9853 13.9853 16 11.5 16C9.18372 16 7.27619 14.25 7.02746 12H1C0.448 12 0 11.552 0 11V5V3C0 2.448 0.448 2 1 2H2L2.724 0.553C2.893 0.214 3.239 0 3.618 0H6.382C6.761 0 7.107 0.214 7.276 0.553L8 2ZM13 5V7.25606C12.5308 7.09023 12.026 7 11.5 7C9.18372 7 7.27619 8.75002 7.02746 11H1V5H13ZM1 3V4H13V3H8C7.621 3 7.275 2.786 7.106 2.447L6.382 1H3.618L2.894 2.447C2.725 2.786 2.379 3 2 3H1ZM11.5 15C13.433 15 15 13.433 15 11.5C15 9.567 13.433 8 11.5 8C9.567 8 8 9.567 8 11.5C8 13.433 9.567 15 11.5 15ZM14 11H9V12H14V11Z" fill="context-fill"/>
</g>
<defs>
<clipPath id="clip0_3025_57744">
<rect width="16" height="16" fill="white"/>
</clipPath>
</defs>
</svg>
