<svg width="18" height="18" viewBox="0 0 18 18" fill="none" xmlns="http://www.w3.org/2000/svg">
	<path fill-rule="evenodd" clip-rule="evenodd" d="M14.75 0C15.4404 0 16 0.559645 16 1.25V9.67137C15.6534 9.24299 15.2297 8.87952 14.75 8.60205V7L7.00002 7V14.75H8.60201C8.87948 15.2297 9.24294 15.6534 9.67131 16H1.25002C0.559661 16 1.52588e-05 15.4404 1.52588e-05 14.75V1.25C1.52588e-05 0.559644 0.559662 0 1.25002 0H14.75ZM1.25002 14.75H5.75002V7L1.25002 7L1.25002 14.75ZM14.75 5.75V1.25L1.25002 1.25L1.25002 5.75H14.75ZM7.00002 4.125H3.00002V2.875H7.00002V4.125ZM18 17.1161L17.1162 18L14.4933 15.3773C13.9277 15.7699 13.2407 16 12.5 16C10.567 16 9 14.433 9 12.5C9 10.567 10.567 9.00002 12.5 9.00002C14.433 9.00002 16 10.567 16 12.5C16 13.2408 15.7699 13.9278 15.3772 14.4934L18 17.1161ZM14.75 12.5C14.75 13.7427 13.7426 14.75 12.5 14.75C11.2574 14.75 10.25 13.7427 10.25 12.5C10.25 11.2574 11.2574 10.25 12.5 10.25C13.7426 10.25 14.75 11.2574 14.75 12.5Z" fill="context-fill"/>
</svg>
	