<svg width="16" height="16" viewBox="0 0 16 16" fill="none" xmlns="http://www.w3.org/2000/svg">
<path fill-rule="evenodd" clip-rule="evenodd" d="M9.70711 0H2V15H8.67133C9.4442 15.6254 10.4284 16 11.5 16C13.9853 16 16 13.9853 16 11.5C16 9.93979 15.206 8.56504 14 7.75777V4.29289L9.70711 0ZM7 11.5C7 12.4251 7.27914 13.285 7.75777 14H3V1H9V5H13V7.25606C12.5308 7.09023 12.026 7 11.5 7C9.01472 7 7 9.01472 7 11.5ZM12.2929 4L10 1.70711V4H12.2929ZM11.5 15C13.433 15 15 13.433 15 11.5C15 9.567 13.433 8 11.5 8C9.567 8 8 9.567 8 11.5C8 13.433 9.567 15 11.5 15ZM11 14H12V10.7071L13.2929 12L14 11.2929L11.5 8.79289L9 11.2929L9.70711 12L11 10.7071V14Z" fill="context-fill" />
</svg>