<svg width="16" height="16" viewBox="0 0 16 16" fill="none" xmlns="http://www.w3.org/2000/svg">
<g clip-path="url(#clip0_1217_79043)">
<path fill-rule="evenodd" clip-rule="evenodd" d="M11.5857 0.707093C12.3668 -0.0739554 13.6331 -0.0739542 14.4141 0.707094L15.2928 1.58577C16.0739 2.36682 16.0739 3.63315 15.2928 4.4142L5.25555 14.4515L0.312744 15.6872L1.54845 10.7444L11.5857 0.707093ZM13.707 1.4142C13.3165 1.02368 12.6833 1.02368 12.2928 1.4142L11.207 2.49999L13.4999 4.79288L14.5857 3.70709C14.9762 3.31657 14.9762 2.6834 14.5857 2.29288L13.707 1.4142ZM12.7928 5.49999L10.4999 3.20709L2.45141 11.2556L1.68711 14.3128L4.7443 13.5485L12.7928 5.49999Z" fill="context-fill"/>
</g>
<defs>
<clipPath id="clip0_1217_79043">
<rect width="16" height="16" fill="white"/>
</clipPath>
</defs>
</svg>
