<svg width="16" height="16" viewBox="0 0 16 16" fill="none" xmlns="http://www.w3.org/2000/svg">
<g clip-path="url(#clip0_3029_57851)">
<path d="M13 4H14V14.542C13.9811 14.9459 13.8031 15.3258 13.5051 15.599C13.207 15.8721 12.813 16.0163 12.409 16H4.591C4.18703 16.0163 3.79301 15.8721 3.49494 15.599C3.19687 15.3258 3.01895 14.9459 3 14.542V4H4V14.542C4.02154 14.6793 4.09472 14.8032 4.20458 14.8883C4.31443 14.9735 4.45266 15.0134 4.591 15H12.409C12.5473 15.0134 12.6856 14.9735 12.7954 14.8883C12.9053 14.8032 12.9785 14.6793 13 14.542V4ZM15 2V3H2V2H5V1C5 0.734784 5.10536 0.48043 5.29289 0.292893C5.48043 0.105357 5.73478 0 6 0L11 0C11.2652 0 11.5196 0.105357 11.7071 0.292893C11.8946 0.48043 12 0.734784 12 1V2H15ZM11 2V1H6V2H11ZM6.025 12.682L8.5 10.207L10.975 12.682L11.682 11.975L9.207 9.5L11.682 7.025L10.975 6.318L8.5 8.793L6.025 6.318L5.318 7.025L7.793 9.5L5.318 11.975L6.025 12.682Z" fill="context-fill"/>
</g>
<defs>
<clipPath id="clip0_3029_57851">
<rect width="16" height="16" fill="white"/>
</clipPath>
</defs>
</svg>
