<svg width="16" height="16" viewBox="0 0 16 16" fill="none" xmlns="http://www.w3.org/2000/svg">
<path fill-rule="evenodd" clip-rule="evenodd" d="M1 10.4384V4H2C2.37877 4 2.72504 3.786 2.89443 3.44721L3.61803 2H7.38197L8.10557 3.44721C8.27496 3.786 8.62123 4 9 4H13V6H2.89039C2.43152 6 2.03154 6.3123 1.92025 6.75746L1 10.4384ZM1.14039 14H2H7H13.1096L14.8596 7L2.89039 7L1.14039 14ZM1.14039 15H1C0.447715 15 0 14.5523 0 14V4C0 3.44772 0.447715 3 1 3H2L2.72361 1.55279C2.893 1.214 3.23926 1 3.61803 1H7.38197C7.76074 1 8.107 1.214 8.27639 1.55279L9 3H13C13.5523 3 14 3.44772 14 4V6H14.8596C15.5102 6 15.9875 6.61139 15.8298 7.24254L14.0798 14.2425C13.9685 14.6877 13.5685 15 13.1096 15H7H2H1.14039Z" fill="context-fill"/>
</svg>
