<svg width="16" height="16" viewBox="0 0 16 16" fill="none" xmlns="http://www.w3.org/2000/svg">
<g clip-path="url(#clip0_1506_32427)">
<path fill-rule="evenodd" clip-rule="evenodd" d="M8 15C8.52174 15 9.26329 14.5511 9.934 13.2096C10.2431 12.5915 10.502 11.8433 10.6873 11H5.31274C5.49798 11.8433 5.75691 12.5915 6.066 13.2096C6.73671 14.5511 7.47826 15 8 15ZM5.13485 10C5.04756 9.36875 5 8.69819 5 8C5 7.30181 5.04756 6.63125 5.13485 6H10.8652C10.9524 6.63125 11 7.30181 11 8C11 8.69819 10.9524 9.36875 10.8652 10H5.13485ZM11.7092 11C11.4085 12.486 10.8909 13.7502 10.235 14.6356C12.0409 14.0276 13.5173 12.703 14.3264 11H11.7092ZM14.7101 10H11.874C11.9562 9.36076 12 8.6906 12 8C12 7.3094 11.9562 6.63924 11.874 6H14.7101C14.8987 6.63371 15 7.30503 15 8C15 8.69497 14.8987 9.36629 14.7101 10ZM4.12602 10H1.28988C1.10128 9.36629 1 8.69497 1 8C1 7.30503 1.10128 6.63371 1.28988 6H4.12602C4.04375 6.63924 4 7.3094 4 8C4 8.6906 4.04375 9.36076 4.12602 10ZM1.67363 11H4.29076C4.59153 12.486 5.10906 13.7502 5.76495 14.6356C3.9591 14.0276 2.48266 12.703 1.67363 11ZM5.31274 5H10.6873C10.502 4.15675 10.2431 3.40854 9.934 2.79036C9.26329 1.44895 8.52174 1 8 1C7.47826 1 6.73671 1.44895 6.066 2.79036C5.75691 3.40854 5.49798 4.15675 5.31274 5ZM11.7092 5H14.3264C13.5173 3.29696 12.0409 1.97243 10.235 1.3644C10.8909 2.24982 11.4085 3.51397 11.7092 5ZM5.76495 1.3644C5.10906 2.24982 4.59152 3.51397 4.29076 5H1.67363C2.48266 3.29696 3.9591 1.97243 5.76495 1.3644ZM8 0C12.4183 0 16 3.58172 16 8C16 12.4183 12.4183 16 8 16C3.58172 16 0 12.4183 0 8C0 3.58172 3.58172 0 8 0Z" fill="context-fill"/>
</g>
<defs>
<clipPath id="clip0_1506_32427">
<rect width="16" height="16" fill="white"/>
</clipPath>
</defs>
</svg>
