<svg width="16" height="16" viewBox="0 0 16 16" fill="none" xmlns="http://www.w3.org/2000/svg">
<path d="M5.91992 1.99902C4.19855 3.20182 3 5.38935 3 8C3 10.6104 4.1988 12.7971 5.91992 14L5.45801 14.8994C3.38948 13.5093 2 10.9408 2 8C2 5.05902 3.38923 2.48965 5.45801 1.09961L5.91992 1.99902ZM10.542 1.09961C12.6108 2.48965 14 5.05902 14 8C14 10.9408 12.6105 13.5093 10.542 14.8994L10.0801 14C11.8012 12.7971 13 10.6104 13 8C13 5.38935 11.8015 3.20182 10.0801 1.99902L10.542 1.09961Z" fill="context-fill"/>
</svg>
