<svg width="16" height="16" viewBox="0 0 16 16" fill="none" xmlns="http://www.w3.org/2000/svg">
<path d="M2 2.70705L13.2929 14L14 13.2929L2.70705 2L2 2.70705Z" fill="context-fill"/>
<path d="M0.581543 7.99999C1.06648 6.80201 1.83317 5.74823 2.79944 4.92083L3.50889 5.63027C2.73879 6.27498 2.1093 7.0824 1.67338 7.99999C2.79758 10.3664 5.20911 12 8.00003 12C8.57782 12 9.13935 11.93 9.67657 11.7979L10.4851 12.6065C9.70287 12.8619 8.86758 13 8.00003 13C4.64265 13 1.76831 10.9318 0.581543 7.99999Z" fill="context-fill"/>
<path d="M6.32325 4.20211L5.51471 3.39357C6.29703 3.13812 7.13239 3 8.00002 3C11.3574 3 14.2317 5.06818 15.4185 8.00001C14.9335 9.19806 14.1668 10.2519 13.2004 11.0793L12.491 10.3699C13.2612 9.72513 13.8907 8.91767 14.3267 8.00001C13.2025 5.6336 10.7909 4 8.00002 4C7.42214 4 6.86053 4.07004 6.32325 4.20211Z" fill="context-fill"/>
<path d="M11 8C11 8.26879 10.9647 8.52933 10.8983 8.77721L9.99616 7.87502C9.93419 6.87 9.13 6.06581 8.12498 6.00384L7.22279 5.10165C7.47067 5.03535 7.73121 5 8 5C9.65685 5 11 6.34315 11 8Z" fill="context-fill"/>
<path d="M5.1016 7.22298L6.00386 8.12524C6.06594 9.13005 6.86995 9.93406 7.87476 9.99614L8.77702 10.8984C8.52919 10.9647 8.26872 11 8 11C6.34315 11 5 9.65685 5 8C5 7.73128 5.03533 7.47081 5.1016 7.22298Z" fill="context-fill"/>
</svg>
