<svg width="16" height="16" viewBox="0 0 16 16" fill="none" xmlns="http://www.w3.org/2000/svg">
<path d="M6.00044 5V11H1.00044V5H6.00044ZM7.00044 5C7.00044 4.44772 6.55273 4 6.00044 4H1C0.447715 4 0 4.44772 0 5V11C0 11.5523 0.447715 12 1 12H6.00044C6.55273 12 7.00044 11.5523 7.00044 11V5ZM3.00044 6H2.00044V10H3.00044V6ZM14.0004 5V11H9.00044V5H14.0004ZM15.0004 5C15.0004 4.44772 14.5527 4 14.0004 4H9.00044C8.44816 4 8.00044 4.44772 8.00044 5V11C8.00044 11.5523 8.44816 12 9.00044 12H14.0004C14.5527 12 15.0004 11.5523 15.0004 11V5ZM11.0004 6H10.0004V10H11.0004V6Z" fill="context-fill"/>
</svg>
