<svg width="20" height="16" viewBox="0 0 20 16" fill="none" xmlns="http://www.w3.org/2000/svg">
<path d="M8.00044 5V11H1.00044V5H8.00044ZM9.00044 5C9.00044 4.44772 8.55273 4 8.00044 4H1C0.447716 4 0 4.44772 0 5V11C0 11.5523 0.447715 12 1 12H8.00044C8.55272 12 9.00044 11.5523 9.00044 11V5ZM3.00044 6H2.00044V10H3.00044V6ZM18.0004 5V11H11.0004V5H18.0004ZM19.0004 5C19.0004 4.44772 18.5527 4 18.0004 4H11.0004C10.4482 4 10.0004 4.44772 10.0004 5V11C10.0004 11.5523 10.4482 12 11.0004 12H18.0004C18.5527 12 19.0004 11.5523 19.0004 11V5ZM13.0004 6H12.0004V10H13.0004V6Z" fill="context-fill"/>
</svg>
