<svg width="24" height="16" viewBox="0 0 24 16" fill="none" xmlns="http://www.w3.org/2000/svg">
<path d="M10.0004 5V11H3.00044V5H10.0004ZM11.0004 5C11.0004 4.44772 10.5527 4 10.0004 4H3C2.44772 4 2 4.44772 2 5V11C2 11.5523 2.44772 12 3 12H10.0004C10.5527 12 11.0004 11.5523 11.0004 11V5ZM5.00044 6H4.00044V10H5.00044V6ZM21.0004 5V11H14.0004V5H21.0004ZM22.0004 5C22.0004 4.44772 21.5527 4 21.0004 4H14.0004C13.4482 4 13.0004 4.44772 13.0004 5V11C13.0004 11.5523 13.4482 12 14.0004 12H21.0004C21.5527 12 22.0004 11.5523 22.0004 11V5ZM16.0004 6H15.0004V10H16.0004V6Z" fill="context-fill"/>
</svg>
