<svg width="22" height="16" viewBox="0 0 22 16" fill="none" xmlns="http://www.w3.org/2000/svg">
<path d="M10.0004 5V11H3.00044V5H10.0004ZM11.0004 5C11.0004 4.44772 10.5527 4 10.0004 4H3C2.44772 4 2 4.44772 2 5V11C2 11.5523 2.44772 12 3 12H10.0004C10.5527 12 11.0004 11.5523 11.0004 11V5ZM5.00044 6H4.00044V10H5.00044V6ZM20.0004 5V11H13.0004V5H20.0004ZM21.0004 5C21.0004 4.44772 20.5527 4 20.0004 4H13.0004C12.4482 4 12.0004 4.44772 12.0004 5V11C12.0004 11.5523 12.4482 12 13.0004 12H20.0004C20.5527 12 21.0004 11.5523 21.0004 11V5ZM15.0004 6H14.0004V10H15.0004V6Z" fill="context-fill"/>
</svg>
