<svg width="16" height="16" viewBox="0 0 16 16" fill="none" xmlns="http://www.w3.org/2000/svg">
<g clip-path="url(#clip0_1508_32486)">
<path fill-rule="evenodd" clip-rule="evenodd" d="M8.24282 0.56294L8 0.42804L7.75718 0.56294L3.25718 3.06294L3 3.20582V3.50002V7.00002H0.5H0V7.50002V15.5V16H0.5H15.5H16V15.5V7.50002V7.00002H15.5H13V3.50002V3.20582L12.7428 3.06294L8.24282 0.56294ZM13 8.00002V15H15V8.00002H13ZM12 15V3.79422L8 1.572L4 3.79422V15H6V10.5V10H6.5H9.5H10V10.5V15H12ZM7 11V15H9V11H7ZM3 15V8.00002H1V15H3ZM9 6.00002C9 6.5523 8.55228 7.00002 8 7.00002C7.44772 7.00002 7 6.5523 7 6.00002C7 5.44773 7.44772 5.00002 8 5.00002C8.55228 5.00002 9 5.44773 9 6.00002ZM10 6.00002C10 7.10459 9.10457 8.00002 8 8.00002C6.89543 8.00002 6 7.10459 6 6.00002C6 4.89545 6.89543 4.00002 8 4.00002C9.10457 4.00002 10 4.89545 10 6.00002Z" fill="#222222"/>
</g>
<defs>
<clipPath id="clip0_1508_32486">
<rect width="16" height="16" fill="white"/>
</clipPath>
</defs>
</svg>
