<svg width="16" height="16" viewBox="0 0 16 16" fill="none" xmlns="http://www.w3.org/2000/svg">
<g clip-path="url(#clip0_3100_57994)">
<path fill-rule="evenodd" clip-rule="evenodd" d="M13.8788 16L12.8788 15H11H1V16H13.8788ZM8.35418 14H2V13H3V5H2V3L8.5 0L15 3V5H14V8.35418C13.714 8.03018 13.3764 7.75287 13 7.53513V5H12V7.12602C11.6804 7.04375 11.3453 7 11 7V5H10V7.12602C9.64523 7.21733 9.30951 7.35609 9 7.53513V5H8V8.35418C7.37764 9.05931 7 9.98555 7 11V5H6V13H7V11C7 12.1947 7.52375 13.2671 8.35418 14ZM14 4V3.64L8.5 1.1L3 3.64V4H14ZM5 5H4V13H5V5ZM16.0001 15.2929L15.293 16L12.7383 13.4454C12.2479 13.7946 11.6479 14 11 14C9.34315 14 8 12.6569 8 11C8 9.34315 9.34315 8 11 8C12.6569 8 14 9.34315 14 11C14 11.6479 13.7946 12.2479 13.4454 12.7383L16.0001 15.2929ZM13 11C13 12.1046 12.1046 13 11 13C9.89543 13 9 12.1046 9 11C9 9.89543 9.89543 9 11 9C12.1046 9 13 9.89543 13 11Z" fill="context-fill"/>
</g>
<defs>
<clipPath id="clip0_3100_57994">
<rect width="16" height="16" fill="white"/>
</clipPath>
</defs>
</svg>
