<svg width="16" height="16" viewBox="0 0 16 16" fill="none" xmlns="http://www.w3.org/2000/svg">
<path d="M12.5 13H8.5C7.57174 13 6.6815 12.6313 6.02513 11.9749C5.36875 11.3185 5 10.4283 5 9.5C5 8.57174 5.36875 7.6815 6.02513 7.02513C6.6815 6.36875 7.57174 6 8.5 6H8.908C9.03111 6.32197 9.03111 6.67803 8.908 7H8.5C7.83696 7 7.20107 7.26339 6.73223 7.73223C6.26339 8.20107 6 8.83696 6 9.5C6 10.163 6.26339 10.7989 6.73223 11.2678C7.20107 11.7366 7.83696 12 8.5 12H12.5C13.163 12 13.7989 11.7366 14.2678 11.2678C14.7366 10.7989 15 10.163 15 9.5C15 8.83696 14.7366 8.20107 14.2678 7.73223C13.7989 7.26339 13.163 7 12.5 7H11.953C11.9778 6.83432 11.9935 6.6674 12 6.5C11.9935 6.3326 11.9778 6.16568 11.953 6H12.5C13.4283 6 14.3185 6.36875 14.9749 7.02513C15.6313 7.6815 16 8.57174 16 9.5C16 10.4283 15.6313 11.3185 14.9749 11.9749C14.3185 12.6313 13.4283 13 12.5 13ZM0 6.5C0 7.42826 0.368749 8.3185 1.02513 8.97487C1.6815 9.63125 2.57174 10 3.5 10H4.047C4.02219 9.83432 4.0065 9.6674 4 9.5C4.0065 9.3326 4.02219 9.16568 4.047 9H3.5C2.83696 9 2.20107 8.73661 1.73223 8.26777C1.26339 7.79893 1 7.16304 1 6.5C1 5.83696 1.26339 5.20107 1.73223 4.73223C2.20107 4.26339 2.83696 4 3.5 4H7.5C8.16304 4 8.79893 4.26339 9.26777 4.73223C9.73661 5.20107 10 5.83696 10 6.5C10 7.16304 9.73661 7.79893 9.26777 8.26777C8.79893 8.73661 8.16304 9 7.5 9H7.092C6.96889 9.32197 6.96889 9.67803 7.092 10H7.5C8.42826 10 9.3185 9.63125 9.97487 8.97487C10.6313 8.3185 11 7.42826 11 6.5C11 5.57174 10.6313 4.6815 9.97487 4.02513C9.3185 3.36875 8.42826 3 7.5 3H3.5C2.57174 3 1.6815 3.36875 1.02513 4.02513C0.368749 4.6815 0 5.57174 0 6.5Z" fill="context-fill"/>
</svg>
