<svg width="16" height="16" viewBox="0 0 16 16" fill="none" xmlns="http://www.w3.org/2000/svg">
<path fill-rule="evenodd" clip-rule="evenodd" d="M1.30859 5V2.28516H1.26221L0.412598 2.85889V2.0874L1.30859 1.47705H2.20459V5H1.30859ZM0.129395 9.40186V10H2.80762V9.30176H1.3208V9.24658L1.88965 8.74756C2.10612 8.56038 2.27783 8.39355 2.40479 8.24707C2.53174 8.09896 2.62288 7.9598 2.67822 7.82959C2.73356 7.69938 2.76123 7.56836 2.76123 7.43652V7.42432C2.76123 7.21598 2.70589 7.03369 2.59521 6.87744C2.48617 6.72119 2.33317 6.59994 2.13623 6.51367C1.94092 6.42578 1.71224 6.38184 1.4502 6.38184C1.17676 6.38184 0.936686 6.43148 0.72998 6.53076C0.524902 6.62842 0.364583 6.76514 0.249023 6.94092C0.135091 7.1167 0.078125 7.32178 0.078125 7.55615V7.5708L0.898438 7.57324V7.55371C0.898438 7.45768 0.92041 7.37305 0.964355 7.2998C1.0083 7.22494 1.06852 7.16634 1.14502 7.12402C1.22314 7.08171 1.31348 7.06055 1.41602 7.06055C1.51367 7.06055 1.59831 7.07845 1.66992 7.11426C1.74154 7.15006 1.79606 7.20052 1.8335 7.26562C1.87093 7.33073 1.88965 7.40723 1.88965 7.49512V7.50488C1.88965 7.5765 1.87093 7.64893 1.8335 7.72217C1.79769 7.79378 1.73177 7.88086 1.63574 7.9834C1.54134 8.08431 1.40788 8.2137 1.23535 8.37158L0.129395 9.40186ZM0.708008 14.9512C0.917969 15.0423 1.16211 15.0879 1.44043 15.0879C1.73503 15.0879 1.99056 15.0431 2.20703 14.9536C2.4235 14.8641 2.59115 14.7371 2.70996 14.5728C2.82878 14.4067 2.88818 14.2131 2.88818 13.9917V13.9868C2.88818 13.7541 2.81006 13.5669 2.65381 13.4253C2.49756 13.2837 2.28678 13.1999 2.02148 13.1738V13.1567C2.15495 13.1291 2.2762 13.0802 2.38525 13.0103C2.49593 12.9403 2.58382 12.8507 2.64893 12.7417C2.71566 12.631 2.74902 12.5016 2.74902 12.3535V12.3486C2.74902 12.1566 2.69531 11.9889 2.58789 11.8457C2.48047 11.7025 2.32829 11.591 2.13135 11.5112C1.93441 11.4299 1.70166 11.3892 1.43311 11.3892C1.17269 11.3892 0.94401 11.4339 0.74707 11.5234C0.551758 11.6113 0.396322 11.7367 0.280762 11.8994C0.166829 12.0605 0.101725 12.2518 0.0854492 12.4731L0.0830078 12.5073H0.895996L0.898438 12.4829C0.908203 12.3966 0.935059 12.3218 0.979004 12.2583C1.02458 12.1932 1.08561 12.1436 1.16211 12.1094C1.24023 12.0736 1.33057 12.0557 1.43311 12.0557C1.53402 12.0557 1.62028 12.0728 1.69189 12.1069C1.76514 12.1395 1.82048 12.1875 1.85791 12.251C1.89697 12.3128 1.9165 12.3869 1.9165 12.4731V12.478C1.9165 12.5594 1.89372 12.631 1.84814 12.6929C1.8042 12.7547 1.74072 12.8027 1.65771 12.8369C1.57633 12.8711 1.47786 12.8882 1.3623 12.8882H0.986328V13.4961H1.36719C1.5625 13.4961 1.71305 13.5335 1.81885 13.6084C1.92464 13.6833 1.97754 13.7923 1.97754 13.9355V13.9404C1.97754 14.0267 1.95557 14.1032 1.91162 14.1699C1.86768 14.2367 1.80501 14.2896 1.72363 14.3286C1.64388 14.366 1.54867 14.3848 1.43799 14.3848C1.32568 14.3848 1.22803 14.3669 1.14502 14.3311C1.06364 14.2952 0.997721 14.2464 0.947266 14.1846C0.898438 14.1227 0.869141 14.0535 0.859375 13.9771L0.854492 13.9502H0L0.00244141 13.9795C0.0203451 14.2025 0.090332 14.3978 0.212402 14.5654C0.334473 14.7314 0.499674 14.86 0.708008 14.9512ZM16 3H4V4H16V3ZM4 8H16V9H4V8ZM16 13H4V14H16V13Z" fill="context-fill"/>
</svg>
