<svg width="16" height="16" viewBox="0 0 16 16" fill="none" xmlns="http://www.w3.org/2000/svg">
<path fill-rule="evenodd" clip-rule="evenodd" d="M13 6C13 7.37115 12.3709 8.92361 11.2895 10.5682C10.39 11.9361 9.22604 13.2952 8 14.5718C6.77396 13.2952 5.61002 11.9361 4.71053 10.5682C3.62906 8.92361 3 7.37115 3 6C3 3.23858 5.23858 1 8 1C10.7614 1 13 3.23858 13 6ZM14 6C14 9.05531 11.4496 12.4274 8.70039 15.2862C8.46787 15.528 8.23394 15.7661 8 16C7.76606 15.7661 7.53213 15.528 7.29961 15.2862C4.55037 12.4274 2 9.05531 2 6C2 2.68629 4.68629 0 8 0C11.3137 0 14 2.68629 14 6ZM10 6C10 7.10457 9.10457 8 8 8C6.89543 8 6 7.10457 6 6C6 4.89543 6.89543 4 8 4C9.10457 4 10 4.89543 10 6ZM11 6C11 7.65685 9.65685 9 8 9C6.34315 9 5 7.65685 5 6C5 4.34315 6.34315 3 8 3C9.65685 3 11 4.34315 11 6Z" fill="context-fill"/>
</svg>
