<svg width="16" height="16" viewBox="0 0 16 16" fill="none" xmlns="http://www.w3.org/2000/svg">
	<path fill-rule="evenodd" clip-rule="evenodd" d="M9 1H15V3H9V1ZM8 1C8 0.447715 8.44771 0 9 0H15C15.5523 0 16 0.447715 16 1V3C16 3.55228 15.5523 4 15 4H9C8.44771 4 8 3.55228 8 3V1ZM9 7H15V9H9V7ZM8 7C8 6.44772 8.44771 6 9 6H15C15.5523 6 16 6.44772 16 7V9C16 9.55228 15.5523 10 15 10H9C8.44771 10 8 9.55228 8 9V7ZM15 13H9V15H15V13ZM9 12C8.44771 12 8 12.4477 8 13V15C8 15.5523 8.44771 16 9 16H15C15.5523 16 16 15.5523 16 15V13C16 12.4477 15.5523 12 15 12H9ZM7 2C5.34315 2 4 3.34315 4 5V6C4 7.10457 3.10457 8 2 8H1H-1V9H1H2C3.10457 9 4 9.89543 4 11V12C4 13.6569 5.34315 15 7 15V14C5.89543 14 5 13.1046 5 12V11C5 10.2316 4.71115 9.53076 4.2361 9H7V8H4.23611C4.71115 7.46924 5 6.76835 5 6V5C5 3.89543 5.89543 3 7 3V2Z" fill="context-fill"/>
</svg>
