<svg width="16" height="16" viewBox="0 0 16 16" fill="none" xmlns="http://www.w3.org/2000/svg">
<path d="M8.5 3C9.5878 3 10.6512 3.32257 11.5556 3.92692C12.4601 4.53126 13.1651 5.39025 13.5813 6.39524C13.9976 7.40023 14.1065 8.5061 13.8943 9.573C13.6821 10.6399 13.1583 11.6199 12.3891 12.3891C11.6199 13.1583 10.6399 13.6821 9.573 13.8943C8.5061 14.1065 7.40024 13.9976 6.39524 13.5813C5.39025 13.1651 4.53127 12.4601 3.92692 11.5556C3.32257 10.6512 3 9.5878 3 8.5C3.00159 7.0418 3.58156 5.64377 4.61267 4.61267C5.64378 3.58156 7.0418 3.00159 8.5 3ZM8.5 2C7.21442 2 5.95772 2.38122 4.8888 3.09545C3.81988 3.80968 2.98676 4.82484 2.49479 6.01256C2.00282 7.20028 1.87409 8.50721 2.1249 9.76809C2.3757 11.029 2.99477 12.1872 3.90381 13.0962C4.81285 14.0052 5.97104 14.6243 7.23192 14.8751C8.49279 15.1259 9.79973 14.9972 10.9874 14.5052C12.1752 14.0132 13.1903 13.1801 13.9046 12.1112C14.6188 11.0423 15 9.78558 15 8.5C15 7.64641 14.8319 6.80117 14.5052 6.01256C14.1786 5.22394 13.6998 4.50739 13.0962 3.90381C12.4926 3.30023 11.7761 2.82144 10.9874 2.49478C10.1988 2.16813 9.35359 2 8.5 2ZM12 8H5V9H12V8Z" fill="context-fill"/>
</svg>
