<svg width="16" height="16" viewBox="0 0 16 16" fill="none" xmlns="http://www.w3.org/2000/svg">
<path d="M12.707 16L12 15.293L13.293 14H8V13H15.707L12.707 16ZM6.38184 0C6.76081 0 7.10736 0.213773 7.27637 0.552734L8 2H13C13.552 2 14 2.448 14 3V10H13V5H1V11H7.87891L6.87891 12H1C0.448 12 0 11.552 0 11V3C0 2.448 0.448 2 1 2H2L2.72363 0.552734C2.89264 0.213773 3.23919 0 3.61816 0H6.38184ZM12 9.70703L10.707 11H16V12H8.29297L11.293 9L12 9.70703ZM2.89355 2.44727C2.72448 2.78604 2.37885 3 2 3H1V4H13V3H8C7.62115 3 7.27552 2.78604 7.10645 2.44727L6.38184 1H3.61816L2.89355 2.44727Z" fill="context-fill"/>
</svg>
