<svg width="16" height="16" viewBox="0 0 16 16" fill="none" xmlns="http://www.w3.org/2000/svg">
<g clip-path="url(#clip0_4097_28066)">
<path fill-rule="evenodd" clip-rule="evenodd" d="M14 1H5C4.44772 1 4 1.44772 4 2V11C4 11.5523 4.44772 12 5 12H14C14.5523 12 15 11.5523 15 11V2C15 1.44772 14.5523 1 14 1ZM5 0C3.89543 0 3 0.89543 3 2L2 2C0.895431 2 0 2.89543 0 4V14C0 15.1046 0.89543 16 2 16H12C13.1046 16 14 15.1046 14 14V13C15.1046 13 16 12.1046 16 11V2C16 0.895431 15.1046 0 14 0H5ZM2 3H3V11C3 12.1046 3.89543 13 5 13H13V14C13 14.5523 12.5523 15 12 15H2C1.44772 15 1 14.5523 1 14V4C1 3.44772 1.44772 3 2 3ZM8.70711 8L13.0002 3.70696L13.0002 5.94975H14V2L10.0503 2V2.99985L12.293 2.99985L8 7.29289L8.70711 8Z" fill="context-fill"/>
</g>
<defs>
<clipPath id="clip0_4097_28066">
<rect width="16" height="16" fill="white"/>
</clipPath>
</defs>
</svg>
