<svg width="16" height="16" viewBox="0 0 16 16" fill="none" xmlns="http://www.w3.org/2000/svg">
<path fill-rule="evenodd" clip-rule="evenodd" d="M14 2H10.5H9C8.44772 2 8 2.44772 8 3V4C8 4.55228 7.55228 5 7 5H1V13C1 13.5523 1.44772 14 2 14H14C14.5523 14 15 13.5523 15 13V3C15 2.44772 14.5523 2 14 2ZM14 1H10.5H9H2C0.895431 1 0 1.89543 0 3V13C0 14.1046 0.895431 15 2 15H14C15.1046 15 16 14.1046 16 13V3C16 1.89543 15.1046 1 14 1ZM2 2H7.26756C7.09739 2.29417 7 2.63571 7 3V4H1V3C1 2.44772 1.44772 2 2 2ZM8.70711 9L13.0002 4.70696L13.0002 6.94975H14V3L10.0503 3V3.99985L12.293 3.99985L8 8.29289L8.70711 9Z" fill="context-fill"/>
</svg>
