<svg width="16" height="16" viewBox="0 0 16 16" fill="none" xmlns="http://www.w3.org/2000/svg">
<g clip-path="url(#clip0_3025_57727)">
<path fill-rule="evenodd" clip-rule="evenodd" d="M13 2H8L7.276 0.553C7.107 0.214 6.761 0 6.382 0H3.618C3.239 0 2.893 0.214 2.724 0.553L2 2H1C0.448 2 0 2.448 0 3V5V11C0 11.552 0.448 12 1 12H7.02746C7.27619 14.25 9.18372 16 11.5 16C13.9853 16 16 13.9853 16 11.5C16 9.93979 15.206 8.56504 14 7.75777V5V3C14 2.448 13.552 2 13 2ZM13 7.25606V5H1V11H7.02746C7.27619 8.75002 9.18372 7 11.5 7C12.026 7 12.5308 7.09023 13 7.25606ZM1 4V3H2C2.379 3 2.725 2.786 2.894 2.447L3.618 1H6.382L7.106 2.447C7.275 2.786 7.621 3 8 3H13V4H1ZM15 11.5C15 13.433 13.433 15 11.5 15C9.567 15 8 13.433 8 11.5C8 9.567 9.567 8 11.5 8C13.433 8 15 9.567 15 11.5ZM12 11H14V12H12V14H11V12H9V11H11V9H12V11Z" fill="context-fill"/>
</g>
<defs>
<clipPath id="clip0_3025_57727">
<rect width="16" height="16" fill="white"/>
</clipPath>
</defs>
</svg>
