<svg width="16" height="16" viewBox="0 0 16 16" fill="none" xmlns="http://www.w3.org/2000/svg">
<g clip-path="url(#clip0_4465_26581)">
<path fill-rule="evenodd" clip-rule="evenodd" d="M0 0.70706L15.293 16L16 15.2928L0.707197 0L0 0.70706ZM10.499 12.6203L9.25753 15.1031C8.95228 15.7136 8.13864 15.8457 7.65599 15.363L4.50008 12.2071L0.707182 16L9.87947e-05 16L0 15.2929L3.79297 11.5L0.637052 8.34408C0.15441 7.86144 0.286449 7.04779 0.896946 6.74255L3.37981 5.50111L4.12517 6.24647L1.34416 7.63697L8.3631 14.6559L9.7536 11.8749L10.499 12.6203ZM11.9132 9.79184L12.3489 8.92033L14.8204 8.2142C15.5535 8.00473 15.7919 7.08473 15.2528 6.54558L9.4545 0.747313C8.91534 0.208154 7.99534 0.446553 7.78587 1.1797L7.07974 3.65115L6.20824 4.0869L6.95359 4.83226L7.72368 4.44721L7.92041 4.34885L7.98084 4.13736L8.74739 1.45442L14.5457 7.25268L11.8627 8.01923L11.6512 8.07966L11.5529 8.27639L11.1678 9.04648L11.9132 9.79184Z" fill="context-fill"/>
</g>
<defs>
<clipPath id="clip0_4465_26581">
<rect width="16" height="16" fill="white"/>
</clipPath>
</defs>
</svg>
