<svg width="16" height="16" viewBox="0 0 16 16" fill="none" xmlns="http://www.w3.org/2000/svg">
<g clip-path="url(#clip0_5981_57378)">
<path fill-rule="evenodd" clip-rule="evenodd" d="M14.9998 12.8786V5.29289L9.70693 0H2.12126L3.12126 1H8.99982V6H13.9998V11.8786L14.9998 12.8786ZM12.8786 15L13.8786 16H1.99982V12.978C2.31557 13.1801 2.64995 13.3558 2.99982 13.5017V15H12.8786ZM4.06708 6.18846C2.37457 6.64386 1.0048 7.88668 0.374756 9.49991C1.1748 11.5486 3.16783 13 5.49985 13C6.9878 13 8.33775 12.4091 9.32785 11.4492L8.62075 10.7421C7.81124 11.5214 6.71094 12 5.49985 12C3.73435 12 2.20428 10.983 1.4673 9.49993C2.12175 8.1831 3.4015 7.23369 4.91613 7.03751L4.06708 6.18846ZM2.99982 5.1212L1.99982 4.1212V6.0219C2.31557 5.81974 2.64996 5.64413 2.99982 5.49822V5.1212ZM13.2927 5L9.99982 1.70711V5H13.2927ZM6 9.5C6 9.77614 5.77614 10 5.5 10C5.22386 10 5 9.77614 5 9.5C5 9.22386 5.22386 9 5.5 9C5.77614 9 6 9.22386 6 9.5ZM7 9.5C7 10.3284 6.32843 11 5.5 11C4.67157 11 4 10.3284 4 9.5C4 8.67157 4.67157 8 5.5 8C6.32843 8 7 8.67157 7 9.5Z" fill="context-fill"/>
<path fill-rule="evenodd" clip-rule="evenodd" d="M15.293 16L0 0.70706L0.707197 0L16 15.2928L15.293 16Z" fill="context-fill"/>
</g>
<defs>
<clipPath id="clip0_5981_57378">
<rect width="16" height="16" fill="white"/>
</clipPath>
</defs>
</svg>
