<svg width="16" height="16" viewBox="0 0 16 16" fill="none" xmlns="http://www.w3.org/2000/svg">
<path fill-rule="evenodd" clip-rule="evenodd" d="M1.99982 0H9.70693L14.9998 5.29289V16H1.99982V12.978C2.31557 13.1801 2.64995 13.3558 2.99982 13.5017V15H13.9998V6H8.99982V1H2.99982V5.49822C2.64996 5.64413 2.31557 5.81974 1.99982 6.0219V0ZM9.99982 1.70711L13.2927 5H9.99982V1.70711ZM1.4673 9.49993C2.20428 10.983 3.73435 12 5.49985 12C7.2653 12 8.79532 10.983 9.53233 9.50007C8.79535 8.01705 7.26528 7 5.49978 7C3.73433 7 2.20431 8.01698 1.4673 9.49993ZM10.6249 9.50009C9.82483 7.45137 7.8318 6 5.49978 6C3.16783 6 1.17485 7.45128 0.374756 9.49991C1.1748 11.5486 3.16783 13 5.49985 13C7.8318 13 9.82478 11.5487 10.6249 9.50009ZM5.5 10C5.77614 10 6 9.77614 6 9.5C6 9.22386 5.77614 9 5.5 9C5.22386 9 5 9.22386 5 9.5C5 9.77614 5.22386 10 5.5 10ZM5.5 11C6.32843 11 7 10.3284 7 9.5C7 8.67157 6.32843 8 5.5 8C4.67157 8 4 8.67157 4 9.5C4 10.3284 4.67157 11 5.5 11Z" fill="context-fill"/>
</svg>
