<svg width="16" height="16" viewBox="0 0 16 16" fill="none" xmlns="http://www.w3.org/2000/svg">
<path fill-rule="evenodd" clip-rule="evenodd" d="M13 3.10102C11.7295 1.80447 9.95869 1 8 1C4.47353 1 1.55612 3.60771 1.07089 7H2.08296C2.55904 4.16229 5.02701 2 8 2C9.777 2 11.3736 2.7725 12.4722 4L10 4V5L14 5V1H13V3.10102ZM8.00001 15C6.04132 15 4.27052 14.1955 3 12.899V15H2V11H6V12H3.52779C4.62643 13.2275 6.223 14 8.00001 14C10.973 14 13.441 11.8377 13.917 9.00001L14.9291 9.00001C14.4439 12.3923 11.5265 15 8.00001 15Z" fill="context-fill"/>
</svg>
