<svg width="16" height="16" viewBox="0 0 16 16" fill="none" xmlns="http://www.w3.org/2000/svg">
<path fill-rule="evenodd" clip-rule="evenodd" d="M9.70711 0H2V16H12.8788L11.8788 15H3V1H9V6H14V12.8786L15 13.8786V5.29289L9.70711 0ZM13.2929 5L10 1.70711V5H13.2929ZM15.0001 15.2929L14.293 16L11.7383 13.4454C11.2479 13.7946 10.6479 14 10 14C8.34315 14 7 12.6569 7 11C7 9.34315 8.34315 8 10 8C11.6569 8 13 9.34315 13 11C13 11.6479 12.7946 12.2479 12.4454 12.7383L15.0001 15.2929ZM12 11C12 12.1046 11.1046 13 10 13C8.89543 13 8 12.1046 8 11C8 9.89543 8.89543 9 10 9C11.1046 9 12 9.89543 12 11Z" fill="context-fill"/>
</svg>
