<svg width="16" height="16" viewBox="0 0 16 16" fill="none" xmlns="http://www.w3.org/2000/svg">
<g clip-path="url(#clip0_3042_57935)">
<path fill-rule="evenodd" clip-rule="evenodd" d="M14.4141 0.707094C13.6331 -0.0739541 12.3668 -0.0739554 11.5857 0.707093L1.54845 10.7444L0.312744 15.6872L5.25555 14.4515L15.2928 4.4142C16.0739 3.63315 16.0739 2.36682 15.2928 1.58577L14.4141 0.707094ZM12.2928 1.4142C12.6833 1.02368 13.3165 1.02368 13.707 1.4142L14.5857 2.29288C14.9762 2.6834 14.9762 3.31657 14.5857 3.70709L13.4999 4.79288L11.207 2.49999L12.2928 1.4142ZM10.4999 3.20709L12.7928 5.49999L4.7443 13.5485L1.68711 14.3128L2.45141 11.2556L10.4999 3.20709ZM15 16H5.12134L6.12134 15H15V12H9.12134L10.1213 11H15H16V12V15V16H15Z" fill="context-fill"/>
</g>
<defs>
<clipPath id="clip0_3042_57935">
<rect width="16" height="16" fill="white"/>
</clipPath>
</defs>
</svg>
