<svg width="16" height="16" viewBox="0 0 16 16" fill="none" xmlns="http://www.w3.org/2000/svg">
<g clip-path="url(#clip0_1346_124)">
<path d="M15.9719 12.0001C15.7231 14.2499 13.8164 16 11.5002 16.0001C10.0851 16.0001 8.82487 15.3449 8.00024 14.3234V16.0001H7.00024V13.0001H10.0002V14.0001H9.05493C9.68563 14.6178 10.5476 15.0001 11.5002 15.0001C13.2633 15 14.7214 13.6961 14.9641 12.0001H15.9719ZM16.0002 10.0001H13.0002V9.00012H13.9456C13.3148 8.38239 12.4529 8.00018 11.5002 8.00012C9.73704 8.00012 8.27903 9.30402 8.03638 11.0001H7.02856C7.27733 8.75019 9.184 7.00012 11.5002 7.00012C12.9155 7.00019 14.1756 7.65524 15.0002 8.67688V7.00012H16.0002V10.0001ZM14.0002 6.60071C13.6835 6.43875 13.3489 6.30676 13.0002 6.20813V4.00012H1.00024V8.00012H7.25806C7.00454 8.30705 6.78467 8.64257 6.60181 9.00012H0.000244141V3.00012H14.0002V6.60071ZM3.00024 7.00012H2.00024V5.00012H3.00024V7.00012Z" fill="context-fill"/>
</g>
<defs>
<clipPath id="clip0_1346_124">
<rect width="16" height="16" fill="white"/>
</clipPath>
</defs>
</svg>