<svg width="16" height="16" viewBox="0 0 16 16" fill="none" xmlns="http://www.w3.org/2000/svg">
<path fill-rule="evenodd" clip-rule="evenodd" d="M4.79297 3.50001L8.29298 0L9 0.70719L6.70719 3L8.5 3V2.99998C12.0899 2.99998 15 5.91013 15 9.49998C15 13.087 12.0945 15.9953 8.50856 16L8.5 16L8.49145 16C4.90553 15.9954 2 13.087 2 9.49998C2 9.33175 2.00639 9.16501 2.01894 8.99999L3.02242 9C3.00758 9.16467 3 9.33144 3 9.49998C3 12.5375 5.46243 15 8.5 15C11.5376 15 14 12.5375 14 9.49998C14 6.46241 11.5376 3.99998 8.5 3.99998V4L6.70717 4L9 6.29282L8.29296 7L4.79297 3.50001Z" fill="context-fill"/>
</svg>
