<svg width="16" height="16" viewBox="0 0 16 16" fill="none" xmlns="http://www.w3.org/2000/svg">
<path d="M10.707 0H2V16H15V4.293L10.707 0ZM11 1.707L13.293 4H11V1.707ZM14 15H3V1H10V5H14V15ZM8.5 6C9.19223 6 9.86892 6.20527 10.4445 6.58986C11.0201 6.97444 11.4687 7.52107 11.7336 8.16061C11.9985 8.80015 12.0678 9.50388 11.9327 10.1828C11.7977 10.8617 11.4644 11.4854 10.9749 11.9749C10.4854 12.4644 9.86175 12.7977 9.18282 12.9327C8.50388 13.0678 7.80015 12.9985 7.16061 12.7336C6.52107 12.4687 5.97444 12.0201 5.58986 11.4445C5.20527 10.8689 5 10.1922 5 9.5C5.00496 9.33237 5.02167 9.16529 5.05 9H6.05C5.94682 9.50547 6.00254 10.0305 6.20952 10.503C6.4165 10.9756 6.7646 11.3725 7.20608 11.6394C7.64756 11.9063 8.1608 12.0301 8.67541 11.9938C9.19001 11.9575 9.68079 11.7629 10.0804 11.4367C10.4801 11.1104 10.769 10.6685 10.9076 10.1716C11.0462 9.67469 11.0276 9.14706 10.8545 8.66108C10.6814 8.17511 10.3622 7.75459 9.94065 7.4572C9.51911 7.1598 9.01589 7.00011 8.5 7C8.23875 7.00071 7.97936 7.04394 7.732 7.128L9 8.4L8.293 9.1L5.793 6.6L8.293 4.1L9 4.811L7.717 6.094C7.97332 6.03158 8.23619 6.00003 8.5 6Z" fill="context-fill"/>
</svg>
