<svg width="16" height="16" viewBox="0 0 16 16" fill="none" xmlns="http://www.w3.org/2000/svg">
<g clip-path="url(#clip0_4088_28039)">
<path fill-rule="evenodd" clip-rule="evenodd" d="M10.2635 13.385C9.42489 13.7795 8.4882 14 7.5 14C3.91015 14 1 11.0899 1 7.5C1 3.91015 3.91015 1 7.5 1C11.0899 1 14 3.91015 14 7.5C14 7.66824 13.9936 7.83498 13.9811 8H14.9836C14.9945 7.83474 15 7.66801 15 7.5C15 3.35786 11.6421 0 7.5 0C3.35786 0 0 3.35786 0 7.5C0 11.6421 3.35786 15 7.5 15C8.76766 15 9.96187 14.6855 11.0089 14.1303L10.2635 13.385ZM8 4.25C8 4.66421 7.66421 5 7.25 5C6.83579 5 6.5 4.66421 6.5 4.25C6.5 3.83579 6.83579 3.5 7.25 3.5C7.66421 3.5 8 3.83579 8 4.25ZM8 10V6H6V7H7V10H6V11H9V10H8ZM13 9H14V13.2929L15.2929 12L16 12.7071L13.5 15.2071L11 12.7071L11.7071 12L13 13.2929V9Z" fill="context-fill"/>
</g>
<defs>
<clipPath id="clip0_4088_28039">
<rect width="16" height="16" fill="white"/>
</clipPath>
</defs>
</svg>
