<svg width="12" height="12" viewBox="0 0 12 12" fill="none" xmlns="http://www.w3.org/2000/svg">
<g>
<path d="M11.9156 7C11.4395 9.8374 8.97322 11.9997 6.00058 12C3.91218 12 2.0741 10.9321 0.999603 9.31348V12H-0.000396729V8H3.9996V9H2.00546C2.91757 10.2131 4.36592 11 6.00058 11C8.41927 10.9997 10.4367 9.28204 10.9 7H11.9156ZM11.9996 4H7.9996V3H9.99472C9.08262 1.78682 7.6343 1 5.9996 1C3.58083 1.00019 1.56345 2.7179 1.10019 5H0.0845642C0.560729 2.16254 3.02688 0.000194025 5.9996 0C8.08726 0 9.92494 1.06689 10.9996 2.68457V0H11.9996V4Z" fill="context-fill"/>
</g>
</svg>
