<svg width="16" height="16" viewBox="0 0 16 16" fill="none" xmlns="http://www.w3.org/2000/svg">
<path fill-rule="evenodd" clip-rule="evenodd" d="M12.9999 3.10102C11.7294 1.80447 9.9586 1 7.99991 1C4.47344 1 1.55603 3.60771 1.0708 7H2.08287C2.55895 4.16229 5.02692 2 7.99991 2C9.77691 2 11.3735 2.7725 12.4721 4L9.99991 4V5L13.9999 5V1H12.9999V3.10102ZM12.7999 4H12.9999V3.875L12.7999 4ZM7.99991 15C6.04122 15 4.27043 14.1955 2.99991 12.899V15H1.99991V11H5.99991V12H3.5277C4.62634 13.2275 6.22291 14 7.99991 14C10.9729 14 13.4409 11.8377 13.917 9.00001L14.929 9.00001C14.4438 12.3923 11.5264 15 7.99991 15Z" fill="context-fill"/>
</svg>
