<svg width="16" height="16" viewBox="0 0 16 16" fill="none" xmlns="http://www.w3.org/2000/svg">
<path d="M15 14.293L14.293 15L1 1.70703L1.70703 1L15 14.293ZM3.38965 5.51074C3.13996 6.27733 3 7.11399 3 8C3 10.6104 4.1988 12.7971 5.91992 14L5.45801 14.8994C3.38948 13.5093 2 10.9408 2 8C2 6.83538 2.21872 5.72936 2.61035 4.73145L3.38965 5.51074ZM11.75 13.8711C11.3814 14.2606 10.9774 14.6068 10.542 14.8994L10.0801 14C10.4241 13.7595 10.7451 13.4777 11.042 13.1631L11.75 13.8711ZM10.542 1.09961C12.6108 2.48965 14 5.05902 14 8C14 9.16448 13.7803 10.2699 13.3887 11.2676L12.6094 10.4883C12.859 9.72192 13 8.88583 13 8C13 5.38935 11.8015 3.20182 10.0801 1.99902L10.542 1.09961ZM5.91992 1.99902C5.57568 2.23956 5.25307 2.52016 4.95605 2.83496L4.24805 2.12695C4.61678 1.73721 5.02238 1.39231 5.45801 1.09961L5.91992 1.99902Z" fill="context-fill"/>
</svg>
