<svg width="16" height="16" viewBox="0 0 16 16" fill="none" xmlns="http://www.w3.org/2000/svg">
<g clip-path="url(#clip0_1153_36699)">
<path d="M12 3H11V1H12V3ZM5 13H4V15H5V13ZM15 3H13V4H15V3ZM3 12H0.999998V13H3V12ZM13 6.05V7.05C13.6076 7.17337 14.1476 7.5181 14.5153 8.01726C14.883 8.51643 15.0522 9.13441 14.9899 9.75125C14.9275 10.3681 14.6383 10.9398 14.1782 11.3553C13.7181 11.7709 13.12 12.0006 12.5 12H8.5C7.88088 11.9994 7.284 11.7691 6.82493 11.3537C6.36587 10.9383 6.07728 10.3673 6.01505 9.7513C5.95281 9.13531 6.12136 8.51814 6.48806 8.0193C6.85475 7.52045 7.39351 7.17542 8 7.051V6.051C7.12491 6.17583 6.32973 6.62787 5.77485 7.31596C5.21997 8.00404 4.94669 8.87696 5.01012 9.75862C5.07356 10.6403 5.469 11.4651 6.11667 12.0666C6.76435 12.6682 7.61606 13.0017 8.5 13H12.5C13.3852 13.0036 14.2387 12.6708 14.8879 12.0691C15.5371 11.4674 15.9336 10.6415 15.9971 9.7586C16.0606 8.87569 15.7865 8.00161 15.2301 7.31313C14.6737 6.62465 13.8766 6.17317 13 6.05ZM7.5 3H3.5C2.61481 2.99643 1.7613 3.32916 1.11209 3.9309C0.46288 4.53264 0.0664231 5.35848 0.0029043 6.2414C-0.0606146 7.12431 0.213545 7.99839 0.769934 8.68687C1.32632 9.37535 2.12342 9.82683 3 9.95V8.95C2.39242 8.82663 1.85236 8.4819 1.48465 7.98274C1.11695 7.48357 0.947836 6.86559 1.01014 6.24875C1.07245 5.63191 1.36173 5.06023 1.82183 4.64469C2.28193 4.22914 2.88002 3.99938 3.5 4H7.5C8.11912 4.00059 8.716 4.23089 9.17506 4.64631C9.63413 5.06173 9.92271 5.63272 9.98495 6.2487C10.0472 6.86469 9.87863 7.48186 9.51194 7.9807C9.14524 8.47955 8.60649 8.82458 8 8.949V9.949C8.87508 9.82417 9.67026 9.37213 10.2251 8.68404C10.78 7.99596 11.0533 7.12304 10.9899 6.24138C10.9264 5.35972 10.531 4.53492 9.88332 3.93336C9.23565 3.33181 8.38394 2.99826 7.5 3Z" fill="#222222"/>
</g>
<defs>
<clipPath id="clip0_1153_36699">
<rect width="16" height="16" fill="white"/>
</clipPath>
</defs>
</svg>
