<svg width="16" height="16" viewBox="0 0 16 16" fill="none" xmlns="http://www.w3.org/2000/svg">
<path fill-rule="evenodd" clip-rule="evenodd" d="M8.00003 12C5.20911 12 2.79758 10.3664 1.67338 8C2.79758 5.6336 5.20911 4 8.00003 4C10.7909 4 13.2025 5.6336 14.3267 8C13.2025 10.3664 10.7909 12 8.00003 12ZM8.00003 3C11.3574 3 14.2317 5.06817 15.4185 8C14.2317 10.9318 11.3574 13 8.00003 13C4.64265 13 1.76832 10.9318 0.581543 8C1.76832 5.06817 4.64265 3 8.00003 3ZM10 8C10 9.10457 9.10457 10 8 10C6.89543 10 6 9.10457 6 8C6 6.89543 6.89543 6 8 6C9.10457 6 10 6.89543 10 8ZM11 8C11 9.65685 9.65685 11 8 11C6.34315 11 5 9.65685 5 8C5 6.34315 6.34315 5 8 5C9.65685 5 11 6.34315 11 8Z" fill="context-fill"/>
</svg>
