<svg width="34" height="40" viewBox="0 0 34 40" fill="none" xmlns="http://www.w3.org/2000/svg">
<path d="M33.548 8.14231L25.8207 0.45C25.6771 0.307178 25.5066 0.193926 25.319 0.116714C25.1313 0.0395012 24.9303 -0.00015844 24.7273 4.7569e-07H9.27273C8.45297 4.7569e-07 7.66678 0.324175 7.08712 0.90121C6.50747 1.47825 6.18182 2.26087 6.18182 3.07692V6.15385H3.09091C2.27115 6.15385 1.48496 6.47802 0.905306 7.05506C0.325648 7.63209 0 8.41472 0 9.23077V36.9231C0 37.7391 0.325648 38.5218 0.905306 39.0988C1.48496 39.6758 2.27115 40 3.09091 40H24.7273C25.547 40 26.3332 39.6758 26.9129 39.0988C27.4925 38.5218 27.8182 37.7391 27.8182 36.9231V33.8462H30.9091C31.7288 33.8462 32.515 33.522 33.0947 32.9449C33.6744 32.3679 34 31.5853 34 30.7692V9.23077C34.0002 9.02868 33.9603 8.82853 33.8828 8.64177C33.8052 8.45501 33.6914 8.28529 33.548 8.14231ZM24.7273 36.9231H3.09091V9.23077H17.906L24.7273 16.0212V32.2769C24.7273 32.2885 24.7273 32.2981 24.7273 32.3077C24.7273 32.3173 24.7273 32.3269 24.7273 32.3385V36.9231ZM30.9091 30.7692H27.8182V15.3846C27.8183 15.1825 27.7785 14.9824 27.7009 14.7956C27.6234 14.6089 27.5096 14.4391 27.3661 14.2962L19.6389 6.60385C19.4952 6.46102 19.3247 6.34777 19.1371 6.27056C18.9495 6.19335 18.7485 6.15369 18.5455 6.15385H9.27273V3.07692H24.0878L30.9091 9.86731V30.7692ZM20.0909 24.6154C20.0909 25.0234 19.9281 25.4147 19.6383 25.7032C19.3484 25.9918 18.9553 26.1538 18.5455 26.1538H9.27273C8.86285 26.1538 8.46976 25.9918 8.17993 25.7032C7.8901 25.4147 7.72727 25.0234 7.72727 24.6154C7.72727 24.2074 7.8901 23.816 8.17993 23.5275C8.46976 23.239 8.86285 23.0769 9.27273 23.0769H18.5455C18.9553 23.0769 19.3484 23.239 19.6383 23.5275C19.9281 23.816 20.0909 24.2074 20.0909 24.6154ZM20.0909 30.7692C20.0909 31.1773 19.9281 31.5686 19.6383 31.8571C19.3484 32.1456 18.9553 32.3077 18.5455 32.3077H9.27273C8.86285 32.3077 8.46976 32.1456 8.17993 31.8571C7.8901 31.5686 7.72727 31.1773 7.72727 30.7692C7.72727 30.3612 7.8901 29.9699 8.17993 29.6814C8.46976 29.3929 8.86285 29.2308 9.27273 29.2308H18.5455C18.9553 29.2308 19.3484 29.3929 19.6383 29.6814C19.9281 29.9699 20.0909 30.3612 20.0909 30.7692Z" fill="url(#paint0_linear_142_5948)" fill-opacity="0.5"/>
<defs>
<linearGradient id="paint0_linear_142_5948" x1="17" y1="0" x2="17" y2="40" gradientUnits="userSpaceOnUse">
<stop stop-color="#0AE2FF"/>
<stop offset="1" stop-color="#0687E5"/>
</linearGradient>
</defs>
</svg>
