<svg width="16" height="16" viewBox="0 0 16 16" fill="none" xmlns="http://www.w3.org/2000/svg">
<path fill-rule="evenodd" clip-rule="evenodd" d="M3 2H13C13.5523 2 14 2.44772 14 3V7.75777C13.285 7.27914 12.4251 7 11.5 7C11.106 7 10.7237 7.05065 10.3595 7.14579C8.89767 5.23354 6.59289 4 4 4V5C6.16518 5 8.10076 5.98303 9.38478 7.52712C8.78765 7.8457 8.27078 8.29496 7.87237 8.83673C6.95546 7.71561 5.5613 7 4 7V8C5.3928 8 6.61934 8.71186 7.33563 9.7916C7.1193 10.3184 7 10.8953 7 11.5C7 12.4251 7.27914 13.285 7.75777 14H3C2.44772 14 2 13.5523 2 13V3C2 2.44772 2.44772 2 3 2ZM8.67133 15H3C1.89543 15 1 14.1046 1 13V3C1 1.89543 1.89543 1 3 1H13C14.1046 1 15 1.89543 15 3V8.67133C15.6254 9.4442 16 10.4284 16 11.5C16 13.9853 13.9853 16 11.5 16C10.4284 16 9.4442 15.6254 8.67133 15ZM6 11C6 11.5523 5.55228 12 5 12C4.44772 12 4 11.5523 4 11C4 10.4477 4.44772 10 5 10C5.55228 10 6 10.4477 6 11ZM15 11.5C15 13.433 13.433 15 11.5 15C9.567 15 8 13.433 8 11.5C8 9.567 9.567 8 11.5 8C13.433 8 15 9.567 15 11.5ZM9 11.7071L11.5 14.2071L14 11.7071L13.2929 11L12 12.2929V9H11V12.2929L9.70711 11L9 11.7071Z" fill="#39BF68"/>
</svg>
