<svg width="16" height="16" viewBox="0 0 16 16" fill="none" xmlns="http://www.w3.org/2000/svg">
<g clip-path="url(#clip0_1945_28596)">
<path fill-rule="evenodd" clip-rule="evenodd" d="M8 2H13C13.552 2 14 2.448 14 3V5V7C15.1046 7 16 7.89543 16 9V14C16 15.1046 15.1046 16 14 16H9C7.89543 16 7 15.1046 7 14V12H1C0.448 12 0 11.552 0 11V5V3C0 2.448 0.448 2 1 2H2L2.724 0.553C2.893 0.214 3.239 0 3.618 0H6.382C6.761 0 7.107 0.214 7.276 0.553L8 2ZM13 5V7H9C7.89543 7 7 7.89543 7 9V11H1V5H13ZM8 14V12V11V9C8 8.44772 8.44771 8 9 8H13H14C14.5523 8 15 8.44771 15 9V14C15 14.5523 14.5523 15 14 15H9C8.44772 15 8 14.5523 8 14ZM1 3V4H13V3H8C7.621 3 7.275 2.786 7.106 2.447L6.382 1H3.618L2.894 2.447C2.725 2.786 2.379 3 2 3H1ZM9 12C10.1046 12 11 12.8954 11 14H12C12 12.3431 10.6569 11 9 11V12ZM13 14H14C14 11.2386 11.7614 9 9 9V10C11.2091 10 13 11.7909 13 14ZM9.5 14C9.77614 14 10 13.7761 10 13.5C10 13.2239 9.77614 13 9.5 13C9.22386 13 9 13.2239 9 13.5C9 13.7761 9.22386 14 9.5 14Z" fill="#FF794C"/>
</g>
<defs>
<clipPath id="clip0_1945_28596">
<rect width="16" height="16" fill="white"/>
</clipPath>
</defs>
</svg>
