<svg width="24" height="24" viewBox="0 0 24 24" fill="none" xmlns="http://www.w3.org/2000/svg">
<mask id="mask0_1121_387" style="mask-type:alpha" maskUnits="userSpaceOnUse" x="0" y="0" width="24" height="24">
<rect width="24" height="24" fill="#D9D9D9"/>
</mask>
<g mask="url(#mask0_1121_387)">
<path d="M10.1346 21L9.77306 18.1077C9.4539 18.0116 9.10873 17.8603 8.73756 17.6538C8.3664 17.4474 8.05073 17.2263 7.79056 16.9905L5.12306 18.125L3.25781 14.875L5.56356 13.1365C5.53406 12.9558 5.50973 12.7697 5.49056 12.578C5.47123 12.3863 5.46156 12.2001 5.46156 12.0192C5.46156 11.8512 5.47123 11.6747 5.49056 11.4895C5.50973 11.3042 5.53406 11.0955 5.56356 10.8635L3.25781 9.125L5.12306 5.9135L7.77131 7.02875C8.06998 6.78008 8.39306 6.55575 8.74056 6.35575C9.0879 6.15575 9.42565 6.00125 9.75381 5.89225L10.1346 3H13.8656L14.2271 5.9115C14.6104 6.04617 14.9491 6.20067 15.2433 6.375C15.5375 6.54933 15.8404 6.76725 16.1521 7.02875L18.8771 5.9135L20.7423 9.125L18.3596 10.9212C18.4147 11.1276 18.4456 11.317 18.4521 11.4895C18.4584 11.6618 18.4616 11.832 18.4616 12C18.4616 12.1552 18.4551 12.3189 18.4423 12.4913C18.4295 12.6637 18.4 12.8724 18.3538 13.1173L20.6981 14.875L18.8328 18.125L16.1521 16.9712C15.8404 17.2327 15.5269 17.4571 15.2116 17.6443C14.8962 17.8314 14.5681 17.9795 14.2271 18.0885L13.8656 21H10.1346ZM11.0001 20H12.9558L13.3251 17.2923C13.8289 17.1589 14.2824 16.9759 14.6856 16.7432C15.0889 16.5106 15.4995 16.1917 15.9173 15.7865L18.4116 16.85L19.4058 15.15L17.2173 13.5058C17.3006 13.2211 17.3558 12.9593 17.3828 12.7203C17.4096 12.4811 17.4231 12.241 17.4231 12C17.4231 11.7462 17.4096 11.5061 17.3828 11.2797C17.3558 11.0536 17.3006 10.8046 17.2173 10.5328L19.4443 8.85L18.4501 7.15L15.8981 8.21925C15.5956 7.88725 15.1978 7.576 14.7048 7.2855C14.212 6.99517 13.7456 6.80258 13.3058 6.70775L13.0001 4H11.0058L10.6943 6.6885C10.1905 6.79617 9.72731 6.96958 9.30481 7.20875C8.88248 7.44775 8.46231 7.77625 8.04431 8.19425L5.55006 7.15L4.55581 8.85L6.72506 10.4693C6.64173 10.6936 6.5834 10.9372 6.55006 11.2C6.51673 11.4628 6.50006 11.7359 6.50006 12.0192C6.50006 12.2731 6.51673 12.525 6.55006 12.775C6.5834 13.025 6.63531 13.2686 6.70581 13.5058L4.55581 15.15L5.55006 16.85L8.02506 15.8C8.4174 16.1962 8.82473 16.5138 9.24706 16.753C9.66956 16.992 10.1456 17.1782 10.6751 17.3115L11.0001 20ZM11.9731 14.5C12.6706 14.5 13.2616 14.2577 13.7463 13.773C14.2308 13.2885 14.4731 12.6975 14.4731 12C14.4731 11.3025 14.2308 10.7115 13.7463 10.227C13.2616 9.74233 12.6706 9.5 11.9731 9.5C11.2719 9.5 10.6799 9.74233 10.1971 10.227C9.7144 10.7115 9.47306 11.3025 9.47306 12C9.47306 12.6975 9.7144 13.2885 10.1971 13.773C10.6799 14.2577 11.2719 14.5 11.9731 14.5Z" fill="#FFFFFF"/>
</g>
</svg>

