<svg width="24" height="24" viewBox="0 0 24 24" fill="none" xmlns="http://www.w3.org/2000/svg">
<mask id="mask0_1121_33" style="mask-type:alpha" maskUnits="userSpaceOnUse" x="0" y="0" width="24" height="24">
<rect width="24" height="24" fill="#D9D9D9"/>
</mask>
<g mask="url(#mask0_1121_33)">
<path d="M12 11.3843C11.175 11.3843 10.4688 11.0905 9.88125 10.503C9.29375 9.91553 9 9.20928 9 8.38428C9 7.55928 9.29375 6.85303 9.88125 6.26553C10.4688 5.67803 11.175 5.38428 12 5.38428C12.825 5.38428 13.5313 5.67803 14.1188 6.26553C14.7063 6.85303 15 7.55928 15 8.38428C15 9.20928 14.7063 9.91553 14.1188 10.503C13.5313 11.0905 12.825 11.3843 12 11.3843ZM5 18.6153V16.969C5 16.5562 5.12017 16.1699 5.3605 15.8103C5.601 15.4508 5.92442 15.1716 6.33075 14.9728C7.27442 14.5203 8.21867 14.1809 9.1635 13.9545C10.1083 13.7284 11.0538 13.6153 12 13.6153C12.9462 13.6153 13.8917 13.7284 14.8365 13.9545C15.7813 14.1809 16.7256 14.5203 17.6693 14.9728C18.0756 15.1716 18.399 15.4508 18.6395 15.8103C18.8798 16.1699 19 16.5562 19 16.969V18.6153H5ZM6 17.6153H18V16.969C18 16.7472 17.9285 16.5389 17.7855 16.344C17.6427 16.1492 17.4449 15.9844 17.1923 15.8498C16.3693 15.4511 15.5207 15.1457 14.6465 14.9335C13.7723 14.7214 12.8902 14.6153 12 14.6153C11.1098 14.6153 10.2277 14.7214 9.3535 14.9335C8.47933 15.1457 7.63075 15.4511 6.80775 15.8498C6.55508 15.9844 6.35733 16.1492 6.2145 16.344C6.0715 16.5389 6 16.7472 6 16.969V17.6153ZM12 10.3843C12.55 10.3843 13.0208 10.1884 13.4125 9.79678C13.8042 9.40511 14 8.93428 14 8.38428C14 7.83428 13.8042 7.36344 13.4125 6.97178C13.0208 6.58011 12.55 6.38428 12 6.38428C11.45 6.38428 10.9792 6.58011 10.5875 6.97178C10.1958 7.36344 10 7.83428 10 8.38428C10 8.93428 10.1958 9.40511 10.5875 9.79678C10.9792 10.1884 11.45 10.3843 12 10.3843Z" fill="#FFFFFF"/>
</g>
</svg>

