<svg width="24" height="24" viewBox="0 0 24 24" fill="none" xmlns="http://www.w3.org/2000/svg">
<mask id="mask0_1121_592" style="mask-type:alpha" maskUnits="userSpaceOnUse" x="0" y="0" width="24" height="24">
<rect width="24" height="24" fill="#D9D9D9"/>
</mask>
<g mask="url(#mask0_1121_592)">
<path d="M4 18V10.3078V10.7865V6V18ZM4 8.80775H20V6.6155C20 6.4615 19.9359 6.32042 19.8078 6.19225C19.6796 6.06408 19.5385 6 19.3845 6H4.6155C4.4615 6 4.32042 6.06408 4.19225 6.19225C4.06408 6.32042 4 6.4615 4 6.6155V8.80775ZM11.2673 19H4.6155C4.15517 19 3.77083 18.8458 3.4625 18.5375C3.15417 18.2292 3 17.8448 3 17.3845V6.6155C3 6.15517 3.15417 5.77083 3.4625 5.4625C3.77083 5.15417 4.15517 5 4.6155 5H19.3845C19.8448 5 20.2292 5.15417 20.5375 5.4625C20.8458 5.77083 21 6.15517 21 6.6155V11.2865C20.4937 10.9725 19.9491 10.7308 19.3663 10.5615C18.7836 10.3923 18.173 10.3078 17.5345 10.3078C16.9563 10.3078 16.4003 10.3843 15.8663 10.5375C15.3324 10.6907 14.8385 10.9089 14.3845 11.1923H4V17.3845C4 17.5385 4.06408 17.6796 4.19225 17.8077C4.32042 17.9359 4.4615 18 4.6155 18H11.0135C11.0507 18.1833 11.0872 18.3552 11.123 18.5155C11.159 18.6757 11.2071 18.8372 11.2673 19ZM17.0345 20.8077L16.927 19.923C16.6115 19.8525 16.315 19.7458 16.0375 19.603C15.76 19.46 15.5103 19.2642 15.2885 19.0155L14.4538 19.35L13.9155 18.5345L14.6038 17.9578C14.4936 17.6129 14.4385 17.268 14.4385 16.923C14.4385 16.5782 14.4936 16.2333 14.6038 15.8885L13.9155 15.3115L14.4538 14.4963L15.2885 14.8308C15.4975 14.5821 15.744 14.3863 16.028 14.2433C16.3118 14.1003 16.6115 13.9935 16.927 13.923L17.0345 13.0385H18.0345L18.1423 13.923C18.4578 13.9935 18.7574 14.1003 19.0413 14.2433C19.3253 14.3863 19.5718 14.5821 19.7808 14.8308L20.6155 14.4963L21.1538 15.3115L20.4655 15.8885C20.5757 16.2333 20.6308 16.5782 20.6308 16.923C20.6308 17.268 20.5757 17.6129 20.4655 17.9578L21.1538 18.5345L20.6155 19.35L19.7808 19.0155C19.5589 19.2642 19.3093 19.46 19.0318 19.603C18.7543 19.7458 18.4578 19.8525 18.1423 19.923L18.0345 20.8077H17.0345ZM17.5345 19.077C18.1358 19.077 18.6452 18.8683 19.0625 18.451C19.4798 18.0337 19.6885 17.5243 19.6885 16.923C19.6885 16.3218 19.4798 15.8126 19.0625 15.3953C18.6452 14.9779 18.1358 14.7692 17.5345 14.7692C16.9333 14.7692 16.4241 14.9779 16.0068 15.3953C15.5894 15.8126 15.3807 16.3218 15.3807 16.923C15.3807 17.5243 15.5894 18.0337 16.0068 18.451C16.4241 18.8683 16.9333 19.077 17.5345 19.077Z" fill="#FFFFFF"/>
</g>
</svg>

