<svg width="164" height="152" viewBox="0 0 164 152" fill="none" xmlns="http://www.w3.org/2000/svg">
<path opacity="0.8" d="M162.829 42.2636L145.643 15.8763C145.419 15.5275 145.124 15.2252 144.783 14.9926C144.442 14.7601 144.054 14.5973 143.651 14.512L106.783 6.95398C105.156 6.62066 103.458 6.95398 102.078 7.89971C100.69 8.83768 99.7293 10.3028 99.4037 11.9694L85.838 81.046C85.5124 82.7127 85.838 84.4413 86.7682 85.8522C87.6907 87.263 89.1248 88.2475 90.7526 88.5808L146.046 99.9217C147.674 100.255 149.372 99.9217 150.752 98.976C152.132 98.0381 153.093 96.573 153.426 94.9063L163.294 44.6667C163.372 44.2558 163.38 43.8295 163.294 43.4186C163.217 43.0078 163.054 42.6124 162.829 42.2636ZM144.612 25.8607L153.418 39.3799L142.403 37.1164L144.612 25.853V25.8607ZM147.287 93.6505L91.9852 82.3096L105.551 13.233L139.341 20.1631L135.644 39.0001C135.481 39.8295 135.644 40.6977 136.109 41.4031C136.566 42.1086 137.287 42.6047 138.101 42.7675L156.535 46.5504L147.287 93.6505ZM141.163 59.7285C141 60.5579 140.519 61.2943 139.83 61.7672C139.14 62.2401 138.295 62.4106 137.481 62.2401L112.9 57.2014C112.086 57.0308 111.365 56.5425 110.907 55.8371C110.45 55.1316 110.28 54.2634 110.442 53.434C110.605 52.6045 111.086 51.8681 111.776 51.3953C112.466 50.9224 113.31 50.7519 114.124 50.9224L138.698 55.9611C139.512 56.1316 140.233 56.62 140.69 57.3254C141.147 58.0308 141.318 58.899 141.155 59.7285H141.163ZM138.698 72.2865C138.535 73.1159 138.054 73.8523 137.364 74.3252C136.675 74.798 135.822 74.9686 135.008 74.798L110.435 69.7594C109.621 69.5888 108.9 69.1004 108.442 68.395C107.985 67.6896 107.814 66.8214 107.977 65.992C108.14 65.1625 108.621 64.4261 109.311 63.9532C110 63.4804 110.845 63.3098 111.667 63.4804L136.248 68.5191C137.062 68.6896 137.775 69.178 138.24 69.8834C138.698 70.5888 138.868 71.457 138.705 72.2865H138.698Z" fill="url(#paint0_linear_139_4265)"/>
<path d="M105.093 73.6812C104.256 72.9835 103.264 72.4952 102.202 72.2704C101.14 72.0378 100.047 72.0688 99.0004 72.3634L92.4114 74.1773L90.6362 67.441C90.1633 65.6503 89.0238 64.1309 87.4502 63.2085C85.8843 62.286 84.0161 62.0379 82.272 62.5185L53.7065 70.3789L39.9779 64.7666C38.6059 64.2084 37.0943 64.1154 35.6679 64.5108L13.6915 70.5417C11.9396 71.0223 10.4512 72.1928 9.552 73.7975C8.63728 75.4021 8.40473 77.3013 8.86984 79.092L24.8386 139.727C25.0712 140.618 25.6448 141.386 26.4277 141.843C27.2107 142.308 28.1409 142.432 29.0169 142.192L102.807 121.89C103.496 121.696 104.117 121.293 104.566 120.727C105.016 120.161 105.287 119.464 105.326 118.727L107.589 79.5106C107.651 78.4098 107.458 77.3013 107.024 76.2936C106.589 75.2781 105.931 74.3866 105.093 73.6889V73.6812Z" fill="white"/>
<path d="M105.086 73.6812C104.249 72.9835 103.256 72.4952 102.194 72.2704C101.132 72.0378 100.039 72.0688 98.9928 72.3634L92.4038 74.1773L90.6286 67.441C90.1557 65.6503 89.0162 64.1309 87.4426 63.2085C85.8767 62.286 84.0085 62.0379 82.2644 62.5185L53.6988 70.3789L39.9703 64.7666C38.5983 64.2084 37.0867 64.1154 35.6603 64.5108L13.6839 70.5572C11.932 71.0378 10.4436 72.2083 9.5444 73.813C8.63743 75.4176 8.39712 77.3245 8.86999 79.1075L24.8388 139.742C25.0713 140.634 25.645 141.393 26.4279 141.859C27.2108 142.324 28.141 142.448 29.017 142.207L102.807 121.905C103.497 121.712 104.117 121.308 104.566 120.743C105.016 120.177 105.287 119.479 105.326 118.743L107.59 79.5261C107.652 78.4253 107.458 77.3168 107.024 76.3091C106.59 75.2936 105.931 74.4021 105.094 73.7044L105.086 73.6812ZM37.4277 71.2316L52.2105 77.278C52.8927 77.5571 53.6523 77.6036 54.3655 77.4098L84.0318 69.2471L85.8069 75.9835L32.1565 90.743C30.7767 91.1228 29.5441 91.9368 28.6372 93.0763C27.7302 94.208 27.2031 95.6111 27.1178 97.0685L25.9628 117.146L15.459 77.2703L37.4355 71.2239L37.4277 71.2316ZM98.6595 115.805L31.8154 134.192L33.9317 97.4793L100.768 79.092L98.6595 115.805Z" fill="url(#paint1_linear_139_4265)"/>
<path d="M19.9319 15.0926C20.2187 14.4647 21.7613 11.2632 25.49 9.90662C28.5364 8.79811 31.1953 9.5888 32.0868 9.90662C34.9549 10.9221 36.4588 12.9608 37.1797 13.9608C39.0402 16.5577 39.327 19.1701 39.4433 20.3716C39.5828 21.8445 39.9084 24.9219 38.1254 27.9141C37.5596 28.8599 35.8309 31.759 33.1333 31.7746C31.9782 31.7746 30.4279 31.2629 29.7612 29.9839C28.7845 28.1157 30.3814 25.9374 30.6837 25.5576C32.3271 23.4336 35.048 23.2475 35.6759 23.201C38.482 23.0072 40.7766 24.356 43.3114 25.8366C45.3889 27.0537 45.3036 27.4025 46.7997 28.0072C47.9315 28.4645 50.2648 29.4025 53.0167 28.573C53.4353 28.449 56.195 27.5653 57.7298 24.8057C58.1949 23.9607 59.0476 22.4258 58.5748 20.5654C58.5128 20.3096 57.9314 18.1623 55.9392 17.3639C53.7609 16.4957 51.6679 17.9375 51.133 18.3096C48.854 19.8832 48.2881 22.4724 48.0245 23.6816C47.0866 27.9684 48.8617 31.6118 49.9082 33.7668C50.8307 35.666 51.8617 37.5109 53.8694 39.2318C56.2415 41.2628 57.6136 41.2783 60.598 43.2008C61.2414 43.6116 62.2879 44.3015 62.9158 45.0767C65.4274 48.1852 63.4352 53.751 62.536 55.9138" stroke="url(#paint2_linear_139_4265)" stroke-width="5" stroke-linecap="round" stroke-linejoin="round"/>
<path d="M13.8235 47.8125C15.4932 47.8125 16.8467 46.459 16.8467 44.7893C16.8467 43.1197 15.4932 41.7661 13.8235 41.7661C12.1538 41.7661 10.8003 43.1197 10.8003 44.7893C10.8003 46.459 12.1538 47.8125 13.8235 47.8125Z" fill="url(#paint3_linear_139_4265)"/>
<path d="M38.7701 48.3002L35.1581 45.6702C34.2836 45.0333 33.0583 45.2261 32.4215 46.1007L29.7914 49.7127C29.1546 50.5873 29.3473 51.8125 30.2219 52.4493L33.8339 55.0794C34.7085 55.7162 35.9338 55.5235 36.5706 54.6489L39.2006 51.0369C39.8375 50.1623 39.6447 48.937 38.7701 48.3002Z" fill="url(#paint4_linear_139_4265)"/>
<path d="M126.055 114.796C127.225 114.796 129.613 114.959 132.078 116.424C132.814 116.866 134.171 117.687 135.271 119.261C136.38 120.842 136.093 121.54 137.488 124.935C138.271 126.834 138.659 127.78 139.349 128.571C141.085 130.563 143.775 130.958 144.853 131.145C146.744 131.47 146.984 131.059 148.76 131.501C150.791 132.013 152.17 132.982 152.574 133.276C155.015 135.067 156.015 137.493 156.387 138.602" stroke="url(#paint5_linear_139_4265)" stroke-width="5" stroke-linecap="round" stroke-linejoin="round"/>
<path d="M79.9233 32.7283C80.8225 31.9609 82.8303 30.0462 83.7682 26.8679C84.0628 25.8679 84.6829 23.6896 84.0395 21.1625C83.2799 18.1703 81.6287 18.1781 80.9311 15.3642C80.3497 13.0076 81.0008 10.9456 81.652 8.86814C82.4582 6.31003 83.6985 4.35657 84.7605 3" stroke="url(#paint6_linear_139_4265)" stroke-width="5" stroke-linecap="round" stroke-linejoin="round"/>
<path d="M85.3883 138.347C85.2255 139.378 84.8224 141.052 83.7371 142.843C83.4503 143.308 82.4193 144.951 80.4426 146.44C78.1403 148.176 75.7993 148.765 74.4505 148.99" stroke="url(#paint7_linear_139_4265)" stroke-width="5" stroke-linecap="round" stroke-linejoin="round"/>
<path d="M2.64464 22.5823C3.64742 22.2927 5.3348 21.948 7.41668 22.1718C7.95951 22.2344 9.88499 22.4716 12.0709 23.631C14.6196 24.9801 16.1456 26.8506 16.921 27.977" stroke="url(#paint8_linear_139_4265)" stroke-width="5" stroke-linecap="round" stroke-linejoin="round"/>
<path d="M153.418 126.696C155.088 126.696 156.442 125.342 156.442 123.673C156.442 122.003 155.088 120.649 153.418 120.649C151.749 120.649 150.395 122.003 150.395 123.673C150.395 125.342 151.749 126.696 153.418 126.696Z" fill="url(#paint9_linear_139_4265)"/>
<path d="M125.768 130.669L121.13 127.293C120.514 126.844 119.651 126.98 119.203 127.596L115.826 132.233C115.378 132.849 115.513 133.712 116.129 134.161L120.767 137.537C121.383 137.986 122.246 137.85 122.694 137.234L126.071 132.597C126.519 131.981 126.384 131.118 125.768 130.669Z" fill="url(#paint10_linear_139_4265)"/>
<defs>
<linearGradient id="paint0_linear_139_4265" x1="134.775" y1="12.6903" x2="118.055" y2="94.1854" gradientUnits="userSpaceOnUse">
<stop stop-color="#0AE2FF"/>
<stop offset="1" stop-color="#0687E5"/>
</linearGradient>
<linearGradient id="paint1_linear_139_4265" x1="52.6989" y1="59.8054" x2="72.1017" y2="130.332" gradientUnits="userSpaceOnUse">
<stop stop-color="#0AE2FF"/>
<stop offset="1" stop-color="#0687E5"/>
</linearGradient>
<linearGradient id="paint2_linear_139_4265" x1="36.9937" y1="51.2859" x2="47.854" y2="11.8058" gradientUnits="userSpaceOnUse">
<stop stop-color="#0AE2FF"/>
<stop offset="1" stop-color="#0687E5"/>
</linearGradient>
<linearGradient id="paint3_linear_139_4265" x1="13.0173" y1="47.704" x2="14.6219" y2="41.8746" gradientUnits="userSpaceOnUse">
<stop stop-color="#0AE2FF"/>
<stop offset="1" stop-color="#0687E5"/>
</linearGradient>
<linearGradient id="paint4_linear_139_4265" x1="30.8153" y1="53.317" x2="38.1792" y2="47.4479" gradientUnits="userSpaceOnUse">
<stop stop-color="#0AE2FF"/>
<stop offset="1" stop-color="#0687E5"/>
</linearGradient>
<linearGradient id="paint5_linear_139_4265" x1="138.628" y1="136.129" x2="143.93" y2="116.85" gradientUnits="userSpaceOnUse">
<stop stop-color="#0AE2FF"/>
<stop offset="1" stop-color="#0687E5"/>
</linearGradient>
<linearGradient id="paint6_linear_139_4265" x1="87.2341" y1="32.769" x2="77.442" y2="2.94805" gradientUnits="userSpaceOnUse">
<stop stop-color="#0AE2FF"/>
<stop offset="1" stop-color="#0687E5"/>
</linearGradient>
<linearGradient id="paint7_linear_139_4265" x1="77.5977" y1="152.261" x2="82.3186" y2="135.091" gradientUnits="userSpaceOnUse">
<stop stop-color="#0AE2FF"/>
<stop offset="1" stop-color="#0687E5"/>
</linearGradient>
<linearGradient id="paint8_linear_139_4265" x1="18.5496" y1="23.7398" x2="0.997161" y2="26.7427" gradientUnits="userSpaceOnUse">
<stop stop-color="#0AE2FF"/>
<stop offset="1" stop-color="#0687E5"/>
</linearGradient>
<linearGradient id="paint9_linear_139_4265" x1="152.62" y1="126.587" x2="154.225" y2="120.758" gradientUnits="userSpaceOnUse">
<stop stop-color="#0AE2FF"/>
<stop offset="1" stop-color="#0687E5"/>
</linearGradient>
<linearGradient id="paint10_linear_139_4265" x1="117.119" y1="135.476" x2="124.785" y2="129.359" gradientUnits="userSpaceOnUse">
<stop stop-color="#0AE2FF"/>
<stop offset="1" stop-color="#0687E5"/>
</linearGradient>
</defs>
</svg>
