<svg width="101" height="100" viewBox="0 0 101 100" fill="none" xmlns="http://www.w3.org/2000/svg">
<rect x="0.5" width="100" height="100" rx="10" fill="url(#paint0_linear_1983_32944)"/>
<path d="M88.6019 50.4462C88.598 47.1177 87.688 43.853 85.9695 41.0024C85.2691 39.8407 84.4452 38.7656 83.5157 37.7941C81.0076 35.1726 79.0344 31.899 77.6485 28.5461C77.1739 27.398 76.5634 26.3034 75.8254 25.2871C73.9265 22.6722 71.2737 20.7003 68.2227 19.6354C65.1716 18.5705 61.8679 18.4636 58.7544 19.3289C53.9376 20.6677 47.6666 20.6677 42.8498 19.3289C39.7363 18.4636 36.4326 18.5705 33.3815 19.6354C30.3305 20.7003 27.6777 22.6722 25.7788 25.2871C25.0428 26.3006 24.4337 27.3918 23.9597 28.5365C22.5695 31.8936 20.5898 35.1712 18.0773 37.796C17.1495 38.7653 16.3272 39.8379 15.6281 40.997C13.9087 43.8479 13 47.1139 13 50.4432C13 53.7724 13.9087 57.0385 15.6281 59.8893C16.3267 61.0477 17.1485 62.1197 18.0755 63.0885C20.5886 65.7147 22.5685 68.994 23.9585 72.3526C24.4322 73.497 25.0408 74.5882 25.7763 75.6016C27.6748 78.2173 30.3274 80.1902 33.3788 81.2559C36.4301 82.3215 39.7343 82.429 42.8484 81.5638C47.6661 80.2253 53.9381 80.2253 58.7558 81.5638C61.8699 82.429 65.1741 82.3215 68.2254 81.2559C71.2768 80.1902 73.9294 78.2173 75.8279 75.6016C76.5642 74.587 77.1735 73.4945 77.6473 72.3486C79.0355 68.9918 81.0128 65.7141 83.5239 63.0892C84.4511 62.12 85.273 61.0476 85.9718 59.8889C87.6906 57.0389 88.5999 53.7743 88.6019 50.4462ZM38.6086 74.8332C36.7669 74.8329 34.9746 74.237 33.4995 73.1343C32.2572 72.2058 31.2959 70.9598 30.7119 69.5347C30.5473 69.1331 30.8586 68.7364 31.2925 68.7364H33.7312C34.7014 68.7364 35.6318 68.351 36.3179 67.665C37.0039 66.979 37.3893 66.0486 37.3893 65.0784C37.3893 64.1082 37.0039 63.1778 36.3179 62.4918C35.6318 61.8057 34.7014 61.4203 33.7312 61.4203H31.2925C28.7024 61.4222 26.1952 60.5078 24.2143 58.839C22.2334 57.1702 20.9067 54.8545 20.4687 52.3017C20.0308 49.7489 20.5099 47.1235 21.8213 44.8899C23.1327 42.6563 25.1919 40.9586 27.6345 40.097C28.348 39.8447 28.9657 39.3774 29.4025 38.7593C29.8392 38.1413 30.0736 37.403 30.0732 36.6462V34.5947C30.0732 32.331 30.9725 30.1599 32.5732 28.5592C34.1739 26.9585 36.3449 26.0593 38.6086 26.0593C40.8724 26.0593 43.0434 26.9585 44.6441 28.5592C46.2448 30.1599 47.1441 32.331 47.1441 34.5947V50.4483C47.1441 51.5252 45.9361 52.1973 44.9492 51.7662C44.0599 51.3781 43.0528 51.3592 42.1496 51.7136C41.2463 52.0681 40.5209 52.7668 40.1328 53.6561C39.7447 54.5455 39.7258 55.5525 40.0803 56.4558C40.4347 57.359 41.1335 58.0845 42.0228 58.4726C43.8214 59.2561 45.2952 60.6353 46.1962 62.3781C47.0971 64.1209 47.3701 66.1209 46.9694 68.0414C46.5686 69.9619 45.5184 71.6857 43.9957 72.9227C42.4729 74.1597 40.5705 74.8344 38.6086 74.8332ZM70.3193 61.428C70.3144 61.4231 70.3078 61.4203 70.3009 61.4203H67.873C66.9028 61.4203 65.9724 61.8057 65.2864 62.4918C64.6003 63.1778 64.2149 64.1082 64.2149 65.0784C64.2149 66.0486 64.6003 66.979 65.2864 67.665C65.9724 68.351 66.9028 68.7364 67.873 68.7364H70.3117C70.732 68.7364 71.0518 69.146 70.8925 69.5349C70.4606 70.5893 69.8208 71.5494 69.0081 72.3564C67.9892 73.3681 66.7316 74.1065 65.3516 74.5031C63.9716 74.8997 62.5139 74.9418 61.1133 74.6254C59.7127 74.3091 58.4146 73.6445 57.3391 72.6932C56.2635 71.7419 55.4454 70.5347 54.9603 69.1833C54.4752 67.8318 54.3389 66.3798 54.564 64.9617C54.7891 63.5436 55.3683 62.2052 56.248 61.0704C57.1277 59.9356 58.2794 59.041 59.5967 58.4695C60.486 58.0815 61.1847 57.356 61.5392 56.4527C61.8936 55.5495 61.8747 54.5424 61.4866 53.6531C61.0986 52.7638 60.3731 52.065 59.4699 51.7106C58.5666 51.3562 57.5595 51.375 56.6702 51.7631C55.6833 52.1942 54.4754 51.5221 54.4754 50.4452V34.5947C54.4754 32.331 55.3747 30.1599 56.9754 28.5592C58.5761 26.9585 60.7471 26.0593 63.0108 26.0593C65.2746 26.0593 67.4456 26.9585 69.0463 28.5592C70.647 30.1599 71.5463 32.331 71.5463 34.5947V36.6462C71.5459 37.403 71.7802 38.1413 72.217 38.7593C72.6537 39.3774 73.2714 39.8447 73.985 40.097C76.4385 40.9508 78.5097 42.6473 79.8299 44.8847C81.1501 47.1221 81.6337 49.7553 81.1948 52.3158C80.7558 54.8763 79.4228 57.1981 77.4327 58.868C75.4454 60.5357 72.9317 61.4453 70.3377 61.4356C70.3308 61.4356 70.3242 61.4329 70.3193 61.428ZM75.1891 48.0075C75.1891 48.9777 74.8037 49.9081 74.1176 50.5941C73.4316 51.2802 72.5012 51.6656 71.531 51.6656C68.2971 51.6656 65.1956 50.3809 62.9089 48.0942C60.6222 45.8075 59.3375 42.706 59.3375 39.4721V38.2527C59.3375 37.2826 59.7229 36.3521 60.409 35.6661C61.095 34.9801 62.0254 34.5947 62.9956 34.5947C63.9658 34.5947 64.8962 34.9801 65.5822 35.6661C66.2682 36.3521 66.6536 37.2826 66.6536 38.2527V39.4721C66.6536 40.7656 67.1675 42.0062 68.0822 42.9209C68.9969 43.8356 70.2375 44.3495 71.531 44.3495C72.5012 44.3495 73.4316 44.7349 74.1176 45.4209C74.8037 46.1069 75.1891 47.0373 75.1891 48.0075ZM42.2667 39.4721C42.2667 42.706 40.982 45.8075 38.6953 48.0942C36.4086 50.3809 33.3071 51.6656 30.0732 51.6656C29.103 51.6656 28.1726 51.2802 27.4866 50.5941C26.8005 49.9081 26.4151 48.9777 26.4151 48.0075C26.4151 47.0373 26.8005 46.1069 27.4866 45.4209C28.1726 44.7349 29.103 44.3495 30.0732 44.3495C31.3668 44.3495 32.6073 43.8356 33.522 42.9209C34.4367 42.0062 34.9506 40.7656 34.9506 39.4721V38.2527C34.9506 37.2826 35.336 36.3521 36.022 35.6661C36.708 34.9801 37.6384 34.5947 38.6086 34.5947C39.5788 34.5947 40.5092 34.9801 41.1953 35.6661C41.8813 36.3521 42.2667 37.2826 42.2667 38.2527V39.4721Z" fill="white"/>
<defs>
<linearGradient id="paint0_linear_1983_32944" x1="50.5" y1="0" x2="50.5" y2="100" gradientUnits="userSpaceOnUse">
<stop stop-color="#0AE2FF"/>
<stop offset="1" stop-color="#0687E5"/>
</linearGradient>
</defs>
</svg>
