<svg width="16" height="16" viewBox="0 0 16 16" fill="none" xmlns="http://www.w3.org/2000/svg">
<rect width="16" height="16" rx="3" fill="black" fill-opacity="0.25"/>
<path d="M3.00195 8.49805C3.00195 8.36133 3.05078 8.24414 3.14844 8.14648C3.24609 8.04883 3.36328 8 3.5 8C3.63672 8 3.75391 8.04883 3.85156 8.14648L6.5 10.7949L12.1484 5.14648C12.2461 5.04883 12.3633 5 12.5 5C12.5703 5 12.6348 5.01367 12.6934 5.04102C12.7559 5.06445 12.8086 5.09961 12.8516 5.14648C12.8984 5.18945 12.9355 5.24219 12.9629 5.30469C12.9902 5.36328 13.0039 5.42773 13.0039 5.49805C13.0039 5.63477 12.9531 5.75391 12.8516 5.85547L6.85156 11.8555C6.75391 11.9531 6.63672 12.002 6.5 12.002C6.36328 12.002 6.24609 11.9531 6.14844 11.8555L3.14844 8.85547C3.05078 8.75781 3.00195 8.63867 3.00195 8.49805Z" fill="white"/>
</svg>
