<svg width="12" height="12" viewBox="0 0 12 12" fill="none" xmlns="http://www.w3.org/2000/svg">
<path opacity="0.12" fill-rule="evenodd" clip-rule="evenodd" d="M1 2H10V3H1V2Z" fill="white"/>
<path opacity="0.6" fill-rule="evenodd" clip-rule="evenodd" d="M1 1H10C10.2652 1 10.5196 1.10536 10.7071 1.29289C10.8946 1.48043 11 1.73478 11 2V7.70802C10.6938 7.57422 10.3556 7.5 10 7.5V4H1V10H4.5C4.5 10.3556 4.57422 10.6938 4.70802 11H0V2C0 1.73478 0.105357 1.48043 0.292893 1.29289C0.48043 1.10536 0.734784 1 1 1ZM1 3H10V2H1V3Z" fill="white"/>
<path opacity="0.6" fill-rule="evenodd" clip-rule="evenodd" d="M9 6H2V9H4.70802C5.0938 8.11705 5.97484 7.5 7 7.5H9V6Z" fill="#4072E5"/>
<g opacity="0.6">
<path d="M8 9H7C6.44772 9 6 9.44772 6 10C6 10.4429 6.28791 10.8185 6.68677 10.95C6.85917 11.3693 7.14228 11.7314 7.49972 12H7C5.89543 12 5 11.1046 5 10C5 8.89543 5.89543 8 7 8H8C9.10457 8 10 8.89543 10 10C10 10.1726 9.97812 10.3402 9.93699 10.5H8.99997C8.95686 10.5 8.91502 10.4945 8.87512 10.4843C8.95469 10.3408 9 10.1757 9 10C9 9.44772 8.55228 9 8 9Z" fill="white"/>
<path d="M7 10C7 9.82735 7.02188 9.65981 7.06301 9.5H8C8.04312 9.5 8.08496 9.50546 8.12488 9.51572C8.04531 9.6592 8 9.82431 8 10C8 10.5523 8.44772 11 9 11H10C10.5523 11 11 10.5523 11 10C11 9.5571 10.7121 9.18145 10.3132 9.05002C10.1408 8.63068 9.85768 8.26855 9.50024 8H10C11.1046 8 12 8.89543 12 10C12 11.1046 11.1046 12 10 12H9C7.89543 12 7 11.1046 7 10Z" fill="white"/>
</g>
</svg>
