<svg width="12" height="12" viewBox="0 0 12 12" fill="none" xmlns="http://www.w3.org/2000/svg">
<path opacity="0.12" fill-rule="evenodd" clip-rule="evenodd" d="M1 4H11V11H1V4ZM4 10.25L8.76314 7.5L4 4.75L4 10.25Z" fill="white"/>
<path opacity="0.6" fill-rule="evenodd" clip-rule="evenodd" d="M11 2V3H9.20711L10.2071 2H11ZM8.79289 2L7.79289 3H6.20711L7.20711 2H8.79289ZM3.20711 3H4.79289L5.79289 2H4.20711L3.20711 3ZM2.79289 2L1.79289 3H1V2H2.79289ZM1 4H11V11H1V4ZM12 1H0V12H12V1Z" fill="white"/>
<path opacity="0.24" d="M5 6.48193L6.76314 7.49988L5 8.51783V6.48193Z" fill="white"/>
<path opacity="0.6" fill-rule="evenodd" clip-rule="evenodd" d="M8.76314 7.5L4 4.75V10.25L8.76314 7.5ZM6.76314 7.5L5 6.48205V8.51795L6.76314 7.5Z" fill="white"/>
</svg>
