<svg width="12" height="12" viewBox="0 0 12 12" fill="none" xmlns="http://www.w3.org/2000/svg">
<path opacity="0.12" fill-rule="evenodd" clip-rule="evenodd" d="M1 2H10V3H1V2Z" fill="white"/>
<path opacity="0.6" d="M11 7V11H5V7H11ZM11 6H5C4.73478 6 4.48043 6.10536 4.29289 6.29289C4.10536 6.48043 4 6.73478 4 7V11C4 11.2652 4.10536 11.5196 4.29289 11.7071C4.48043 11.8946 4.73478 12 5 12H11C11.2652 12 11.5196 11.8946 11.7071 11.7071C11.8946 11.5196 12 11.2652 12 11V7C12 6.73478 11.8946 6.48043 11.7071 6.29289C11.5196 6.10536 11.2652 6 11 6Z" fill="white"/>
<path opacity="0.12" d="M8.27779 8.58427C8.19556 8.52932 8.09889 8.5 8 8.5C7.86739 8.5 7.74021 8.55268 7.64645 8.64645C7.55268 8.74021 7.5 8.86739 7.5 9C7.5 9.09889 7.52932 9.19556 7.58427 9.27779C7.63921 9.36001 7.7173 9.4241 7.80866 9.46194C7.90002 9.49978 8.00055 9.50969 8.09755 9.49039C8.19454 9.4711 8.28363 9.42348 8.35355 9.35355C8.42348 9.28363 8.4711 9.19454 8.49039 9.09755C8.50969 9.00055 8.49978 8.90002 8.46194 8.80866C8.4241 8.7173 8.36001 8.63921 8.27779 8.58427Z" fill="white"/>
<path opacity="0.6" fill-rule="evenodd" clip-rule="evenodd" d="M1 1H10C10.2652 1 10.5196 1.10536 10.7071 1.29289C10.8946 1.48043 11 1.73478 11 2V6H10V4H1V10H4V11H0V2C0 1.73478 0.105357 1.48043 0.292893 1.29289C0.48043 1.10536 0.734784 1 1 1ZM1 3H10V2H1V3Z" fill="white"/>
<path opacity="0.24" fill-rule="evenodd" clip-rule="evenodd" d="M11 11H5V7H11V11ZM8 10.5C8.82843 10.5 9.5 9.82843 9.5 9C9.5 8.17157 8.82843 7.5 8 7.5C7.17157 7.5 6.5 8.17157 6.5 9C6.5 9.82843 7.17157 10.5 8 10.5Z" fill="white"/>
<path opacity="0.6" fill-rule="evenodd" clip-rule="evenodd" d="M8 9.5C8.27614 9.5 8.5 9.27614 8.5 9C8.5 8.72386 8.27614 8.5 8 8.5C7.72386 8.5 7.5 8.72386 7.5 9C7.5 9.27614 7.72386 9.5 8 9.5ZM8 10.5C8.82843 10.5 9.5 9.82843 9.5 9C9.5 8.17157 8.82843 7.5 8 7.5C7.17157 7.5 6.5 8.17157 6.5 9C6.5 9.82843 7.17157 10.5 8 10.5Z" fill="white"/>
<path opacity="0.6" d="M2 6H5C4.44772 6 4 6.44772 4 7V9H2V6Z" fill="#4072E5"/>
</svg>
