<svg width="12" height="12" viewBox="0 0 12 12" fill="none" xmlns="http://www.w3.org/2000/svg">
<path opacity="0.6" d="M11 2V10H1V2H11ZM12 1H0V11H12V1Z" fill="white"/>
<path opacity="0.8" d="M8 5C8.55228 5 9 4.55228 9 4C9 3.44772 8.55228 3 8 3C7.44772 3 7 3.44772 7 4C7 4.55228 7.44772 5 8 5Z" fill="#FF794C"/>
<path opacity="0.85" d="M11 8.29289L8.50008 5.79297L7.00008 7.29297L4.50008 4.79297L1 8.29304V9.70726L4.50008 6.20718L6.29297 8.00008L4.29304 10H5.70726L8.50008 7.20718L11 9.70711V8.29289Z" fill="#39BF68"/>
<g opacity="0.34">
<path d="M1 9.70735V10.0001H4.29304L6.29297 8.00017L4.50008 6.20728L1 9.70735Z" fill="#39BF68"/>
<path d="M5.70726 10.0001H11V9.7072L8.50008 7.20728L5.70726 10.0001Z" fill="#39BF68"/>
</g>
</svg>
