<svg width="12" height="12" viewBox="0 0 12 12" fill="none" xmlns="http://www.w3.org/2000/svg">
<path opacity="0.34" d="M7 3H0V5H7V3Z" fill="#39BF68"/>
<path opacity="0.85" d="M6 3V4H1V3H6ZM7 2H0V5H7V2Z" fill="#39BF68"/>
<path opacity="0.24" fill-rule="evenodd" clip-rule="evenodd" d="M10 7.5V2L11 3V7.70802C10.6938 7.57422 10.3556 7.5 10 7.5ZM4.5 10H3L4 11H4.70802C4.57422 10.6938 4.5 10.3556 4.5 10Z" fill="white"/>
<path opacity="0.6" fill-rule="evenodd" clip-rule="evenodd" d="M11 2H10V1C10 0.734784 9.89464 0.48043 9.70711 0.292893C9.51957 0.105357 9.26522 0 9 0H2C1.73478 0 1.48043 0.105357 1.29289 0.292893C1.10536 0.48043 1 0.734784 1 1V2H2V1H3V2H4V1H9V7.5H10V2L11 3V7.70802C11.3981 7.88197 11.7422 8.15661 12 8.49976V3C12 2.73478 11.8946 2.48043 11.7071 2.29289C11.5196 2.10536 11.2652 2 11 2ZM5.49976 12C5.15661 11.7422 4.88197 11.3981 4.70802 11H4L3 10H4.5C4.5 9.64445 4.57422 9.30623 4.70802 9H4V5H3V9H2V5H1V9C1.00006 9.26519 1.10545 9.51951 1.293 9.707L3.293 11.707C3.48049 11.8945 3.73481 11.9999 4 12H5.49976Z" fill="white"/>
<g opacity="0.6">
<path d="M8 9H7C6.44772 9 6 9.44772 6 10C6 10.4429 6.28791 10.8185 6.68677 10.95C6.85917 11.3693 7.14228 11.7314 7.49972 12H7C5.89543 12 5 11.1046 5 10C5 8.89543 5.89543 8 7 8H8C9.10457 8 10 8.89543 10 10C10 10.1726 9.97812 10.3402 9.93699 10.5H8.99997C8.95686 10.5 8.91502 10.4945 8.87512 10.4843C8.95469 10.3408 9 10.1757 9 10C9 9.44772 8.55228 9 8 9Z" fill="white"/>
<path d="M7 10C7 9.82735 7.02188 9.65981 7.06301 9.5H8C8.04312 9.5 8.08496 9.50546 8.12488 9.51572C8.04531 9.6592 8 9.82431 8 10C8 10.5523 8.44772 11 9 11H10C10.5523 11 11 10.5523 11 10C11 9.5571 10.7121 9.18145 10.3132 9.05002C10.1408 8.63068 9.85768 8.26855 9.50024 8H10C11.1046 8 12 8.89543 12 10C12 11.1046 11.1046 12 10 12H9C7.89543 12 7 11.1046 7 10Z" fill="white"/>
</g>
</svg>
