<svg width="12" height="12" viewBox="0 0 12 12" fill="none" xmlns="http://www.w3.org/2000/svg">
<path opacity="0.34" d="M7 3H0V5H7V3Z" fill="#39BF68"/>
<path opacity="0.85" d="M6 3V4H1V3H6ZM7 2H0V5H7V2Z" fill="#39BF68"/>
<path opacity="0.6" fill-rule="evenodd" clip-rule="evenodd" d="M10 2H11C11.2652 2 11.5196 2.10536 11.7071 2.29289C11.8946 2.48043 12 2.73478 12 3V11C12 11.2652 11.8946 11.5196 11.7071 11.7071C11.5196 11.8946 11.2652 12 11 12H4C3.73481 11.9999 3.48049 11.8945 3.293 11.707L1.293 9.707C1.10545 9.51951 1.00006 9.26519 1 9V5H2V9H3V5H4V9H9V1H4V2H3V1H2V2H1V1C1 0.734784 1.10536 0.48043 1.29289 0.292893C1.48043 0.105357 1.73478 0 2 0H9C9.26522 0 9.51957 0.105357 9.70711 0.292893C9.89464 0.48043 10 0.734784 10 1V2ZM10 2V9C10 9.26522 9.89464 9.51957 9.70711 9.70711C9.51957 9.89464 9.26522 10 9 10H3L4 11H11V3L10 2Z" fill="white"/>
<path opacity="0.24" d="M10 2V9C10 9.55228 9.55228 10 9 10H3L4 11H11V3L10 2Z" fill="white"/>
</svg>
