<svg width="28" height="28" viewBox="0 0 28 28" fill="none" xmlns="http://www.w3.org/2000/svg">
<g clip-path="url(#clip0_216_4489)">
<path opacity="0.5" d="M26.25 3C26.0513 3.002 25.8544 3.03819 25.668 3.107L25 2.43915V1.75C24.9997 1.28595 24.8153 0.840987 24.4871 0.512856C24.159 0.184725 23.7141 0.000264943 23.25 0H5.75C5.28596 0.000264943 4.84099 0.184725 4.51286 0.512856C4.18473 0.840987 4.00027 1.28595 4 1.75V23.25C3.99968 23.4798 4.04484 23.7075 4.13289 23.9198C4.22093 24.1321 4.35012 24.3248 4.513 24.487L7.513 27.487C7.67512 27.6499 7.8679 27.7791 8.08021 27.8672C8.29252 27.9552 8.52016 28.0004 8.75 28H26.25C26.7141 27.9997 27.159 27.8153 27.4871 27.4871C27.8153 27.159 27.9997 26.714 28 26.25V4.75C27.9997 4.28595 27.8153 3.84099 27.4871 3.51286C27.159 3.18472 26.7141 3.00026 26.25 3Z" fill="white"/>
<path d="M24 1H8V24H24V1Z" fill="white"/>
<path d="M7 1H5V24H7V1Z" fill="white"/>
<path d="M16 26H11V27H16V26Z" fill="#39BF68"/>
<path opacity="0.2" d="M26.25 3C26.0513 3.002 25.8544 3.03819 25.668 3.107L26.78 4.22C26.8499 4.28941 26.9053 4.37199 26.9431 4.46297C26.9808 4.55394 27.0002 4.6515 27 4.75V26.25C27 26.4489 26.921 26.6397 26.7803 26.7803C26.6397 26.921 26.4489 27 26.25 27H8.439L6.439 25H23.25C23.7141 24.9997 24.159 24.8153 24.4871 24.4871C24.8153 24.159 24.9997 23.714 25 23.25V1.75C24.9997 1.28595 24.8153 0.840987 24.4871 0.512856C24.159 0.184725 23.7141 0.000264943 23.25 0L5.75 0C5.28595 0.000264943 4.84099 0.184725 4.51286 0.512856C4.18473 0.840987 4.00027 1.28595 4 1.75V23.25C3.99968 23.4798 4.04484 23.7075 4.13289 23.9198C4.22093 24.1321 4.35012 24.3248 4.513 24.487L7.513 27.487C7.67512 27.6499 7.86789 27.7791 8.0802 27.8672C8.29252 27.9552 8.52016 28.0004 8.75 28H26.25C26.7141 27.9997 27.159 27.8153 27.4871 27.4871C27.8153 27.159 27.9997 26.714 28 26.25V4.75C27.9997 4.28595 27.8153 3.84099 27.4871 3.51286C27.159 3.18472 26.7141 3.00026 26.25 3ZM8 1H23.25C23.4489 1 23.6397 1.07902 23.7803 1.21967C23.921 1.36032 24 1.55109 24 1.75V23.25C24 23.4489 23.921 23.6397 23.7803 23.7803C23.6397 23.921 23.4489 24 23.25 24H8V1ZM5 23.25V1.75C5 1.55109 5.07902 1.36032 5.21967 1.21967C5.36032 1.07902 5.55109 1 5.75 1H7V24H5.75C5.55109 24 5.36032 23.921 5.21967 23.7803C5.07902 23.6397 5 23.4489 5 23.25Z" fill="black"/>
<path d="M23.2499 25C23.714 24.9998 24.159 24.8153 24.4871 24.4872C24.8152 24.159 24.9997 23.7141 24.9999 23.25V2.43909L26.7799 4.22002C26.8498 4.28944 26.9053 4.37202 26.943 4.46299C26.9796 4.55117 26.9989 4.64553 26.9999 4.74094V26.2576C26.9979 26.4538 26.9191 26.6415 26.7803 26.7804C26.6396 26.921 26.4489 27 26.2499 27H8.43894L6.43896 25L23.2499 25Z" fill="#EBEBEB"/>
<path d="M15 6H1V11H15V6Z" fill="#B0E5C3"/>
<path d="M15 6V11H1V6H15ZM16 5H0V12H16V5Z" fill="#39BF68"/>
</g>
<defs>
<clipPath id="clip0_216_4489">
<rect width="28" height="28" fill="white"/>
</clipPath>
</defs>
</svg>
