<svg width="28" height="28" viewBox="0 0 28 28" fill="none" xmlns="http://www.w3.org/2000/svg">
<g clip-path="url(#clip0_1960_191)">
<path opacity="0.5" fill-rule="evenodd" clip-rule="evenodd" d="M23.668 3.107C23.8544 3.03819 24.0513 3.002 24.25 3C24.7141 3.00026 25.159 3.18472 25.4872 3.51286C25.8153 3.84099 25.9997 4.28595 26 4.75V19.207C25.5232 19.0722 25.02 19 24.5 19C23.1704 19 21.9509 19.4718 21 20.2572C20.0491 19.4718 18.8296 19 17.5 19C14.4624 19 12 21.4624 12 24.5C12 25.02 12.0722 25.5232 12.207 26H8.75001C8.52016 26.0004 8.29252 25.9552 8.08021 25.8672C7.8679 25.7791 7.67512 25.6499 7.513 25.487L4.513 22.487C4.35012 22.3248 4.22093 22.1321 4.13289 21.9198C4.04484 21.7075 3.99968 21.4798 4 21.25V1.75C4.00027 1.28595 4.18473 0.840987 4.51286 0.512856C4.84099 0.184725 5.28596 0.000264943 5.75 0H21.25C21.7141 0.000264943 22.159 0.184725 22.4872 0.512856C22.8153 0.840987 22.9997 1.28595 23 1.75V2.43915L23.668 3.107Z" fill="white"/>
<path d="M22 1H8V22H22V1Z" fill="white"/>
<path d="M7 1H5V22H7V1Z" fill="white"/>
<path opacity="0.2" fill-rule="evenodd" clip-rule="evenodd" d="M23.668 3.107C23.8544 3.03819 24.0513 3.002 24.25 3C24.714 3.00026 25.159 3.18472 25.4871 3.51286C25.8153 3.84099 25.9997 4.28595 26 4.75V19.207C25.6777 19.1159 25.3434 19.0534 25 19.0224V4.75C25.0002 4.6515 24.9808 4.55394 24.9431 4.46297C24.9053 4.37199 24.8499 4.28941 24.78 4.22L23.668 3.107ZM12.207 23H6.439L8.439 25H12.0224C12.0534 25.3434 12.1159 25.6777 12.207 26H8.75C8.52016 26.0004 8.29252 25.9552 8.0802 25.8672C7.86789 25.7791 7.67512 25.6499 7.513 25.487L4.513 22.487C4.35012 22.3248 4.22093 22.1321 4.13289 21.9198C4.04484 21.7075 3.99968 21.4798 4 21.25V1.75C4.00027 1.28595 4.18473 0.840987 4.51286 0.512856C4.84099 0.184725 5.28595 0.000264943 5.75 0H21.25C21.714 0.000264943 22.159 0.184725 22.4871 0.512856C22.8153 0.840987 22.9997 1.28595 23 1.75V19.207C22.6514 19.3056 22.3168 19.4378 22 19.5997V1.75C22 1.55109 21.921 1.36032 21.7803 1.21967C21.6397 1.07902 21.4489 1 21.25 1H8V22H12.5997C12.4378 22.3168 12.3056 22.6514 12.207 23ZM5 1.75V21.25C5 21.4489 5.07902 21.6397 5.21967 21.7803C5.36032 21.921 5.55109 22 5.75 22H7V1H5.75C5.55109 1 5.36032 1.07902 5.21967 1.21967C5.07902 1.36032 5 1.55109 5 1.75Z" fill="black"/>
<path fill-rule="evenodd" clip-rule="evenodd" d="M22.9999 19.2071C23.4768 19.0722 23.98 19 24.5 19C24.6685 19 24.8353 19.0076 24.9999 19.0224V4.74094C24.9989 4.64553 24.9796 4.55117 24.943 4.46299C24.9053 4.37202 24.8498 4.28944 24.7799 4.22002L22.9999 2.43909V19.2071ZM12.0224 25C12.0076 24.8353 12 24.6686 12 24.5C12 23.98 12.0722 23.4769 12.207 23L6.43896 23L8.43894 25H12.0224Z" fill="#EBEBEB"/>
<path d="M14 6H1V11H14V6Z" fill="#B0E5C3"/>
<path d="M14 6V11H1V6H14ZM15 5H0V12H15V5Z" fill="#39BF68"/>
<path fill-rule="evenodd" clip-rule="evenodd" d="M20.9646 24C20.722 22.3037 19.2632 21 17.5 21C15.567 21 14 22.5669 14 24.5C14 26.4331 15.567 28 17.5 28C19.2632 28 20.722 26.6963 20.9646 25H21.0354C21.278 26.6963 22.7368 28 24.5 28C26.433 28 28 26.4331 28 24.5C28 22.5669 26.433 21 24.5 21C22.7368 21 21.278 22.3037 21.0354 24H20.9646ZM19.95 24H17.5C17.2238 24 17 24.2239 17 24.5C17 24.7761 17.2238 25 17.5 25H19.95C19.7183 26.1411 18.7095 27 17.5 27C16.1193 27 15 25.8806 15 24.5C15 23.1194 16.1193 22 17.5 22C18.7095 22 19.7183 22.8589 19.95 24ZM22.05 25H24.5C24.7762 25 25 24.7761 25 24.5C25 24.2239 24.7762 24 24.5 24H22.05C22.2817 22.8589 23.2905 22 24.5 22C25.8807 22 27 23.1194 27 24.5C27 25.8806 25.8807 27 24.5 27C23.2905 27 22.2817 26.1411 22.05 25Z" fill="#888888"/>
</g>
<defs>
<clipPath id="clip0_1960_191">
<rect width="28" height="28" fill="white"/>
</clipPath>
</defs>
</svg>
