<svg width="28" height="28" viewBox="0 0 28 28" fill="none" xmlns="http://www.w3.org/2000/svg">
<g clip-path="url(#clip0_144_2137)">
<path opacity="0.5" d="M18.717 0H3V26H12V25H14.55C14.5181 24.8352 14.5014 24.6678 14.5 24.5C14.4984 23.7426 14.7841 23.0127 15.2994 22.4577C15.8148 21.9027 16.5215 21.5638 17.277 21.5093C18.0324 21.4549 18.7804 21.689 19.37 22.1644C19.9597 22.6398 20.347 23.3212 20.454 24.071L20.516 24.5H21.484L21.546 24.071C21.6497 23.3601 22.0048 22.7099 22.5467 22.2382C23.0886 21.7666 23.7816 21.5047 24.5 21.5C24.6678 21.5014 24.8352 21.5181 25 21.55V19H26V7.283L18.717 0Z" fill="white"/>
<path d="M17.5 21.5C18.2184 21.5047 18.9114 21.7666 19.4533 22.2382C19.9952 22.7099 20.3503 23.3601 20.454 24.071L20.516 24.5H21.484L21.546 24.071C21.6497 23.3601 22.0048 22.7099 22.5467 22.2382C23.0886 21.7666 23.7816 21.5047 24.5 21.5C24.6678 21.5027 24.8351 21.5198 25 21.551V7.7L18.3 1H4V25H14.551C14.5198 24.8351 14.5027 24.6678 14.5 24.5C14.5 23.7044 14.8161 22.9413 15.3787 22.3787C15.9413 21.8161 16.7044 21.5 17.5 21.5Z" fill="white"/>
<path opacity="0.08" d="M19 1.698V7H24.302L19 1.698Z" fill="black"/>
<path opacity="0.2" d="M12 25H4V1H18V8H25V19H26V7.283L18.717 0H3V26H12V25ZM19 1.7L24.3 7H19V1.7Z" fill="black"/>
<path d="M24.4999 21C23.6602 21.0015 22.8492 21.3057 22.2155 21.8567C21.5819 22.4077 21.168 23.1686 21.0499 24H20.9499C20.8235 23.1242 20.3701 22.3288 19.6809 21.7739C18.9916 21.2189 18.1178 20.9456 17.2352 21.009C16.3526 21.0724 15.5268 21.4677 14.9239 22.1154C14.321 22.7631 13.9858 23.6151 13.9858 24.5C13.9858 25.3849 14.321 26.2369 14.9239 26.8846C15.5268 27.5323 16.3526 27.9277 17.2352 27.991C18.1178 28.0544 18.9916 27.7811 19.6809 27.2262C20.3701 26.6712 20.8235 25.8758 20.9499 25H21.0499C21.1471 25.6624 21.4326 26.2829 21.8723 26.7876C22.3121 27.2923 22.8877 27.6601 23.5305 27.847C24.1733 28.034 24.8563 28.0323 25.4982 27.8421C26.1401 27.6519 26.7138 27.2813 27.151 26.7744C27.5883 26.2674 27.8706 25.6455 27.9645 24.9827C28.0583 24.3198 27.9597 23.644 27.6804 23.0356C27.4011 22.4272 26.9528 21.9119 26.3889 21.551C25.8251 21.1901 25.1694 20.9989 24.4999 21ZM17.4999 27C17.0269 27.0001 16.5635 26.866 16.1636 26.6132C15.7638 26.3604 15.4438 25.9994 15.241 25.5721C15.0381 25.1447 14.9607 24.6686 15.0176 24.1989C15.0746 23.7293 15.2637 23.2855 15.5628 22.9191C15.862 22.5526 16.2589 22.2785 16.7076 22.1287C17.1564 21.9789 17.6384 21.9594 18.0977 22.0726C18.557 22.1858 18.9748 22.427 19.3025 22.7682C19.6302 23.1094 19.8543 23.5365 19.9489 24H17.4999C17.3673 24 17.2402 24.0527 17.1464 24.1465C17.0526 24.2402 16.9999 24.3674 16.9999 24.5C16.9999 24.6326 17.0526 24.7598 17.1464 24.8536C17.2402 24.9473 17.3673 25 17.4999 25H19.9489C19.8337 25.5645 19.527 26.0719 19.0808 26.4363C18.6345 26.8008 18.0761 26.9999 17.4999 27ZM24.4999 27C23.9238 26.9999 23.3654 26.8008 22.9191 26.4363C22.4729 26.0719 22.1662 25.5645 22.0509 25H24.4999C24.6326 25 24.7597 24.9473 24.8535 24.8536C24.9473 24.7598 24.9999 24.6326 24.9999 24.5C24.9999 24.3674 24.9473 24.2402 24.8535 24.1465C24.7597 24.0527 24.6326 24 24.4999 24H22.0509C22.1456 23.5365 22.3697 23.1094 22.6974 22.7682C23.0251 22.427 23.4429 22.1858 23.9022 22.0726C24.3615 21.9594 24.8435 21.9789 25.2922 22.1287C25.7409 22.2785 26.1379 22.5526 26.4371 22.9191C26.7362 23.2855 26.9253 23.7293 26.9822 24.1989C27.0392 24.6686 26.9618 25.1447 26.7589 25.5721C26.5561 25.9994 26.2361 26.3604 25.8362 26.6132C25.4364 26.866 24.973 27.0001 24.4999 27Z" fill="#888888"/>
</g>
<defs>
<clipPath id="clip0_144_2137">
<rect width="28" height="28" fill="white"/>
</clipPath>
</defs>
</svg>
