<svg width="28" height="28" viewBox="0 0 28 28" fill="none" xmlns="http://www.w3.org/2000/svg">
<g clip-path="url(#clip0_144_2097)">
<path opacity="0.5" d="M26 19.213V3.75C25.9997 3.28595 25.8153 2.84099 25.4871 2.51286C25.159 2.18472 24.714 2.00026 24.25 2H1.75C1.28595 2.00026 0.840987 2.18472 0.512856 2.51286C0.184725 2.84099 0.000264943 3.28595 0 3.75L0 26H12.213C11.8954 24.8728 11.9458 23.6737 12.357 22.5772C12.7681 21.4807 13.5185 20.5441 14.4989 19.9037C15.4793 19.2632 16.6386 18.9524 17.8079 19.0165C18.9772 19.0806 20.0955 19.5162 21 20.26C21.685 19.6912 22.4986 19.2984 23.3701 19.1159C24.2415 18.9335 25.1444 18.9668 26 19.213Z" fill="white"/>
<path d="M14.5 24.5C14.5 23.7044 14.8161 22.9413 15.3787 22.3787C15.9413 21.8161 16.7044 21.5 17.5 21.5C18.2956 21.5 19.0587 21.8161 19.6213 22.3787C20.1839 22.9413 20.5 23.7044 20.5 24.5C20.4971 24.6678 20.4804 24.835 20.45 25H21.55C21.5196 24.835 21.5029 24.6678 21.5 24.5C21.5 23.7044 21.8161 22.9413 22.3787 22.3787C22.9413 21.8161 23.7044 21.5 24.5 21.5C24.6678 21.5029 24.835 21.5196 25 21.55V9H1V25H14.55C14.5196 24.835 14.5029 24.6678 14.5 24.5Z" fill="white"/>
<path opacity="0.04" d="M1.75 3H24.25C24.4489 3 24.6397 3.07902 24.7803 3.21967C24.921 3.36032 25 3.55109 25 3.75V9H1V3.75C1 3.55109 1.07902 3.36032 1.21967 3.21967C1.36032 3.07902 1.55109 3 1.75 3Z" fill="black" fill-opacity="0.8"/>
<path d="M4 7C4.55228 7 5 6.55228 5 6C5 5.44772 4.55228 5 4 5C3.44772 5 3 5.44772 3 6C3 6.55228 3.44772 7 4 7Z" fill="#E24940"/>
<path d="M7 7C7.55228 7 8 6.55228 8 6C8 5.44772 7.55228 5 7 5C6.44772 5 6 5.44772 6 6C6 6.55228 6.44772 7 7 7Z" fill="#E0A32A"/>
<path d="M10 7C10.5523 7 11 6.55228 11 6C11 5.44772 10.5523 5 10 5C9.44772 5 9 5.44772 9 6C9 6.55228 9.44772 7 10 7Z" fill="#28AD31"/>
<path d="M17.5 19C18.778 18.9987 20.0161 19.4445 21 20.26C21.4506 19.8911 21.9569 19.5961 22.5 19.386V16.5H3.5V22.5H12.382C12.7842 21.4696 13.4878 20.5845 14.4008 19.9601C15.3138 19.3357 16.3939 19.0011 17.5 19Z" fill="#B3C7F5"/>
<path d="M12.607 22H4V17H22V19.62C22.3197 19.4572 22.6547 19.3263 23 19.229V16H3V23H12.213C12.3113 22.6546 12.4433 22.3196 12.607 22Z" fill="#4072E5"/>
<path opacity="0.2" d="M24.25 2H1.75C1.28595 2.00026 0.840987 2.18472 0.512856 2.51286C0.184725 2.84099 0.000264943 3.28595 0 3.75L0 26H12.213C12.1196 25.6732 12.0566 25.3384 12.025 25H1V10H25V19.025C25.3384 19.0566 25.6732 19.1196 26 19.213V3.75C25.9997 3.28595 25.8153 2.84099 25.4871 2.51286C25.159 2.18472 24.714 2.00026 24.25 2ZM25 9H1V3.75C1 3.55109 1.07902 3.36032 1.21967 3.21967C1.36032 3.07902 1.55109 3 1.75 3H24.25C24.4489 3 24.6397 3.07902 24.7803 3.21967C24.921 3.36032 25 3.55109 25 3.75V9Z" fill="black"/>
<path d="M24.4999 21C23.6602 21.0015 22.8492 21.3057 22.2155 21.8567C21.5819 22.4077 21.168 23.1686 21.0499 24H20.9499C20.8235 23.1242 20.3701 22.3288 19.6809 21.7739C18.9916 21.2189 18.1178 20.9456 17.2352 21.009C16.3526 21.0724 15.5268 21.4677 14.9239 22.1154C14.321 22.7631 13.9858 23.6151 13.9858 24.5C13.9858 25.3849 14.321 26.2369 14.9239 26.8846C15.5268 27.5323 16.3526 27.9277 17.2352 27.991C18.1178 28.0544 18.9916 27.7811 19.6809 27.2262C20.3701 26.6712 20.8235 25.8758 20.9499 25H21.0499C21.1471 25.6624 21.4326 26.2829 21.8723 26.7876C22.3121 27.2923 22.8877 27.6601 23.5305 27.847C24.1733 28.034 24.8563 28.0323 25.4982 27.8421C26.1401 27.6519 26.7138 27.2813 27.151 26.7744C27.5883 26.2674 27.8706 25.6455 27.9645 24.9827C28.0583 24.3198 27.9597 23.644 27.6804 23.0356C27.4011 22.4272 26.9528 21.9119 26.3889 21.551C25.8251 21.1901 25.1694 20.9989 24.4999 21ZM17.4999 27C17.0269 27.0001 16.5635 26.866 16.1636 26.6132C15.7638 26.3604 15.4438 25.9994 15.241 25.5721C15.0381 25.1447 14.9607 24.6686 15.0176 24.1989C15.0746 23.7293 15.2637 23.2855 15.5628 22.9191C15.862 22.5526 16.2589 22.2785 16.7076 22.1287C17.1564 21.9789 17.6384 21.9594 18.0977 22.0726C18.557 22.1858 18.9748 22.427 19.3025 22.7682C19.6302 23.1094 19.8543 23.5365 19.9489 24H17.4999C17.3673 24 17.2402 24.0527 17.1464 24.1465C17.0526 24.2402 16.9999 24.3674 16.9999 24.5C16.9999 24.6326 17.0526 24.7598 17.1464 24.8536C17.2402 24.9473 17.3673 25 17.4999 25H19.9489C19.8337 25.5645 19.527 26.0719 19.0808 26.4363C18.6345 26.8008 18.0761 26.9999 17.4999 27ZM24.4999 27C23.9238 26.9999 23.3654 26.8008 22.9191 26.4363C22.4729 26.0719 22.1662 25.5645 22.0509 25H24.4999C24.6326 25 24.7597 24.9473 24.8535 24.8536C24.9473 24.7598 24.9999 24.6326 24.9999 24.5C24.9999 24.3674 24.9473 24.2402 24.8535 24.1465C24.7597 24.0527 24.6326 24 24.4999 24H22.0509C22.1456 23.5365 22.3697 23.1094 22.6974 22.7682C23.0251 22.427 23.4429 22.1858 23.9022 22.0726C24.3615 21.9594 24.8435 21.9789 25.2922 22.1287C25.7409 22.2785 26.1379 22.5526 26.4371 22.9191C26.7362 23.2855 26.9253 23.7293 26.9822 24.1989C27.0392 24.6686 26.9618 25.1447 26.7589 25.5721C26.5561 25.9994 26.2361 26.3604 25.8362 26.6132C25.4364 26.866 24.973 27.0001 24.4999 27Z" fill="#888888"/>
</g>
<defs>
<clipPath id="clip0_144_2097">
<rect width="28" height="28" fill="white"/>
</clipPath>
</defs>
</svg>
