<svg width="28" height="28" viewBox="0 0 28 28" fill="none" xmlns="http://www.w3.org/2000/svg">
<path opacity="0.5" d="M1.75 2H24.25C24.7141 2 25.1592 2.18437 25.4874 2.51256C25.8156 2.84075 26 3.28587 26 3.75V25H0V3.75C0 3.28587 0.184374 2.84075 0.512563 2.51256C0.840752 2.18437 1.28587 2 1.75 2Z" fill="white"/>
<path d="M25 9H1V24H25V9Z" fill="white"/>
<path opacity="0.04" d="M1.75 3H24.25C24.4489 3 24.6397 3.07902 24.7803 3.21967C24.921 3.36032 25 3.55109 25 3.75V9H1V3.75C1 3.55109 1.07902 3.36032 1.21967 3.21967C1.36032 3.07902 1.55109 3 1.75 3Z" fill="black"/>
<path d="M4 7C4.55228 7 5 6.55228 5 6C5 5.44772 4.55228 5 4 5C3.44772 5 3 5.44772 3 6C3 6.55228 3.44772 7 4 7Z" fill="#E24940"/>
<path d="M7 7C7.55228 7 8 6.55228 8 6C8 5.44772 7.55228 5 7 5C6.44772 5 6 5.44772 6 6C6 6.55228 6.44772 7 7 7Z" fill="#E0A32A"/>
<path d="M10 7C10.5523 7 11 6.55228 11 6C11 5.44772 10.5523 5 10 5C9.44772 5 9 5.44772 9 6C9 6.55228 9.44772 7 10 7Z" fill="#28AD31"/>
<path opacity="0.2" d="M24.25 2H1.75C1.28595 2.00026 0.840987 2.18472 0.512856 2.51286C0.184725 2.84099 0.000264943 3.28595 0 3.75L0 25H26V3.75C25.9997 3.28595 25.8153 2.84099 25.4871 2.51286C25.159 2.18472 24.714 2.00026 24.25 2ZM25 24H1V10H25V24ZM25 9H1V3.75C1 3.55109 1.07902 3.36032 1.21967 3.21967C1.36032 3.07902 1.55109 3 1.75 3H24.25C24.4489 3 24.6397 3.07902 24.7803 3.21967C24.921 3.36032 25 3.55109 25 3.75V9Z" fill="black"/>
<path d="M10 16.5H3.5V21.5H10V16.5Z" fill="#B3C7F5"/>
<path d="M26.25 14.5H12.75C12.0596 14.5 11.5 15.0596 11.5 15.75V25.25C11.5 25.9404 12.0596 26.5 12.75 26.5H26.25C26.9404 26.5 27.5 25.9404 27.5 25.25V15.75C27.5 15.0596 26.9404 14.5 26.25 14.5Z" fill="#B4B4B4"/>
<path d="M19.5 23.5C21.1569 23.5 22.5 22.1569 22.5 20.5C22.5 18.8431 21.1569 17.5 19.5 17.5C17.8431 17.5 16.5 18.8431 16.5 20.5C16.5 22.1569 17.8431 23.5 19.5 23.5Z" fill="#DADADA"/>
<path d="M26.25 15C26.4489 15 26.6397 15.079 26.7803 15.2197C26.921 15.3603 27 15.5511 27 15.75V25.25C27 25.4489 26.921 25.6397 26.7803 25.7803C26.6397 25.921 26.4489 26 26.25 26H12.75C12.5511 26 12.3603 25.921 12.2197 25.7803C12.079 25.6397 12 25.4489 12 25.25V15.75C12 15.5511 12.079 15.3603 12.2197 15.2197C12.3603 15.079 12.5511 15 12.75 15H26.25ZM26.25 14H12.75C12.286 14.0003 11.841 14.1847 11.5129 14.5129C11.1847 14.841 11.0003 15.286 11 15.75V25.25C11.0003 25.714 11.1847 26.159 11.5129 26.4871C11.841 26.8153 12.286 26.9997 12.75 27H26.25C26.714 26.9997 27.159 26.8153 27.4871 26.4871C27.8153 26.159 27.9997 25.714 28 25.25V15.75C27.9997 15.286 27.8153 14.841 27.4871 14.5129C27.159 14.1847 26.714 14.0003 26.25 14ZM19.5 18C19.9945 18 20.4778 18.1466 20.8889 18.4213C21.3 18.696 21.6205 19.0865 21.8097 19.5433C21.9989 20.0001 22.0484 20.5028 21.952 20.9877C21.8555 21.4727 21.6174 21.9181 21.2678 22.2678C20.9181 22.6174 20.4727 22.8555 19.9877 22.952C19.5028 23.0484 19.0001 22.9989 18.5433 22.8097C18.0865 22.6205 17.696 22.3 17.4213 21.8889C17.1466 21.4778 17 20.9945 17 20.5C17 19.837 17.2634 19.2011 17.7322 18.7322C18.2011 18.2634 18.837 18 19.5 18ZM19.5 17C18.8078 17 18.1311 17.2053 17.5555 17.5899C16.9799 17.9744 16.5313 18.5211 16.2664 19.1606C16.0015 19.8001 15.9322 20.5039 16.0673 21.1828C16.2023 21.8617 16.5356 22.4854 17.0251 22.9749C17.5146 23.4644 18.1383 23.7977 18.8172 23.9327C19.4961 24.0678 20.1999 23.9985 20.8394 23.7336C21.4789 23.4687 22.0256 23.0201 22.4101 22.4445C22.7947 21.8689 23 21.1922 23 20.5C23 19.5717 22.6313 18.6815 21.9749 18.0251C21.3185 17.3687 20.4283 17 19.5 17ZM25 17.5V16.5C25 16.3674 24.9473 16.2402 24.8536 16.1464C24.7598 16.0527 24.6326 16 24.5 16H23.5C23.3674 16 23.2402 16.0527 23.1464 16.1464C23.0527 16.2402 23 16.3674 23 16.5V17.5C23 17.6326 23.0527 17.7598 23.1464 17.8536C23.2402 17.9473 23.3674 18 23.5 18H24.5C24.6326 18 24.7598 17.9473 24.8536 17.8536C24.9473 17.7598 25 17.6326 25 17.5ZM19.5 19C19.451 19 19.4 19.01 19.357 19.014C19.4467 19.1606 19.496 19.3282 19.5 19.5C19.5 19.7652 19.3946 20.0196 19.2071 20.2071C19.0196 20.3946 18.7652 20.5 18.5 20.5C18.3282 20.496 18.1606 20.4467 18.014 20.357C18.014 20.404 18 20.451 18 20.5C18 20.7967 18.088 21.0867 18.2528 21.3334C18.4176 21.58 18.6519 21.7723 18.926 21.8858C19.2001 21.9994 19.5017 22.0291 19.7926 21.9712C20.0836 21.9133 20.3509 21.7704 20.5607 21.5607C20.7704 21.3509 20.9133 21.0836 20.9712 20.7926C21.0291 20.5017 20.9993 20.2001 20.8858 19.926C20.7723 19.6519 20.58 19.4176 20.3334 19.2528C20.0867 19.088 19.7967 19 19.5 19Z" fill="#444444"/>
<path d="M10 21H4V17H10V16H3V22H10V21Z" fill="#4072E5"/>
</svg>
