<svg width="28" height="28" viewBox="0 0 28 28" fill="none" xmlns="http://www.w3.org/2000/svg">
<path d="M15 22.975V27H20V28H9V27H14V22.975C12.1031 22.8483 10.3251 22.0059 9.02561 20.6182C7.72612 19.2305 7.00211 17.4011 7 15.5V10H8V15.5C8 17.2239 8.68482 18.8772 9.90381 20.0962C11.1228 21.3152 12.7761 22 14.5 22C16.2239 22 17.8772 21.3152 19.0962 20.0962C20.3152 18.8772 21 17.2239 21 15.5V10H22V15.5C21.9979 17.4011 21.2739 19.2305 19.9744 20.6182C18.6749 22.0059 16.8969 22.8483 15 22.975ZM10 15.5V4.5C10 3.30653 10.4741 2.16193 11.318 1.31802C12.1619 0.474106 13.3065 0 14.5 0C15.6935 0 16.8381 0.474106 17.682 1.31802C18.5259 2.16193 19 3.30653 19 4.5V15.5C19 16.6935 18.5259 17.8381 17.682 18.682C16.8381 19.5259 15.6935 20 14.5 20C13.3065 20 12.1619 19.5259 11.318 18.682C10.4741 17.8381 10 16.6935 10 15.5ZM11 15.5C11 16.4283 11.3687 17.3185 12.0251 17.9749C12.6815 18.6313 13.5717 19 14.5 19C15.4283 19 16.3185 18.6313 16.9749 17.9749C17.6313 17.3185 18 16.4283 18 15.5V4.5C18 3.57174 17.6313 2.6815 16.9749 2.02513C16.3185 1.36875 15.4283 1 14.5 1C13.5717 1 12.6815 1.36875 12.0251 2.02513C11.3687 2.6815 11 3.57174 11 4.5V15.5Z" fill="#444444"/>
<path d="M18 4.5C18 2.567 16.433 1 14.5 1C12.567 1 11 2.567 11 4.5V15.5C11 17.433 12.567 19 14.5 19C16.433 19 18 17.433 18 15.5V4.5Z" fill="#DADADA"/>
</svg>
