<svg width="28" height="28" viewBox="0 0 28 28" fill="none" xmlns="http://www.w3.org/2000/svg">
<path d="M14.84 2.952C16.284 1.617 21.281 0.612 26.991 0.509L27.5 0.5V24.5L27.009 24.509C21.933 24.594 17.528 25.344 15.227 26.514L14.5 26.884V3.266L14.84 2.952Z" fill="white"/>
<path d="M14.16 2.952C12.716 1.617 7.719 0.612 2.009 0.509L1.5 0.5V24.5L1.991 24.509C7.067 24.594 11.472 25.344 13.773 26.514L14.5 26.884V3.266L14.16 2.952Z" fill="#B3C7F5"/>
<path d="M14.5 2.585C12.889 1.1 7.464 0 1 0V25C7.464 25 12.889 26.1 14.5 27.585C16.111 26.1 21.536 25 28 25V0C21.536 0 16.111 1.1 14.5 2.585ZM14 26.068C11.636 24.868 7.225 24.096 2 24.008V1.008C8.183 1.12 12.666 2.252 13.821 3.32L14 3.484V26.068ZM27 24.008C21.775 24.096 17.364 24.865 15 26.068V3.484L15.179 3.32C16.334 2.252 20.817 1.12 27 1.009V24.008Z" fill="#4072E5"/>
<path d="M25 9.08201V10.082C22.29 10.1768 19.6025 10.6101 17 11.372V10.319C19.6091 9.59539 22.2941 9.18022 25 9.08201ZM25 13.082C22.2941 13.1802 19.6091 13.5954 17 14.319V15.374C19.6025 14.6121 22.29 14.1788 25 14.084V13.082ZM25 17.082C22.2941 17.1802 19.6091 17.5954 17 18.319V19.374C19.6025 18.6121 22.29 18.1788 25 18.084V17.082ZM17 7.37401C19.6025 6.61215 22.29 6.17878 25 6.08401V5.08401C22.2941 5.18222 19.6091 5.59739 17 6.32101V7.37401Z" fill="#444444"/>
</svg>
