<svg width="28" height="28" viewBox="0 0 28 28" fill="none" xmlns="http://www.w3.org/2000/svg">
<g clip-path="url(#clip0_144_2130)">
<path d="M23 2.439V23H21V25H4.43896L6.43896 27H25V4.439L23 2.439Z" fill="white"/>
<path d="M22 1H6V24H22V1Z" fill="#B3C7F5"/>
<path d="M5 1H3V24H5V1Z" fill="#8DAAF0"/>
<path d="M14 26H9V27H14V26Z" fill="#FF6666"/>
<path d="M24.25 3C24.0513 3.002 23.8544 3.03819 23.668 3.107L24.78 4.22C24.8499 4.28941 24.9053 4.37199 24.9431 4.46297C24.9808 4.55394 25.0002 4.6515 25 4.75V26.25C25 26.4489 24.921 26.6397 24.7803 26.7803C24.6397 26.921 24.4489 27 24.25 27H6.439L4.439 25H21.25C21.7141 24.9997 22.159 24.8153 22.4871 24.4871C22.8153 24.159 22.9997 23.714 23 23.25V1.75C22.9997 1.28595 22.8153 0.840987 22.4871 0.512856C22.159 0.184725 21.7141 0.000264943 21.25 0L3.75 0C3.28595 0.000264943 2.84099 0.184725 2.51286 0.512856C2.18473 0.840987 2.00027 1.28595 2 1.75V23.25C1.99968 23.4798 2.04484 23.7075 2.13289 23.9198C2.22093 24.1321 2.35012 24.3248 2.513 24.487L5.513 27.487C5.67512 27.6499 5.86789 27.7791 6.0802 27.8672C6.29252 27.9552 6.52016 28.0004 6.75 28H24.25C24.7141 27.9997 25.159 27.8153 25.4871 27.4871C25.8153 27.159 25.9997 26.714 26 26.25V4.75C25.9997 4.28595 25.8153 3.84099 25.4871 3.51286C25.159 3.18472 24.7141 3.00026 24.25 3ZM6 1H21.25C21.4489 1 21.6397 1.07902 21.7803 1.21967C21.921 1.36032 22 1.55109 22 1.75V23.25C22 23.4489 21.921 23.6397 21.7803 23.7803C21.6397 23.921 21.4489 24 21.25 24H6V1ZM3 23.25V1.75C3 1.55109 3.07902 1.36032 3.21967 1.21967C3.36032 1.07902 3.55109 1 3.75 1H5V24H3.75C3.55109 24 3.36032 23.921 3.21967 23.7803C3.07902 23.6397 3 23.4489 3 23.25Z" fill="#4072E5"/>
</g>
<defs>
<clipPath id="clip0_144_2130">
<rect width="28" height="28" fill="white"/>
</clipPath>
</defs>
</svg>
