<svg width="28" height="28" viewBox="0 0 28 28" fill="none" xmlns="http://www.w3.org/2000/svg">
<g clip-path="url(#clip0_144_2121)">
<path d="M17.95 9.00002V11.166C17.5075 10.488 16.9035 9.93053 16.1922 9.54374C15.4809 9.15694 14.6847 8.95292 13.875 8.95002C12.5603 8.98702 11.3118 9.53531 10.395 10.4783C9.4781 11.4213 8.96516 12.6848 8.96516 14C8.96516 15.3153 9.4781 16.5787 10.395 17.5217C11.3118 18.4647 12.5603 19.013 13.875 19.05C14.7315 19.0442 15.5714 18.8133 16.3105 18.3805C17.0496 17.9477 17.6619 17.3281 18.086 16.584C18.4142 17.3582 18.9748 18.0113 19.6903 18.4531C20.4058 18.8949 21.2408 19.1034 22.08 19.05C25.345 19.05 28 15.98 28 12.207C28 5.47602 21.72 1.84405e-05 14 1.84405e-05C11.7284 -0.0036682 9.48996 0.545477 7.47795 1.60006C5.46593 2.65465 3.74076 4.18299 2.45131 6.0532C1.16186 7.92341 0.346875 10.0793 0.0766812 12.3348C-0.193512 14.5903 0.0892056 16.8777 0.900436 18.9996C1.71167 21.1214 3.02704 23.014 4.73304 24.514C6.43904 26.014 8.48441 27.0763 10.6926 27.6092C12.9009 28.1422 15.2056 28.1298 17.408 27.5731C19.6104 27.0165 21.6442 25.9322 23.334 24.414L22.6 23.6C21.0427 24.9945 19.1696 25.9894 17.1423 26.499C15.1149 27.0086 12.9941 27.0177 10.9625 26.5254C8.93083 26.0331 7.04935 25.0543 5.48013 23.6732C3.91091 22.2921 2.70101 20.5502 1.95467 18.5976C1.20832 16.6449 0.947923 14.5401 1.1959 12.4645C1.44388 10.3888 2.1928 8.40456 3.37813 6.68269C4.56347 4.96083 6.14967 3.55297 8.00008 2.58043C9.85048 1.60789 11.9096 1.09983 14 1.10002C21.113 1.10002 26.9 6.08202 26.9 12.207C26.9 15.374 24.738 17.95 22.08 17.95C20.41 17.95 19.051 16.986 19.05 15.801V9.00002H17.95ZM14 17.95C13.2188 17.95 12.4551 17.7184 11.8055 17.2843C11.1559 16.8503 10.6497 16.2334 10.3507 15.5116C10.0517 14.7898 9.97351 13.9956 10.1259 13.2294C10.2783 12.4632 10.6545 11.7594 11.2069 11.2069C11.7594 10.6545 12.4632 10.2783 13.2294 10.1259C13.9956 9.97351 14.7899 10.0517 15.5116 10.3507C16.2334 10.6497 16.8503 11.1559 17.2843 11.8055C17.7184 12.4551 17.95 13.2188 17.95 14C17.9502 14.5188 17.8481 15.0325 17.6496 15.5118C17.4512 15.9911 17.1602 16.4266 16.7934 16.7934C16.4266 17.1602 15.9911 17.4512 15.5118 17.6496C15.0325 17.8481 14.5188 17.9502 14 17.95Z" fill="#FF6666"/>
</g>
<defs>
<clipPath id="clip0_144_2121">
<rect width="28" height="28" fill="white"/>
</clipPath>
</defs>
</svg>
