<svg width="28" height="28" viewBox="0 0 28 28" fill="none" xmlns="http://www.w3.org/2000/svg">
<path d="M14.84 2.952C16.284 1.617 21.281 0.612 26.991 0.509L27.5 0.5V24.5L27.009 24.509C21.933 24.594 17.528 25.344 15.227 26.514L14.5 26.884V3.266L14.84 2.952Z" fill="white"/>
<path d="M14.16 2.952C12.716 1.617 7.719 0.612 2.009 0.509L1.5 0.5V24.5L1.991 24.509C7.067 24.594 11.472 25.344 13.773 26.514L14.5 26.884V3.266L14.16 2.952Z" fill="white"/>
<path opacity="0.4" d="M6 1.23798C7.34406 1.36337 8.67966 1.56705 10 1.84798V19.024L8.592 17.989L8.13 17.65L7.604 17.877L6 18.569V1.23798Z" fill="#DB2C3A"/>
<path d="M14.5 2.585C13.4616 1.82144 12.2659 1.29941 11 1.057V2.1C12.0156 2.3039 12.9769 2.7196 13.821 3.32L14 3.484V26.068C11.636 24.868 7.225 24.096 2 24.008V1.008C3.054 1.027 4.053 1.078 5 1.15V0.15C3.732 0.054 2.392 0 1 0V25C7.464 25 12.889 26.1 14.5 27.585C16.111 26.1 21.536 25 28 25V0C21.536 0 16.111 1.1 14.5 2.585ZM27 24.008C21.775 24.096 17.364 24.865 15 26.068V3.484L15.179 3.32C16.334 2.252 20.817 1.12 27 1.009V24.008Z" fill="#4072E5"/>
<path d="M5 0.14801V20.09L8 18.8L11 21V1.05701C9.02963 0.583204 7.02229 0.279092 5 0.14801ZM10 19.024L8.592 17.989L8.13 17.65L7.604 17.877L6 18.569V1.23801C7.34398 1.36359 8.67955 1.56693 10 1.84701V19.024Z" fill="#DB2C3A"/>
</svg>
