<svg width="28" height="28" viewBox="0 0 28 28" fill="none" xmlns="http://www.w3.org/2000/svg">
<g clip-path="url(#clip0_144_2124)">
<path d="M16.133 16.3C16.3764 15.5576 16.5003 14.7813 16.5 14C16.5 13.891 16.493 13.783 16.485 13.676L16.457 13.201L16.112 13.101C12.756 12.173 10.5 9.72 10.5 7C10.5 3.416 14.313 0.5 19 0.5C23.687 0.5 27.5 3.416 27.5 7C27.5 10.111 24.6 12.794 20.6 13.379L20.4 13.408L20.277 13.562C19.2186 14.8884 17.7683 15.8467 16.133 16.3Z" fill="#E0EFFF"/>
<path opacity="0.2" d="M8.45607 9.55499C7.62881 9.65524 6.84579 9.98377 6.19466 10.5038C5.54354 11.0238 5.05002 11.7149 4.76936 12.4995C4.48869 13.2841 4.43197 14.1313 4.60553 14.9464C4.7791 15.7614 5.1761 16.512 5.75209 17.1142C6.32808 17.7164 7.06032 18.1464 7.86683 18.356C8.67334 18.5657 9.52228 18.5467 10.3186 18.3012C11.1149 18.0557 11.8272 17.5933 12.3757 16.966C12.9241 16.3386 13.2871 15.571 13.4241 14.749C11.1552 13.7302 9.37297 11.8669 8.45607 9.55499Z" fill="#444444"/>
<path d="M12.948 14.512C12.8534 15.2596 12.549 15.965 12.0701 16.5468C11.5912 17.1286 10.9573 17.5628 10.2419 17.7993C9.52645 18.0358 8.75865 18.0649 8.02737 17.8832C7.29609 17.7015 6.63121 17.3164 6.10968 16.7725C5.58815 16.2286 5.23129 15.5482 5.08041 14.8099C4.92952 14.0717 4.99077 13.3058 5.25707 12.6009C5.52337 11.896 5.98384 11.2809 6.58517 10.8268C7.18651 10.3727 7.90414 10.0982 8.65501 10.035C8.51538 9.72158 8.39679 9.3992 8.30001 9.07001C7.39328 9.19907 6.53957 9.57518 5.83237 10.1572C5.12518 10.7391 4.5918 11.5045 4.29065 12.3694C3.9895 13.2344 3.93221 14.1655 4.12504 15.0609C4.31788 15.9562 4.7534 16.7812 5.38391 17.4455C6.01441 18.1097 6.81558 18.5877 7.69964 18.8269C8.5837 19.0662 9.51656 19.0575 10.396 18.8019C11.2755 18.5462 12.0676 18.0535 12.6857 17.3776C13.3037 16.7017 13.7238 15.8688 13.9 14.97C13.574 14.83 13.256 14.678 12.948 14.512Z" fill="#444444"/>
<path opacity="0.2" d="M9 21.5C2.725 21.5 0.5 23.2 0.5 28H17.5C17.5 23.2 15.275 21.5 9 21.5Z" fill="#444444"/>
<path d="M9 22C15.725 22 17 24.109 17 28H18C18 22.9 15.56 21 9 21C2.44 21 0 22.9 0 28H1C1 24.109 2.275 22 9 22Z" fill="#444444"/>
<path d="M19 1C23.411 1 27 3.692 27 7C27 9.86 24.279 12.335 20.53 12.885L20.14 12.942L19.894 13.249C19.0903 14.2561 18.0429 15.0415 16.851 15.531C16.9504 15.0267 17.0003 14.514 17 14C17 13.876 16.992 13.754 16.984 13.632L16.977 13.532L16.935 12.819L16.246 12.628C13.108 11.752 11 9.492 11 7C11 3.692 14.589 1 19 1ZM19 0C14.029 0 10 3.134 10 7C10 10.04 12.5 12.62 15.979 13.587C15.987 13.724 16 13.861 16 14C15.999 15.0341 15.767 16.055 15.321 16.988C17.4322 16.6557 19.3423 15.5447 20.675 13.874C24.844 13.263 28 10.42 28 7C28 3.134 23.971 0 19 0Z" fill="#66ADFF"/>
</g>
<defs>
<clipPath id="clip0_144_2124">
<rect width="28" height="28" fill="white"/>
</clipPath>
</defs>
</svg>
