<svg width="28" height="28" viewBox="0 0 28 28" fill="none" xmlns="http://www.w3.org/2000/svg">
<g clip-path="url(#clip0_144_2135)">
<path d="M1.99995 25.5C1.70318 25.5001 1.41304 25.4122 1.16624 25.2474C0.919438 25.0826 0.727075 24.8483 0.613487 24.5741C0.4999 24.3 0.470193 23.9982 0.528128 23.7072C0.586062 23.4161 0.729032 23.1488 0.938948 22.939L14.8539 9.85401L16.1459 11.146L3.04995 25.071C2.77068 25.3476 2.39299 25.5019 1.99995 25.5ZM20.8839 14.116L24.1159 10.884C24.3502 10.6494 24.4818 10.3315 24.4818 10C24.4818 9.66851 24.3502 9.35057 24.1159 9.11601L23.4999 8.50001L18.4999 13.5L19.1159 14.116C19.3505 14.3503 19.6685 14.4818 19.9999 14.4818C20.3314 14.4818 20.6494 14.3503 20.8839 14.116ZM17.4999 2.50001L16.8839 1.88401C16.6494 1.64976 16.3314 1.51819 15.9999 1.51819C15.6685 1.51819 15.3505 1.64976 15.1159 1.88401L11.8839 5.11601C11.6497 5.35057 11.5181 5.66851 11.5181 6.00001C11.5181 6.3315 11.6497 6.64945 11.8839 6.88401L12.4999 7.50001L17.4999 2.50001ZM12.4999 27.5H27.4999C27.54 27.2281 27.5159 26.9506 27.4296 26.6897C27.3432 26.4287 27.197 26.1916 27.0027 25.9973C26.8083 25.8029 26.5712 25.6567 26.3103 25.5704C26.0494 25.4841 25.7719 25.4599 25.4999 25.5H14.4999C14.228 25.4599 13.9505 25.4841 13.6896 25.5704C13.4287 25.6567 13.1916 25.8029 12.9972 25.9973C12.8029 26.1916 12.6567 26.4287 12.5703 26.6897C12.484 26.9506 12.4599 27.2281 12.4999 27.5Z" fill="#D6C4C5"/>
<path d="M14.8429 10.55L15.4499 11.157L2.70692 24.707C2.56707 24.8468 2.3889 24.942 2.19495 24.9806C2.001 25.0191 1.79996 24.9993 1.61726 24.9237C1.43456 24.848 1.2784 24.7199 1.16852 24.5554C1.05863 24.391 0.99996 24.1977 0.999918 24C0.997575 23.7448 1.09479 23.4987 1.27092 23.314L14.8429 10.55ZM14.8639 9.15698L0.585918 22.586C0.394898 22.7705 0.242533 22.9912 0.137715 23.2352C0.0328974 23.4792 -0.0222751 23.7416 -0.0245827 24.0072C-0.0268903 24.2727 0.0237131 24.5361 0.124275 24.7819C0.224837 25.0277 0.373343 25.251 0.561128 25.4388C0.748914 25.6266 0.972218 25.7751 1.21801 25.8756C1.4638 25.9762 1.72716 26.0268 1.99272 26.0245C2.25828 26.0222 2.52072 25.967 2.76473 25.8622C3.00874 25.7574 3.22942 25.605 3.41392 25.414L16.8429 11.136L14.8639 9.15698Z" fill="#996B6F"/>
<path d="M17.4992 2.50005L12.4993 7.5L18.4991 13.4998L23.499 8.49985L17.4992 2.50005Z" fill="#EBD399"/>
<path d="M23.146 8.854L17.146 2.854L17.854 2.146L23.854 8.146L23.146 8.854ZM18.854 13.146L12.854 7.146L12.146 7.854L18.146 13.854L18.854 13.146Z" fill="#CC9200"/>
<path d="M24.4701 8.76305L24.2071 8.50005L24.5611 8.14605C24.6522 8.05175 24.7026 7.92545 24.7014 7.79435C24.7003 7.66326 24.6477 7.53785 24.555 7.44514C24.4623 7.35244 24.3369 7.29986 24.2058 7.29872C24.0747 7.29758 23.9484 7.34797 23.8541 7.43905L23.5001 7.79305L17.7931 13.5001L17.4391 13.8541C17.348 13.9484 17.2976 14.0747 17.2988 14.2058C17.2999 14.3369 17.3525 14.4623 17.4452 14.555C17.5379 14.6477 17.6633 14.7003 17.7944 14.7014C17.9255 14.7025 18.0518 14.6521 18.1461 14.5611L18.5001 14.2071L18.7631 14.4701C19.0916 14.7972 19.5364 14.9809 20.0001 14.9809C20.4638 14.9809 20.9086 14.7972 21.2371 14.4701L24.4701 11.2371C24.7975 10.9086 24.9814 10.4638 24.9814 10.0001C24.9814 9.5363 24.7975 9.09146 24.4701 8.76305ZM23.7631 10.5301L20.5301 13.7631C20.4605 13.8327 20.3779 13.888 20.287 13.9257C20.196 13.9634 20.0985 13.9828 20.0001 13.9828C19.9016 13.9828 19.8042 13.9634 19.7132 13.9257C19.6223 13.888 19.5397 13.8327 19.4701 13.7631L19.2071 13.5001L23.5001 9.20705L23.7631 9.47005C23.9033 9.61081 23.982 9.80138 23.982 10.0001C23.982 10.1987 23.9033 10.3893 23.7631 10.5301ZM18.5631 2.14605C18.6109 2.09993 18.6489 2.04476 18.6751 1.98376C18.7014 1.92275 18.7151 1.85714 18.7157 1.79075C18.7163 1.72436 18.7037 1.65853 18.6785 1.59708C18.6534 1.53563 18.6162 1.4798 18.5693 1.43286C18.5223 1.38591 18.4665 1.34878 18.4051 1.32364C18.3436 1.2985 18.2778 1.28585 18.2114 1.28643C18.145 1.28701 18.0794 1.3008 18.0184 1.327C17.9574 1.35321 17.9022 1.3913 17.8561 1.43905L17.5021 1.79305L17.2391 1.53005C16.9106 1.20286 16.4658 1.01917 16.0021 1.01917C15.5384 1.01917 15.0936 1.20286 14.7651 1.53005L11.5301 4.76305C11.2027 5.09147 11.0188 5.5363 11.0188 6.00005C11.0188 6.46381 11.2027 6.90864 11.5301 7.23705L11.7931 7.50005L11.4391 7.85405C11.348 7.94836 11.2976 8.07466 11.2988 8.20575C11.2999 8.33685 11.3525 8.46226 11.4452 8.55496C11.5379 8.64767 11.6633 8.70025 11.7944 8.70139C11.9255 8.70253 12.0518 8.65213 12.1461 8.56105L12.5001 8.20705L18.2071 2.50005L18.5631 2.14605ZM12.5001 6.79305L12.2371 6.53005C12.0969 6.3893 12.0182 6.19872 12.0182 6.00005C12.0182 5.80138 12.0969 5.61081 12.2371 5.47005L15.4701 2.23705C15.6109 2.09685 15.8014 2.01813 16.0001 2.01813C16.1988 2.01813 16.3893 2.09685 16.5301 2.23705L16.7931 2.50005L12.5001 6.79305ZM27.5001 28.0001H12.5001C12.3675 28.0001 12.2403 27.9474 12.1465 27.8536C12.0528 27.7598 12.0001 27.6327 12.0001 27.5001C11.9609 27.1623 11.9986 26.82 12.1103 26.4988C12.2221 26.1777 12.4051 25.8859 12.6455 25.6455C12.886 25.405 13.1777 25.2221 13.4989 25.1103C13.82 24.9985 14.1623 24.9608 14.5001 25.0001H25.5001C25.8379 24.9608 26.1802 24.9985 26.5013 25.1103C26.8225 25.2221 27.1142 25.405 27.3547 25.6455C27.5951 25.8859 27.7781 26.1777 27.8899 26.4988C28.0016 26.82 28.0393 27.1623 28.0001 27.5001C28.0001 27.6327 27.9474 27.7598 27.8537 27.8536C27.7599 27.9474 27.6327 28.0001 27.5001 28.0001ZM13.0411 27.0001H26.9591C26.8301 26.3001 26.3801 26.0001 25.5001 26.0001H14.5001C13.6201 26.0001 13.1701 26.3001 13.0411 27.0001Z" fill="#996B6F"/>
</g>
<defs>
<clipPath id="clip0_144_2135">
<rect width="28" height="28" fill="white"/>
</clipPath>
</defs>
</svg>
