<svg width="28" height="28" viewBox="0 0 28 28" fill="none" xmlns="http://www.w3.org/2000/svg">
<g clip-path="url(#clip0_144_2120)">
<path d="M14 0.5C6.544 0.5 0.5 5.335 0.5 11.3C0.5 15.716 3.817 19.507 8.563 21.181C8.64975 21.7835 8.69552 22.3913 8.7 23C8.69611 24.1911 8.53436 25.3764 8.219 26.525C10.5079 25.6027 12.5013 24.0726 13.984 22.1H14C21.456 22.1 27.5 17.265 27.5 11.3C27.5 5.335 21.456 0.5 14 0.5Z" fill="#E0EFFF"/>
<path d="M7.475 27.362L7.736 26.395C8.03959 25.2887 8.19561 24.1472 8.2 23C8.19774 22.5139 8.16602 22.0283 8.105 21.546C3.171 19.7 0 15.7 0 11.3C0 5.069 6.28 0 14 0C21.72 0 28 5.069 28 11.3C28 17.468 21.846 22.5 14.232 22.6C12.7093 24.5519 10.6972 26.0662 8.4 26.989L7.475 27.362ZM14 1C6.832 1 1 5.62 1 11.3C1 15.359 4.034 19.053 8.729 20.709L9.017 20.809L9.058 21.109C9.14849 21.7353 9.19593 22.3672 9.2 23C9.19828 23.8925 9.10953 24.7827 8.935 25.658C10.7649 24.7522 12.3574 23.4306 13.585 21.799L13.735 21.599H13.984C21.168 21.6 27 16.979 27 11.3C27 5.621 21.168 1 14 1Z" fill="#66ADFF"/>
</g>
<defs>
<clipPath id="clip0_144_2120">
<rect width="28" height="28" fill="white"/>
</clipPath>
</defs>
</svg>
