<svg width="28" height="28" viewBox="0 0 28 28" fill="none" xmlns="http://www.w3.org/2000/svg">
<g clip-path="url(#clip0_144_2110)">
<path d="M24 5H4V27H24V5Z" fill="white"/>
<path d="M6 24V5H4V27H14V24H6Z" fill="#D9E3FA"/>
<path d="M6.5 23.4999V0.499949H12.5C13.0169 0.487583 13.5177 0.68061 13.8925 1.03674C14.2674 1.39287 14.4859 1.88307 14.5 2.39995V23.4999H6.5Z" fill="#B3C7F5"/>
<path d="M16 7V8H21V15H16V16H22V7H16Z" fill="#39BF68"/>
<path d="M15 4.00001V2.40001C14.9866 1.75027 14.7157 1.13245 14.2469 0.682392C13.7781 0.232332 13.1497 -0.0131175 12.5 1.26482e-05H6V4.00001H3V28H25V4.00001H15ZM7 1.00001H12.5C12.8843 0.987589 13.2579 1.12792 13.5391 1.3903C13.8202 1.65268 13.9859 2.01573 14 2.40001V23.511C13.5693 23.1814 13.0424 23.0019 12.5 23H7V1.00001ZM4 27V5.00001H6V24H12.5C12.8978 24 13.2794 24.158 13.5607 24.4394C13.842 24.7207 14 25.1022 14 25.5C14 25.8978 13.842 26.2794 13.5607 26.5607C13.2794 26.842 12.8978 27 12.5 27H4ZM24 27H14.489C14.8187 26.5693 14.9981 26.0424 15 25.5V5.00001H24V27Z" fill="#4072E5"/>
<path d="M16 18H22V19H16V18ZM16 22H22V21H16V22Z" fill="#444444"/>
<path d="M21 8H16V15H21V8Z" fill="#B0E5C3"/>
</g>
<defs>
<clipPath id="clip0_144_2110">
<rect width="28" height="28" fill="white"/>
</clipPath>
</defs>
</svg>
