<svg width="28" height="28" viewBox="0 0 28 28" fill="none" xmlns="http://www.w3.org/2000/svg">
<path d="M3.5 25.5V1.5H27.5V24C27.5 24.3978 27.342 24.7794 27.0607 25.0607C26.7794 25.342 26.3978 25.5 26 25.5H3.5Z" fill="#F3F3F3"/>
<path d="M24.5 5.5H6.5V10.5H24.5V5.5Z" fill="#C6D5F7"/>
<path d="M24 6V10H7V6H24ZM25 5H6V11H25V5Z" fill="#4072E5"/>
<path d="M2 25.5C1.60218 25.5 1.22064 25.342 0.93934 25.0607C0.658035 24.7794 0.5 24.3978 0.5 24V5.5H3.5V24C3.5 24.3978 3.34196 24.7794 3.06066 25.0607C2.77936 25.342 2.39782 25.5 2 25.5Z" fill="#DBDBDB"/>
<path d="M17 14H25V13H17V14ZM17 17H25V16H17V17ZM17 20H25V19H17V20ZM6 23H25V22H6V23ZM3 1V5H0V24C0 24.5304 0.210714 25.0391 0.585786 25.4142C0.960859 25.7893 1.46957 26 2 26H26C26.5304 26 27.0391 25.7893 27.4142 25.4142C27.7893 25.0391 28 24.5304 28 24V1H3ZM1 24V6H3V24C3 24.2652 2.89464 24.5196 2.70711 24.7071C2.51957 24.8946 2.26522 25 2 25C1.73478 25 1.48043 24.8946 1.29289 24.7071C1.10536 24.5196 1 24.2652 1 24ZM27 24C27 24.2652 26.8946 24.5196 26.7071 24.7071C26.5196 24.8946 26.2652 25 26 25H3.723C3.90228 24.6971 3.99787 24.352 4 24V2H27V24Z" fill="#888888"/>
<path d="M14.5 13.5H6.5V19.5H14.5V13.5Z" fill="#D1E7FF"/>
<path d="M14 14V19H7V14H14ZM15 13H6V20H15V13Z" fill="#66ADFF"/>
</svg>
