<svg width="28" height="28" viewBox="0 0 28 28" fill="none" xmlns="http://www.w3.org/2000/svg">
<path d="M11.55 22V22.5H17.45V22C17.45 20.559 18.528 19.2001 19.776 17.6241C21.5 15.4521 23.4501 12.99 23.4501 9.50005C23.4501 7.12636 22.5071 4.84989 20.8287 3.17144C19.1502 1.49299 16.8737 0.550049 14.5 0.550049C12.1264 0.550049 9.84989 1.49299 8.17144 3.17144C6.49299 4.84989 5.55005 7.12636 5.55005 9.50005C5.55005 12.99 7.50205 15.4521 9.22405 17.6241C10.472 19.2001 11.55 20.559 11.55 22Z" fill="white"/>
<path d="M13 26.5C12.6022 26.5 12.2206 26.342 11.9393 26.0607C11.658 25.7794 11.5 25.3978 11.5 25V22.5H17.5V25C17.5 25.3978 17.342 25.7794 17.0607 26.0607C16.7794 26.342 16.3978 26.5 16 26.5H13Z" fill="#E7E7E7"/>
<path d="M11 22V25C11 25.5304 11.2107 26.0391 11.5858 26.4142C11.9609 26.7893 12.4696 27 13 27C13 27.2652 13.1054 27.5196 13.2929 27.7071C13.4804 27.8946 13.7348 28 14 28H15C15.2652 28 15.5196 27.8946 15.7071 27.7071C15.8946 27.5196 16 27.2652 16 27C16.5304 27 17.0391 26.7893 17.4142 26.4142C17.7893 26.0391 18 25.5304 18 25V22H11ZM16 26H13C12.7348 26 12.4804 25.8946 12.2929 25.7071C12.1054 25.5196 12 25.2652 12 25H17C17 25.2652 16.8946 25.5196 16.7071 25.7071C16.5196 25.8946 16.2652 26 16 26ZM17 24H12V23H17V24Z" fill="#888888"/>
<path d="M12.1 22C12.1 20.367 10.967 18.938 9.655 17.283C7.989 15.181 6.1 12.8 6.1 9.5C6.1 7.27218 6.985 5.13561 8.5603 3.5603C10.1356 1.985 12.2722 1.1 14.5 1.1C16.7278 1.1 18.8644 1.985 20.4397 3.5603C22.015 5.13561 22.9 7.27218 22.9 9.5C22.9 12.8 21.011 15.181 19.345 17.283C18.033 18.938 16.9 20.367 16.9 22H18C18 18.958 24 15.75 24 9.5C24 6.98044 22.9991 4.56408 21.2175 2.78249C19.4359 1.00089 17.0196 0 14.5 0C11.9804 0 9.56408 1.00089 7.78249 2.78249C6.00089 4.56408 5 6.98044 5 9.5C5 15.75 11 18.958 11 22H12.1Z" fill="#FAA700"/>
</svg>
