<svg width="28" height="28" viewBox="0 0 28 28" fill="none" xmlns="http://www.w3.org/2000/svg">
<g clip-path="url(#clip0_144_2105)">
<path opacity="0.2" d="M9.5 28V23.25C9.5 20.765 10.41 19.75 14 19.75C17.59 19.75 18.5 20.765 18.5 23.25V28M14 11C13.4067 11 12.8266 11.1759 12.3333 11.5056C11.8399 11.8352 11.4554 12.3038 11.2284 12.8519C11.0013 13.4001 10.9419 14.0033 11.0576 14.5853C11.1734 15.1672 11.4591 15.7018 11.8787 16.1213C12.2982 16.5409 12.8328 16.8266 13.4147 16.9424C13.9967 17.0581 14.5999 16.9987 15.1481 16.7716C15.6962 16.5446 16.1648 16.1601 16.4944 15.6667C16.8241 15.1734 17 14.5933 17 14C17 13.2044 16.6839 12.4413 16.1213 11.8787C15.5587 11.3161 14.7956 11 14 11Z" fill="#444444"/>
<path d="M3.26701 22.9831C1.55661 20.9408 0.464366 18.453 0.118507 15.8117C-0.227352 13.1704 0.187536 10.4852 1.31446 8.07145C2.44138 5.6577 4.23355 3.61556 6.48056 2.18479C8.72758 0.754018 11.3361 -0.00598145 14 -0.00598145C16.6639 -0.00598145 19.2724 0.754018 21.5195 2.18479C23.7665 3.61556 25.5586 5.6577 26.6856 8.07145C27.8125 10.4852 28.2274 13.1704 27.8815 15.8117C27.5357 18.453 26.4434 20.9408 24.733 22.9831L23.951 22.2011C25.5081 20.314 26.4965 18.0231 26.8008 15.5955C27.1051 13.168 26.7129 10.704 25.6698 8.49092C24.6267 6.27789 22.9758 4.4071 20.9097 3.09683C18.8436 1.78656 16.4475 1.09084 14.001 1.09084C11.5545 1.09084 9.15838 1.78656 7.09228 3.09683C5.02619 4.4071 3.37529 6.27789 2.33221 8.49092C1.28913 10.704 0.89687 13.168 1.2012 15.5955C1.50554 18.0231 2.49391 20.314 4.05101 22.2011L3.26701 22.9831ZM6.35001 14.0001C6.34732 12.7933 6.63016 11.6031 7.1754 10.5265C7.72065 9.44999 8.51283 8.51771 9.48725 7.80585C10.4617 7.09399 11.5907 6.62275 12.782 6.43062C13.9734 6.23849 15.1933 6.33093 16.342 6.70037C17.4908 7.06982 18.5359 7.70579 19.392 8.55635C20.248 9.4069 20.8907 10.4479 21.2675 11.5943C21.6443 12.7407 21.7445 13.96 21.5601 15.1525C21.3756 16.3451 20.9116 17.4771 20.206 18.4561L20.993 19.2431C21.9703 17.9436 22.5662 16.3975 22.7139 14.7782C22.8615 13.159 22.555 11.5306 21.8288 10.0758C21.1027 8.62103 19.9855 7.39735 18.6026 6.54207C17.2198 5.68679 15.626 5.23373 14 5.23373C12.374 5.23373 10.7802 5.68679 9.39738 6.54207C8.01453 7.39735 6.89735 8.62103 6.17117 10.0758C5.44498 11.5306 5.13851 13.159 5.28615 14.7782C5.43379 16.3975 6.02969 17.9436 7.00701 19.2431L7.79401 18.4561C6.85553 17.1598 6.35019 15.6004 6.35001 14.0001Z" fill="#FF794C"/>
<path d="M14 10.5C13.3078 10.5 12.6311 10.7053 12.0555 11.0899C11.4799 11.4744 11.0313 12.0211 10.7664 12.6606C10.5015 13.3001 10.4322 14.0039 10.5673 14.6828C10.7023 15.3618 11.0356 15.9854 11.5251 16.4749C12.0146 16.9644 12.6382 17.2977 13.3172 17.4327C13.9961 17.5678 14.6999 17.4985 15.3394 17.2336C15.9789 16.9687 16.5256 16.5201 16.9101 15.9445C17.2947 15.3689 17.5 14.6922 17.5 14C17.5 13.0717 17.1313 12.1815 16.4749 11.5251C15.8185 10.8687 14.9283 10.5 14 10.5ZM14 16.5C13.5055 16.5 13.0222 16.3534 12.6111 16.0787C12.2 15.804 11.8795 15.4135 11.6903 14.9567C11.5011 14.4999 11.4516 13.9972 11.548 13.5123C11.6445 13.0273 11.8826 12.5819 12.2322 12.2322C12.5819 11.8826 13.0273 11.6445 13.5123 11.548C13.9972 11.4516 14.4999 11.5011 14.9567 11.6903C15.4135 11.8795 15.804 12.2 16.0787 12.6111C16.3534 13.0222 16.5 13.5055 16.5 14C16.5 14.663 16.2366 15.2989 15.7678 15.7678C15.2989 16.2366 14.663 16.5 14 16.5ZM19 23.25C19 20.334 17.645 19.25 14 19.25C10.355 19.25 9 20.334 9 23.25V28H10V23.25C10 21.134 10.556 20.25 14 20.25C17.444 20.25 18 21.134 18 23.25V28H19V23.25Z" fill="#444444"/>
</g>
<defs>
<clipPath id="clip0_144_2105">
<rect width="28" height="28" fill="white"/>
</clipPath>
</defs>
</svg>
