<svg width="28" height="28" viewBox="0 0 28 28" fill="none" xmlns="http://www.w3.org/2000/svg">
<g clip-path="url(#clip0_144_2104)">
<path opacity="0.5" d="M27 3H2V20H27V3Z" fill="white"/>
<path d="M26 3H3V19H26V3Z" fill="white"/>
<path d="M5 12.5V17H24V9.5L17.5 12.5L11.5 9.5L5 12.5Z" fill="#C2DEFF"/>
<path d="M24 8.94995L17.509 11.9449L11.509 8.94495L5 11.9499V13.0499L11.491 10.0549L17.491 13.0549L24 10.0499V8.94995Z" fill="#66ADFF"/>
<path d="M1 3C1 2.73478 1.10536 2.48043 1.29289 2.29289C1.48043 2.10536 1.73478 2 2 2H14V0.5C14 0.367392 14.0527 0.240215 14.1464 0.146447C14.2402 0.0526784 14.3674 0 14.5 0C14.6326 0 14.7598 0.0526784 14.8536 0.146447C14.9473 0.240215 15 0.367392 15 0.5V2H27C27.2652 2 27.5196 2.10536 27.7071 2.29289C27.8946 2.48043 28 2.73478 28 3H1ZM15 22.293V20H14V22.293L9.146 27.146C9.05211 27.2399 8.99937 27.3672 8.99937 27.5C8.99937 27.6328 9.05211 27.7601 9.146 27.854C9.23989 27.9479 9.36722 28.0006 9.5 28.0006C9.63278 28.0006 9.76011 27.9479 9.854 27.854L14 23.707V27.5C14 27.6326 14.0527 27.7598 14.1464 27.8536C14.2402 27.9473 14.3674 28 14.5 28C14.6326 28 14.7598 27.9473 14.8536 27.8536C14.9473 27.7598 15 27.6326 15 27.5V23.707L19.146 27.854C19.1925 27.9005 19.2477 27.9374 19.3084 27.9625C19.3692 27.9877 19.4343 28.0006 19.5 28.0006C19.5657 28.0006 19.6308 27.9877 19.6916 27.9625C19.7523 27.9374 19.8075 27.9005 19.854 27.854C19.9005 27.8075 19.9374 27.7523 19.9625 27.6916C19.9877 27.6308 20.0006 27.5657 20.0006 27.5C20.0006 27.4343 19.9877 27.3692 19.9625 27.3084C19.9374 27.2477 19.9005 27.1925 19.854 27.146L15 22.293Z" fill="#444444"/>
<path opacity="0.2" d="M26 3V19H3V3H2V20H27V3H26Z" fill="black"/>
</g>
<defs>
<clipPath id="clip0_144_2104">
<rect width="28" height="28" fill="white"/>
</clipPath>
</defs>
</svg>
