<svg width="28" height="28" viewBox="0 0 28 28" fill="none" xmlns="http://www.w3.org/2000/svg">
<g clip-path="url(#clip0_144_2103)">
<path d="M6.31122e-07 14C-0.000644953 11.8526 0.494001 9.7339 1.44548 7.80875C2.39696 5.88359 3.77963 4.20381 5.486 2.90002L6.158 3.77702C4.58549 4.97637 3.31098 6.52244 2.43368 8.29489C1.55638 10.0673 1.09997 12.0183 1.09997 13.996C1.09997 15.9737 1.55638 17.9247 2.43368 19.6972C3.31098 21.4696 4.58549 23.0157 6.158 24.215L5.486 25.092C3.78071 23.7891 2.39869 22.1106 1.44725 20.1869C0.495822 18.2632 0.000584945 16.1461 6.31122e-07 14ZM22.514 2.90002L21.842 3.77702C23.4145 4.97637 24.689 6.52244 25.5663 8.29489C26.4436 10.0673 26.9 12.0183 26.9 13.996C26.9 15.9737 26.4436 17.9247 25.5663 19.6972C24.689 21.4696 23.4145 23.0157 21.842 24.215L22.514 25.092C24.2199 23.7887 25.6023 22.1096 26.5538 20.1851C27.5053 18.2607 28.0003 16.1428 28.0003 13.996C28.0003 11.8492 27.5053 9.73133 26.5538 7.80692C25.6023 5.8825 24.2199 4.20338 22.514 2.90002ZM21.65 14C21.6491 15.1727 21.378 16.3294 20.8578 17.3804C20.3375 18.4314 19.582 19.3483 18.65 20.06L19.321 20.935C20.3873 20.1205 21.2513 19.0711 21.8461 17.8683C22.4408 16.6655 22.7502 15.3418 22.7502 14C22.7502 12.6582 22.4408 11.3345 21.8461 10.1318C21.2513 8.92899 20.3873 7.87956 19.321 7.06502L18.65 7.94002C19.582 8.65175 20.3375 9.56869 20.8578 10.6196C21.378 11.6706 21.6491 12.8273 21.65 14ZM6.35 14C6.35087 12.8273 6.62196 11.6706 7.14224 10.6196C7.66252 9.56869 8.41799 8.65175 9.35 7.94002L8.679 7.06502C7.61274 7.87956 6.74866 8.92899 6.15391 10.1318C5.55916 11.3345 5.24976 12.6582 5.24976 14C5.24976 15.3418 5.55916 16.6655 6.15391 17.8683C6.74866 19.0711 7.61274 20.1205 8.679 20.935L9.35 20.06C8.41799 19.3483 7.66252 18.4314 7.14224 17.3804C6.62196 16.3294 6.35087 15.1727 6.35 14ZM14 11.6C13.5253 11.6 13.0613 11.7408 12.6666 12.0045C12.272 12.2682 11.9643 12.643 11.7827 13.0816C11.601 13.5201 11.5535 14.0027 11.6461 14.4682C11.7387 14.9338 11.9673 15.3614 12.3029 15.6971C12.6386 16.0327 13.0662 16.2613 13.5318 16.3539C13.9973 16.4465 14.4799 16.399 14.9184 16.2173C15.357 16.0357 15.7318 15.7281 15.9955 15.3334C16.2592 14.9387 16.4 14.4747 16.4 14C16.4 13.3635 16.1471 12.7531 15.6971 12.303C15.247 11.8529 14.6365 11.6 14 11.6ZM14 10.5C14.6922 10.5 15.3689 10.7053 15.9445 11.0899C16.5201 11.4745 16.9687 12.0211 17.2336 12.6606C17.4985 13.3002 17.5678 14.0039 17.4327 14.6828C17.2977 15.3618 16.9644 15.9854 16.4749 16.4749C15.9854 16.9644 15.3618 17.2977 14.6828 17.4328C14.0039 17.5678 13.3002 17.4985 12.6606 17.2336C12.0211 16.9687 11.4744 16.5201 11.0899 15.9445C10.7053 15.3689 10.5 14.6923 10.5 14C10.5 13.0718 10.8687 12.1815 11.5251 11.5252C12.1815 10.8688 13.0717 10.5 14 10.5Z" fill="#FF794C"/>
</g>
<defs>
<clipPath id="clip0_144_2103">
<rect width="28" height="28" fill="white"/>
</clipPath>
</defs>
</svg>
