<svg width="28" height="28" viewBox="0 0 28 28" fill="none" xmlns="http://www.w3.org/2000/svg">
<path opacity="0.5" d="M24.5 0H4.5C3.67157 0 3 0.671573 3 1.5V26.5C3 27.3284 3.67157 28 4.5 28H24.5C25.3284 28 26 27.3284 26 26.5V1.5C26 0.671573 25.3284 0 24.5 0Z" fill="white"/>
<path d="M24.5 1H4.5C4.22386 1 4 1.22386 4 1.5V26.5C4 26.7761 4.22386 27 4.5 27H24.5C24.7761 27 25 26.7761 25 26.5V1.5C25 1.22386 24.7761 1 24.5 1Z" fill="white"/>
<path opacity="0.08" d="M24.302 21H19V26.302L24.302 21Z" fill="black"/>
<path opacity="0.2" d="M24.5 0H4.5C4.10218 0 3.72064 0.158035 3.43934 0.43934C3.15804 0.720644 3 1.10218 3 1.5V26.5C3 26.8978 3.15804 27.2794 3.43934 27.5607C3.72064 27.842 4.10218 28 4.5 28H24.5C24.8978 28 25.2794 27.842 25.5607 27.5607C25.842 27.2794 26 26.8978 26 26.5V1.5C26 1.10218 25.842 0.720644 25.5607 0.43934C25.2794 0.158035 24.8978 0 24.5 0ZM25 26.5C25 26.6326 24.9473 26.7598 24.8536 26.8536C24.7598 26.9473 24.6326 27 24.5 27H19.716L25 21.716V26.5ZM19 26.3V21H24.3L19 26.3ZM25 20H18V27H4.5C4.36739 27 4.24021 26.9473 4.14645 26.8536C4.05268 26.7598 4 26.6326 4 26.5V1.5C4 1.36739 4.05268 1.24021 4.14645 1.14645C4.24021 1.05268 4.36739 1 4.5 1H24.5C24.6326 1 24.7598 1.05268 24.8536 1.14645C24.9473 1.24021 25 1.36739 25 1.5V20Z" fill="black"/>
<path d="M21 10H10V9H21V10ZM19 12H12V13H19V12Z" fill="#444444"/>
<path d="M1.5 3.5C1.5 3.36739 1.55268 3.24021 1.64645 3.14645C1.74021 3.05268 1.86739 3 2 3H5C5.13261 3 5.25979 3.05268 5.35355 3.14645C5.44732 3.24021 5.5 3.36739 5.5 3.5C5.5 3.63261 5.44732 3.75979 5.35355 3.85355C5.25979 3.94732 5.13261 4 5 4H2C1.86739 4 1.74021 3.94732 1.64645 3.85355C1.55268 3.75979 1.5 3.63261 1.5 3.5ZM5 6H2C1.86739 6 1.74021 6.05268 1.64645 6.14645C1.55268 6.24021 1.5 6.36739 1.5 6.5C1.5 6.63261 1.55268 6.75979 1.64645 6.85355C1.74021 6.94732 1.86739 7 2 7H5C5.13261 7 5.25979 6.94732 5.35355 6.85355C5.44732 6.75979 5.5 6.63261 5.5 6.5C5.5 6.36739 5.44732 6.24021 5.35355 6.14645C5.25979 6.05268 5.13261 6 5 6ZM5 9H2C1.86739 9 1.74021 9.05268 1.64645 9.14645C1.55268 9.24021 1.5 9.36739 1.5 9.5C1.5 9.63261 1.55268 9.75979 1.64645 9.85355C1.74021 9.94732 1.86739 10 2 10H5C5.13261 10 5.25979 9.94732 5.35355 9.85355C5.44732 9.75979 5.5 9.63261 5.5 9.5C5.5 9.36739 5.44732 9.24021 5.35355 9.14645C5.25979 9.05268 5.13261 9 5 9ZM5 12H2C1.86739 12 1.74021 12.0527 1.64645 12.1464C1.55268 12.2402 1.5 12.3674 1.5 12.5C1.5 12.6326 1.55268 12.7598 1.64645 12.8536C1.74021 12.9473 1.86739 13 2 13H5C5.13261 13 5.25979 12.9473 5.35355 12.8536C5.44732 12.7598 5.5 12.6326 5.5 12.5C5.5 12.3674 5.44732 12.2402 5.35355 12.1464C5.25979 12.0527 5.13261 12 5 12ZM5 15H2C1.86739 15 1.74021 15.0527 1.64645 15.1464C1.55268 15.2402 1.5 15.3674 1.5 15.5C1.5 15.6326 1.55268 15.7598 1.64645 15.8536C1.74021 15.9473 1.86739 16 2 16H5C5.13261 16 5.25979 15.9473 5.35355 15.8536C5.44732 15.7598 5.5 15.6326 5.5 15.5C5.5 15.3674 5.44732 15.2402 5.35355 15.1464C5.25979 15.0527 5.13261 15 5 15ZM5 18H2C1.86739 18 1.74021 18.0527 1.64645 18.1464C1.55268 18.2402 1.5 18.3674 1.5 18.5C1.5 18.6326 1.55268 18.7598 1.64645 18.8536C1.74021 18.9473 1.86739 19 2 19H5C5.13261 19 5.25979 18.9473 5.35355 18.8536C5.44732 18.7598 5.5 18.6326 5.5 18.5C5.5 18.3674 5.44732 18.2402 5.35355 18.1464C5.25979 18.0527 5.13261 18 5 18ZM5 21H2C1.86739 21 1.74021 21.0527 1.64645 21.1464C1.55268 21.2402 1.5 21.3674 1.5 21.5C1.5 21.6326 1.55268 21.7598 1.64645 21.8536C1.74021 21.9473 1.86739 22 2 22H5C5.13261 22 5.25979 21.9473 5.35355 21.8536C5.44732 21.7598 5.5 21.6326 5.5 21.5C5.5 21.3674 5.44732 21.2402 5.35355 21.1464C5.25979 21.0527 5.13261 21 5 21ZM5 24H2C1.86739 24 1.74021 24.0527 1.64645 24.1464C1.55268 24.2402 1.5 24.3674 1.5 24.5C1.5 24.6326 1.55268 24.7598 1.64645 24.8536C1.74021 24.9473 1.86739 25 2 25H5C5.13261 25 5.25979 24.9473 5.35355 24.8536C5.44732 24.7598 5.5 24.6326 5.5 24.5C5.5 24.3674 5.44732 24.2402 5.35355 24.1464C5.25979 24.0527 5.13261 24 5 24Z" fill="#DB2C3A"/>
</svg>
