<svg width="28" height="28" viewBox="0 0 28 28" fill="none" xmlns="http://www.w3.org/2000/svg">
<g clip-path="url(#clip0_144_2117)">
<path opacity="0.5" d="M18.7148 0H3V28H26V7.28125L18.7148 0Z" fill="white"/>
<path d="M4 1V27H25V7.69922L18.3008 1H4Z" fill="white"/>
<path opacity="0.08" d="M19 1.69922V7H24.3008L19 1.69922Z" fill="black"/>
<path opacity="0.2" d="M21 27H4V1H18V8H25V23L21 27ZM19 1.69922L24.3008 7H19V1.69922ZM18.7188 0H3V28H26V7.28125L18.7188 0Z" fill="black"/>
<path d="M7 22H8V23H7V22ZM7 17H8V18H7V17ZM7 12H8V13H7V12Z" fill="#B0E5C3"/>
<path d="M8 22V23H7V22H8ZM9 21H6V24H9V21ZM8 17V18H7V17H8ZM9 16H6V19H9V16ZM8 12V13H7V12H8ZM9 11H6V14H9V11Z" fill="#39BF68"/>
<path d="M11 18H16.1055C16.4961 17.6172 16.9375 17.2813 17.4063 17H11V18ZM11 13H23V12H11V13ZM16 7H6V8H16V7ZM11 22V23H14C14 22.6602 14.0313 22.3281 14.0781 22H11Z" fill="#444444"/>
<path d="M20 25.707L17.6445 23.3516L18.3555 22.6445L20 24.293L23.6445 20.6445L24.3555 21.3516L20 25.707ZM21 18C18.2383 18 16 20.2383 16 23C16 25.7617 18.2383 28 21 28C23.7617 28 26 25.7617 26 23C26 20.2383 23.7617 18 21 18Z" fill="#39BF68"/>
</g>
<defs>
<clipPath id="clip0_144_2117">
<rect width="28" height="28" fill="white"/>
</clipPath>
</defs>
</svg>
