<svg width="28" height="28" viewBox="0 0 28 28" fill="none" xmlns="http://www.w3.org/2000/svg">
<path d="M3.5 8.49992V5.32792L14.5 0.544922L25.5 5.32792V8.49992H3.5ZM25 23.9999H4V24.9999H25V23.9999ZM27 25.9999H2V26.9999H27V25.9999ZM9 8.99992H6V22.9999H9V8.99992ZM16 8.99992H13V22.9999H16V8.99992ZM23 8.99992H20V22.9999H23V8.99992Z" fill="#E7E7E7"/>
<path d="M26 25V23H24V9H26V5L14.5 0L3 5V9H5V23H3V25H1V28H28V25H26ZM10 9H12V23H10V9ZM13 9H16V23H13V9ZM17 9H19V23H17V9ZM20 9H23V23H20V9ZM4 8V5.656L14.5 1.09L25 5.656V8H4ZM9 9V23H6V9H9ZM4 24H25V25H4V24ZM27 27H2V26H27V27ZM14.5 4C14.6978 4 14.8911 4.05865 15.0556 4.16853C15.22 4.27841 15.3482 4.43459 15.4239 4.61732C15.4996 4.80004 15.5194 5.00111 15.4808 5.19509C15.4422 5.38907 15.347 5.56725 15.2071 5.70711C15.0673 5.84696 14.8891 5.9422 14.6951 5.98079C14.5011 6.01937 14.3 5.99957 14.1173 5.92388C13.9346 5.84819 13.7784 5.72002 13.6685 5.55557C13.5586 5.39112 13.5 5.19778 13.5 5C13.5 4.73478 13.6054 4.48043 13.7929 4.29289C13.9804 4.10536 14.2348 4 14.5 4ZM14.5 3C14.1044 3 13.7178 3.1173 13.3889 3.33706C13.06 3.55682 12.8036 3.86918 12.6522 4.23463C12.5009 4.60009 12.4613 5.00222 12.5384 5.39018C12.6156 5.77814 12.8061 6.13451 13.0858 6.41421C13.3655 6.69392 13.7219 6.8844 14.1098 6.96157C14.4978 7.03874 14.8999 6.99913 15.2654 6.84776C15.6308 6.69638 15.9432 6.44004 16.1629 6.11114C16.3827 5.78224 16.5 5.39556 16.5 5C16.5 4.46957 16.2893 3.96086 15.9142 3.58579C15.5391 3.21071 15.0304 3 14.5 3Z" fill="#888888"/>
</svg>
