<svg width="28" height="28" viewBox="0 0 28 28" fill="none" xmlns="http://www.w3.org/2000/svg">
<path d="M3.00004 21.3469C3.15161 21.2634 3.278 21.1408 3.36602 20.9918C3.45404 20.8428 3.50048 20.673 3.50048 20.4999C3.50048 20.3269 3.45404 20.157 3.36602 20.008C3.278 19.8591 3.15161 19.7364 3.00004 19.6529V11.7529H2.00004V19.6529C1.84847 19.7364 1.72208 19.8591 1.63406 20.008C1.54603 20.157 1.4996 20.3269 1.4996 20.4999C1.4996 20.673 1.54603 20.8428 1.63406 20.9918C1.72208 21.1408 1.84847 21.2634 2.00004 21.3469V21.3999C1.56154 22.7196 1.39154 24.1136 1.50004 25.4999C1.50004 25.7759 1.94804 25.9999 2.50004 25.9999C3.05204 25.9999 3.50004 25.7759 3.50004 25.4999C3.60854 24.1136 3.43854 22.7196 3.00004 21.3999V21.3469Z" fill="#FF794C"/>
<path d="M14 23.5C9.393 23.5 5.5 21.325 5.5 18.75V11.5H22.5V18.75C22.5 21.325 18.607 23.5 14 23.5Z" fill="#8F8F8F"/>
<path d="M1.00806 10.9999L14.0001 3.57593L26.9921 10.9999L14.0001 18.4239L1.00806 10.9999Z" fill="#B4B4B4"/>
<path d="M28 11L14 3L0 11L5 13.857V18.75C5 21.649 9.029 24 14 24C18.971 24 23 21.649 23 18.75V13.857L28 11ZM14 4.152L25.984 11L14 17.848L2.016 11L14 4.152ZM22 18.752C22 21.052 18.336 23.002 14 23.002C9.664 23.002 6 21.056 6 18.752V14.429L14 19L22 14.429V18.752Z" fill="#444444"/>
</svg>
