<svg width="28" height="28" viewBox="0 0 28 28" fill="none" xmlns="http://www.w3.org/2000/svg">
<g clip-path="url(#clip0_144_2101)">
<path d="M25 7H3V26H25V7Z" fill="#DADADA"/>
<path d="M20 9.5H8C6.61929 9.5 5.5 10.6193 5.5 12V19C5.5 20.3807 6.61929 21.5 8 21.5H20C21.3807 21.5 22.5 20.3807 22.5 19V12C22.5 10.6193 21.3807 9.5 20 9.5Z" fill="#E0EFFF"/>
<path d="M18 23H19V24H18V23ZM16 24H17V23H16V24ZM23 12V19C23 19.7956 22.6839 20.5587 22.1213 21.1213C21.5587 21.6839 20.7956 22 20 22H8C7.20435 22 6.44129 21.6839 5.87868 21.1213C5.31607 20.5587 5 19.7956 5 19V12C5 11.2043 5.31607 10.4413 5.87868 9.87868C6.44129 9.31607 7.20435 9 8 9H20C20.7956 9 21.5587 9.31607 22.1213 9.87868C22.6839 10.4413 23 11.2043 23 12ZM22 12C22 11.4696 21.7893 10.9609 21.4142 10.5858C21.0391 10.2107 20.5304 10 20 10H8C7.46957 10 6.96086 10.2107 6.58579 10.5858C6.21071 10.9609 6 11.4696 6 12V19C6 19.5304 6.21071 20.0391 6.58579 20.4142C6.96086 20.7893 7.46957 21 8 21H20C20.5304 21 21.0391 20.7893 21.4142 20.4142C21.7893 20.0391 22 19.5304 22 19V12ZM26 7.75V25.25C25.9997 25.714 25.8153 26.159 25.4871 26.4871C25.159 26.8153 24.714 26.9997 24.25 27H23C23 27.2652 22.8946 27.5196 22.7071 27.7071C22.5196 27.8946 22.2652 28 22 28C21.7348 28 21.4804 27.8946 21.2929 27.7071C21.1054 27.5196 21 27.2652 21 27H7C7 27.2652 6.89464 27.5196 6.70711 27.7071C6.51957 27.8946 6.26522 28 6 28C5.73478 28 5.48043 27.8946 5.29289 27.7071C5.10536 27.5196 5 27.2652 5 27H3.75C3.28595 26.9997 2.84099 26.8153 2.51286 26.4871C2.18472 26.159 2.00026 25.714 2 25.25V7.75C2.00026 7.28595 2.18472 6.84098 2.51286 6.51285C2.84099 6.18472 3.28595 6.00026 3.75 6H10.293L5.146 0.853996L5.854 0.145996L11.707 6H16.293L22.146 0.145996L22.854 0.853996L17.707 6H24.25C24.714 6.00026 25.159 6.18472 25.4871 6.51285C25.8153 6.84098 25.9997 7.28595 26 7.75ZM25 7.75C25 7.55108 24.921 7.36032 24.7803 7.21967C24.6397 7.07901 24.4489 7 24.25 7H3.75C3.55109 7 3.36032 7.07901 3.21967 7.21967C3.07902 7.36032 3 7.55108 3 7.75V25.25C3 25.4489 3.07902 25.6397 3.21967 25.7803C3.36032 25.921 3.55109 26 3.75 26H24.25C24.4489 26 24.6397 25.921 24.7803 25.7803C24.921 25.6397 25 25.4489 25 25.25V7.75Z" fill="#444444"/>
<path d="M21 23H20V24H21V23Z" fill="#DB2C3A"/>
</g>
<defs>
<clipPath id="clip0_144_2101">
<rect width="28" height="28" fill="white"/>
</clipPath>
</defs>
</svg>
