<svg width="28" height="28" viewBox="0 0 28 28" fill="none" xmlns="http://www.w3.org/2000/svg">
<path d="M7.5 11.167L1.426 7.66C1.27709 7.56587 1.10683 7.51084 0.931 7.5C0.556 7.5 0.5 7.936 0.5 8.194V19.806C0.5 20.064 0.556 20.5 0.931 20.5C1.10683 20.4892 1.27709 20.4341 1.426 20.34L7.5 16.833V11.167Z" fill="#B4B4B4"/>
<path d="M25.25 5.5H8.75C8.05964 5.5 7.5 6.05964 7.5 6.75V21.25C7.5 21.9404 8.05964 22.5 8.75 22.5H25.25C25.9404 22.5 26.5 21.9404 26.5 21.25V6.75C26.5 6.05964 25.9404 5.5 25.25 5.5Z" fill="#DADADA"/>
<path d="M24 9H23V10H24V9Z" fill="#DB2C3A"/>
<path d="M27 9V6.75C26.9997 6.28595 26.8153 5.84099 26.4871 5.51286C26.159 5.18472 25.714 5.00026 25.25 5H8.75C8.28595 5.00026 7.84099 5.18472 7.51286 5.51286C7.18472 5.84099 7.00027 6.28595 7 6.75V10.3L1.676 7.227C1.45175 7.08758 1.19489 7.00931 0.931 7C0.38 7 0 7.439 0 8.2V19.81C0 20.566 0.381 21.01 0.931 21.01C1.19489 21.0007 1.45175 20.9224 1.676 20.783L7 17.7V21.25C7.00027 21.714 7.18472 22.159 7.51286 22.4871C7.84099 22.8153 8.28595 22.9997 8.75 23H25.25C25.714 22.9997 26.159 22.8153 26.4871 22.4871C26.8153 22.159 26.9997 21.714 27 21.25V14C27.2652 14 27.5196 13.8946 27.7071 13.7071C27.8946 13.5196 28 13.2652 28 13V10C28 9.73478 27.8946 9.48043 27.7071 9.29289C27.5196 9.10536 27.2652 9 27 9ZM7 16.544L1.176 19.907C1.12512 19.9369 1.07155 19.962 1.016 19.982C1.00462 19.9237 0.999263 19.8644 1 19.805V8.2C0.999263 8.14061 1.00462 8.0813 1.016 8.023C1.07155 8.04296 1.12512 8.06807 1.176 8.098L7 11.456V16.544ZM26 21.25C26 21.4489 25.921 21.6397 25.7803 21.7803C25.6397 21.921 25.4489 22 25.25 22H8.75C8.55109 22 8.36032 21.921 8.21967 21.7803C8.07902 21.6397 8 21.4489 8 21.25V6.75C8 6.55109 8.07902 6.36032 8.21967 6.21967C8.36032 6.07902 8.55109 6 8.75 6H25.25C25.4489 6 25.6397 6.07902 25.7803 6.21967C25.921 6.36032 26 6.55109 26 6.75V21.25ZM21 9.5C21 9.63261 20.9473 9.75979 20.8536 9.85355C20.7598 9.94732 20.6326 10 20.5 10H10.5C10.3674 10 10.2402 9.94732 10.1464 9.85355C10.0527 9.75979 10 9.63261 10 9.5C10 9.36739 10.0527 9.24021 10.1464 9.14645C10.2402 9.05268 10.3674 9 10.5 9H20.5C20.6326 9 20.7598 9.05268 20.8536 9.14645C20.9473 9.24021 21 9.36739 21 9.5Z" fill="#444444"/>
</svg>
