<svg width="16" height="16" viewBox="0 0 16 16" fill="none" xmlns="http://www.w3.org/2000/svg">
<g clip-path="url(#clip0_219_6721)">
<path fill-rule="evenodd" clip-rule="evenodd" d="M14 2.5C14 3.88071 12.8807 5 11.5 5C10.1193 5 9 3.88071 9 2.5C9 1.11929 10.1193 0 11.5 0C12.8807 0 14 1.11929 14 2.5ZM13 2.5C13 3.32843 12.3284 4 11.5 4C10.6716 4 10 3.32843 10 2.5C10 1.67157 10.6716 1 11.5 1C12.3284 1 13 1.67157 13 2.5ZM7 6.5C7 7.88071 5.88071 9 4.5 9C3.11929 9 2 7.88071 2 6.5C2 5.11929 3.11929 4 4.5 4C5.88071 4 7 5.11929 7 6.5ZM6 6.5C6 7.32843 5.32843 8 4.5 8C3.67157 8 3 7.32843 3 6.5C3 5.67157 3.67157 5 4.5 5C5.32843 5 6 5.67157 6 6.5ZM9 14.5C9 13.3065 8.52589 12.1619 7.68198 11.318C6.83807 10.4741 5.69347 10 4.5 10C3.30653 10 2.16193 10.4741 1.31802 11.318C0.474106 12.1619 0 13.3065 0 14.5V16H9V14.5ZM8 14.5C8 13.5717 7.63125 12.6815 6.97487 12.0251C6.3185 11.3687 5.42826 11 4.5 11C3.57174 11 2.6815 11.3687 2.02513 12.0251C1.36875 12.6815 1 13.5717 1 14.5V15H8V14.5ZM14.6821 7.31802C15.526 8.16193 16.0001 9.30653 16.0001 10.5V12H9.39908C9.21822 11.6456 8.99853 11.31 8.74276 11H15.0001V10.5C15.0001 9.57174 14.6313 8.6815 13.975 8.02513C13.3186 7.36875 12.4284 7 11.5001 7C10.5718 7 9.6816 7.36875 9.02522 8.02513C8.42471 8.62564 8.06495 9.42189 8.00806 10.2639C7.71984 10.0252 7.40948 9.8178 7.08228 9.64382C7.25183 8.769 7.67888 7.95725 8.31812 7.31802C9.16203 6.47411 10.3066 6 11.5001 6C12.6936 6 13.8382 6.47411 14.6821 7.31802Z" fill="#59adc4e5"/>
</g>
<defs>
<clipPath id="clip0_219_6721">
<rect width="16" height="16" fill="white"/>
</clipPath>
</defs>
</svg>
