<svg width="16" height="16" viewBox="0 0 16 16" fill="none" xmlns="http://www.w3.org/2000/svg">
<g clip-path="url(#clip0_1945_29337)">
<path fill-rule="evenodd" clip-rule="evenodd" d="M9 3H15C15.552 3 16 3.448 16 4V6V12.8786L15 11.8786V6H1V14H12.8788L13.8788 15H1C0.448 15 0 14.552 0 14V6V4C0 3.448 0.448 3 1 3H2L2.724 1.553C2.893 1.214 3.239 1 3.618 1H7.382C7.761 1 8.107 1.214 8.276 1.553L9 3ZM1 4V5H15V4H9C8.621 4 8.275 3.786 8.106 3.447L7.382 2H3.618L2.894 3.447C2.725 3.786 2.379 4 2 4H1ZM16.0001 14.2929L15.293 15L12.7383 12.4454C12.2479 12.7946 11.6479 13 11 13C9.34315 13 8 11.6569 8 10C8 8.34315 9.34315 7 11 7C12.6569 7 14 8.34315 14 10C14 10.6479 13.7946 11.2479 13.4454 11.7383L16.0001 14.2929ZM13 10C13 11.1046 12.1046 12 11 12C9.89543 12 9 11.1046 9 10C9 8.89543 9.89543 8 11 8C12.1046 8 13 8.89543 13 10Z" fill="#59adc4e5"/>
</g>
<defs>
<clipPath id="clip0_1945_29337">
<rect width="16" height="16" fill="white"/>
</clipPath>
</defs>
</svg>
