<svg width="16" height="16" viewBox="0 0 16 16" fill="none" xmlns="http://www.w3.org/2000/svg">
<path opacity="0.4" fill-rule="evenodd" clip-rule="evenodd" d="M10.4217 10.1226L11.5 9.49999L5.5 6.03589V12.9641L6.1143 12.6094C6.50822 11.1077 7.87474 10 9.5 10C9.819 10 10.128 10.0426 10.4217 10.1226Z" fill="white"/>
<path fill-rule="evenodd" clip-rule="evenodd" d="M5.5 6.03589L11.5 9.49999L10.4217 10.1226C10.128 10.0426 9.819 10 9.5 10C9.04314 10 8.60673 10.0875 8.20661 10.2467L9.5 9.49999L6.5 7.76794L6.5 11.232L7.33394 10.7506C6.74571 11.2146 6.30999 11.8634 6.1143 12.6094L5.5 12.9641V6.03589Z" fill="white"/>
<path fill-rule="evenodd" clip-rule="evenodd" d="M9.5 11C10.3178 11 11.0439 11.3927 11.5 11.9998C11.9561 11.3927 12.6822 11 13.5 11C14.8807 11 16 12.1193 16 13.5C16 14.8807 14.8807 16 13.5 16C12.6822 16 11.9561 15.6073 11.5 15.0002C11.0439 15.6073 10.3178 16 9.5 16C8.11929 16 7 14.8807 7 13.5C7 12.1193 8.11929 11 9.5 11ZM10.9146 13H9.5C9.22386 13 9 13.2239 9 13.5C9 13.7761 9.22386 14 9.5 14H10.9146C10.7087 14.5826 10.1531 15 9.5 15C8.67157 15 8 14.3284 8 13.5C8 12.6716 8.67157 12 9.5 12C10.1531 12 10.7087 12.4174 10.9146 13ZM12.0854 14H13.5C13.7761 14 14 13.7761 14 13.5C14 13.2239 13.7761 13 13.5 13H12.0854C12.2913 12.4174 12.8469 12 13.5 12C14.3284 12 15 12.6716 15 13.5C15 14.3284 14.3284 15 13.5 15C12.8469 15 12.2913 14.5826 12.0854 14Z" fill="white"/>
<path opacity="0.4" d="M10 1.70703V4.5H12.793L10 1.70703Z" fill="white"/>
<path fill-rule="evenodd" clip-rule="evenodd" d="M1.5 0H9.707L14.5 4.793V10.1449C14.1831 10.0506 13.8475 10 13.5 10V5.5H9V1H2.5V15H6.33679C6.51484 15.3748 6.75753 15.7129 7.05047 16H1.5V0ZM12.793 4.5L10 1.707V4.5H12.793Z" fill="white"/>
</svg>
