<svg width="16" height="16" viewBox="0 0 16 16" fill="none" xmlns="http://www.w3.org/2000/svg">
<path fill-rule="evenodd" clip-rule="evenodd" d="M15 4V2H14.9999L12.9999 4H15ZM4.41421 2H6.52856L4.52856 4H2.41421L4.41421 2ZM5.94278 4L7.94278 2H10.0571L8.05713 4H5.94278ZM9.47134 4H11.5857L13.5857 2H11.4713L9.47134 4ZM3 2H1V4L3 2ZM15 5H1V14H6.03544C6.08594 14.3531 6.18913 14.6892 6.33679 15H0V1H16V11.0505C15.7129 10.7575 15.3748 10.5148 15 10.3368V5ZM10.7789 10.2409L12.0622 9.5L6 6V13L6.03871 12.9776C6.1502 12.2325 6.49655 11.5642 7 11.0505V7.73205L10.0622 9.5L9.16948 10.0154C9.27828 10.0052 9.38853 10 9.5 10C9.95135 10 10.3828 10.0854 10.7789 10.2409Z" fill="white"/>
<path fill-rule="evenodd" clip-rule="evenodd" d="M9.5 11C10.3178 11 11.0439 11.3927 11.5 11.9998C11.9561 11.3927 12.6822 11 13.5 11C14.8807 11 16 12.1193 16 13.5C16 14.8807 14.8807 16 13.5 16C12.6822 16 11.9561 15.6073 11.5 15.0002C11.0439 15.6073 10.3178 16 9.5 16C8.11929 16 7 14.8807 7 13.5C7 12.1193 8.11929 11 9.5 11ZM10.9146 13H9.5C9.22386 13 9 13.2239 9 13.5C9 13.7761 9.22386 14 9.5 14H10.9146C10.7087 14.5826 10.1531 15 9.5 15C8.67157 15 8 14.3284 8 13.5C8 12.6716 8.67157 12 9.5 12C10.1531 12 10.7087 12.4174 10.9146 13ZM12.0854 14H13.5C13.7761 14 14 13.7761 14 13.5C14 13.2239 13.7761 13 13.5 13H12.0854C12.2913 12.4174 12.8469 12 13.5 12C14.3284 12 15 12.6716 15 13.5C15 14.3284 14.3284 15 13.5 15C12.8469 15 12.2913 14.5826 12.0854 14Z" fill="white"/>
<path opacity="0.2" fill-rule="evenodd" clip-rule="evenodd" d="M15 5H1V14H6.03544C6.01208 13.8367 6 13.6698 6 13.5C6 13.3225 6.01321 13.1481 6.03871 12.9777L6 13L6 6L12.0622 9.5L10.7789 10.2409C11.0354 10.3416 11.2772 10.4718 11.5 10.6272C12.0669 10.2317 12.7564 10 13.5 10C14.0368 10 14.5454 10.1208 15 10.3368V5Z" fill="white"/>
<path opacity="0.4" fill-rule="evenodd" clip-rule="evenodd" d="M10.0622 9.49988L7 7.73193V11.0503C7.56295 10.4759 8.32235 10.0946 9.16948 10.0153L10.0622 9.49988Z" fill="white"/>
</svg>
