<svg width="16" height="16" viewBox="0 0 16 16" fill="none" xmlns="http://www.w3.org/2000/svg">
<path opacity="0.2" d="M14 2H1V5H14V2Z" fill="white"/>
<path opacity="0.4" d="M9.5 10C10.23 10 10.922 10.223 11.5 10.632C11.805 10.416 12.143 10.256 12.5 10.149V8.5H2.5V12.5H6.163C6.596 11.059 7.92 10 9.5 10Z" fill="white"/>
<path d="M3 4H2V3H3V4ZM5 3H4V4H5V3ZM7 3H6V4H7V3ZM6.351 15H0V2C0 1.448 0.448 1 1 1H14C14.552 1 15 1.448 15 2V10.351C14.689 10.202 14.354 10.102 14 10.051V6H1V14H6.051C6.102 14.354 6.202 14.689 6.351 15ZM1 5H14V2H1V5ZM6.351 12H3V9H12V10.342C12.314 10.191 12.65 10.088 13 10.038V8H2V13H6.051C6.102 12.646 6.202 12.311 6.351 12ZM13.5 11C12.678 11 11.956 11.402 11.5 12.014C11.044 11.402 10.321 11 9.5 11C8.119 11 7 12.119 7 13.5C7 14.881 8.119 16 9.5 16C10.322 16 11.045 15.598 11.5 14.986C11.956 15.598 12.678 16 13.5 16C14.881 16 16 14.881 16 13.5C16 12.119 14.881 11 13.5 11ZM9.5 15C8.673 15 8 14.327 8 13.5C8 12.673 8.673 12 9.5 12C10.151 12 10.701 12.419 10.908 13H9.5C9.224 13 9 13.224 9 13.5C9 13.776 9.224 14 9.5 14H10.908C10.701 14.581 10.151 15 9.5 15ZM13.5 15C12.849 15 12.299 14.581 12.092 14H13.5C13.776 14 14 13.776 14 13.5C14 13.224 13.776 13 13.5 13H12.092C12.299 12.419 12.849 12 13.5 12C14.327 12 15 12.673 15 13.5C15 14.327 14.327 15 13.5 15Z" fill="white"/>
</svg>
