<svg width="16" height="16" viewBox="0 0 16 16" fill="none" xmlns="http://www.w3.org/2000/svg">
<path opacity="0.2" d="M14 2H1V5H14V2Z" fill="white"/>
<path opacity="0.4" d="M5 9.5H2.5V12.5H5V9.5Z" fill="white"/>
<path opacity="0.2" d="M11 13.5C11.8284 13.5 12.5 12.8284 12.5 12C12.5 11.1716 11.8284 10.5 11 10.5C10.1716 10.5 9.5 11.1716 9.5 12C9.5 12.8284 10.1716 13.5 11 13.5Z" fill="white"/>
<path opacity="0.4" d="M15 8.5H7C6.725 8.5 6.5 8.725 6.5 9V15C6.5 15.275 6.725 15.5 7 15.5H15C15.275 15.5 15.5 15.275 15.5 15V9C15.5 8.725 15.275 8.5 15 8.5ZM11 13.5C10.173 13.5 9.5 12.827 9.5 12C9.5 11.173 10.173 10.5 11 10.5C11.827 10.5 12.5 11.173 12.5 12C12.5 12.827 11.827 13.5 11 13.5Z" fill="white"/>
<path d="M11 14C12.105 14 13 13.105 13 12C13 10.895 12.105 10 11 10C9.895 10 9 10.895 9 12C9 13.105 9.895 14 11 14ZM11 11C11.551 11 12 11.449 12 12C12 12.551 11.551 13 11 13C10.449 13 10 12.551 10 12C10 11.449 10.449 11 11 11ZM15 8V2C15 1.448 14.552 1 14 1H1C0.448 1 0 1.448 0 2V15H6C6 15.552 6.448 16 7 16H15C15.552 16 16 15.552 16 15V9C16 8.448 15.552 8 15 8ZM1 2H14V5H1V2ZM6 9V14H1V6H14V8H7C6.448 8 6 8.448 6 9ZM15 15H7V9H15V15ZM14 10.5H13V9.5H14V10.5ZM2 3H3V4H2V3ZM4 3H5V4H4V3ZM2 9H5V10H3V12H5V13H2V9ZM6 3H7V4H6V3Z" fill="white"/>
</svg>
