<svg width="16" height="16" viewBox="0 0 16 16" fill="none" xmlns="http://www.w3.org/2000/svg">
<g clip-path="url(#clip0_1960_15938)">
<path opacity="0.4" d="M8 4H1V6H8V4Z" fill="white"/>
<path opacity="0.4" fill-rule="evenodd" clip-rule="evenodd" d="M13 10.0354V2L14 3V10.0354C13.8367 10.0121 13.6698 10 13.5 10C13.3302 10 13.1633 10.0121 13 10.0354ZM6.03544 13H4L5 14H6.03544C6.01209 13.8367 6 13.6698 6 13.5C6 13.3302 6.01209 13.1633 6.03544 13Z" fill="white"/>
<path fill-rule="evenodd" clip-rule="evenodd" d="M2 1V3H0V7H2V12C2 12.276 2.112 12.526 2.293 12.707L4.293 14.707C4.474 14.888 4.724 15 5 15H6.33682C6.18915 14.6891 6.08595 14.3531 6.03544 14H5L4 13H6.03544C6.08595 12.6469 6.18915 12.3109 6.33682 12H5V7H9V3H5V1H12V10.3368C12.3109 10.1891 12.6469 10.0859 13 10.0354V2L14 3V10.0354C14.3531 10.0859 14.6891 10.1891 15 10.3368V3C15 2.448 14.552 2 14 2H13V1C13 0.448 12.552 0 12 0H3C2.448 0 2 0.448 2 1ZM4 1V3H3V1H4ZM3 12V7H4V12H3ZM8 4H1V6H8V4Z" fill="white"/>
<path fill-rule="evenodd" clip-rule="evenodd" d="M9.5 11C10.3178 11 11.0439 11.3927 11.5 11.9998C11.9561 11.3927 12.6822 11 13.5 11C14.8807 11 16 12.1193 16 13.5C16 14.8807 14.8807 16 13.5 16C12.6822 16 11.9561 15.6073 11.5 15.0002C11.0439 15.6073 10.3178 16 9.5 16C8.11929 16 7 14.8807 7 13.5C7 12.1193 8.11929 11 9.5 11ZM10.9146 13H9.5C9.22386 13 9 13.2239 9 13.5C9 13.7761 9.22386 14 9.5 14H10.9146C10.7087 14.5826 10.1531 15 9.5 15C8.67157 15 8 14.3284 8 13.5C8 12.6716 8.67157 12 9.5 12C10.1531 12 10.7087 12.4174 10.9146 13ZM12.0854 14H13.5C13.7761 14 14 13.7761 14 13.5C14 13.2239 13.7761 13 13.5 13H12.0854C12.2913 12.4174 12.8469 12 13.5 12C14.3284 12 15 12.6716 15 13.5C15 14.3284 14.3284 15 13.5 15C12.8469 15 12.2913 14.5826 12.0854 14Z" fill="white"/>
</g>
<defs>
<clipPath id="clip0_1960_15938">
<rect width="16" height="16" fill="white"/>
</clipPath>
</defs>
</svg>
