<svg width="16" height="16" viewBox="0 0 16 16" fill="none" xmlns="http://www.w3.org/2000/svg">
<path fill-rule="evenodd" clip-rule="evenodd" d="M15 4V2H14.9999L12.9999 4H15ZM4.41421 2H6.52856L4.52856 4H2.41421L4.41421 2ZM5.94278 4L7.94278 2H10.0571L8.05713 4H5.94278ZM9.47134 4H11.5857L13.5857 2H11.4713L9.47134 4ZM3 2H1V4L3 2ZM15 5H1V14H15V5ZM0 1H16V15H0V1Z" fill="white"/>
<path opacity="0.2" fill-rule="evenodd" clip-rule="evenodd" d="M1 5H15V14H1V5ZM6 12.5L11.1962 9.5L6 6.5L6 12.5Z" fill="white"/>
<path opacity="0.4" d="M7 8.23193L9.19615 9.49988L7 10.7678V8.23193Z" fill="white"/>
<path fill-rule="evenodd" clip-rule="evenodd" d="M11.1962 9.5L6 6.5V12.5L11.1962 9.5ZM9.19615 9.5L7 8.23205V10.7679L9.19615 9.5Z" fill="white"/>
</svg>
