<svg width="16" height="16" viewBox="0 0 16 16" fill="none" xmlns="http://www.w3.org/2000/svg">
<g clip-path="url(#clip0_143_1398)">
<path opacity="0.4" d="M13.293 4.00003H11V1.70703L13.293 4.00003ZM7 6.00003V4.00003H1V6.00003H7Z" fill="white"/>
<path d="M13.5 11C12.678 11 11.956 11.402 11.5 12.014C11.044 11.402 10.321 11 9.5 11C8.119 11 7 12.119 7 13.5C7 14.881 8.119 16 9.5 16C10.322 16 11.045 15.598 11.5 14.986C11.956 15.598 12.678 16 13.5 16C14.881 16 16 14.881 16 13.5C16 12.119 14.881 11 13.5 11ZM9.5 15C8.673 15 8 14.327 8 13.5C8 12.673 8.673 12 9.5 12C10.151 12 10.701 12.419 10.908 13H9.5C9.224 13 9 13.224 9 13.5C9 13.776 9.224 14 9.5 14H10.908C10.701 14.581 10.151 15 9.5 15ZM13.5 15C12.849 15 12.299 14.581 12.092 14H13.5C13.776 14 14 13.776 14 13.5C14 13.224 13.776 13 13.5 13H12.092C12.299 12.419 12.849 12 13.5 12C14.327 12 15 12.673 15 13.5C15 14.327 14.327 15 13.5 15ZM10.707 0H3V3H0V7H3V15H6V14H4V7H8V3H4V1H10V5H14V10H15V4.293L10.707 0ZM7 4V6H1V4H7ZM11 4V1.707L13.293 4H11Z" fill="white"/>
</g>
<defs>
<clipPath id="clip0_143_1398">
<rect width="16" height="16" fill="white"/>
</clipPath>
</defs>
</svg>
