<svg width="16" height="16" viewBox="0 0 16 16" fill="none" xmlns="http://www.w3.org/2000/svg">
<path opacity="0.2" d="M6.5 2.5C6.5 1.673 7.173 1 8 1C8.827 1 9.5 1.673 9.5 2.5V8.5C9.5 9.327 8.827 10 8 10C7.173 10 6.5 9.327 6.5 8.5V2.5Z" fill="white"/>
<path d="M8 0C6.619 0 5.5 1.119 5.5 2.5V8.5C5.5 9.881 6.619 11 8 11C9.381 11 10.5 9.881 10.5 8.5V2.5C10.5 1.119 9.381 0 8 0ZM9.5 8.5C9.5 9.327 8.827 10 8 10C7.173 10 6.5 9.327 6.5 8.5V2.5C6.5 1.673 7.173 1 8 1C8.827 1 9.5 1.673 9.5 2.5V8.5ZM8.5 12.949V15H11.5V16H4.5V15H7.5V12.949C5.256 12.697 3.5 10.81 3.5 8.5V6H4.5V8.5C4.5 10.43 6.07 12 8 12C9.93 12 11.5 10.43 11.5 8.5V6H12.5V8.5C12.5 10.81 10.744 12.697 8.5 12.949Z" fill="white"/>
</svg>
