<svg width="16" height="16" viewBox="0 0 16 16" fill="none" xmlns="http://www.w3.org/2000/svg">
<path opacity="0.2" d="M7 2.5C7 1.673 7.673 1 8.5 1C9.327 1 10 1.673 10 2.5V8.5C10 9.327 9.327 10 8.5 10C7.673 10 7 9.327 7 8.5V2.5Z" fill="white"/>
<path d="M8.5 0C7.119 0 6 1.119 6 2.5V8.5C6 9.881 7.119 11 8.5 11C9.881 11 11 9.881 11 8.5V2.5C11 1.119 9.881 0 8.5 0ZM10 8.5C10 9.327 9.327 10 8.5 10C7.673 10 7 9.327 7 8.5V2.5C7 1.673 7.673 1 8.5 1C9.327 1 10 1.673 10 2.5V8.5ZM9 12.949V15H12V16H5V15H8V12.949C5.756 12.697 4 10.81 4 8.5V6H5V8.5C5 10.43 6.57 12 8.5 12C10.43 12 12 10.43 12 8.5V6H13V8.5C13 10.81 11.244 12.697 9 12.949Z" fill="white"/>
</svg>
