<svg width="16" height="16" viewBox="0 0 16 16" fill="none" xmlns="http://www.w3.org/2000/svg">
<path d="M13 8.5C13 6.496 10.963 5.782 9.165 5.153C7.253 4.484 6 3.955 6 2.75C6 1.687 6.981 1 8.5 1C10.019 1 11 1.785 11 3H12C12 1.206 10.594 0 8.5 0C6.406 0 5 1.105 5 2.75C5 3.338 5.189 3.805 5.482 4.201C4.559 4.668 4 5.473 4 6.5C4 8.505 6.037 9.218 7.835 9.847C9.747 10.517 11 11.045 11 12.25C11 13.313 10.019 14 8.5 14C6.981 14 6 13.215 6 12H5C5 13.794 6.406 15 8.5 15C10.594 15 12 13.895 12 12.25C12 11.665 11.813 11.2 11.522 10.805C12.444 10.337 13 9.527 13 8.5ZM10.732 10.046C10.001 9.547 9.055 9.215 8.165 8.903C6.253 8.233 5 7.705 5 6.5C5 5.768 5.47 5.22 6.257 4.947C6.989 5.45 7.941 5.784 8.835 6.097C10.747 6.766 12 7.295 12 8.5C12 9.232 11.518 9.772 10.732 10.046Z" fill="white"/>
</svg>
