<svg width="16" height="16" viewBox="0 0 16 16" fill="none" xmlns="http://www.w3.org/2000/svg">
<path d="M12.5 9C12.5 6.996 10.463 6.282 8.665 5.653C6.753 4.984 5.5 4.455 5.5 3.25C5.5 2.187 6.481 1.5 8 1.5C9.519 1.5 10.5 2.285 10.5 3.5H11.5C11.5 1.706 10.094 0.5 8 0.5C5.906 0.5 4.5 1.605 4.5 3.25C4.5 3.838 4.689 4.305 4.982 4.701C4.059 5.168 3.5 5.973 3.5 7C3.5 9.005 5.537 9.718 7.335 10.347C9.247 11.017 10.5 11.545 10.5 12.75C10.5 13.813 9.519 14.5 8 14.5C6.481 14.5 5.5 13.715 5.5 12.5H4.5C4.5 14.294 5.906 15.5 8 15.5C10.094 15.5 11.5 14.395 11.5 12.75C11.5 12.165 11.313 11.7 11.022 11.305C11.944 10.837 12.5 10.027 12.5 9ZM10.232 10.546C9.501 10.047 8.555 9.715 7.665 9.403C5.753 8.733 4.5 8.205 4.5 7C4.5 6.268 4.97 5.72 5.757 5.447C6.489 5.95 7.441 6.284 8.335 6.597C10.247 7.266 11.5 7.795 11.5 9C11.5 9.732 11.018 10.272 10.232 10.546Z" fill="white"/>
</svg>
