<svg width="16" height="16" viewBox="0 0 16 16" fill="none" xmlns="http://www.w3.org/2000/svg">
<g clip-path="url(#clip0_143_1390)">
<path opacity="0.2" d="M7.938 1.872L7.719 1.723C6.789 1.092 4.296 0.608 1.516 0.517L1 0.5V13.5L1.485 13.515C3.841 13.585 5.97 13.919 7.324 14.429L8 14.684V2.179L7.938 1.872Z" fill="white"/>
<path d="M13.5 4.06601C11.813 4.17901 10.451 4.42401 9.5 4.71101V3.67001C10.581 3.37501 11.966 3.17001 13.5 3.07001V4.06601ZM13.5 6.06601C11.813 6.17901 10.451 6.42401 9.5 6.71101V5.67001C10.581 5.37501 11.966 5.16901 13.5 5.07001V6.06601ZM13.5 10.066C11.813 10.179 10.451 10.424 9.5 10.711V9.67001C10.581 9.37501 11.966 9.16901 13.5 9.07001V10.066ZM13.5 8.06601C11.813 8.17901 10.451 8.42401 9.5 8.71101V7.67001C10.581 7.37501 11.966 7.16901 13.5 7.07001V8.06601Z" fill="white"/>
<path d="M8 1.309C6.874 0.546 3.946 0 0.5 0V14C3.519 14 6.14 14.419 7.5 15.036C7.693 15.123 7.86 15.215 8 15.309C8.14 15.214 8.307 15.123 8.5 15.036C9.86 14.419 12.481 14 15.5 14V0C12.054 0 9.126 0.546 8 1.309ZM7.5 13.96C6.087 13.428 3.934 13.087 1.5 13.014V1.016C4.461 1.113 6.688 1.628 7.439 2.137L7.5 2.179V13.961V13.96ZM14.5 13.014C12.066 13.087 9.913 13.428 8.5 13.96V2.179L8.561 2.137C9.312 1.628 11.539 1.113 14.5 1.016V13.015V13.014Z" fill="white"/>
</g>
<defs>
<clipPath id="clip0_143_1390">
<rect width="16" height="16" fill="white"/>
</clipPath>
</defs>
</svg>
