<svg width="16" height="16" viewBox="0 0 16 16" fill="none" xmlns="http://www.w3.org/2000/svg">
<path opacity="0.4" d="M5.5 10.5C5.5 11.839 4.84 12.5 3.5 12.5C2.16 12.5 1.5 11.839 1.5 10.5H5.5ZM11.5 10.5C11.5 11.839 12.16 12.5 13.5 12.5C14.84 12.5 15.5 11.839 15.5 10.5H11.5Z" fill="white"/>
<path d="M15.983 10.417C15.98 10.399 15.986 10.38 15.98 10.362L13.98 3.362C13.919 3.147 13.722 2.999 13.499 2.999C13.276 2.999 13.08 3.147 13.018 3.362L11.018 10.362C11.013 10.38 11.018 10.399 11.015 10.417C11.01 10.445 10.998 10.47 10.998 10.5C10.998 12.112 11.886 13 13.498 13C15.11 13 15.998 12.112 15.998 10.5C15.998 10.471 15.986 10.445 15.981 10.417H15.983ZM13.5 5.32L14.837 10H12.163L13.5 5.32ZM13.5 12C12.62 12 12.17 11.703 12.041 11H14.959C14.83 11.703 14.38 12 13.5 12ZM6 10.5C6 10.47 5.988 10.445 5.983 10.417C5.98 10.399 5.986 10.381 5.98 10.363L3.981 3.363C3.92 3.148 3.723 3 3.5 3C3.277 3 3.081 3.148 3.019 3.363L1.019 10.363C1.014 10.381 1.019 10.4 1.016 10.419C1.011 10.447 1 10.472 1 10.501C1 12.113 1.888 13.001 3.5 13.001C5.112 13.001 6 12.113 6 10.501V10.5ZM3.5 5.32L4.837 10H2.163L3.5 5.32ZM3.5 12C2.62 12 2.17 11.703 2.041 11H4.959C4.83 11.703 4.38 12 3.5 12ZM13.5 3H3.5C3.224 3 3 2.776 3 2.5C3 2.224 3.224 2 3.5 2H8V0.5C8 0.224 8.224 0 8.5 0C8.776 0 9 0.224 9 0.5V2H13.5C13.776 2 14 2.224 14 2.5C14 2.776 13.776 3 13.5 3ZM12 15.5C12 15.776 11.776 16 11.5 16H5.5C5.224 16 5 15.776 5 15.5C5 15.224 5.224 15 5.5 15H7C7 14.448 7.448 14 8 14V4H9V14C9.552 14 10 14.448 10 15H11.5C11.776 15 12 15.224 12 15.5Z" fill="white"/>
</svg>
