<svg width="16" height="16" viewBox="0 0 16 16" fill="none" xmlns="http://www.w3.org/2000/svg">
<g clip-path="url(#clip0_143_1394)">
<path opacity="0.4" d="M5 10.5C5 11.839 4.34 12.5 3 12.5C1.66 12.5 1 11.839 1 10.5H5ZM11 10.5C11 11.839 11.66 12.5 13 12.5C14.34 12.5 15 11.839 15 10.5H11Z" fill="white"/>
<path d="M15.483 10.417C15.48 10.399 15.486 10.38 15.48 10.362L13.48 3.362C13.419 3.147 13.222 2.999 12.999 2.999C12.776 2.999 12.58 3.147 12.518 3.362L10.518 10.362C10.513 10.38 10.518 10.399 10.515 10.417C10.51 10.445 10.498 10.47 10.498 10.5C10.498 12.112 11.386 13 12.998 13C14.61 13 15.498 12.112 15.498 10.5C15.498 10.471 15.486 10.445 15.481 10.417H15.483ZM13 5.32L14.337 10H11.663L13 5.32ZM13 12C12.12 12 11.67 11.703 11.541 11H14.459C14.33 11.703 13.88 12 13 12ZM5.5 10.5C5.5 10.47 5.488 10.445 5.483 10.417C5.48 10.399 5.486 10.381 5.48 10.363L3.481 3.363C3.42 3.148 3.223 3 3 3C2.777 3 2.581 3.148 2.519 3.363L0.519 10.363C0.514 10.381 0.519 10.4 0.516 10.419C0.511 10.447 0.5 10.472 0.5 10.501C0.5 12.113 1.388 13.001 3 13.001C4.612 13.001 5.5 12.113 5.5 10.501V10.5ZM3 5.32L4.337 10H1.663L3 5.32ZM3 12C2.12 12 1.67 11.703 1.541 11H4.459C4.33 11.703 3.88 12 3 12ZM13 3H3C2.724 3 2.5 2.776 2.5 2.5C2.5 2.224 2.724 2 3 2H7.5V0.5C7.5 0.224 7.724 0 8 0C8.276 0 8.5 0.224 8.5 0.5V2H13C13.276 2 13.5 2.224 13.5 2.5C13.5 2.776 13.276 3 13 3ZM11.5 15.5C11.5 15.776 11.276 16 11 16H5C4.724 16 4.5 15.776 4.5 15.5C4.5 15.224 4.724 15 5 15H6.5C6.5 14.448 6.948 14 7.5 14V4H8.5V14C9.052 14 9.5 14.448 9.5 15H11C11.276 15 11.5 15.224 11.5 15.5Z" fill="white"/>
</g>
<defs>
<clipPath id="clip0_143_1394">
<rect width="16" height="16" fill="white"/>
</clipPath>
</defs>
</svg>
