<svg width="16" height="16" viewBox="0 0 16 16" fill="none" xmlns="http://www.w3.org/2000/svg">
<path opacity="0.2" d="M11 5H5V15H11V5Z" fill="white"/>
<path d="M10.5 2.99998C10.372 2.99998 10.244 2.95098 10.146 2.85398L8.14601 0.853982C7.95101 0.658982 7.95101 0.341982 8.14601 0.146982C8.34101 -0.0480176 8.65801 -0.0480176 8.85301 0.146982L10.853 2.14698C11.048 2.34198 11.048 2.65898 10.853 2.85398C10.755 2.95198 10.627 2.99998 10.499 2.99998H10.5Z" fill="white"/>
<path opacity="0.4" d="M1.59009 2.5L2.42309 7.5H4.50009V4.5H11.5001V7.5H13.5761L14.4101 2.5H1.59009Z" fill="white"/>
<path d="M14 8L15 2H1L2 8H4V15H2V16H14V15H12V8H14ZM2.847 7L2.18 3H13.819L13.152 7H11.999V4H4V7H2.847ZM11 15H5V5H11V15Z" fill="white"/>
</svg>
