<svg width="16" height="16" viewBox="0 0 16 16" fill="none" xmlns="http://www.w3.org/2000/svg">
<g clip-path="url(#clip0_143_1371)">
<path d="M10 5V5.995C9.474 5.388 8.721 5 7.875 5C6.287 5 5 6.343 5 8C5 9.657 6.287 11 7.875 11C8.829 11 9.668 10.51 10.191 9.763C10.567 10.488 11.459 11 12.5 11C14.43 11 16 9.206 16 7C16 3.141 12.411 0 8 0C3.589 0 0 3.589 0 8C0 12.411 3.589 16 8 16C9.966 16 11.86 15.272 13.334 13.951L12.666 13.207C11.376 14.363 9.719 15 8 15C4.14 15 1 11.859 1 8C1 4.141 4.14 1 8 1C11.86 1 15 3.691 15 7C15 8.654 13.878 10 12.5 10C11.687 10 11 9.542 11 9V5H10ZM8 10C6.897 10 6 9.103 6 8C6 6.897 6.897 6 8 6C9.103 6 10 6.897 10 8C10 9.103 9.103 10 8 10Z" fill="white"/>
</g>
<defs>
<clipPath id="clip0_143_1371">
<rect width="16" height="16" fill="white"/>
</clipPath>
</defs>
</svg>
