<svg width="16" height="16" viewBox="0 0 16 16" fill="none" xmlns="http://www.w3.org/2000/svg">
<path opacity="0.4" d="M4 1.15698C4.732 1.23398 5.405 1.33898 6 1.46798V10.141L5.551 9.84498L5.142 9.57498L4.678 9.73298L4 9.96298V1.15698Z" fill="white"/>
<path d="M8.5 1.309C7.374 0.546 4.446 0 1 0V14C4.019 14 6.64 14.419 8 15.036C8.193 15.123 8.36 15.215 8.5 15.309C8.64 15.214 8.807 15.123 9 15.036C10.36 14.419 12.981 14 16 14V0C12.554 0 9.626 0.546 8.5 1.309ZM6 1.468V10.141L5.551 9.845L5.142 9.575L4.678 9.733L4 9.963V1.157C4.732 1.234 5.405 1.339 6 1.468ZM8 13.96C6.587 13.428 4.434 13.087 2 13.014V1.016C2.344 1.027 2.677 1.045 3 1.067V11.358L5 10.679L7 12V1.728C7.41 1.859 7.734 1.998 7.939 2.137L8 2.179V13.961V13.96ZM15 13.014C12.566 13.087 10.413 13.428 9 13.96V2.179L9.061 2.137C9.812 1.628 12.039 1.113 15 1.016V13.015V13.014Z" fill="white"/>
</svg>
