<svg width="16" height="16" viewBox="0 0 16 16" fill="none" xmlns="http://www.w3.org/2000/svg">
<g clip-path="url(#clip0_1358_85237)">
<path opacity="0.4" d="M3.5 1.65698C4.232 1.73398 4.905 1.83898 5.5 1.96798V10.641L5.051 10.345L4.642 10.075L4.178 10.233L3.5 10.463V1.65698Z" fill="white"/>
<path d="M8 1.809C6.874 1.046 3.946 0.5 0.5 0.5V14.5C3.519 14.5 6.14 14.919 7.5 15.536C7.693 15.623 7.86 15.715 8 15.809C8.14 15.714 8.307 15.623 8.5 15.536C9.86 14.919 12.481 14.5 15.5 14.5V0.5C12.054 0.5 9.126 1.046 8 1.809ZM5.5 1.968V10.641L5.051 10.345L4.642 10.075L4.178 10.233L3.5 10.463V1.657C4.232 1.734 4.905 1.839 5.5 1.968ZM7.5 14.46C6.087 13.928 3.934 13.587 1.5 13.514V1.516C1.844 1.527 2.177 1.545 2.5 1.567V11.858L4.5 11.179L6.5 12.5V2.228C6.91 2.359 7.234 2.498 7.439 2.637L7.5 2.679V14.461V14.46ZM14.5 13.514C12.066 13.587 9.913 13.928 8.5 14.46V2.679L8.561 2.637C9.312 2.128 11.539 1.613 14.5 1.516V13.515V13.514Z" fill="white"/>
</g>
<defs>
<clipPath id="clip0_1358_85237">
<rect width="16" height="16" fill="white"/>
</clipPath>
</defs>
</svg>
