<svg width="16" height="16" viewBox="0 0 16 16" fill="none" xmlns="http://www.w3.org/2000/svg">
<g clip-path="url(#clip0_143_1368)">
<path opacity="0.2" d="M5 12.5C1.41 12.5 0.5 13.515 0.5 16H9.5C9.5 13.515 8.59 12.5 5 12.5Z" fill="white"/>
<path d="M5 13C8.444 13 9 13.885 9 16H10C10 13.084 8.645 12 5 12C1.355 12 0 13.084 0 16H1C1 13.885 1.556 13 5 13Z" fill="white"/>
<path opacity="0.2" d="M5.288 5.529C5.192 5.518 5.098 5.5 5 5.5C3.621 5.5 2.5 6.621 2.5 8C2.5 9.379 3.621 10.5 5 10.5C6.361 10.5 7.466 9.406 7.495 8.052C6.468 7.434 5.683 6.555 5.288 5.529Z" fill="white"/>
<path d="M6.969 7.69598C6.984 7.79598 7 7.89598 7 7.99998C7 9.10298 6.103 9.99998 5 9.99998C3.897 9.99998 3 9.10298 3 7.99998C3 6.89698 3.897 5.99998 5 5.99998C5.193 5.99998 5.376 6.03598 5.553 6.08798C5.365 5.74798 5.216 5.38898 5.123 5.01298C5.081 5.01098 5.042 5.00098 5 5.00098C3.343 5.00098 2 6.34398 2 8.00098C2 9.65798 3.343 11.001 5 11.001C6.551 11.001 7.812 9.81998 7.969 8.31098C7.61 8.13498 7.276 7.92798 6.969 7.69598Z" fill="white"/>
<path opacity="0.2" d="M9.305 9.278C9.435 8.86 9.5 8.433 9.5 8C9.5 7.896 9.488 7.795 9.476 7.694L9.445 7.38L9.136 7.176C7.534 6.603 6.5 5.356 6.5 4C6.5 2.07 8.519 0.5 11 0.5C13.481 0.5 15.5 2.07 15.5 4C15.5 5.636 14.005 7.074 11.945 7.42L11.745 7.453L11.625 7.617C11.039 8.416 10.222 8.995 9.305 9.278Z" fill="white"/>
<path d="M11 1C13.206 1 15 2.346 15 4C15 5.391 13.68 6.622 11.862 6.927L11.462 6.994L11.222 7.321C10.884 7.782 10.459 8.161 9.98 8.439C9.993 8.293 10 8.147 10 7.999C10 7.876 9.988 7.758 9.973 7.639L9.963 7.553L9.904 6.919L9.304 6.704C7.904 6.202 6.999 5.14 6.999 3.999C6.999 2.345 8.793 0.999 10.999 0.999M11 0C8.243 0 6 1.794 6 4C6 5.626 7.223 7.022 8.967 7.647C8.978 7.765 9 7.879 9 8C9 8.713 8.797 9.373 8.469 9.953C9.934 9.814 11.204 9.036 12.028 7.914C14.293 7.534 16 5.925 16 4.001C16 1.794 13.757 0 11 0Z" fill="white"/>
</g>
<defs>
<clipPath id="clip0_143_1368">
<rect width="16" height="16" fill="white"/>
</clipPath>
</defs>
</svg>
