<svg width="16" height="16" viewBox="0 0 16 16" fill="none" xmlns="http://www.w3.org/2000/svg">
<g clip-path="url(#clip0_1358_85329)">
<path opacity="0.4" d="M15.5 15.5C15.5 14.16 14.84 13.5 13.5 13.5H9.49999C8.15999 13.5 7.49999 14.16 7.49999 15.5H15.5ZM11.146 9.14601C11.341 9.34101 11.658 9.34101 11.853 9.14601L14.146 6.85301C14.341 6.65801 14.341 6.34101 14.146 6.14601L8.85399 0.854014C8.65899 0.659014 8.34199 0.659014 8.14699 0.854014L5.85399 3.14701C5.65899 3.34201 5.65899 3.65901 5.85399 3.85401L7.99099 5.99001L0.792988 12.793C0.402988 13.183 0.402988 13.817 0.792988 14.207C0.981988 14.395 1.23299 14.5 1.49999 14.5C1.76699 14.5 2.01799 14.396 2.19699 14.217L9.00999 7.01101L11.145 9.14701L11.146 9.14601Z" fill="white"/>
<path d="M13.5 13H9.50001C7.88801 13 7.00001 13.888 7.00001 15.5C7.00001 15.776 7.22401 16 7.50001 16H15.5C15.776 16 16 15.776 16 15.5C16 13.888 15.112 13 13.5 13ZM8.04101 15C8.17001 14.297 8.62001 14 9.50001 14H13.5C14.38 14 14.83 14.297 14.959 15H8.04101ZM9.79301 8.50004L9.64701 8.64604C9.45201 8.84104 9.45201 9.15804 9.64701 9.35304C9.74501 9.45104 9.87301 9.49904 10.001 9.49904C10.129 9.49904 10.257 9.45004 10.355 9.35304L10.501 9.20704L10.794 9.50004C10.989 9.69504 11.245 9.79204 11.501 9.79204C11.757 9.79204 12.013 9.69504 12.208 9.50004L14.501 7.20704C14.891 6.81704 14.891 6.18304 14.501 5.79304L14.208 5.50004L14.354 5.35404C14.549 5.15904 14.549 4.84204 14.354 4.64704C14.159 4.45204 13.842 4.45204 13.647 4.64704L13.5 4.79404L10.207 1.50104L10.354 1.35404C10.549 1.15904 10.549 0.842037 10.354 0.647037C10.159 0.452037 9.84201 0.452037 9.64701 0.647037L9.50101 0.793037L9.20801 0.500037C8.81701 0.109037 8.18501 0.109037 7.79401 0.500037L5.50101 2.79304C5.11101 3.18304 5.11101 3.81704 5.50101 4.20704L5.79401 4.50004L5.64801 4.64604C5.45301 4.84104 5.45301 5.15804 5.64801 5.35304C5.74601 5.45104 5.87401 5.49904 6.00201 5.49904C6.13001 5.49904 6.25801 5.45004 6.35601 5.35304L6.50201 5.20704L7.27501 5.98004L0.439012 12.439C-0.146988 13.025 -0.146988 13.975 0.439012 14.56C0.732012 14.853 1.11601 14.999 1.50001 14.999C1.88401 14.999 2.26801 14.853 2.56101 14.56L9.02101 7.72704L9.79301 8.49904V8.50004ZM13.5 6.20704L13.793 6.50004C13.793 6.50004 11.5 8.79304 11.501 8.79304L11.208 8.50004L13.501 6.20704H13.5ZM6.20701 3.50004L8.50001 1.20704L8.79301 1.50004L6.50001 3.79304L6.20701 3.50004ZM7.20701 4.50004L9.50001 2.20704L12.793 5.50004L10.5 7.79304L7.20701 4.50004ZM1.85401 13.854C1.72701 13.981 1.57801 14 1.50001 14C1.42201 14 1.27401 13.981 1.14601 13.854C0.951012 13.659 0.951012 13.342 1.12601 13.166L7.98001 6.68804L8.31301 7.02104L1.85401 13.854Z" fill="white"/>
</g>
<defs>
<clipPath id="clip0_1358_85329">
<rect width="16" height="16" fill="white"/>
</clipPath>
</defs>
</svg>
