<svg width="16" height="16" viewBox="0 0 16 16" fill="none" xmlns="http://www.w3.org/2000/svg">
<g clip-path="url(#clip0_1358_85343)">
<path opacity="0.2" d="M8 0.5C3.858 0.5 0.5 3.186 0.5 6.5C0.5 8.767 2.073 10.739 4.392 11.76C4.46 12.164 4.5 12.577 4.5 13C4.5 13.757 4.385 14.488 4.177 15.177C5.72 14.71 7.053 13.758 7.999 12.5H8.001C12.143 12.5 15.501 9.814 15.501 6.5C15.501 3.186 12.142 0.5 8 0.5Z" fill="white"/>
<path d="M3.42798 15.927L3.69898 15.032C3.89898 14.37 4.00098 13.686 4.00098 13C4.00098 12.706 3.97998 12.41 3.93898 12.102C1.50198 10.936 0.000976771 8.811 0.000976771 6.5C-2.32286e-05 2.916 3.58898 0 7.99998 0C12.411 0 16 2.916 16 6.5C16 10.017 12.544 12.891 8.24698 12.997C7.23898 14.251 5.85398 15.191 4.32198 15.655L3.42798 15.926V15.927ZM7.99998 1C4.13998 1 0.999977 3.468 0.999977 6.5C0.999977 8.486 2.37698 10.327 4.59298 11.302L4.83998 11.411L4.88498 11.677C4.96198 12.136 4.99998 12.569 4.99998 13C4.99998 13.462 4.95998 13.923 4.87998 14.378C5.94598 13.894 6.89098 13.141 7.59898 12.199L7.74898 12H7.99898C11.86 12 15 9.532 15 6.5C15 3.468 11.859 1 7.99998 1Z" fill="white"/>
</g>
<defs>
<clipPath id="clip0_1358_85343">
<rect width="16" height="16" fill="white"/>
</clipPath>
</defs>
</svg>
