<svg width="16" height="16" viewBox="0 0 16 16" fill="none" xmlns="http://www.w3.org/2000/svg">
<path opacity="0.2" d="M5 6.5C6.38071 6.5 7.5 5.38071 7.5 4C7.5 2.61929 6.38071 1.5 5 1.5C3.61929 1.5 2.5 2.61929 2.5 4C2.5 5.38071 3.61929 6.5 5 6.5Z" fill="white"/>
<path opacity="0.4" d="M12.043 9.50403L7.46099 4.38403C7.29899 5.42603 6.49899 6.25603 5.46899 6.45303L10.549 10.998C10.648 11.086 10.779 11.135 10.92 11.135C11.071 11.135 11.216 11.077 11.316 10.978L12.023 10.271C12.225 10.069 12.234 9.71703 12.043 9.50403Z" fill="white"/>
<path d="M12.536 10.747C12.484 10.704 12.434 10.657 12.383 10.612C12.763 10.222 12.78 9.577 12.416 9.171L7.979 4.212C7.984 4.141 8 4.073 8 4C8 2.343 6.657 1 5 1C3.343 1 2 2.343 2 4C2 5.657 3.343 7 5 7C5.102 7 5.198 6.98 5.297 6.97L10.216 11.371C10.413 11.547 10.666 11.635 10.919 11.635C11.193 11.635 11.466 11.533 11.668 11.331L11.677 11.322C11.752 11.387 11.824 11.456 11.9 11.518C12.582 12.081 13 12.454 13 13C13 13.552 12.552 14 12 14C11.207 14 10.55 13.343 9.854 12.646C9.083 11.875 8.208 11 7 11C5.897 11 5 11.897 5 13C5 14.635 7.026 15.809 7.257 15.937C7.334 15.98 7.417 16 7.5 16C7.675 16 7.846 15.907 7.937 15.743C8.072 15.502 7.985 15.197 7.744 15.063C7.292 14.811 6.001 13.892 6.001 13C6.001 12.448 6.449 12 7.001 12C7.794 12 8.451 12.657 9.147 13.354C9.918 14.125 10.793 15 12.001 15C13.104 15 14.001 14.103 14.001 13C14.001 11.954 13.223 11.312 12.536 10.747ZM3 4C3 2.897 3.897 2 5 2C6.103 2 7 2.897 7 4C7 5.103 6.103 6 5 6C3.897 6 3 5.103 3 4ZM11.669 9.917L10.962 10.624L10.884 10.626L6.417 6.629C6.952 6.34 7.385 5.899 7.662 5.357L11.671 9.838C11.684 9.852 11.682 9.904 11.669 9.917Z" fill="white"/>
</svg>
