<svg width="16" height="16" viewBox="0 0 16 16" fill="none" xmlns="http://www.w3.org/2000/svg">
<g clip-path="url(#clip0_1358_85415)">
<path opacity="0.2" d="M13.5 5.5L14 5L15 6L14.5 6.5L13.5 5.5Z" fill="white"/>
<path fill-rule="evenodd" clip-rule="evenodd" d="M12.5 5.5L13.5001 4.49992C13.7762 4.22382 14.2238 4.22382 14.4999 4.49992L15.5001 5.50007C15.7762 5.77617 15.7762 6.22382 15.5001 6.49992L14.5 7.5L12.5 5.5ZM14 5L13.5 5.5L14.5 6.5L15 6L14 5Z" fill="white"/>
<path d="M13 0H0V16H13V9L12 10V15L1 15.037V1H12V6L13 5V0Z" fill="white"/>
<path fill-rule="evenodd" clip-rule="evenodd" d="M7.7071 11.2929V12.2929H8.70711L9.00001 12L8 11L7.7071 11.2929ZM7 11V13H9L10 12L8 10L7 11Z" fill="white"/>
<path opacity="0.2" d="M7.70703 12.2929V11.2929L7.99993 11L8.99994 12L8.70704 12.2929H7.70703Z" fill="white"/>
<path d="M12.5 5.5L8 10L8.5 10.5L13 6L12.5 5.5Z" fill="white"/>
<path d="M14 7L9.5 11.5L10 12L14.5 7.5L14 7Z" fill="white"/>
<path opacity="0.6" d="M13 6L8.5 10.5L9.5 11.5L14 7L13 6Z" fill="white"/>
<path d="M7 11.5V13H8.5V12.2929H7.7071V11.5H7Z" fill="white"/>
</g>
<defs>
<clipPath id="clip0_1358_85415">
<rect width="16" height="16" fill="white"/>
</clipPath>
</defs>
</svg>
