<svg width="16" height="16" viewBox="0 0 16 16" fill="none" xmlns="http://www.w3.org/2000/svg">
<path opacity="0.3" d="M1.5 14.5C0.948 14.5 0.5 14.052 0.5 13.5V4H2.5V13.5C2.5 14.052 2.052 14.5 1.5 14.5ZM8.5 8H4.5V10H8.5V8ZM4.5 6V4H13.5V6H4.5Z" fill="white"/>
<path opacity="0.1" d="M2.5 1.5V14.5H14.551C15.074 14.5 15.5 14.074 15.5 13.551V1.5H2.5ZM8.5 10H4.5V8H8.5V10ZM13.5 6H4.5V4H13.5V6Z" fill="white"/>
<path d="M13 4.5V5.5H5V4.5H13ZM14 3.5H4V6.5H14V3.5Z" fill="white"/>
<path d="M8 8.5V9.5H5V8.5H8ZM9 7.5H4V10.5H9V7.5ZM14 7.5H10V8.5H14V7.5ZM14 9.5H10V10.5H14V9.5ZM14 11.5H4V12.5H14V11.5ZM2 1V3.5H0V13.5C0 14.328 0.672 15 1.5 15H14.551C15.351 15 16 14.351 16 13.551V1H2ZM1 13.5V4.5H2V13.5C2 13.776 1.776 14 1.5 14C1.224 14 1 13.776 1 13.5ZM15 13.551C15 13.799 14.799 14 14.551 14H2.908C2.964 13.843 3 13.676 3 13.5V2H15V13.551Z" fill="white"/>
</svg>
