<svg width="16" height="16" viewBox="0 0 16 16" fill="none" xmlns="http://www.w3.org/2000/svg">
<path opacity="0.3" d="M1.5 13.5C0.948 13.5 0.5 13.052 0.5 12.5L0.5 3.5H2.5V12.5C2.5 13.052 2.052 13.5 1.5 13.5ZM8.5 7.5H4.5V9.5H8.5V7.5ZM4.5 5.5V3.5H13.5V5.5H4.5Z" fill="white"/>
<path opacity="0.1" d="M2.5 1.5V13.5H14.551C15.074 13.5 15.5 13.074 15.5 12.551V1.5H2.5ZM8.5 9.5H4.5V7.5H8.5V9.5ZM13.5 5.5H4.5V3.5H13.5V5.5Z" fill="white"/>
<path d="M13 4V5H5V4H13ZM14 3H4V6H14V3Z" fill="white"/>
<path d="M8 8V9H5V8H8ZM9 7H4V10H9V7ZM14 7H10V8H14V7ZM14 9H10V10H14V9ZM14 11H4V12H14V11ZM2 1V3H0V12.449C0 13.277 0.672 13.949 1.5 13.949H14.551C15.351 13.949 16 13.3 16 12.5V1H2ZM1 12.449V4H2V12.449C2 12.725 1.776 12.949 1.5 12.949C1.224 12.949 1 12.725 1 12.449ZM15 12.5C15 12.748 14.799 12.949 14.551 12.949H2.908C2.964 12.792 3 12.625 3 12.449V2H15V12.5Z" fill="white"/>
</svg>
