<svg width="16" height="16" viewBox="0 0 16 16" fill="none" xmlns="http://www.w3.org/2000/svg">
<path opacity="0.2" d="M7.5 15.5C6.949 15.5 6.5 15.052 6.5 14.5V11.5H9.5V14.5C9.5 15.052 9.051 15.5 8.5 15.5H7.5Z" fill="white"/>
<path d="M8 0C5.239 0 3 2.239 3 5C3 8.391 6 9.328 6 11V14.5C6 15.328 6.672 16 7.5 16H8.5C9.328 16 10 15.328 10 14.5V11C10 9.25 13 8.391 13 5C13 2.239 10.761 0 8 0ZM9 14.5C9 14.776 8.776 15 8.5 15H7.5C7.224 15 7 14.776 7 14.5V14H9V14.5ZM9 13H7V12H9V13ZM9 11H7C7 9.925 6.304 9.156 5.631 8.411C4.829 7.524 4 6.606 4 5C4 2.794 5.794 1 8 1C10.206 1 12 2.794 12 5C12 6.586 11.184 7.482 10.395 8.349C9.709 9.102 9 9.881 9 11Z" fill="white"/>
</svg>
