<svg width="16" height="16" viewBox="0 0 16 16" fill="none" xmlns="http://www.w3.org/2000/svg">
<g clip-path="url(#clip0_1358_85571)">
<path opacity="0.2" d="M5.5 16V13.444C5.5 12.063 6.006 11.5 8 11.5C9.994 11.5 10.5 12.064 10.5 13.444V16M8 6.5C7.172 6.5 6.5 7.172 6.5 8C6.5 8.828 7.172 9.5 8 9.5C8.828 9.5 9.5 8.828 9.5 8C9.5 7.172 8.828 6.5 8 6.5Z" fill="white"/>
<path d="M1.867 13.133C0.703 11.743 0 9.955 0 8C0 3.582 3.582 0 8 0C12.418 0 16 3.582 16 8C16 9.955 15.297 11.744 14.133 13.133L13.421 12.421C14.407 11.215 15 9.676 15 8C15 4.14 11.86 1 8 1C4.14 1 1 4.14 1 8C1 9.676 1.593 11.215 2.579 12.421L1.867 13.133ZM4 8C4 5.794 5.794 4 8 4C10.206 4 12 5.794 12 8C12 8.848 11.731 9.632 11.279 10.279L11.987 10.987C12.614 10.152 12.999 9.125 12.999 7.999C12.999 5.238 10.76 2.999 7.999 2.999C5.238 2.999 2.999 5.238 2.999 7.999C2.999 9.124 3.384 10.151 4.011 10.987L4.719 10.279C4.267 9.631 3.998 8.847 3.998 8H4ZM11 13.444C11 11.685 10.159 11 8 11C5.841 11 5 11.686 5 13.444V16H6V13.444C6 12.521 6.093 12 8 12C9.907 12 10 12.521 10 13.444V16H11V13.444ZM8 6C6.895 6 6 6.895 6 8C6 9.105 6.895 10 8 10C9.105 10 10 9.105 10 8C10 6.895 9.105 6 8 6ZM8 9C7.449 9 7 8.551 7 8C7 7.449 7.449 7 8 7C8.551 7 9 7.449 9 8C9 8.551 8.551 9 8 9Z" fill="white"/>
</g>
<defs>
<clipPath id="clip0_1358_85571">
<rect width="16" height="16" fill="white"/>
</clipPath>
</defs>
</svg>
