<svg width="16" height="16" viewBox="0 0 16 16" fill="none" xmlns="http://www.w3.org/2000/svg">
<path opacity="0.2" d="M13.5 5.5L14 5L15 6L14.5 6.5L13.5 5.5Z" fill="white"/>
<path opacity="0.2" d="M7.70703 12.2929V11.2929L7.99993 11L8.99994 12L8.70704 12.2929H7.70703Z" fill="white"/>
<path opacity="0.6" d="M13 6L8.5 10.5L9.5 11.5L14 7L13 6Z" fill="white"/>
<path opacity="0.4" d="M8 1.70703V5H11.293L8 1.70703Z" fill="white"/>
<path d="M6 6H3V5H6V6Z" fill="white"/>
<path fill-rule="evenodd" clip-rule="evenodd" d="M13 9V16H0V0H7.70703L12.8535 5.14648L13.5001 4.49992C13.7762 4.22382 14.2238 4.22382 14.4999 4.49992L15.5001 5.50007C15.7762 5.77617 15.7762 6.22382 15.5001 6.49992L13 9ZM1 15V1H7V6H12L10 8H3V9H9L7 11H3V12H7V13H9L12 10V15H1ZM8 1.70703L11.293 5H8V1.70703ZM9.5 11.5L14 7L13 6L8.5 10.5L9.5 11.5ZM8.70711 12.2929L9.00001 12L8 11L7.7071 11.2929V12.2929H8.70711ZM14 5L13.5 5.5L14.5 6.5L15 6L14 5Z" fill="white"/>
</svg>
