<svg width="16" height="16" viewBox="0 0 16 16" fill="none" xmlns="http://www.w3.org/2000/svg">
<path opacity="0.4" d="M9.5 0.5V5H14L9.5 0.5Z" fill="white"/>
<path d="M7.5 5.5H4.5V4.5H7.5V5.5ZM11.5 7H4.5V8H11.5V7ZM11 9.5H4.5V10.5H11V9.5ZM7.5 12H4.5V13H7L7.5 12Z" fill="white"/>
<path fill-rule="evenodd" clip-rule="evenodd" d="M1.5 0H9.707L14.1035 4.3965L13 5.5H9V1H2.5V15H13.5V8L14.5 7V16H1.5V0ZM12.793 4.5L10 1.707V4.5H12.793Z" fill="white"/>
<path opacity="0.6" d="M13.4994 5.0002L12.9995 5.50012L13.4994 6.00005L13.9994 5.50012L13.4994 5.0002Z" fill="white"/>
<path opacity="0.6" d="M14.4994 6.0002L13.9995 6.50012L14.4994 7.00005L14.9994 6.50012L14.4994 6.0002Z" fill="white"/>
<path d="M14.4998 3.9993L13.5 4.99915L14.9998 6.49892L15.9996 5.49907L14.4998 3.9993Z" fill="white"/>
<path fill-rule="evenodd" clip-rule="evenodd" d="M14.5 7L9 12.5L7 13L7.5 11L13 5.5L14.5 7ZM8.13817 11.361L8.37517 11.125L8.87517 11.625L8.63917 11.862L7.97217 12.028L8.13817 11.361Z" fill="white"/>
<path opacity="0.4" d="M8.37517 11.125L8.13817 11.361L7.97217 12.028L8.63917 11.862L8.87517 11.625L8.37517 11.125Z" fill="white"/>
</svg>
