<svg width="16" height="16" viewBox="0 0 16 16" fill="none" xmlns="http://www.w3.org/2000/svg">
<g clip-path="url(#clip0_143_1395)">
<path d="M16 11V0H1V11H8V12.293L5.146 15.147C4.951 15.342 4.951 15.659 5.146 15.854C5.244 15.952 5.372 16 5.5 16C5.628 16 5.756 15.951 5.854 15.854L8 13.708V15.501C8 15.777 8.224 16.001 8.5 16.001C8.776 16.001 9 15.777 9 15.501V13.708L11.146 15.854C11.244 15.952 11.372 16 11.5 16C11.628 16 11.756 15.951 11.854 15.854C12.049 15.659 12.049 15.342 11.854 15.147L9 12.293V11H16ZM2 10V1H15V10H2Z" fill="white"/>
<path opacity="0.4" d="M14 4.5L10 6.5L7 4.5L3 6.5V9H14V4.5Z" fill="white"/>
<path d="M14 3.94097L10.036 5.92297L7.036 3.92297L3 5.94097V7.05897L6.964 5.07697L9.964 7.07697L14 5.05897V3.94097Z" fill="white"/>
</g>
<defs>
<clipPath id="clip0_143_1395">
<rect width="16" height="16" fill="white"/>
</clipPath>
</defs>
</svg>
