<svg width="16" height="16" viewBox="0 0 16 16" fill="none" xmlns="http://www.w3.org/2000/svg">
<g clip-path="url(#clip0_1358_85621)">
<path d="M15.5 11V0H0.5V11H7.5V12.293L4.646 15.147C4.451 15.342 4.451 15.659 4.646 15.854C4.744 15.952 4.872 16 5 16C5.128 16 5.256 15.951 5.354 15.854L7.5 13.708V15.501C7.5 15.777 7.724 16.001 8 16.001C8.276 16.001 8.5 15.777 8.5 15.501V13.708L10.646 15.854C10.744 15.952 10.872 16 11 16C11.128 16 11.256 15.951 11.354 15.854C11.549 15.659 11.549 15.342 11.354 15.147L8.5 12.293V11H15.5ZM1.5 10V1H14.5V10H1.5Z" fill="white"/>
<path opacity="0.4" d="M13.5 4.5L9.5 6.5L6.5 4.5L2.5 6.5V9H13.5V4.5Z" fill="white"/>
<path d="M13.5 3.94097L9.536 5.92297L6.536 3.92297L2.5 5.94097V7.05897L6.464 5.07697L9.464 7.07697L13.5 5.05897V3.94097Z" fill="white"/>
</g>
<defs>
<clipPath id="clip0_1358_85621">
<rect width="16" height="16" fill="white"/>
</clipPath>
</defs>
</svg>
