<svg width="16" height="16" viewBox="0 0 16 16" fill="none" xmlns="http://www.w3.org/2000/svg">
<path d="M4 8.00003C4 9.29003 4.624 10.428 5.576 11.16L4.969 11.952C3.78 11.038 3.001 9.61703 3.001 8.00103C3.001 6.38503 3.78 4.96403 4.969 4.05003L5.576 4.84203C4.625 5.57403 4 6.71103 4 8.00203V8.00003ZM1 8.00003C1 5.74203 2.08 3.73503 3.745 2.45503L3.135 1.66003C1.232 3.12203 0 5.41403 0 8.00003C0 10.586 1.232 12.878 3.135 14.34L3.745 13.545C2.08 12.264 1 10.258 1 8.00003ZM11.032 4.04903L10.425 4.84103C11.376 5.57303 12.001 6.71003 12.001 8.00103C12.001 9.29203 11.377 10.429 10.425 11.161L11.032 11.953C12.221 11.039 13 9.61803 13 8.00203C13 6.38603 12.221 4.96503 11.032 4.05103V4.04903ZM10 8.00003C10 9.10503 9.105 10 8 10C6.895 10 6 9.10503 6 8.00003C6 6.89503 6.895 6.00003 8 6.00003C9.105 6.00003 10 6.89503 10 8.00003ZM9 8.00003C9 7.44903 8.551 7.00003 8 7.00003C7.449 7.00003 7 7.44903 7 8.00003C7 8.55103 7.449 9.00003 8 9.00003C8.551 9.00003 9 8.55103 9 8.00003ZM12.865 1.66003L12.255 2.45503C13.92 3.73603 15 5.74203 15 8.00003C15 10.258 13.92 12.265 12.255 13.545L12.865 14.34C14.768 12.878 16 10.585 16 8.00003C16 5.41503 14.768 3.12203 12.865 1.66003Z" fill="white"/>
</svg>
