<svg width="16" height="16" viewBox="0 0 16 16" fill="none" xmlns="http://www.w3.org/2000/svg">
<path opacity="0.4" d="M14.5 9.5H9.5V14.5L14.5 9.5Z" fill="white"/>
<path d="M14 0H3C2.448 0 2 0.448 2 1V2H1.5C1.224 2 1 2.224 1 2.5C1 2.776 1.224 3 1.5 3H2V4.5H1.5C1.224 4.5 1 4.724 1 5C1 5.276 1.224 5.5 1.5 5.5H2V7H1.5C1.224 7 1 7.224 1 7.5C1 7.776 1.224 8 1.5 8H2V9.5H1.5C1.224 9.5 1 9.724 1 10C1 10.276 1.224 10.5 1.5 10.5H2V12H1.5C1.224 12 1 12.224 1 12.5C1 12.776 1.224 13 1.5 13H2V14C2 14.552 2.448 15 3 15H14C14.552 15 15 14.552 15 14V1C15 0.448 14.552 0 14 0ZM14 14H10.707L14 10.707V14ZM10 13.293V10H13.293L10 13.293ZM14 9H9V14H3V13H3.5C3.776 13 4 12.776 4 12.5C4 12.224 3.776 12 3.5 12H3V10.5H3.5C3.776 10.5 4 10.276 4 10C4 9.724 3.776 9.5 3.5 9.5H3V8H3.5C3.776 8 4 7.776 4 7.5C4 7.224 3.776 7 3.5 7H3V5.5H3.5C3.776 5.5 4 5.276 4 5C4 4.724 3.776 4.5 3.5 4.5H3V3H3.5C3.776 3 4 2.776 4 2.5C4 2.224 3.776 2 3.5 2H3V1H14V9ZM12 5H6V4H12V5ZM11 6H7V7H11V6Z" fill="white"/>
</svg>
