<svg width="16" height="16" viewBox="0 0 16 16" fill="none" xmlns="http://www.w3.org/2000/svg">
<path opacity="0.4" d="M14.5 11H10V15.5L14.5 11Z" fill="white"/>
<path d="M14 0H3C2.448 0 2 0.448 2 1V2.5H1.5C1.224 2.5 1 2.724 1 3C1 3.276 1.224 3.5 1.5 3.5H2V5H1.5C1.224 5 1 5.224 1 5.5C1 5.776 1.224 6 1.5 6H2V7.5H1.5C1.224 7.5 1 7.724 1 8C1 8.276 1.224 8.5 1.5 8.5H2V10H1.5C1.224 10 1 10.224 1 10.5C1 10.776 1.224 11 1.5 11H2V12.5H1.5C1.224 12.5 1 12.724 1 13C1 13.276 1.224 13.5 1.5 13.5H2V15C2 15.552 2.448 16 3 16H14C14.552 16 15 15.552 15 15V1C15 0.448 14.552 0 14 0ZM14 15H11.207L14 12.207V15ZM10.5 14.293V11.5H13.293L10.5 14.293ZM14 10.5H9.5V15H3V13.5H3.5C3.776 13.5 4 13.276 4 13C4 12.724 3.776 12.5 3.5 12.5H3V11H3.5C3.776 11 4 10.776 4 10.5C4 10.224 3.776 10 3.5 10H3V8.5H3.5C3.776 8.5 4 8.276 4 8C4 7.724 3.776 7.5 3.5 7.5H3V6H3.5C3.776 6 4 5.776 4 5.5C4 5.224 3.776 5 3.5 5H3V3.5H3.5C3.776 3.5 4 3.276 4 3C4 2.724 3.776 2.5 3.5 2.5H3V1H14V10.5ZM12 5.5H6V4.5H12V5.5ZM11 6.5H7V7.5H11V6.5Z" fill="white"/>
</svg>
