<svg width="16" height="16" viewBox="0 0 16 16" fill="none" xmlns="http://www.w3.org/2000/svg">
<path d="M9.707 0H2V16H15V5.293L9.707 0ZM10 1.707L13.293 5H10V1.707ZM3 15V1H9V6H14V15H3Z" fill="white"/>
<path opacity="0.4" d="M10 1.70703V5H13.293L10 1.70703Z" fill="white"/>
<path d="M5 8H4V9H5V8Z" fill="white"/>
<path d="M5 11H4V12H5V11Z" fill="white"/>
<path d="M13 8H6V9H13V8Z" fill="white"/>
<path d="M8 5H4V6H8V5Z" fill="white"/>
<path d="M12 10C10.343 10 9 11.343 9 13C9 14.657 10.343 16 12 16C13.657 16 15 14.657 15 13C15 11.343 13.657 10 12 10ZM11.5 14.707L10.146 13.353L10.853 12.646L11.499 13.292L13.145 11.646L13.852 12.353L11.498 14.707H11.5Z" fill="white"/>
<path d="M8.53513 11H6V12H8.12602C8.21733 11.6452 8.35609 11.3095 8.53513 11Z" fill="white"/>
</svg>
