<svg width="16" height="16" viewBox="0 0 16 16" fill="none" xmlns="http://www.w3.org/2000/svg">
<path opacity="0.4" d="M1.02002 6.5L8.00002 2.573L14.98 6.5L8.00002 10.427L1.02002 6.5Z" fill="white"/>
<path opacity="0.6" d="M8 10.427L3.5 7.896V11.001C3.5 12.356 5.561 13.501 8 13.501C10.439 13.501 12.5 12.356 12.5 11.001V7.896L8 10.427Z" fill="white"/>
<path d="M8 2L0 6.5L1 7.062V12.224C0.668 12.568 0.5 13.318 0.5 14.5C0.5 14.776 0.948 15 1.5 15C2.052 15 2.5 14.776 2.5 14.5C2.5 13.318 2.332 12.568 2 12.224V7.625L3 8.187V10.999C3 12.656 5.239 13.999 8 13.999C10.761 13.999 13 12.656 13 10.999V8.187L16 6.499L8 2ZM12 11C12 11.944 10.289 13 8 13C5.711 13 4 11.944 4 11V8.75L8 11L12 8.75V11ZM8 9.853L2.04 6.5L8 3.147L13.96 6.5L8 9.853Z" fill="white"/>
</svg>
