<svg width="16" height="16" viewBox="0 0 16 16" fill="none" xmlns="http://www.w3.org/2000/svg">
<path opacity="0.4" d="M1.02002 6L8.00002 2.073L14.98 6L8.00002 9.927L1.02002 6Z" fill="white"/>
<path opacity="0.6" d="M8 9.927L3.5 7.396V10.501C3.5 11.856 5.561 13.001 8 13.001C10.439 13.001 12.5 11.856 12.5 10.501V7.396L8 9.927Z" fill="white"/>
<path d="M8 1.5L0 6L1 6.562V11.724C0.668 12.068 0.5 12.818 0.5 14C0.5 14.276 0.948 14.5 1.5 14.5C2.052 14.5 2.5 14.276 2.5 14C2.5 12.818 2.332 12.068 2 11.724V7.125L3 7.687V10.499C3 12.156 5.239 13.499 8 13.499C10.761 13.499 13 12.156 13 10.499V7.687L16 5.999L8 1.5ZM12 10.5C12 11.444 10.289 12.5 8 12.5C5.711 12.5 4 11.444 4 10.5V8.25L8 10.5L12 8.25V10.5ZM8 9.353L2.04 6L8 2.647L13.96 6L8 9.353Z" fill="white"/>
</svg>
