<svg width="16" height="16" viewBox="0 0 16 16" fill="none" xmlns="http://www.w3.org/2000/svg">
<path opacity="0.2" d="M11 5.5H5C4.17157 5.5 3.5 6.17157 3.5 7V10C3.5 10.8284 4.17157 11.5 5 11.5H11C11.8284 11.5 12.5 10.8284 12.5 10V7C12.5 6.17157 11.8284 5.5 11 5.5Z" fill="white"/>
<path opacity="0.4" d="M2 4V14H14V4H2ZM12.5 10C12.5 10.828 11.828 11.5 11 11.5H5C4.172 11.5 3.5 10.828 3.5 10V7C3.5 6.172 4.172 5.5 5 5.5H11C11.828 5.5 12.5 6.172 12.5 7V10Z" fill="white"/>
<path d="M14 3H10.707L12.853 0.853996L12.146 0.146996L9.292 3.001H6.706L3.854 0.145996L3.147 0.852996L5.293 2.999H2C1.448 2.999 1 3.447 1 3.999V13.999C1 14.551 1.448 14.999 2 14.999H3C3 15.551 3.448 15.999 4 15.999C4.552 15.999 5 15.551 5 14.999H11C11 15.551 11.448 15.999 12 15.999C12.552 15.999 13 15.551 13 14.999H14C14.552 14.999 15 14.551 15 13.999V4C15 3.448 14.552 3 14 3ZM14 14H2V4H14V14ZM5 12H11C12.105 12 13 11.105 13 10V7C13 5.895 12.105 5 11 5H5C3.895 5 3 5.895 3 7V10C3 11.105 3.895 12 5 12ZM4 7C4 6.449 4.449 6 5 6H11C11.551 6 12 6.449 12 7V10C12 10.551 11.551 11 11 11H5C4.449 11 4 10.551 4 10V7Z" fill="white"/>
</svg>
