<svg width="16" height="16" viewBox="0 0 16 16" fill="none" xmlns="http://www.w3.org/2000/svg">
<path opacity="0.2" d="M14 4H5V12H14V4Z" fill="white"/>
<path opacity="0.4" d="M4.5 6.75194L0.708 4.56294C0.606 4.50394 0.547 4.49994 0.538 4.49194C0.528 4.50294 0.5 4.56094 0.5 4.68194V11.3169C0.5 11.4379 0.528 11.4969 0.523 11.4989C0.523 11.4989 0.526 11.4989 0.532 11.4989C0.548 11.4989 0.607 11.4939 0.708 11.4369L4.5 9.24694V6.75194Z" fill="white"/>
<path d="M12 5.49998H13V6.49998H12V5.49998ZM6.5 6.49998H10.5C10.776 6.49998 11 6.27598 11 5.99998C11 5.72398 10.776 5.49998 10.5 5.49998H6.5C6.224 5.49998 6 5.72398 6 5.99998C6 6.27598 6.224 6.49998 6.5 6.49998ZM16 6.49998V7.49998C16 8.05198 15.552 8.49998 15 8.49998V12C15 12.552 14.552 13 14 13H5C4.448 13 4 12.552 4 12V10.114L0.958 11.871C0.805 11.959 0.661 12.001 0.533 12.001C0.217 12 0 11.749 0 11.317V4.68198C0 4.25098 0.217 3.99998 0.532 3.99998C0.66 3.99998 0.805 4.04198 0.957 4.12998L3.999 5.88698V4.00098C3.999 3.44898 4.447 3.00098 4.999 3.00098H13.999C14.551 3.00098 14.999 3.44898 14.999 4.00098V5.50098C15.551 5.50098 15.999 5.94898 15.999 6.50098L16 6.49998ZM4 7.04198L1.001 5.30998V10.691L4 8.95898V7.04198ZM14 3.99998H5V12H14V3.99998Z" fill="white"/>
</svg>
