<svg width="28" height="28" viewBox="0 0 28 28" fill="none" xmlns="http://www.w3.org/2000/svg">
<g clip-path="url(#clip0_1960_209)">
<path opacity="0.34" d="M14 6H1V11H14V6Z" fill="#39BF68"/>
<path opacity="0.85" fill-rule="evenodd" clip-rule="evenodd" d="M14 6H1V11H14V6ZM0 5V12H15V5H0Z" fill="#39BF68"/>
<path opacity="0.6" fill-rule="evenodd" clip-rule="evenodd" d="M20.9646 24C20.722 22.3037 19.2632 21 17.5 21C15.567 21 14 22.5669 14 24.5C14 26.4331 15.567 28 17.5 28C19.2632 28 20.722 26.6963 20.9646 25H21.0354C21.278 26.6963 22.7368 28 24.5 28C26.433 28 28 26.4331 28 24.5C28 22.5669 26.433 21 24.5 21C22.7368 21 21.278 22.3037 21.0354 24H20.9646ZM19.95 24H17.5C17.2238 24 17 24.2239 17 24.5C17 24.7761 17.2238 25 17.5 25H19.95C19.7183 26.1411 18.7095 27 17.5 27C16.1193 27 15 25.8806 15 24.5C15 23.1194 16.1193 22 17.5 22C18.7095 22 19.7183 22.8589 19.95 24ZM22.05 25H24.5C24.7762 25 25 24.7761 25 24.5C25 24.2239 24.7762 24 24.5 24H22.05C22.2817 22.8589 23.2905 22 24.5 22C25.8807 22 27 23.1194 27 24.5C27 25.8806 25.8807 27 24.5 27C23.2905 27 22.2817 26.1411 22.05 25Z" fill="white"/>
<path opacity="0.6" fill-rule="evenodd" clip-rule="evenodd" d="M24.25 3C24.045 3 23.851 3.042 23.668 3.107L24.781 4.22C24.917 4.356 25.001 4.543 25.001 4.75V19.0225C25.3441 19.0535 25.678 19.116 26 19.207V4.75C26 3.784 25.216 3 24.25 3ZM12.207 26C12.1159 25.6777 12.0534 25.3434 12.0224 25H8.439L6.439 23H12.207C12.3056 22.6514 12.4378 22.3168 12.5997 22H8V12H7V22H5.75C5.336 22 5 21.664 5 21.25V12H4V21.25C4 21.733 4.196 22.171 4.513 22.487L7.513 25.487C7.855 25.829 8.303 26 8.75 26H12.207ZM22 19.5997C22.3168 19.4378 22.6514 19.3056 23 19.207V1.75C23 0.784 22.216 0 21.25 0H5.75C4.784 0 4 0.784 4 1.75V5H5V1.75C5 1.336 5.336 1 5.75 1H7V5H8V1H21.25C21.664 1 22 1.336 22 1.75V19.5997Z" fill="white"/>
<path opacity="0.24" fill-rule="evenodd" clip-rule="evenodd" d="M22.9999 19.2071C23.4768 19.0722 23.98 19 24.5 19C24.6685 19 24.8353 19.0076 24.9999 19.0224V4.74094C24.9989 4.64553 24.9796 4.55117 24.943 4.46299C24.9053 4.37202 24.8498 4.28944 24.7799 4.22002L22.9999 2.43909V19.2071ZM12.0224 25C12.0076 24.8353 12 24.6686 12 24.5C12 23.98 12.0722 23.4769 12.207 23L6.43896 23L8.43894 25H12.0224Z" fill="white"/>
</g>
<defs>
<clipPath id="clip0_1960_209">
<rect width="28" height="28" fill="white"/>
</clipPath>
</defs>
</svg>
