<svg width="28" height="28" viewBox="0 0 28 28" fill="none" xmlns="http://www.w3.org/2000/svg">
<g clip-path="url(#clip0_216_4500)">
<path opacity="0.24" d="M23.2499 25C23.714 24.9998 24.159 24.8153 24.4871 24.4872C24.8152 24.159 24.9997 23.7141 24.9999 23.25V2.43909L26.7799 4.22002C26.8498 4.28944 26.9053 4.37202 26.943 4.46299C26.9796 4.55117 26.9989 4.64553 26.9999 4.74094V26.2576C26.9979 26.4538 26.9191 26.6415 26.7803 26.7804C26.6396 26.921 26.4489 27 26.2499 27H8.43894L6.43896 25L23.2499 25Z" fill="white"/>
<path opacity="0.85" d="M16 26H11V27H16V26Z" fill="#39BF68"/>
<path opacity="0.34" d="M15 6H1V11H15V6Z" fill="#39BF68"/>
<path opacity="0.85" fill-rule="evenodd" clip-rule="evenodd" d="M15 6H1V11H15V6ZM0 5V12H16V5H0Z" fill="#39BF68"/>
<path opacity="0.6" d="M25.668 3.107C25.851 3.042 26.045 3 26.25 3C27.216 3 28 3.784 28 4.75V26.25C28 27.216 27.216 28 26.25 28H8.75C8.303 28 7.855 27.829 7.513 27.487L4.513 24.487C4.196 24.171 4 23.733 4 23.25V12H5V23.25C5 23.664 5.336 24 5.75 24H7V12H8V24H23.25C23.664 24 24 23.664 24 23.25V1.75C24 1.336 23.664 1 23.25 1H8V5H7V1H5.75C5.336 1 5 1.336 5 1.75V5H4V1.75C4 0.784 4.784 0 5.75 0H23.25C24.216 0 25 0.784 25 1.75V23.25C25 24.216 24.216 25 23.25 25H6.439L8.439 27H26.251C26.665 27 27.001 26.664 27.001 26.25V4.75C27.001 4.543 26.917 4.356 26.781 4.22L25.668 3.107Z" fill="white"/>
</g>
<defs>
<clipPath id="clip0_216_4500">
<rect width="28" height="28" fill="white"/>
</clipPath>
</defs>
</svg>
