<svg width="28" height="28" viewBox="0 0 28 28" fill="none" xmlns="http://www.w3.org/2000/svg">
<path opacity="0.12" fill-rule="evenodd" clip-rule="evenodd" d="M24.25 3H1.75C1.336 3 1 3.336 1 3.75V9H25V3.75C25 3.336 24.664 3 24.25 3ZM5 6C5 6.55228 4.55228 7 4 7C3.44772 7 3 6.55228 3 6C3 5.44772 3.44772 5 4 5C4.55228 5 5 5.44772 5 6ZM8 6C8 6.55228 7.55228 7 7 7C6.44772 7 6 6.55228 6 6C6 5.44772 6.44772 5 7 5C7.55228 5 8 5.44772 8 6ZM10 7C10.5523 7 11 6.55228 11 6C11 5.44772 10.5523 5 10 5C9.44772 5 9 5.44772 9 6C9 6.55228 9.44772 7 10 7Z" fill="white"/>
<path opacity="0.85" d="M4 7C4.55228 7 5 6.55228 5 6C5 5.44772 4.55228 5 4 5C3.44772 5 3 5.44772 3 6C3 6.55228 3.44772 7 4 7Z" fill="#E24940"/>
<path opacity="0.85" d="M7 7C7.55228 7 8 6.55228 8 6C8 5.44772 7.55228 5 7 5C6.44772 5 6 5.44772 6 6C6 6.55228 6.44772 7 7 7Z" fill="#E0A32A"/>
<path opacity="0.85" d="M10 7C10.5523 7 11 6.55228 11 6C11 5.44772 10.5523 5 10 5C9.44772 5 9 5.44772 9 6C9 6.55228 9.44772 7 10 7Z" fill="#28AD31"/>
<path opacity="0.4" d="M17.5 19C18.828 19 20.048 19.473 21 20.26C21.445 19.892 21.954 19.6 22.5 19.386V16.5H3.5V22.5H12.382C13.184 20.454 15.173 19 17.5 19Z" fill="#4072E5"/>
<path d="M12.607 22H4V17H22V19.62C22.317 19.457 22.651 19.329 23 19.229V16H3V23H12.213C12.312 22.651 12.444 22.317 12.607 22Z" fill="#4072E5"/>
<path opacity="0.6" d="M24.25 2H1.75C0.784 2 0 2.784 0 3.75V26H12.213C12.121 25.677 12.056 25.344 12.025 25H1V10H25V19.025C25.344 19.056 25.677 19.121 26 19.213V3.75C26 2.784 25.216 2 24.25 2ZM25 9H1V3.75C1 3.336 1.336 3 1.75 3H24.25C24.664 3 25 3.336 25 3.75V9Z" fill="white"/>
<path opacity="0.6" d="M24.5 21C22.738 21 21.295 22.306 21.05 24H20.949C20.704 22.306 19.261 21 17.499 21C15.566 21 13.999 22.567 13.999 24.5C13.999 26.433 15.566 28 17.499 28C19.261 28 20.704 26.694 20.949 25H21.05C21.295 26.694 22.738 28 24.5 28C26.433 28 28 26.433 28 24.5C28 22.567 26.433 21 24.5 21ZM17.5 27C16.122 27 15 25.878 15 24.5C15 23.122 16.122 22 17.5 22C18.707 22 19.717 22.86 19.949 24H17.5C17.224 24 17 24.224 17 24.5C17 24.776 17.224 25 17.5 25H19.949C19.717 26.14 18.707 27 17.5 27ZM24.5 27C23.293 27 22.283 26.14 22.051 25H24.5C24.776 25 25 24.776 25 24.5C25 24.224 24.776 24 24.5 24H22.051C22.283 22.86 23.293 22 24.5 22C25.879 22 27 23.122 27 24.5C27 25.878 25.879 27 24.5 27Z" fill="white"/>
</svg>
