<svg width="28" height="28" viewBox="0 0 28 28" fill="none" xmlns="http://www.w3.org/2000/svg">
<g clip-path="url(#clip0_145_2883)">
<path opacity="0.24" d="M19 1.698V7H24.302L19 1.698Z" fill="white"/>
<path opacity="0.6" d="M24.5 21C22.738 21 21.295 22.306 21.05 24H20.949C20.704 22.306 19.261 21 17.499 21C15.566 21 13.999 22.567 13.999 24.5C13.999 26.433 15.566 28 17.499 28C19.261 28 20.704 26.694 20.949 25H21.05C21.295 26.694 22.738 28 24.5 28C26.433 28 28 26.433 28 24.5C28 22.567 26.433 21 24.5 21ZM17.5 27C16.122 27 15 25.878 15 24.5C15 23.122 16.122 22 17.5 22C18.707 22 19.717 22.86 19.949 24H17.5C17.224 24 17 24.224 17 24.5C17 24.776 17.224 25 17.5 25H19.949C19.717 26.14 18.707 27 17.5 27ZM24.5 27C23.293 27 22.283 26.14 22.051 25H24.5C24.776 25 25 24.776 25 24.5C25 24.224 24.776 24 24.5 24H22.051C22.283 22.86 23.293 22 24.5 22C25.879 22 27 23.122 27 24.5C27 25.878 25.879 27 24.5 27Z" fill="white"/>
<path opacity="0.6" d="M5 12H4V26H12V25H5V12Z" fill="white"/>
<path opacity="0.6" d="M18.717 0H4V5H5V1H18V8H25V19H26V7.283L18.717 0ZM19 7V1.698L24.302 7H19Z" fill="white"/>
<path opacity="0.4" d="M13 6V11H1V6H13Z" fill="#DB2C3A"/>
<path opacity="0.9" d="M0 5V12H14V5H0ZM13 11H1V6H13V11Z" fill="#DB2C3A"/>
</g>
<defs>
<clipPath id="clip0_145_2883">
<rect width="28" height="28" fill="white"/>
</clipPath>
</defs>
</svg>
