<svg width="28" height="28" viewBox="0 0 28 28" fill="none" xmlns="http://www.w3.org/2000/svg">
<path opacity="0.2" d="M14.16 2.952C12.716 1.617 7.719 0.612 2.009 0.509L1.5 0.5V24.5L1.991 24.509C7.067 24.594 11.471 25.344 13.773 26.514L14.5 26.884V3.266L14.16 2.953V2.952Z" fill="#4072E5"/>
<path d="M14.5 2.585C12.889 1.097 7.464 0 1 0V25C7.464 25 12.889 26.097 14.5 27.585C16.111 26.097 21.536 25 28 25V0C21.536 0 16.111 1.097 14.5 2.585ZM14 26.068C11.636 24.866 7.225 24.096 2 24.009V1.009C8.183 1.12 12.666 2.252 13.821 3.32L14 3.485V26.068ZM27 24.009C21.775 24.096 17.364 24.866 15 26.068V3.484L15.179 3.319C16.335 2.251 20.818 1.12 27 1.008V24.007V24.009Z" fill="#4072E5"/>
<path opacity="0.6" d="M25 9.082V10.084C21.59 10.273 18.832 10.768 17 11.373V10.318C19.032 9.689 21.828 9.253 25 9.082ZM25 13.082C21.828 13.253 19.032 13.69 17 14.319V15.374C18.832 14.768 21.59 14.273 25 14.085V13.083V13.082ZM25 17.082C21.828 17.253 19.032 17.69 17 18.319V19.374C18.832 18.768 21.59 18.273 25 18.085V17.082ZM17 7.373C18.832 6.767 21.59 6.272 25 6.084V5.082C21.828 5.253 19.032 5.69 17 6.319V7.373Z" fill="white"/>
</svg>
