<svg width="28" height="28" viewBox="0 0 28 28" fill="none" xmlns="http://www.w3.org/2000/svg">
<path opacity="0.2" d="M22 1H6V24H22V1Z" fill="#4072E5"/>
<path opacity="0.4" d="M5 1H3V24H5V1Z" fill="#4072E5"/>
<path opacity="0.85" d="M14 26H9V27H14V26Z" fill="#FF6666"/>
<path d="M24.25 3C24.045 3 23.851 3.042 23.668 3.107L24.781 4.22C24.917 4.356 25.001 4.543 25.001 4.75V26.25C25.001 26.664 24.665 27 24.251 27H6.439L4.439 25H21.25C22.216 25 23 24.216 23 23.25V1.75C23 0.784 22.216 0 21.25 0H3.75C2.784 0 2 0.784 2 1.75V23.25C2 23.733 2.196 24.171 2.513 24.487L5.513 27.487C5.855 27.829 6.303 28 6.75 28H24.25C25.216 28 26 27.216 26 26.25V4.75C26 3.784 25.216 3 24.25 3ZM6 1H21.25C21.664 1 22 1.336 22 1.75V23.25C22 23.664 21.664 24 21.25 24H6V1ZM3 23.25V1.75C3 1.336 3.336 1 3.75 1H5V24H3.75C3.336 24 3 23.664 3 23.25Z" fill="#4072E5"/>
</svg>
