<svg width="28" height="28" viewBox="0 0 28 28" fill="none" xmlns="http://www.w3.org/2000/svg">
<path opacity="0.34" d="M5.50007 21C3.28507 21 2.16807 20.043 2.01807 18H8.98307C8.83307 20.043 7.71407 21 5.50007 21Z" fill="#CC9200"/>
<path opacity="0.6" d="M19.5 17H20.194L23.5 7.081L26.806 17H27.5C27.74 17 27.93 17.172 27.979 17.397C27.975 17.379 27.98 17.36 27.974 17.342L23.974 5.342C23.906 5.138 23.715 5 23.5 5C23.285 5 23.094 5.138 23.026 5.342L19.026 17.342C19.02 17.359 19.026 17.377 19.022 17.394C19.072 17.17 19.261 17 19.5 17Z" fill="white"/>
<path opacity="0.6" d="M5.97397 5.342C5.90597 5.138 5.71497 5 5.49997 5C5.28497 5 5.09397 5.138 5.02597 5.342L1.02597 17.342C1.01997 17.359 1.02597 17.377 1.02197 17.394C1.07197 17.17 1.26197 17 1.50097 17H2.19497L5.50097 7.081L8.80697 17H9.50097C9.74097 17 9.93097 17.172 9.97997 17.397C9.97597 17.379 9.98097 17.36 9.97497 17.342L5.97397 5.342Z" fill="white"/>
<path opacity="0.34" d="M23.5001 21C21.2851 21 20.1681 20.043 20.0181 18H26.9831C26.8331 20.043 25.7141 21 23.5001 21Z" fill="#CC9200"/>
<path opacity="0.85" d="M13 2.5C13 2.224 13.224 2 13.5 2H14V0.5C14 0.224 14.224 0 14.5 0C14.776 0 15 0.224 15 0.5V2H15.5C15.776 2 16 2.224 16 2.5C16 2.776 15.776 3 15.5 3H13.5C13.224 3 13 2.776 13 2.5ZM5 4.5C5 4.224 5.224 4 5.5 4H23.5C23.776 4 24 4.224 24 4.5C24 4.776 23.776 5 23.5 5H5.5C5.224 5 5 4.776 5 4.5ZM9.5 17H1.5C1.224 17 1 17.224 1 17.5C1 20.444 2.556 22 5.5 22C8.444 22 10 20.444 10 17.5C10 17.224 9.776 17 9.5 17ZM5.5 21C3.285 21 2.168 20.043 2.018 18H8.983C8.833 20.043 7.714 21 5.5 21ZM18 25L20 27V28H19V27.414L17.586 26H11.414L10 27.414V28H9V27L11 25H14V6H15V25H18ZM27.5 17H19.5C19.224 17 19 17.224 19 17.5C19 20.444 20.556 22 23.5 22C26.444 22 28 20.444 28 17.5C28 17.224 27.776 17 27.5 17ZM23.5 21C21.285 21 20.168 20.043 20.018 18H26.983C26.833 20.043 25.714 21 23.5 21Z" fill="#CC9200"/>
<path opacity="0.34" d="M10 28V27.414L11.414 26H17.586L19 27.414V28H10Z" fill="#CC9200"/>
</svg>
