<svg width="28" height="28" viewBox="0 0 28 28" fill="none" xmlns="http://www.w3.org/2000/svg">
<g clip-path="url(#clip0_145_2894)">
<path opacity="0.85" d="M17.95 9V11.166C17.064 9.829 15.57 8.95 13.875 8.95C11.155 8.95 8.95 11.211 8.95 14C8.95 16.789 11.155 19.05 13.875 19.05C15.67 19.05 17.225 18.055 18.086 16.584C18.535 17.996 20.148 19.05 22.08 19.05C25.345 19.05 28 15.981 28 12.207C28 5.476 21.72 0 14 0C6.28 0 0 6.28 0 14C0 21.72 6.28 28 14 28C17.44 28 20.755 26.727 23.334 24.414L22.6 23.596C20.223 25.727 17.169 26.901 14 26.901C6.887 26.901 1.1 21.114 1.1 14.001C1.1 6.888 6.887 1.1 14 1.1C21.113 1.1 26.9 6.082 26.9 12.207C26.9 15.374 24.738 17.95 22.08 17.95C20.41 17.95 19.051 16.986 19.05 15.801V9H17.95ZM14 17.95C11.818 17.95 10.05 16.182 10.05 14C10.05 11.818 11.818 10.05 14 10.05C16.182 10.05 17.95 11.818 17.95 14C17.95 16.182 16.182 17.95 14 17.95Z" fill="#FF6666"/>
</g>
<defs>
<clipPath id="clip0_145_2894">
<rect width="28" height="28" fill="white"/>
</clipPath>
</defs>
</svg>
