<svg width="28" height="28" viewBox="0 0 28 28" fill="none" xmlns="http://www.w3.org/2000/svg">
<g clip-path="url(#clip0_145_2895)">
<path opacity="0.6" d="M12.948 14.512C12.694 16.474 11.03 18 9 18C6.794 18 5 16.206 5 14C5 11.913 6.613 10.213 8.655 10.035C8.517 9.72101 8.399 9.40001 8.304 9.07001C5.875 9.41101 4 11.477 4 14C4 16.761 6.239 19 9 19C11.429 19 13.45 17.267 13.902 14.971C13.574 14.83 13.255 14.678 12.948 14.512Z" fill="white"/>
<path opacity="0.12" d="M8.655 10.035C6.613 10.213 5 11.913 5 14C5 16.206 6.794 18 9 18C11.03 18 12.694 16.474 12.948 14.512C13.057 14.571 13.175 14.619 13.286 14.675C11.124 13.595 9.46 11.927 8.619 9.93701C8.633 9.96901 8.641 10.003 8.655 10.035Z" fill="white"/>
<path opacity="0.6" d="M9 22C15.725 22 17 24.109 17 28H18C18 22.897 15.56 21 9 21C2.44 21 0 22.897 0 28H1C1 24.109 2.275 22 9 22Z" fill="white"/>
<path opacity="0.12" d="M9 22C2.275 22 1 24.109 1 28H17C17 24.109 15.725 22 9 22Z" fill="white"/>
<path opacity="0.85" d="M19 0C14.029 0 10 3.134 10 7C10 10.04 12.497 12.62 15.979 13.587C15.987 13.724 16 13.86 16 14C16 15.07 15.752 16.08 15.321 16.988C17.481 16.652 19.368 15.506 20.675 13.875C24.844 13.264 28 10.421 28 7.001C28 3.135 23.971 0.001 19 0.001V0ZM20.53 12.885L20.141 12.942L19.895 13.249C19.078 14.269 18.03 15.049 16.851 15.531C16.95 15.029 17 14.517 17 14C17 13.876 16.992 13.754 16.984 13.632L16.977 13.528L16.935 12.815L16.246 12.624C13.108 11.753 11 9.493 11 7C11 3.692 14.589 1 19 1C23.411 1 27 3.692 27 7C27 9.86 24.279 12.335 20.53 12.885Z" fill="#66ADFF"/>
<path opacity="0.17" d="M19 1C23.411 1 27 3.692 27 7C27 9.86 24.279 12.335 20.53 12.885L20.141 12.942L19.895 13.249C19.078 14.269 18.03 15.049 16.851 15.531C16.95 15.029 17 14.517 17 14C17 13.876 16.992 13.754 16.984 13.632L16.977 13.528L16.935 12.815L16.246 12.624C13.108 11.753 11 9.493 11 7C11 3.692 14.589 1 19 1Z" fill="#66ADFF"/>
</g>
<defs>
<clipPath id="clip0_145_2895">
<rect width="28" height="28" fill="white"/>
</clipPath>
</defs>
</svg>
