<svg width="28" height="28" viewBox="0 0 28 28" fill="none" xmlns="http://www.w3.org/2000/svg">
<path opacity="0.85" d="M23.146 8.85397L17.146 2.85397L17.853 2.14697L23.853 8.14697L23.146 8.85397ZM18.853 13.147L12.853 7.14697L12.146 7.85397L18.146 13.854L18.853 13.147Z" fill="#CC9200"/>
<path opacity="0.2" d="M11.884 6.88394C11.396 6.39594 11.396 5.60394 11.884 5.11594L15.116 1.88394C15.604 1.39594 16.396 1.39594 16.884 1.88394L17.5 2.49994L12.5 7.49994L11.884 6.88394ZM23.147 8.85394L18.854 13.1469L18.501 13.4999L19.117 14.1159C19.605 14.6039 20.397 14.6039 20.885 14.1159L24.117 10.8839C24.605 10.3959 24.605 9.60394 24.117 9.11594L23.501 8.49994L23.147 8.85394ZM25.501 25.4999H14.501C13.161 25.4999 12.501 26.1599 12.501 27.4999H27.501C27.501 26.1599 26.841 25.4999 25.501 25.4999ZM14.49 10.1959L0.938994 22.9389C0.353994 23.5239 0.353994 24.4749 0.938994 25.0599C1.22199 25.3429 1.59899 25.4989 1.99999 25.4989C2.40099 25.4989 2.77699 25.3429 3.04999 25.0699L15.804 11.5099L14.489 10.1949L14.49 10.1959Z" fill="#996B6F"/>
<path d="M14.136 9.84304L0.585994 22.586C-0.195006 23.367 -0.195006 24.633 0.585994 25.414C0.976994 25.805 1.48799 26 1.99999 26C2.51199 26 3.02399 25.805 3.41399 25.414L16.157 11.864L14.135 9.84204L14.136 9.84304ZM2.70699 24.707C2.51799 24.896 2.26699 25 1.99999 25C1.73299 25 1.48199 24.896 1.29299 24.707C1.10399 24.518 0.999994 24.267 0.999994 24C0.999994 23.733 1.10399 23.482 1.27099 23.314L14.843 10.55L15.45 11.157L2.70699 24.707Z" fill="#996B6F"/>
<path d="M24.4701 8.76303L24.2071 8.50003L24.5611 8.14603C24.7561 7.95103 24.7561 7.63403 24.5611 7.43903C24.3661 7.24403 24.0491 7.24403 23.8541 7.43903L23.5001 7.79303L17.7931 13.5L17.4391 13.854C17.2441 14.049 17.2441 14.366 17.4391 14.561C17.5371 14.659 17.6651 14.707 17.7931 14.707C17.9211 14.707 18.0491 14.658 18.1471 14.561L18.5011 14.207L18.7641 14.47C19.1051 14.811 19.5531 14.982 20.0011 14.982C20.4491 14.982 20.8971 14.811 21.2381 14.47L24.4701 11.238C25.1531 10.555 25.1531 9.44603 24.4701 8.76303ZM23.7631 10.531L20.5311 13.763C20.2381 14.056 19.7631 14.056 19.4701 13.763L19.2071 13.5L23.5001 9.20703L23.7631 9.47003C24.0551 9.76203 24.0551 10.239 23.7631 10.531ZM18.5611 2.14703C18.7561 1.95203 18.7561 1.63503 18.5611 1.44003C18.3661 1.24503 18.0491 1.24503 17.8541 1.44003L17.5001 1.79403L17.2371 1.53103C16.5551 0.849031 15.4441 0.849031 14.7621 1.53103L11.5301 4.76303C10.8471 5.44603 10.8471 6.55503 11.5301 7.23803L11.7931 7.50103L11.4391 7.85503C11.2441 8.05003 11.2441 8.36703 11.4391 8.56203C11.5371 8.66003 11.6651 8.70803 11.7931 8.70803C11.9211 8.70803 12.0491 8.65903 12.1471 8.56203L12.5011 8.20803L18.2081 2.50103L18.5611 2.14703ZM12.5001 6.79303L12.2371 6.53003C11.9451 6.23803 11.9451 5.76103 12.2371 5.46903L15.4691 2.23703C15.6151 2.09103 15.8071 2.01703 15.9991 2.01703C16.1911 2.01703 16.3831 2.09003 16.5291 2.23703L16.7921 2.50003L12.4991 6.79303H12.5001ZM27.5001 28H12.5001C12.2241 28 12.0001 27.776 12.0001 27.5C12.0001 25.888 12.8881 25 14.5001 25H25.5001C27.1121 25 28.0001 25.888 28.0001 27.5C28.0001 27.776 27.7761 28 27.5001 28ZM13.0411 27H26.9591C26.8301 26.297 26.3801 26 25.5001 26H14.5001C13.6201 26 13.1701 26.297 13.0411 27Z" fill="#996B6F"/>
<path opacity="0.34" d="M17.4989 3.20715L13.2061 7.5L18.4987 12.7927L22.7916 8.49985L17.4989 3.20715Z" fill="#CC9200"/>
</svg>
