<svg width="28" height="28" viewBox="0 0 28 28" fill="none" xmlns="http://www.w3.org/2000/svg">
<g clip-path="url(#clip0_145_2893)">
<path opacity="0.85" d="M14 0C6.28 0 0 5.069 0 11.3C0 15.703 3.171 19.697 8.105 21.546C8.169 22.086 8.2 22.554 8.2 23C8.2 24.114 8.044 25.257 7.736 26.395L7.474 27.363L8.405 26.99C10.69 26.074 12.7 24.558 14.232 22.598C21.845 22.498 28 17.468 28 11.3C28 5.069 21.72 0 14 0ZM13.984 21.6H13.735L13.585 21.799C12.346 23.442 10.752 24.762 8.935 25.658C9.112 24.766 9.201 23.876 9.201 23C9.201 22.428 9.156 21.828 9.058 21.113L9.017 20.81L8.729 20.708C4.035 19.052 1 15.358 1 11.299C1 5.62 6.832 1 14 1C21.168 1 27 5.62 27 11.3C27 16.98 21.168 21.6 13.984 21.6Z" fill="#66ADFF"/>
<path opacity="0.17" d="M14 1C6.832 1 1 5.62 1 11.3C1 15.36 4.034 19.053 8.729 20.709L9.017 20.811L9.058 21.114C9.156 21.829 9.201 22.428 9.201 23.001C9.201 23.877 9.112 24.768 8.935 25.659C10.752 24.763 12.346 23.442 13.585 21.8L13.735 21.601H13.984C21.168 21.601 27 16.981 27 11.301C27 5.621 21.168 1 14 1Z" fill="#66ADFF"/>
</g>
<defs>
<clipPath id="clip0_145_2893">
<rect width="28" height="28" fill="white"/>
</clipPath>
</defs>
</svg>
