<svg width="28" height="28" viewBox="0 0 28 28" fill="none" xmlns="http://www.w3.org/2000/svg">
<path opacity="0.6" d="M23.11 19.296L23.234 19.172C23.915 18.491 23.95 17.344 23.314 16.622L15.022 7.22602C15.002 7.20302 14.977 7.18702 14.956 7.16502C14.982 6.94602 15 6.72502 15 6.49902C15 3.46102 12.538 0.999023 9.5 0.999023C6.462 0.999023 4 3.46102 4 6.49902C4 9.53702 6.462 11.999 9.5 11.999C9.726 11.999 9.947 11.981 10.166 11.955C10.188 11.976 10.204 12.001 10.227 12.021L19.623 20.312C19.968 20.616 20.41 20.767 20.853 20.767C21.336 20.767 21.818 20.587 22.173 20.232L22.33 20.075C22.759 20.448 23.95 21.606 23.95 22.999C23.95 24.074 23.075 24.949 22 24.949C20.463 24.949 19.203 23.803 17.87 22.592C16.44 21.293 14.963 19.949 13 19.949C11.318 19.949 9.95 21.317 9.95 22.999C9.95 25.843 14.036 27.859 14.21 27.944C14.287 27.981 14.369 27.999 14.45 27.999C14.654 27.999 14.849 27.886 14.945 27.689C15.077 27.416 14.964 27.086 14.69 26.954C13.677 26.463 11.049 24.794 11.049 22.999C11.049 21.924 11.924 21.049 12.999 21.049C14.536 21.049 15.796 22.195 17.129 23.406C18.559 24.705 20.036 26.049 21.999 26.049C23.681 26.049 25.049 24.681 25.049 22.999C25.049 21.206 23.699 19.819 23.109 19.295L23.11 19.296ZM9.5 11C7.019 11 5 8.98102 5 6.50002C5 4.01902 7.019 2.00002 9.5 2.00002C11.981 2.00002 14 4.01902 14 6.50002C14 8.98102 11.981 11 9.5 11ZM22.526 18.465L21.465 19.526C21.311 19.68 21.088 19.768 20.852 19.768C20.636 19.768 20.434 19.695 20.284 19.563L11.345 11.676C12.896 11.123 14.122 9.89602 14.675 8.34602L22.562 17.285C22.848 17.609 22.83 18.161 22.525 18.466L22.526 18.465Z" fill="white"/>
<path opacity="0.12" d="M9.5 11C11.9853 11 14 8.98528 14 6.5C14 4.01472 11.9853 2 9.5 2C7.01472 2 5 4.01472 5 6.5C5 8.98528 7.01472 11 9.5 11Z" fill="white"/>
<path opacity="0.24" d="M22.526 18.4649L21.465 19.5259C21.311 19.6799 21.088 19.7679 20.852 19.7679C20.636 19.7679 20.434 19.6949 20.284 19.5629L11.345 11.6759C12.896 11.1229 14.122 9.89595 14.675 8.34595L22.562 17.2849C22.848 17.6089 22.83 18.1609 22.525 18.4659L22.526 18.4649Z" fill="white"/>
</svg>
