<svg width="28" height="28" viewBox="0 0 28 28" fill="none" xmlns="http://www.w3.org/2000/svg">
<g clip-path="url(#clip0_145_2890)">
<path opacity="0.6" d="M22 10.5V1H1.00002V27H22V15.5L23 14.5V28H0V0H23V9.5L22 10.5Z" fill="white"/>
<path opacity="0.54" d="M23.25 10.75L13.75 20.25L14.75 21.25L24.25 11.75L23.25 10.75Z" fill="#CC7A52"/>
<path opacity="0.54" d="M23.5003 9.00039L22.5005 10.0002L23.2507 10.7505L24.2506 9.75063L23.5003 9.00039Z" fill="#CC7A52"/>
<path opacity="0.54" d="M25.2503 10.7504L24.2505 11.7502L25.0007 12.5005L26.0006 11.5006L25.2503 10.7504Z" fill="#CC7A52"/>
<path opacity="0.9" fill-rule="evenodd" clip-rule="evenodd" d="M24.792 7.70694C24.987 7.51194 25.243 7.41394 25.499 7.41394C25.755 7.41394 26.011 7.51194 26.206 7.70694L27.293 8.79394C27.684 9.18394 27.684 9.81694 27.293 10.2079L26.001 11.4999L25.2505 10.7495L26.5 9.501L25.499 8.5L24.2505 9.74947L23.5 8.99894L24.792 7.70694Z" fill="#DB2C3A"/>
<path opacity="0.9" d="M24.25 11.75L14.49 21.509L13.291 21.709L13.491 20.51L23.25 10.75L22.5 10L12.5 20L12 23L15 22.5L25 12.5L24.25 11.75Z" fill="#CC7A52"/>
<path opacity="0.18" d="M13.491 20.51L13.75 20.25L14.75 21.25L14.49 21.509L13.291 21.709L13.491 20.51Z" fill="#CC7A52"/>
<path opacity="0.54" d="M25.499 8.5L26.5 9.501L25.25 10.75L24.25 9.75L25.499 8.5Z" fill="#DB2C3A"/>
</g>
<defs>
<clipPath id="clip0_145_2890">
<rect width="28" height="28" fill="white"/>
</clipPath>
</defs>
</svg>
