<svg width="28" height="28" viewBox="0 0 28 28" fill="none" xmlns="http://www.w3.org/2000/svg">
<path opacity="0.12" d="M3.9999 2V24C3.9999 24.366 3.8939 24.705 3.7229 25H25.9999C26.5509 25 26.9999 24.551 26.9999 24V2H3.9999ZM5.9999 13H14.9999V20H5.9999V13ZM24.9999 23H5.9999V22H24.9999V23ZM24.9999 20H16.9999V19H24.9999V20ZM24.9999 17H16.9999V16H24.9999V17ZM24.9999 14H16.9999V13H24.9999V14ZM24.9999 11H5.9999V5H24.9999V11Z" fill="white"/>
<path opacity="0.24" d="M1 24V6H3V24C3 24.551 2.551 25 2 25C1.449 25 1 24.551 1 24Z" fill="white"/>
<path opacity="0.3" d="M24.5 5.5H6.5V10.5H24.5V5.5Z" fill="#4072E5"/>
<path d="M24 6V10H7V6H24ZM25 5H6V11H25V5Z" fill="#4072E5"/>
<path opacity="0.6" d="M3 1V5H0V24C0 25.105 0.895 26 2 26H26C27.105 26 28 25.105 28 24V1H3ZM3 24C3 24.551 2.551 25 2 25C1.449 25 1 24.551 1 24V6H3V24ZM27 24C27 24.551 26.551 25 26 25H3.723C3.895 24.705 4 24.366 4 24V2H27V24ZM17 14H25V13H17V14ZM17 17H25V16H17V17ZM17 20H25V19H17V20ZM6 23H25V22H6V23Z" fill="white"/>
<path opacity="0.85" d="M6 13V20H15V13H6ZM14 19H7V14H14V19Z" fill="#66ADFF"/>
<path opacity="0.26" d="M14 14V19H7V14H14Z" fill="#66ADFF"/>
</svg>
