<svg width="28" height="28" viewBox="0 0 28 28" fill="none" xmlns="http://www.w3.org/2000/svg">
<path opacity="0.6" d="M11 22V25C11 26.105 11.895 27 13 27C13 27.552 13.448 28 14 28H15C15.552 28 16 27.552 16 27C17.105 27 18 26.105 18 25V22H11ZM16 26H13C12.449 26 12 25.551 12 25H17C17 25.551 16.551 26 16 26ZM17 24H12V23H17V24Z" fill="white"/>
<path opacity="0.12" d="M16 26H13C12.449 26 12 25.551 12 25H17C17 25.551 16.551 26 16 26ZM17 24H12V23H17V24Z" fill="white"/>
<path opacity="0.8" d="M12.1 22C12.1 20.367 10.967 18.938 9.655 17.283C7.989 15.181 6.1 12.799 6.1 9.5C6.1 4.868 9.868 1.1 14.5 1.1C19.132 1.1 22.9 4.868 22.9 9.5C22.9 12.799 21.011 15.181 19.345 17.283C18.033 18.938 16.9 20.367 16.9 22H18C18 18.958 24 15.75 24 9.5C24 4.253 19.747 0 14.5 0C9.253 0 5 4.253 5 9.5C5 15.75 11 18.958 11 22H12.1Z" fill="#FAA700"/>
</svg>
