<svg width="28" height="28" viewBox="0 0 28 28" fill="none" xmlns="http://www.w3.org/2000/svg">
<g clip-path="url(#clip0_145_2909)">
<g opacity="0.2">
<path d="M11.5 14C11.5 15.381 12.619 16.5 14 16.5C15.381 16.5 16.5 15.381 16.5 14C16.5 12.619 15.381 11.5 14 11.5C12.619 11.5 11.5 12.619 11.5 14Z" fill="#444444"/>
<path d="M10 28H18V23.25C18 21.134 17.444 20.25 14 20.25C10.556 20.25 10 21.134 10 23.25V28Z" fill="#444444"/>
</g>
<path opacity="0.6" d="M14 10.5C12.067 10.5 10.5 12.067 10.5 14C10.5 15.933 12.067 17.5 14 17.5C15.933 17.5 17.5 15.933 17.5 14C17.5 12.067 15.933 10.5 14 10.5ZM14 16.5C12.619 16.5 11.5 15.381 11.5 14C11.5 12.619 12.619 11.5 14 11.5C15.381 11.5 16.5 12.619 16.5 14C16.5 15.381 15.381 16.5 14 16.5ZM19 23.25C19 20.334 17.645 19.25 14 19.25C10.355 19.25 9 20.334 9 23.25V28H10V23.25C10 21.134 10.556 20.25 14 20.25C17.444 20.25 18 21.134 18 23.25V28H19V23.25Z" fill="white"/>
<path opacity="0.85" d="M3.267 22.983C1.23 20.551 0 17.421 0 14C0 6.268 6.268 0 14 0C21.732 0 28 6.268 28 14C28 17.42 26.77 20.551 24.733 22.983L23.951 22.201C25.793 19.97 26.9 17.112 26.9 14C26.9 6.887 21.113 1.1 14 1.1C6.887 1.1 1.1 6.887 1.1 14C1.1 17.112 2.208 19.97 4.049 22.201L3.267 22.983ZM6.35 14C6.35 9.782 9.782 6.35 14 6.35C18.218 6.35 21.65 9.782 21.65 14C21.65 15.663 21.111 17.199 20.206 18.456L20.993 19.243C22.091 17.781 22.75 15.969 22.75 14C22.75 9.167 18.833 5.25 14 5.25C9.167 5.25 5.25 9.167 5.25 14C5.25 15.97 5.909 17.781 7.007 19.243L7.794 18.456C6.889 17.2 6.35 15.663 6.35 14Z" fill="#FF794C"/>
</g>
<defs>
<clipPath id="clip0_145_2909">
<rect width="28" height="28" fill="white"/>
</clipPath>
</defs>
</svg>
