<svg width="28" height="28" viewBox="0 0 28 28" fill="none" xmlns="http://www.w3.org/2000/svg">
<path opacity="0.85" d="M0 14C0 9.47498 2.156 5.46398 5.486 2.90398L6.158 3.77998C3.09 6.14098 1.1 9.83798 1.1 14C1.1 18.162 3.09 21.859 6.158 24.219L5.486 25.095C2.156 22.536 0 18.525 0 14ZM22.514 2.90398L21.842 3.77998C24.911 6.13998 26.9 9.83798 26.9 13.999C26.9 18.16 24.91 21.858 21.842 24.218L22.514 25.094C25.844 22.535 28 18.523 28 13.998C28 9.47298 25.844 5.46198 22.514 2.90198V2.90398ZM21.65 14C21.65 16.468 20.47 18.661 18.65 20.06L19.321 20.934C21.402 19.334 22.75 16.827 22.75 13.999C22.75 11.171 21.403 8.66398 19.321 7.06398L18.65 7.93798C20.47 9.33798 21.65 11.53 21.65 13.998V14ZM6.35 14C6.35 11.532 7.53 9.33898 9.35 7.93998L8.679 7.06498C6.598 8.66498 5.25 11.172 5.25 14C5.25 16.828 6.597 19.335 8.679 20.935L9.35 20.061C7.53 18.661 6.35 16.469 6.35 14.001V14ZM14 11.6C12.677 11.6 11.6 12.677 11.6 14C11.6 15.323 12.677 16.4 14 16.4C15.323 16.4 16.4 15.323 16.4 14C16.4 12.677 15.323 11.6 14 11.6ZM14 10.5C15.933 10.5 17.5 12.067 17.5 14C17.5 15.933 15.933 17.5 14 17.5C12.067 17.5 10.5 15.933 10.5 14C10.5 12.067 12.067 10.5 14 10.5Z" fill="#FF794C"/>
</svg>
