<svg width="28" height="28" viewBox="0 0 28 28" fill="none" xmlns="http://www.w3.org/2000/svg">
<path opacity="0.24" d="M24.302 21H19V26.302L24.302 21Z" fill="white"/>
<path opacity="0.75" d="M21 10H10V9H21V10ZM19 12H12V13H19V12Z" fill="white"/>
<path opacity="0.6" d="M4 16H3V18H4V16Z" fill="white"/>
<path opacity="0.6" d="M4 13H3V15H4V13Z" fill="white"/>
<path opacity="0.6" d="M4 19H3V21H4V19Z" fill="white"/>
<path opacity="0.6" d="M4 10H3V12H4V10Z" fill="white"/>
<path opacity="0.6" d="M24.5 0H4.5C3.672 0 3 0.672 3 1.5V3H4V1.5C4 1.224 4.224 1 4.5 1H24.5C24.776 1 25 1.224 25 1.5V20H18V27H4.5C4.224 27 4 26.776 4 26.5V25H3V26.5C3 27.328 3.672 28 4.5 28H24.5C25.328 28 26 27.328 26 26.5V1.5C26 0.672 25.328 0 24.5 0ZM19 21H24.302L19 26.302V21ZM25 26.5C25 26.776 24.776 27 24.5 27H19.716L25 21.716V26.5Z" fill="white"/>
<path opacity="0.6" d="M4 7H3V9H4V7Z" fill="white"/>
<path opacity="0.6" d="M4 4H3V6H4V4Z" fill="white"/>
<path opacity="0.6" d="M4 22H3V24H4V22Z" fill="white"/>
<path opacity="0.85" d="M1.5 3.5C1.5 3.224 1.724 3 2 3H5C5.276 3 5.5 3.224 5.5 3.5C5.5 3.776 5.276 4 5 4H2C1.724 4 1.5 3.776 1.5 3.5ZM5 6H2C1.724 6 1.5 6.224 1.5 6.5C1.5 6.776 1.724 7 2 7H5C5.276 7 5.5 6.776 5.5 6.5C5.5 6.224 5.276 6 5 6ZM5 9H2C1.724 9 1.5 9.224 1.5 9.5C1.5 9.776 1.724 10 2 10H5C5.276 10 5.5 9.776 5.5 9.5C5.5 9.224 5.276 9 5 9ZM5 12H2C1.724 12 1.5 12.224 1.5 12.5C1.5 12.776 1.724 13 2 13H5C5.276 13 5.5 12.776 5.5 12.5C5.5 12.224 5.276 12 5 12ZM5 15H2C1.724 15 1.5 15.224 1.5 15.5C1.5 15.776 1.724 16 2 16H5C5.276 16 5.5 15.776 5.5 15.5C5.5 15.224 5.276 15 5 15ZM5 18H2C1.724 18 1.5 18.224 1.5 18.5C1.5 18.776 1.724 19 2 19H5C5.276 19 5.5 18.776 5.5 18.5C5.5 18.224 5.276 18 5 18ZM5 21H2C1.724 21 1.5 21.224 1.5 21.5C1.5 21.776 1.724 22 2 22H5C5.276 22 5.5 21.776 5.5 21.5C5.5 21.224 5.276 21 5 21ZM5 24H2C1.724 24 1.5 24.224 1.5 24.5C1.5 24.776 1.724 25 2 25H5C5.276 25 5.5 24.776 5.5 24.5C5.5 24.224 5.276 24 5 24Z" fill="#FF6666"/>
</svg>
