<svg width="28" height="28" viewBox="0 0 28 28" fill="none" xmlns="http://www.w3.org/2000/svg">
<path opacity="0.6" d="M26 25V23H24V9H26V5L14.5 0L3 5V9H5V23H3V25H1V28H28V25H26ZM10 9H12V23H10V9ZM13 9H16V23H13V9ZM17 9H19V23H17V9ZM20 9H23V23H20V9ZM4 8V5.656L14.5 1.09L25 5.655V7.999L4 8ZM9 9V23H6V9H9ZM4 24H25V25H4V24ZM27 27H2V26H27V27ZM14.5 4C15.051 4 15.5 4.449 15.5 5C15.5 5.551 15.051 6 14.5 6C13.949 6 13.5 5.551 13.5 5C13.5 4.449 13.949 4 14.5 4ZM14.5 3C13.395 3 12.5 3.895 12.5 5C12.5 6.105 13.395 7 14.5 7C15.605 7 16.5 6.105 16.5 5C16.5 3.895 15.605 3 14.5 3Z" fill="white"/>
<path opacity="0.12" d="M25 24.0001H4V25.0001H25V24.0001ZM27 26.0001H2V27.0001H27V26.0001ZM9 9.00009H6V23.0001H9V9.00009ZM16 9.00009H13V23.0001H16V9.00009ZM23 9.00009H20V23.0001H23V9.00009ZM4 5.65609L14.5 1.09009L25 5.65509V7.99909H4V5.65609Z" fill="white"/>
</svg>
