<svg width="28" height="28" viewBox="0 0 28 28" fill="none" xmlns="http://www.w3.org/2000/svg">
<path opacity="0.12" d="M14.0001 4.1521L25.9841 11.0001L14.0001 17.8481L2.01611 11.0001L14.0001 4.1521Z" fill="white"/>
<path opacity="0.8" d="M3.5 20.5001C3.5 20.1341 3.294 19.8271 3 19.6531V12.7141L2 12.1431V19.6531C1.706 19.8271 1.5 20.1341 1.5 20.5001C1.5 20.8661 1.706 21.1731 2 21.3471V21.4041C1.668 22.0241 1.5 23.3731 1.5 25.5011C1.5 25.7771 1.948 26.0011 2.5 26.0011C3.052 26.0011 3.5 25.7771 3.5 25.5011C3.5 23.3741 3.332 22.0241 3 21.4041V21.3471C3.294 21.1731 3.5 20.8661 3.5 20.5001Z" fill="#FF794C"/>
<path opacity="0.6" d="M14 3L0 11L5 13.857V18.75C5 21.649 9.029 24 14 24C18.971 24 23 21.649 23 18.75V13.857L28 11L14 3ZM22 18.75C22 21.054 18.336 23 14 23C9.664 23 6 21.054 6 18.75V14.429L14 19L22 14.429V18.75ZM14 17.848L2.016 11L14 4.152L25.984 11L14 17.848Z" fill="white"/>
<path opacity="0.24" d="M22 18.75C22 21.054 18.336 23 14 23C9.664 23 6 21.054 6 18.75V14.429L14 19L22 14.429V18.75Z" fill="white"/>
</svg>
