<svg width="28" height="28" viewBox="0 0 28 28" fill="none" xmlns="http://www.w3.org/2000/svg">
<g clip-path="url(#clip0_145_2898)">
<path opacity="0.6" d="M18 23H19V24H18V23ZM16 24H17V23H16V24ZM26 7.75V25.25C26 26.216 25.216 27 24.25 27H23C23 27.552 22.552 28 22 28C21.448 28 21 27.552 21 27H7C7 27.552 6.552 28 6 28C5.448 28 5 27.552 5 27H3.75C2.784 27 2 26.216 2 25.25V7.75C2 6.784 2.784 6 3.75 6H10.293L5.146 0.853996L5.853 0.146996L11.707 6.001H16.293L22.146 0.145996L22.853 0.852996L17.707 5.999H24.25C25.216 5.999 26 6.784 26 7.75ZM25 7.75C25 7.336 24.664 7 24.25 7H3.75C3.336 7 3 7.336 3 7.75V25.25C3 25.664 3.336 26 3.75 26H24.25C24.664 26 25 25.664 25 25.25V7.75Z" fill="white"/>
<path opacity="0.9" d="M21 23H20V24H21V23Z" fill="#DB2C3A"/>
<path opacity="0.85" d="M20 9H8C6.343 9 5 10.343 5 12V19C5 20.657 6.343 22 8 22H20C21.657 22 23 20.657 23 19V12C23 10.343 21.657 9 20 9ZM22 19C22 20.103 21.103 21 20 21H8C6.897 21 6 20.103 6 19V12C6 10.897 6.897 10 8 10H20C21.103 10 22 10.897 22 12V19Z" fill="#66ADFF"/>
<path opacity="0.17" d="M20 10H8C6.89543 10 6 10.8954 6 12V19C6 20.1046 6.89543 21 8 21H20C21.1046 21 22 20.1046 22 19V12C22 10.8954 21.1046 10 20 10Z" fill="#66ADFF"/>
<path opacity="0.12" fill-rule="evenodd" clip-rule="evenodd" d="M18 24V23H19V24H18ZM16 24H17V23H16V24ZM3 7.75V25.25C3 25.664 3.336 26 3.75 26H24.25C24.664 26 25 25.664 25 25.25V7.75C25 7.3368 24.6653 7.0013 24.2524 7H3.74758C3.33469 7.0013 3 7.3368 3 7.75ZM21 24V23H20V24H21ZM5 12C5 10.343 6.343 9 8 9H20C21.657 9 23 10.343 23 12V19C23 20.657 21.657 22 20 22H8C6.343 22 5 20.657 5 19V12Z" fill="white"/>
</g>
<defs>
<clipPath id="clip0_145_2898">
<rect width="28" height="28" fill="white"/>
</clipPath>
</defs>
</svg>
