<svg width="28" height="28" viewBox="0 0 28 28" fill="none" xmlns="http://www.w3.org/2000/svg">
<g clip-path="url(#clip0_145_2881)">
<path opacity="0.6" d="M27 9V6.75C27 5.784 26.216 5 25.25 5H8.75C7.784 5 7 5.784 7 6.75V10.301L1.676 7.227C1.409 7.073 1.156 7 0.931 7C0.38 7 0 7.439 0 8.195V19.806C0 20.562 0.381 21.001 0.931 21.001C1.156 21.001 1.409 20.928 1.676 20.774L7 17.7V21.251C7 22.217 7.784 23.001 8.75 23.001H25.25C26.216 23.001 27 22.217 27 21.251V14.001C27.552 14.001 28 13.553 28 13.001V10.001C28 9.449 27.552 9.001 27 9.001V9ZM7 16.544L1.176 19.907C1.109 19.946 1.055 19.969 1.016 19.982C1.007 19.94 1 19.881 1 19.806V8.195C1 8.119 1.007 8.061 1.016 8.019C1.056 8.032 1.109 8.055 1.176 8.094L7 11.457V16.546V16.544ZM26 21.25C26 21.664 25.664 22 25.25 22H8.75C8.336 22 8 21.664 8 21.25V6.75C8 6.336 8.336 6 8.75 6H25.25C25.664 6 26 6.336 26 6.75V21.25Z" fill="white"/>
<path opacity="0.24" d="M7 16.544L1.176 19.907C1.109 19.946 1.055 19.969 1.016 19.982C1.007 19.94 1 19.881 1 19.806V8.19504C1 8.11904 1.007 8.06104 1.016 8.01904C1.056 8.03204 1.109 8.05504 1.176 8.09404L7 11.457V16.546V16.544Z" fill="white"/>
<path opacity="0.9" d="M24 9H23V10H24V9Z" fill="#DB2C3A"/>
<path opacity="0.6" d="M21 9.5C21 9.776 20.776 10 20.5 10H10.5C10.224 10 10 9.776 10 9.5C10 9.224 10.224 9 10.5 9H20.5C20.776 9 21 9.224 21 9.5Z" fill="white"/>
<path opacity="0.12" fill-rule="evenodd" clip-rule="evenodd" d="M8.75 6H25.25C25.6642 6 26 6.33579 26 6.75V21.25C26 21.6642 25.6642 22 25.25 22H8.75C8.33579 22 8 21.6642 8 21.25V6.75C8 6.33579 8.33579 6 8.75 6ZM21 9.5C21 9.776 20.776 10 20.5 10H10.5C10.224 10 10 9.776 10 9.5C10 9.224 10.224 9 10.5 9H20.5C20.776 9 21 9.224 21 9.5ZM24 9H23V10H24V9Z" fill="white"/>
</g>
<defs>
<clipPath id="clip0_145_2881">
<rect width="28" height="28" fill="white"/>
</clipPath>
</defs>
</svg>
