<svg width="28" height="28" viewBox="0 0 28 28" fill="none" xmlns="http://www.w3.org/2000/svg">
<path opacity="0.85" d="M4 7C4.55228 7 5 6.55228 5 6C5 5.44772 4.55228 5 4 5C3.44772 5 3 5.44772 3 6C3 6.55228 3.44772 7 4 7Z" fill="#E24940"/>
<path opacity="0.85" d="M7 7C7.55228 7 8 6.55228 8 6C8 5.44772 7.55228 5 7 5C6.44772 5 6 5.44772 6 6C6 6.55228 6.44772 7 7 7Z" fill="#E0A32A"/>
<path opacity="0.85" d="M10 7C10.5523 7 11 6.55228 11 6C11 5.44772 10.5523 5 10 5C9.44772 5 9 5.44772 9 6C9 6.55228 9.44772 7 10 7Z" fill="#28AD31"/>
<path opacity="0.12" fill-rule="evenodd" clip-rule="evenodd" d="M26.25 3H1.75C1.336 3 1 3.336 1 3.75V9H27V3.75C27 3.336 26.664 3 26.25 3ZM5 6C5 6.55228 4.55228 7 4 7C3.44772 7 3 6.55228 3 6C3 5.44772 3.44772 5 4 5C4.55228 5 5 5.44772 5 6ZM8 6C8 6.55228 7.55228 7 7 7C6.44772 7 6 6.55228 6 6C6 5.44772 6.44772 5 7 5C7.55228 5 8 5.44772 8 6ZM10 7C10.5523 7 11 6.55228 11 6C11 5.44772 10.5523 5 10 5C9.44772 5 9 5.44772 9 6C9 6.55228 9.44772 7 10 7Z" fill="white"/>
<path opacity="0.6" d="M26.25 2H1.75C0.784 2 0 2.784 0 3.75V26H28V3.75C28 2.784 27.216 2 26.25 2ZM27 25H1V10H27V25ZM27 9H1V3.75C1 3.336 1.336 3 1.75 3H26.25C26.664 3 27 3.336 27 3.75V9Z" fill="white"/>
<path d="M3 16V23H25V16H3ZM24 22H4V17H24V22Z" fill="#4072E5"/>
<path opacity="0.4" d="M24 17V22H4V17H24Z" fill="#4072E5"/>
</svg>
