<svg width="17" height="16" viewBox="0 0 17 16" fill="none" xmlns="http://www.w3.org/2000/svg">
<path opacity="0.24" d="M10 1.70697V5H13.293L10 1.70697Z" fill="white"/>
<path opacity="0.6" d="M6 14H3V1H9V6H14V10H15V5.293L9.707 0L2 0V15H6V14ZM10 1.707L13.293 5H10V1.707Z" fill="white"/>
<path opacity="0.6" d="M13.4999 11C13.1105 11.0008 12.7266 11.0929 12.3793 11.269C12.0319 11.4452 11.7307 11.7003 11.4999 12.014C11.1872 11.5909 10.7488 11.2772 10.2474 11.1177C9.74597 10.9582 9.20699 10.9609 8.70722 11.1256C8.20744 11.2902 7.77237 11.6084 7.46395 12.0347C7.15553 12.461 6.9895 12.9738 6.9895 13.5C6.9895 14.0262 7.15553 14.539 7.46395 14.9653C7.77237 15.3917 8.20744 15.7098 8.70722 15.8745C9.20699 16.0391 9.74597 16.0419 10.2474 15.8824C10.7488 15.7228 11.1872 15.4092 11.4999 14.986C11.7539 15.3297 12.0918 15.6024 12.4812 15.7784C12.8706 15.9543 13.2987 16.0274 13.7244 15.9908C14.1502 15.9542 14.5594 15.8091 14.9131 15.5693C15.2668 15.3296 15.5532 15.0031 15.7448 14.6212C15.9365 14.2392 16.027 13.8145 16.0078 13.3877C15.9886 12.9608 15.8603 12.5459 15.6351 12.1827C15.41 11.8195 15.0955 11.5201 14.7217 11.3131C14.3479 11.106 13.9272 10.9982 13.4999 11ZM9.49993 15C9.22467 15.0012 8.9544 14.9265 8.71873 14.7843C8.48305 14.6421 8.29105 14.4378 8.16375 14.1937C8.03646 13.9497 7.97877 13.6753 7.99701 13.4006C8.01526 13.126 8.10872 12.8616 8.26718 12.6366C8.42563 12.4115 8.64297 12.2343 8.89538 12.1245C9.1478 12.0147 9.42556 11.9765 9.69825 12.014C9.97094 12.0516 10.228 12.1634 10.4414 12.3373C10.6548 12.5112 10.8162 12.7405 10.9079 13H9.49993C9.36732 13 9.24014 13.0527 9.14637 13.1465C9.0526 13.2402 8.99993 13.3674 8.99993 13.5C8.99993 13.6326 9.0526 13.7598 9.14637 13.8536C9.24014 13.9473 9.36732 14 9.49993 14H10.9079C10.8049 14.2915 10.6143 14.544 10.3623 14.723C10.1102 14.902 9.80906 14.9987 9.49993 15ZM13.4999 15C13.1908 14.9987 12.8896 14.902 12.6376 14.723C12.3855 14.544 12.195 14.2915 12.0919 14H13.4999C13.6325 14 13.7597 13.9473 13.8535 13.8536C13.9472 13.7598 13.9999 13.6326 13.9999 13.5C13.9999 13.3674 13.9472 13.2402 13.8535 13.1465C13.7597 13.0527 13.6325 13 13.4999 13H12.0919C12.1837 12.7405 12.3451 12.5112 12.5584 12.3373C12.7718 12.1634 13.0289 12.0516 13.3016 12.014C13.5743 11.9765 13.8521 12.0147 14.1045 12.1245C14.3569 12.2343 14.5742 12.4115 14.7327 12.6366C14.8911 12.8616 14.9846 13.126 15.0028 13.4006C15.0211 13.6753 14.9634 13.9497 14.8361 14.1937C14.7088 14.4378 14.5168 14.6421 14.2811 14.7843C14.0454 14.9265 13.7752 15.0012 13.4999 15Z" fill="white"/>
</svg>
