<svg width="16" height="16" viewBox="0 0 16 16" fill="none" xmlns="http://www.w3.org/2000/svg">
<path opacity="0.34" d="M8 4H1V6H8V4Z" fill="#39BF68"/>
<path opacity="0.85" d="M8 4V6H1V4H8ZM9 3H0V7H9V3Z" fill="#39BF68"/>
<path opacity="0.6" fill-rule="evenodd" clip-rule="evenodd" d="M14 2H15C15.2652 2 15.5196 2.10536 15.7071 2.29289C15.8946 2.48043 16 2.73478 16 3V15C16 15.2652 15.8946 15.5196 15.7071 15.7071C15.5196 15.8946 15.2652 16 15 16H5C4.73481 15.9999 4.48049 15.8945 4.293 15.707L2.293 13.707C2.10545 13.5195 2.00006 13.2652 2 13V7H3V13H4V7H5V13H13V1H5V3H4V1H3V3H2V1C2 0.734784 2.10536 0.48043 2.29289 0.292893C2.48043 0.105357 2.73478 0 3 0H13C13.2652 0 13.5196 0.105357 13.7071 0.292893C13.8946 0.48043 14 0.734784 14 1V2ZM14 2V13C14 13.2652 13.8946 13.5196 13.7071 13.7071C13.5196 13.8946 13.2652 14 13 14H4L5 15H15V3L14 2Z" fill="white"/>
<path opacity="0.24" d="M14 2V13C14 13.5523 13.5523 14 13 14H4L5 15H15V3L14 2Z" fill="white"/>
</svg>
