<svg width="16" height="16" viewBox="0 0 16 16" fill="none" xmlns="http://www.w3.org/2000/svg">
<path opacity="0.12" fill-rule="evenodd" clip-rule="evenodd" d="M1 2H14V5H1V2ZM2 3H3V4H2V3ZM4 3H5V4H4V3ZM7 3H6V4H7V3Z" fill="white"/>
<path opacity="0.85" d="M3 3H2V4H3V3Z" fill="#E24940"/>
<path opacity="0.85" d="M5 3H4V4H5V3Z" fill="#E0A32A"/>
<path opacity="0.85" d="M7 3H6V4H7V3Z" fill="#28AD31"/>
<path opacity="0.4" d="M5 10H3V12H5V10Z" fill="#4072E5"/>
<path d="M5 12H3V10H5V9H2V13H5V12Z" fill="#4072E5"/>
<path opacity="0.6" d="M15 9V15H7V9H15ZM15 8H7C6.73478 8 6.48043 8.10536 6.29289 8.29289C6.10536 8.48043 6 8.73478 6 9V15C6 15.2652 6.10536 15.5196 6.29289 15.7071C6.48043 15.8946 6.73478 16 7 16H15C15.2652 16 15.5196 15.8946 15.7071 15.7071C15.8946 15.5196 16 15.2652 16 15V9C16 8.73478 15.8946 8.48043 15.7071 8.29289C15.5196 8.10536 15.2652 8 15 8ZM11 11C11.1978 11 11.3911 11.0586 11.5556 11.1685C11.72 11.2784 11.8482 11.4346 11.9239 11.6173C11.9996 11.8 12.0194 12.0011 11.9808 12.1951C11.9422 12.3891 11.847 12.5673 11.7071 12.7071C11.5673 12.847 11.3891 12.9422 11.1951 12.9808C11.0011 13.0194 10.8 12.9996 10.6173 12.9239C10.4346 12.8482 10.2784 12.72 10.1685 12.5556C10.0586 12.3911 10 12.1978 10 12C10 11.7348 10.1054 11.4804 10.2929 11.2929C10.4804 11.1054 10.7348 11 11 11ZM11 10C10.6044 10 10.2178 10.1173 9.88886 10.3371C9.55996 10.5568 9.30362 10.8692 9.15224 11.2346C9.00087 11.6001 8.96126 12.0022 9.03843 12.3902C9.1156 12.7781 9.30608 13.1345 9.58579 13.4142C9.86549 13.6939 10.2219 13.8844 10.6098 13.9616C10.9978 14.0387 11.3999 13.9991 11.7654 13.8478C12.1308 13.6964 12.4432 13.44 12.6629 13.1111C12.8827 12.7822 13 12.3956 13 12C13 11.4696 12.7893 10.9609 12.4142 10.5858C12.0391 10.2107 11.5304 10 11 10ZM13 10.5H14V9.5H13V10.5Z" fill="white"/>
<path opacity="0.12" d="M11.5556 11.1685C11.3911 11.0586 11.1978 11 11 11C10.7348 11 10.4804 11.1054 10.2929 11.2929C10.1054 11.4804 10 11.7348 10 12C10 12.1978 10.0586 12.3911 10.1685 12.5556C10.2784 12.72 10.4346 12.8482 10.6173 12.9239C10.8 12.9996 11.0011 13.0194 11.1951 12.9808C11.3891 12.9422 11.5673 12.847 11.7071 12.7071C11.847 12.5673 11.9422 12.3891 11.9808 12.1951C12.0194 12.0011 11.9996 11.8 11.9239 11.6173C11.8482 11.4346 11.72 11.2784 11.5556 11.1685Z" fill="white"/>
<path opacity="0.24" fill-rule="evenodd" clip-rule="evenodd" d="M7 15H15V9H7V15ZM9.88886 10.3371C10.2178 10.1173 10.6044 10 11 10C11.5304 10 12.0391 10.2107 12.4142 10.5858C12.7893 10.9609 13 11.4696 13 12C13 12.3956 12.8827 12.7822 12.6629 13.1111C12.4432 13.44 12.1308 13.6964 11.7654 13.8478C11.3999 13.9991 10.9978 14.0387 10.6098 13.9616C10.2219 13.8844 9.86549 13.6939 9.58579 13.4142C9.30608 13.1345 9.1156 12.7781 9.03843 12.3902C8.96126 12.0022 9.00087 11.6001 9.15224 11.2346C9.30362 10.8692 9.55996 10.5568 9.88886 10.3371ZM14 10.5H13V9.5H14V10.5Z" fill="white"/>
<path opacity="0.6" fill-rule="evenodd" clip-rule="evenodd" d="M1 1H14C14.2652 1 14.5196 1.10536 14.7071 1.29289C14.8946 1.48043 15 1.73478 15 2V8H14V6H1V14H6V15H0V2C0 1.73478 0.105357 1.48043 0.292893 1.29289C0.48043 1.10536 0.734784 1 1 1ZM1 5H14V2H1V5Z" fill="white"/>
</svg>
