<svg width="16" height="16" viewBox="0 0 16 16" fill="none" xmlns="http://www.w3.org/2000/svg">
<path opacity="0.12" fill-rule="evenodd" clip-rule="evenodd" d="M1 2H14V5H1V2ZM2 3H3V4H2V3ZM4 3H5V4H4V3ZM7 3H6V4H7V3Z" fill="white"/>
<path opacity="0.85" d="M3 3H2V4H3V3Z" fill="#E24940"/>
<path opacity="0.85" d="M5 3H4V4H5V3Z" fill="#E0A32A"/>
<path opacity="0.85" d="M7 3H6V4H7V3Z" fill="#28AD31"/>
<path opacity="0.6" d="M6.051 14H1V6H14V10.051C14.3467 10.0995 14.6839 10.2007 15 10.351V2C15 1.73478 14.8946 1.48043 14.7071 1.29289C14.5196 1.10536 14.2652 1 14 1H1C0.734784 1 0.48043 1.10536 0.292893 1.29289C0.105357 1.48043 0 1.73478 0 2L0 15H6.351C6.2007 14.6839 6.09954 14.3467 6.051 14ZM1 2H14V5H1V2Z" fill="white"/>
<path opacity="0.4" d="M11.5 10.632C10.9152 10.2187 10.2161 9.9978 9.5 10C8.74896 10.0027 8.01878 10.2474 7.41771 10.6977C6.96032 11.0403 6.59622 11.4882 6.35414 12H3V9H12V10.3403C11.8257 10.4231 11.6584 10.5207 11.5 10.632Z" fill="#4072E5"/>
<path d="M6.351 12H3V9H12V10.342C12.3162 10.1919 12.6534 10.0907 13 10.042V8H2V13H6.051C6.09954 12.6533 6.2007 12.3161 6.351 12Z" fill="#4072E5"/>
<path opacity="0.6" fill-rule="evenodd" clip-rule="evenodd" d="M9.5 11C10.3178 11 11.0439 11.3927 11.5 11.9998C11.9561 11.3927 12.6822 11 13.5 11C14.8807 11 16 12.1193 16 13.5C16 14.8807 14.8807 16 13.5 16C12.6822 16 11.9561 15.6073 11.5 15.0002C11.0439 15.6073 10.3178 16 9.5 16C8.11929 16 7 14.8807 7 13.5C7 12.1193 8.11929 11 9.5 11ZM10.9146 13H9.5C9.22386 13 9 13.2239 9 13.5C9 13.7761 9.22386 14 9.5 14H10.9146C10.7087 14.5826 10.1531 15 9.5 15C8.67157 15 8 14.3284 8 13.5C8 12.6716 8.67157 12 9.5 12C10.1531 12 10.7087 12.4174 10.9146 13ZM12.0854 14H13.5C13.7761 14 14 13.7761 14 13.5C14 13.2239 13.7761 13 13.5 13H12.0854C12.2913 12.4174 12.8469 12 13.5 12C14.3284 12 15 12.6716 15 13.5C15 14.3284 14.3284 15 13.5 15C12.8469 15 12.2913 14.5826 12.0854 14Z" fill="white"/>
</svg>
