<svg width="16" height="16" viewBox="0 0 16 16" fill="none" xmlns="http://www.w3.org/2000/svg">
<path opacity="0.6" fill-rule="evenodd" clip-rule="evenodd" d="M2 0H9.707L15 5.293V10.3368C14.6891 10.1891 14.3531 10.0859 14 10.0354V6H9V1H3V15H6.33679C6.51484 15.3748 6.75753 15.7129 7.05047 16H2V0ZM13.293 5L10 1.707V5H13.293Z" fill="white"/>
<path opacity="0.6" fill-rule="evenodd" clip-rule="evenodd" d="M9.5 11C10.3178 11 11.0439 11.3927 11.5 11.9998C11.9561 11.3927 12.6822 11 13.5 11C14.8807 11 16 12.1193 16 13.5C16 14.8807 14.8807 16 13.5 16C12.6822 16 11.9561 15.6073 11.5 15.0002C11.0439 15.6073 10.3178 16 9.5 16C8.11929 16 7 14.8807 7 13.5C7 12.1193 8.11929 11 9.5 11ZM10.9146 13H9.5C9.22386 13 9 13.2239 9 13.5C9 13.7761 9.22386 14 9.5 14H10.9146C10.7087 14.5826 10.1531 15 9.5 15C8.67157 15 8 14.3284 8 13.5C8 12.6716 8.67157 12 9.5 12C10.1531 12 10.7087 12.4174 10.9146 13ZM12.0854 14H13.5C13.7761 14 14 13.7761 14 13.5C14 13.2239 13.7761 13 13.5 13H12.0854C12.2913 12.4174 12.8469 12 13.5 12C14.3284 12 15 12.6716 15 13.5C15 14.3284 14.3284 15 13.5 15C12.8469 15 12.2913 14.5826 12.0854 14Z" fill="white"/>
<path opacity="0.34" fill-rule="evenodd" clip-rule="evenodd" d="M10 9.49987L7 7.76782V11.0505C7.54602 10.4933 8.27683 10.1179 9.09326 10.0234L10 9.49987Z" fill="#66ADFF"/>
<path opacity="0.85" fill-rule="evenodd" clip-rule="evenodd" d="M6 6.03589L12 9.49999L10.7416 10.2265C10.3558 10.0801 9.93724 10 9.5 10C9.36251 10 9.22687 10.0079 9.09352 10.0233L10 9.49999L7 7.76794L7 11.0505C6.50545 11.5551 6.1625 12.2089 6.04484 12.9382L6 12.9641V6.03589Z" fill="#66ADFF"/>
<path opacity="0.24" d="M10 1.70703V5.00006H13.293L10 1.70703Z" fill="white"/>
</svg>
