<svg width="16" height="16" viewBox="0 0 16 16" fill="none" xmlns="http://www.w3.org/2000/svg">
<path opacity="0.6" d="M9.707 0H1.5V16H14.5V4.793L9.707 0ZM10 1.707L12.793 4.5H10V1.707ZM2.5 15V1H9V5.5H13.5V15H2.5Z" fill="white"/>
<path opacity="0.24" d="M10 1.70703V4.5H12.793L10 1.70703Z" fill="white"/>
<path opacity="0.8" d="M6.25 7.5C6.94036 7.5 7.5 6.94036 7.5 6.25C7.5 5.55964 6.94036 5 6.25 5C5.55964 5 5 5.55964 5 6.25C5 6.94036 5.55964 7.5 6.25 7.5Z" fill="#FF794C"/>
<path opacity="0.85" fill-rule="evenodd" clip-rule="evenodd" d="M7.00002 10.8571L9 8L12.5 13H5.5L5.50005 12.9999H3.5L6 9.4285L7.00002 10.8571Z" fill="#39BF68"/>
</svg>
