<svg width="16" height="16" viewBox="0 0 16 16" fill="none" xmlns="http://www.w3.org/2000/svg">
<path opacity="0.8" d="M10.5 7C11.3284 7 12 6.32843 12 5.5C12 4.67157 11.3284 4 10.5 4C9.67157 4 9 4.67157 9 5.5C9 6.32843 9.67157 7 10.5 7Z" fill="#FF794C"/>
<path opacity="0.6" fill-rule="evenodd" clip-rule="evenodd" d="M9.5 11C10.3178 11 11.0439 11.3927 11.5 11.9998C11.9561 11.3927 12.6822 11 13.5 11C14.8807 11 16 12.1193 16 13.5C16 14.8807 14.8807 16 13.5 16C12.6822 16 11.9561 15.6073 11.5 15.0002C11.0439 15.6073 10.3178 16 9.5 16C8.11929 16 7 14.8807 7 13.5C7 12.1193 8.11929 11 9.5 11ZM10.9146 13H9.5C9.22386 13 9 13.2239 9 13.5C9 13.7761 9.22386 14 9.5 14H10.9146C10.7087 14.5826 10.1531 15 9.5 15C8.67157 15 8 14.3284 8 13.5C8 12.6716 8.67157 12 9.5 12C10.1531 12 10.7087 12.4174 10.9146 13ZM12.0854 14H13.5C13.7761 14 14 13.7761 14 13.5C14 13.2239 13.7761 13 13.5 13H12.0854C12.2913 12.4174 12.8469 12 13.5 12C14.3284 12 15 12.6716 15 13.5C15 14.3284 14.3284 15 13.5 15C12.8469 15 12.2913 14.5826 12.0854 14Z" fill="white"/>
<path opacity="0.6" fill-rule="evenodd" clip-rule="evenodd" d="M15 10.3368V2H1V14H6.03544C6.08594 14.3531 6.18913 14.6892 6.33679 15H0V1H16V11.0505C15.7129 10.7575 15.3748 10.5148 15 10.3368Z" fill="white"/>
<path opacity="0.85" fill-rule="evenodd" clip-rule="evenodd" d="M12.4523 10.1594C12.7831 10.0558 13.135 10 13.5 10C13.5717 10 13.6429 10.0022 13.7135 10.0064L11.5001 7.79297L9.28665 10.0064C9.35722 10.0022 9.42836 10 9.5 10C9.86502 10 10.217 10.0558 10.5478 10.1594L11.5001 9.20718L12.4523 10.1594ZM7.75704 10.4641C8.07095 10.2835 8.41552 10.1502 8.78102 10.0739L5.50008 6.79297L1 11.293V12.7073L5.50008 8.20718L7.75704 10.4641Z" fill="#39BF68"/>
<path opacity="0.34" fill-rule="evenodd" clip-rule="evenodd" d="M1 14.0001V12.7074L5.50008 8.20728L7.75698 10.4642C6.70698 11.0683 6 12.2016 6 13.5C6 13.6698 6.01209 13.8368 6.03545 14.0001H1ZM12.4522 10.1594L11.5001 9.20728L10.5479 10.1595C10.891 10.2669 11.2114 10.4258 11.5 10.6272C11.7887 10.4258 12.1091 10.2669 12.4522 10.1594Z" fill="#39BF68"/>
</svg>
