<svg width="16" height="16" viewBox="0 0 16 16" fill="none" xmlns="http://www.w3.org/2000/svg">
<path opacity="0.12" fill-rule="evenodd" clip-rule="evenodd" d="M15 4.5H1V14H6.03544C6.01208 13.8367 6 13.6698 6 13.5C6 13.2074 6.0359 12.9232 6.10353 12.6515L5.5 13L5.5 5.5L11.9952 9.25L10.4636 10.1342C10.8386 10.2414 11.1879 10.4095 11.5 10.6272C12.0669 10.2317 12.7564 10 13.5 10C14.0368 10 14.5454 10.1208 15 10.3368V4.5Z" fill="white"/>
<path opacity="0.24" fill-rule="evenodd" clip-rule="evenodd" d="M9.99519 9.24988L6.5 7.23193L6.5 11.2678L7.19298 10.8677C7.53542 10.5674 7.93698 10.3327 8.37794 10.1836L9.99519 9.24988Z" fill="white"/>
<path opacity="0.6" fill-rule="evenodd" clip-rule="evenodd" d="M15 3.5V2H14.5L13 3.5H15ZM7.77627 2H9.72412L8.22412 3.5H6.27627L7.77627 2ZM9.63833 3.5L11.1383 2H13.0858L11.5858 3.5H9.63833ZM3 2H1V3.5H1.5L3 2ZM4.41421 2L2.91421 3.5H4.86206L6.36206 2H4.41421ZM15 4.5H1V14H6.03544C6.08594 14.3531 6.18913 14.6892 6.33679 15H0V1H16V11.0505C15.7129 10.7575 15.3748 10.5148 15 10.3368V4.5ZM10.4636 10.1342L11.9952 9.25L5.5 5.5V13L6.10353 12.6515C6.27845 11.949 6.6656 11.3305 7.19298 10.8679L6.5 11.2679V7.23205L9.99519 9.25L8.37794 10.1837C8.73017 10.0646 9.10754 10 9.5 10C9.83422 10 10.1575 10.0468 10.4636 10.1342Z" fill="white"/>
<path opacity="0.6" fill-rule="evenodd" clip-rule="evenodd" d="M9.5 11C10.3178 11 11.0439 11.3927 11.5 11.9998C11.9561 11.3927 12.6822 11 13.5 11C14.8807 11 16 12.1193 16 13.5C16 14.8807 14.8807 16 13.5 16C12.6822 16 11.9561 15.6073 11.5 15.0002C11.0439 15.6073 10.3178 16 9.5 16C8.11929 16 7 14.8807 7 13.5C7 12.1193 8.11929 11 9.5 11ZM10.9146 13H9.5C9.22386 13 9 13.2239 9 13.5C9 13.7761 9.22386 14 9.5 14H10.9146C10.7087 14.5826 10.1531 15 9.5 15C8.67157 15 8 14.3284 8 13.5C8 12.6716 8.67157 12 9.5 12C10.1531 12 10.7087 12.4174 10.9146 13ZM12.0854 14H13.5C13.7761 14 14 13.7761 14 13.5C14 13.2239 13.7761 13 13.5 13H12.0854C12.2913 12.4174 12.8469 12 13.5 12C14.3284 12 15 12.6716 15 13.5C15 14.3284 14.3284 15 13.5 15C12.8469 15 12.2913 14.5826 12.0854 14Z" fill="white"/>
</svg>
