<svg width="16" height="16" viewBox="0 0 16 16" fill="none" xmlns="http://www.w3.org/2000/svg">
<g opacity="0.34">
<path d="M13 12C13.8789 12 14.3281 11.7031 14.4609 11H11.5391C11.6719 11.7031 12.1211 12 13 12Z" fill="#CC9200"/>
<path d="M3 12C3.87891 12 4.32813 11.7031 4.46094 11H1.53906C1.67188 11.7031 2.12109 12 3 12Z" fill="#CC9200"/>
</g>
<g opacity="0.6">
<path fill-rule="evenodd" clip-rule="evenodd" d="M2.98435 2.99976C2.88111 3.00301 2.78126 3.03817 2.69864 3.1006C2.61184 3.1662 2.5488 3.25832 2.51909 3.36299L0.521729 10.3538C0.545453 10.2762 0.587912 10.2048 0.646308 10.1465C0.740076 10.0527 0.867253 10 0.999862 10H4.99986C5.13247 10 5.25965 10.0527 5.35342 10.1465C5.44718 10.2402 5.49986 10.3674 5.49986 10.5L5.50021 10.5031C5.5005 10.4558 5.49411 10.4087 5.48109 10.363L3.48109 3.36299C3.45138 3.25832 3.38834 3.1662 3.30153 3.1006C3.22062 3.03946 3.12316 3.00447 3.02219 3H2.99986C2.99468 3 2.98951 2.99992 2.98435 2.99976ZM4.33709 9.99999H1.66309L3.00009 5.31999L4.33709 9.99999Z" fill="white"/>
<path fill-rule="evenodd" clip-rule="evenodd" d="M12.978 3C12.877 3.00447 12.7796 3.03946 12.6986 3.1006C12.6118 3.1662 12.5488 3.25832 12.5191 3.36299L10.5217 10.3537C10.5455 10.2762 10.5879 10.2048 10.6463 10.1465C10.7401 10.0527 10.8673 10 10.9999 10H14.9999C15.1325 10 15.2596 10.0527 15.3534 10.1465C15.4472 10.2402 15.4999 10.3674 15.4999 10.5L15.5002 10.5031C15.5005 10.4559 15.4941 10.4087 15.4811 10.363L13.4811 3.36299C13.4514 3.25832 13.3883 3.1662 13.3015 3.1006C13.2189 3.03813 13.1189 3.00296 13.0156 2.99976C13.0104 2.99992 13.0051 3 12.9999 3H12.978ZM14.3371 9.99999H11.6631L13.0001 5.31999L14.3371 9.99999Z" fill="white"/>
</g>
<path opacity="0.85" d="M14.4609 11C14.3281 11.7031 13.8789 12 13 12C12.1211 12 11.6719 11.7031 11.5391 11H14.4609ZM15.5 10.5C15.5 10.2227 15.2773 10 15 10H11C10.7227 10 10.5 10.2227 10.5 10.5C10.5 12.1133 11.3867 13 13 13C14.6133 13 15.5 12.1133 15.5 10.5ZM4.46094 11C4.32812 11.7031 3.87891 12 3 12C2.12109 12 1.67188 11.7031 1.53906 11H4.46094ZM5.5 10.5C5.5 10.2227 5.27734 10 5 10H1C0.722656 10 0.5 10.2227 0.5 10.5C0.5 12.1133 1.38672 13 3 13C4.61328 13 5.5 12.1133 5.5 10.5ZM11 15H9.5C9.5 14.4492 9.05078 14 8.5 14V4H7.5V14C6.94922 14 6.5 14.4492 6.5 15H5C4.72266 15 4.5 15.2227 4.5 15.5C4.5 15.7773 4.72266 16 5 16H11C11.2773 16 11.5 15.7773 11.5 15.5C11.5 15.2227 11.2773 15 11 15ZM13.5 2.5C13.5 2.77734 13.2773 3 13 3H3C2.72266 3 2.5 2.77734 2.5 2.5C2.5 2.22266 2.72266 2 3 2H7.5V0.5C7.5 0.222656 7.72266 0 8 0C8.27734 0 8.5 0.222656 8.5 0.5V2H13C13.2773 2 13.5 2.22266 13.5 2.5Z" fill="#CC9200"/>
</svg>
