<svg width="16" height="16" viewBox="0 0 16 16" fill="none" xmlns="http://www.w3.org/2000/svg">
<g opacity="0.34">
<path d="M13.5 12C14.3789 12 14.8281 11.7031 14.9609 11H12.0391C12.1719 11.7031 12.6211 12 13.5 12Z" fill="#CC9200"/>
<path d="M3.5 12C4.37891 12 4.82813 11.7031 4.96094 11H2.03906C2.17188 11.7031 2.62109 12 3.5 12Z" fill="#CC9200"/>
</g>
<g opacity="0.6">
<path fill-rule="evenodd" clip-rule="evenodd" d="M3.48435 2.99976C3.38111 3.00301 3.28126 3.03817 3.19864 3.1006C3.11184 3.1662 3.0488 3.25832 3.01909 3.36299L1.02173 10.3538C1.04545 10.2762 1.08791 10.2048 1.14631 10.1465C1.24008 10.0527 1.36725 10 1.49986 10H5.49986C5.63247 10 5.75965 10.0527 5.85342 10.1465C5.94718 10.2402 5.99986 10.3674 5.99986 10.5L6.00021 10.5031C6.0005 10.4558 5.99411 10.4087 5.98109 10.363L3.98109 3.36299C3.95138 3.25832 3.88834 3.1662 3.80153 3.1006C3.72062 3.03946 3.62316 3.00447 3.52219 3H3.49986C3.49468 3 3.48951 2.99992 3.48435 2.99976ZM4.83709 9.99999H2.16309L3.50009 5.31999L4.83709 9.99999Z" fill="white"/>
<path fill-rule="evenodd" clip-rule="evenodd" d="M13.478 3C13.377 3.00447 13.2796 3.03946 13.1986 3.1006C13.1118 3.1662 13.0488 3.25832 13.0191 3.36299L11.0217 10.3537C11.0455 10.2762 11.0879 10.2048 11.1463 10.1465C11.2401 10.0527 11.3673 10 11.4999 10H15.4999C15.6325 10 15.7596 10.0527 15.8534 10.1465C15.9472 10.2402 15.9999 10.3674 15.9999 10.5L16.0002 10.5031C16.0005 10.4559 15.9941 10.4087 15.9811 10.363L13.9811 3.36299C13.9514 3.25832 13.8883 3.1662 13.8015 3.1006C13.7189 3.03813 13.6189 3.00296 13.5156 2.99976C13.5104 2.99992 13.5051 3 13.4999 3H13.478ZM14.8371 9.99999H12.1631L13.5001 5.31999L14.8371 9.99999Z" fill="white"/>
</g>
<path opacity="0.85" d="M14.9609 11C14.8281 11.7031 14.3789 12 13.5 12C12.6211 12 12.1719 11.7031 12.0391 11H14.9609ZM16 10.5C16 10.2227 15.7773 10 15.5 10H11.5C11.2227 10 11 10.2227 11 10.5C11 12.1133 11.8867 13 13.5 13C15.1133 13 16 12.1133 16 10.5ZM4.96094 11C4.82812 11.7031 4.37891 12 3.5 12C2.62109 12 2.17188 11.7031 2.03906 11H4.96094ZM6 10.5C6 10.2227 5.77734 10 5.5 10H1.5C1.22266 10 1 10.2227 1 10.5C1 12.1133 1.88672 13 3.5 13C5.11328 13 6 12.1133 6 10.5ZM11.5 15H10C10 14.4492 9.55078 14 9 14V4H8V14C7.44922 14 7 14.4492 7 15H5.5C5.22266 15 5 15.2227 5 15.5C5 15.7773 5.22266 16 5.5 16H11.5C11.7773 16 12 15.7773 12 15.5C12 15.2227 11.7773 15 11.5 15ZM14 2.5C14 2.77734 13.7773 3 13.5 3H3.5C3.22266 3 3 2.77734 3 2.5C3 2.22266 3.22266 2 3.5 2H8V0.5C8 0.222656 8.22266 0 8.5 0C8.77734 0 9 0.222656 9 0.5V2H13.5C13.7773 2 14 2.22266 14 2.5Z" fill="#CC9200"/>
</svg>
