<svg width="16" height="16" viewBox="0 0 16 16" fill="none" xmlns="http://www.w3.org/2000/svg">
<path opacity="0.2" d="M11 5H5V15H11V5Z" fill="#CC7A52"/>
<path opacity="0.9" d="M14 8L15 2H1L2 8H4V15H2V16H14V15H12V8H14ZM2.847 7L2.18 3H13.82L13.153 7H12V4H4V7H2.847ZM11 15H5V5H11V15Z" fill="#CC7A52"/>
<g opacity="0.6">
<path d="M10.4946 3L10.5001 3.00002L10.5057 3H10.4946Z" fill="white"/>
<path d="M9.29212 2H10.7081L8.85414 0.146021C8.76026 0.0521346 8.63292 -0.000610352 8.50014 -0.000610352C8.36737 -0.000610352 8.24003 0.0521346 8.14614 0.146021C8.05226 0.239908 7.99951 0.367245 7.99951 0.500021C7.99951 0.632797 8.05226 0.760135 8.14614 0.854021L9.29212 2Z" fill="white"/>
</g>
<path opacity="0.4" d="M2.17993 3L2.84693 7H3.99993V4H11.9999V7H13.1529L13.8199 3H2.17993Z" fill="#CC7A52"/>
</svg>
