<svg width="16" height="16" viewBox="0 0 16 16" fill="none" xmlns="http://www.w3.org/2000/svg">
<path opacity="0.36" d="M4 1.15698C4.67185 1.22452 5.33951 1.32868 6 1.46898V10.141L5.551 9.84098L5.142 9.57098L4.678 9.72898L4 9.95898V1.15698Z" fill="#DB2C3A"/>
<path d="M8.5 1.309C8.03341 1.02907 7.52792 0.8198 7 0.688V1.728C7.32975 1.82209 7.64552 1.95963 7.939 2.137L8 2.179V13.961C6.06008 13.341 4.03659 13.0219 2 13.015V1.015C2.344 1.027 2.677 1.045 3 1.066V0.066C2.358 0.028 1.694 0 1 0V14C3.37737 13.9087 5.75101 14.26 8 15.036C8.17376 15.1133 8.34098 15.2046 8.5 15.309C8.65902 15.2046 8.82624 15.1133 9 15.036C11.249 14.26 13.6226 13.9087 16 14V0C12.554 0 9.626 0.546 8.5 1.309ZM15 13.015C12.9634 13.0219 10.9399 13.341 9 13.961V2.179L9.061 2.137C9.812 1.628 12.039 1.113 15 1.016V13.015Z" fill="#4072E5"/>
<path opacity="0.9" d="M3 0.0689697V11.359L5 10.679L7 12V0.68797C5.6915 0.344636 4.35107 0.137205 3 0.0689697ZM6 10.141L5.551 9.84097L5.142 9.57097L4.678 9.72897L4 9.95897V1.15697C4.67185 1.22451 5.33951 1.32866 6 1.46897V10.141Z" fill="#DB2C3A"/>
</svg>
