<svg width="16" height="16" viewBox="0 0 16 16" fill="none" xmlns="http://www.w3.org/2000/svg">
<g opacity="0.2">
<path d="M8.3126 7.01953L7.98057 6.6875L1.1251 13.168C0.953224 13.3398 0.953224 13.6602 1.14463 13.8516C1.27354 13.9805 1.42197 14 1.5001 14C1.57822 14 1.72666 13.9805 1.85557 13.8516L8.3126 7.01953Z" fill="#996B6F"/>
<path d="M8.03916 15H14.961C14.8282 14.2969 14.379 14 13.5001 14H9.5001C8.62119 14 8.17197 14.2969 8.03916 15Z" fill="#996B6F"/>
</g>
<path d="M8.03906 15H14.9609C14.8281 14.2969 14.3789 14 13.5 14H9.5C8.62109 14 8.17187 14.2969 8.03906 15ZM15.5 16H7.5C7.22266 16 7 15.7773 7 15.5C7 13.8867 7.88672 13 9.5 13H13.5C15.1133 13 16 13.8867 16 15.5C16 15.7773 15.7773 16 15.5 16Z" fill="#996B6F"/>
<path opacity="0.34" d="M10.498 7.79492L12.793 5.5L9.50195 2.20898L7.20703 4.50391L10.498 7.79492Z" fill="#CC9200"/>
<path d="M6.5 3.79297L6.20703 3.5L8.5 1.20703L8.79297 1.5L6.5 3.79297ZM10.3555 0.648438C10.1562 0.449219 9.84375 0.449219 9.64453 0.648438L9.5 0.792969L9.20703 0.5C8.81641 0.109375 8.18359 0.109375 7.79297 0.5L5.5 2.79297C5.10938 3.18359 5.10938 3.81641 5.5 4.20703L5.79297 4.5L5.64453 4.64844C5.44922 4.84375 5.44922 5.15625 5.64453 5.35547C5.74219 5.44922 5.87109 5.5 6 5.5C6.12891 5.5 6.25781 5.44922 6.35547 5.35547L10.3555 1.35547C10.5508 1.15625 10.5508 0.84375 10.3555 0.648438ZM11.5 8.79297L11.207 8.5L13.5 6.20703L13.793 6.5L11.5 8.79297ZM14.5 5.79297L14.207 5.5L14.3555 5.35547C14.5508 5.15625 14.5508 4.84375 14.3555 4.64844C14.1562 4.44922 13.8438 4.44922 13.6445 4.64844L9.64453 8.64844C9.44922 8.84375 9.44922 9.15625 9.64453 9.35547C9.74219 9.44922 9.87109 9.5 10 9.5C10.1289 9.5 10.2578 9.44922 10.3555 9.35547L10.5 9.20703L10.793 9.5C10.9883 9.69531 11.2422 9.79297 11.5 9.79297C11.7578 9.79297 12.0117 9.69531 12.207 9.5L14.5 7.20703C14.8906 6.81641 14.8906 6.18359 14.5 5.79297Z" fill="#996B6F"/>
<g opacity="0.85">
<path d="M9.50195 2.20898L10.207 1.50391L13.498 4.79492L12.793 5.5L9.50195 2.20898Z" fill="#CC9200"/>
<path d="M6.50195 5.20898L7.20703 4.50391L10.498 7.79492L9.79297 8.5L6.50195 5.20898Z" fill="#CC9200"/>
</g>
<path d="M7.27288 5.97991L0.4375 12.4375C-0.144531 13.0273 -0.144531 13.9727 0.4375 14.5586C0.730469 14.8516 1.11719 15 1.5 15C1.88281 15 2.26953 14.8516 2.5625 14.5586L9.01991 7.72694L8.3125 7.01953L1.85547 13.8516C1.72656 13.9805 1.57812 14 1.5 14C1.42187 14 1.27344 13.9805 1.14453 13.8516C0.953125 13.6602 0.953125 13.3398 1.125 13.168L7.98047 6.6875L7.27288 5.97991Z" fill="#996B6F"/>
<path d="M9.70513 7.00201L9.70703 7L8 5.29297L7.99799 5.29487L9.70513 7.00201Z" fill="#996B6F"/>
<g opacity="0.2">
<path d="M6.20703 3.5L6.5 3.79297L8.79297 1.5L8.5 1.20703L6.20703 3.5Z" fill="#996B6F"/>
<path d="M11.207 8.5L11.5 8.79297L13.793 6.5L13.5 6.20703L11.207 8.5Z" fill="#996B6F"/>
</g>
</svg>
