<svg width="16" height="16" viewBox="0 0 16 16" fill="none" xmlns="http://www.w3.org/2000/svg">
<path opacity="0.85" d="M3.428 15.927L3.698 15.032C3.89778 14.3731 3.99954 13.6885 4 13C3.99937 12.699 3.97866 12.3983 3.938 12.1C2.81718 11.6374 1.85144 10.865 1.15397 9.87314C0.456503 8.88131 0.0562058 7.71121 0 6.5C0 2.916 3.589 0 8 0C12.411 0 16 2.916 16 6.5C16 10.017 12.544 12.891 8.247 13C7.23366 14.2583 5.86654 15.1841 4.322 15.658L3.428 15.927ZM8 1C4.14 1 1 3.468 1 6.5C1.06604 7.56316 1.44129 8.58385 2.07962 9.43661C2.71795 10.2894 3.59154 10.937 4.593 11.3L4.84 11.409L4.885 11.675C4.96044 12.1127 4.99891 12.5559 5 13C5.00008 13.4619 4.95992 13.923 4.88 14.378C5.95416 13.8903 6.88921 13.1415 7.6 12.2L7.75 12H8C11.86 12 15 9.532 15 6.5C15 3.468 11.859 1 8 1Z" fill="#66ADFF"/>
<path opacity="0.17" d="M1 6.5C1 3.468 4.14 1 8 1C11.859 1 15 3.468 15 6.5C15 9.532 11.86 12 8 12H7.75L7.6 12.2C6.88921 13.1415 5.95416 13.8903 4.88 14.378C4.95992 13.923 5.00008 13.4619 5 13C4.99891 12.5559 4.96044 12.1127 4.885 11.675L4.84 11.409L4.593 11.3C3.59154 10.937 2.71795 10.2894 2.07962 9.43661C1.44129 8.58385 1.06604 7.56316 1 6.5Z" fill="#66ADFF"/>
</svg>
