<svg width="16" height="16" viewBox="0 0 16 16" fill="none" xmlns="http://www.w3.org/2000/svg">
<path opacity="0.6" d="M12.536 10.747C12.484 10.704 12.436 10.657 12.383 10.613C12.5671 10.4199 12.6725 10.1651 12.6786 9.89839C12.6847 9.63168 12.5911 9.37229 12.416 9.171L7.979 4.212C7.984 4.141 8 4.073 8 4C8 3.40666 7.82405 2.82664 7.49441 2.33329C7.16477 1.83994 6.69623 1.45543 6.14805 1.22836C5.59987 1.0013 4.99667 0.94189 4.41473 1.05765C3.83279 1.1734 3.29824 1.45912 2.87868 1.87868C2.45912 2.29824 2.1734 2.83279 2.05765 3.41473C1.94189 3.99667 2.0013 4.59987 2.22836 5.14805C2.45543 5.69623 2.83994 6.16477 3.33329 6.49441C3.82664 6.82405 4.40666 7 5 7C5.10045 6.99521 5.20059 6.9852 5.3 6.97L10.219 11.37C10.422 11.5469 10.6841 11.6409 10.9533 11.6335C11.2225 11.6261 11.479 11.5178 11.672 11.33L11.681 11.321C11.755 11.385 11.828 11.455 11.903 11.521C12.585 12.084 13.003 12.456 13.003 13.003C13.003 13.2682 12.8976 13.5226 12.7101 13.7101C12.5226 13.8976 12.2682 14.003 12.003 14.003C11.21 14.003 10.553 13.346 9.857 12.649C9.5146 12.1977 9.0855 11.8194 8.59489 11.5362C8.10428 11.2531 7.56204 11.0707 7 11C6.46957 11 5.96086 11.2107 5.58579 11.5858C5.21072 11.9609 5 12.4696 5 13C5 14.635 7.026 15.809 7.257 15.937C7.33142 15.9781 7.415 15.9997 7.5 16C7.61076 16 7.71839 15.9632 7.806 15.8955C7.8936 15.8277 7.95622 15.7327 7.98403 15.6255C8.01183 15.5183 8.00325 15.4049 7.95963 15.3031C7.916 15.2013 7.83981 15.1168 7.743 15.063C7.291 14.812 6 13.893 6 13C6 12.7348 6.10536 12.4804 6.29289 12.2929C6.48043 12.1054 6.73479 12 7 12C7.793 12 8.45 12.657 9.146 13.354C9.48833 13.8044 9.91708 14.182 10.4071 14.4646C10.8972 14.7472 11.4387 14.9292 12 15C12.5304 15 13.0391 14.7893 13.4142 14.4142C13.7893 14.0391 14 13.5304 14 13C13.9458 12.5371 13.7855 12.093 13.5316 11.7022C13.2777 11.3114 12.9369 10.9846 12.536 10.747ZM3 4C3 3.60444 3.1173 3.21776 3.33706 2.88886C3.55682 2.55996 3.86918 2.30362 4.23463 2.15224C4.60009 2.00087 5.00222 1.96126 5.39018 2.03843C5.77814 2.1156 6.13451 2.30608 6.41422 2.58579C6.69392 2.86549 6.8844 3.22186 6.96157 3.60982C7.03874 3.99778 6.99914 4.39992 6.84776 4.76537C6.69639 5.13082 6.44004 5.44318 6.11114 5.66294C5.78224 5.8827 5.39556 6 5 6C4.46957 6 3.96086 5.78929 3.58579 5.41422C3.21072 5.03914 3 4.53043 3 4ZM11.669 9.917L10.962 10.624H10.883L6.416 6.624C6.94977 6.33754 7.38393 5.8957 7.661 5.357L11.671 9.838C11.6771 9.85035 11.6801 9.86399 11.6797 9.87775C11.6794 9.89151 11.6757 9.90498 11.669 9.917Z" fill="white"/>
<path opacity="0.12" d="M3.33706 2.88886C3.1173 3.21776 3 3.60444 3 4C3 4.53043 3.21071 5.03914 3.58579 5.41421C3.96086 5.78929 4.46957 6 5 6C5.39556 6 5.78224 5.8827 6.11114 5.66294C6.44004 5.44318 6.69638 5.13082 6.84776 4.76537C6.99913 4.39992 7.03874 3.99778 6.96157 3.60982C6.8844 3.22186 6.69392 2.86549 6.41421 2.58579C6.13451 2.30608 5.77814 2.1156 5.39018 2.03843C5.00222 1.96126 4.60009 2.00087 4.23463 2.15224C3.86918 2.30362 3.55682 2.55996 3.33706 2.88886Z" fill="white"/>
<path opacity="0.24" d="M10.962 10.6241L11.669 9.91706C11.6757 9.90503 11.6794 9.89156 11.6798 9.8778C11.6801 9.86404 11.6771 9.8504 11.671 9.83806L7.66102 5.35706C7.38395 5.89576 6.94978 6.33759 6.41602 6.62406L10.883 10.6241H10.962Z" fill="white"/>
</svg>
