<svg width="16" height="16" viewBox="0 0 16 16" fill="none" xmlns="http://www.w3.org/2000/svg">
<path opacity="0.85" d="M2 1V14H15V1H2ZM10 2V5H7V2H10ZM10 6V9H7V6H10ZM3 2H6V5H3V2ZM3 6H6V9H3V6ZM3 13V10H6V13H3ZM7 13V10H10V13H7ZM14 13H11V10H14V13ZM14 9H11V6H14V9ZM14 5H11V2H14V5Z" fill="#66ADFF"/>
<g opacity="0.17">
<path d="M10 5V2H7V5H10Z" fill="#66ADFF"/>
<path d="M6 2H3V5H6V2Z" fill="#66ADFF"/>
<path d="M3 6V9H6V6H3Z" fill="#66ADFF"/>
<path d="M3 10V13H6V10H3Z" fill="#66ADFF"/>
<path d="M7 13H10V10H7V13Z" fill="#66ADFF"/>
<path d="M11 13H14V10H11V13Z" fill="#66ADFF"/>
<path d="M14 9V6H11V9H14Z" fill="#66ADFF"/>
<path d="M14 5V2H11V5H14Z" fill="#66ADFF"/>
<path d="M10 9V6H7V9H10Z" fill="#66ADFF"/>
</g>
</svg>
