<svg width="16" height="16" viewBox="0 0 16 16" fill="none" xmlns="http://www.w3.org/2000/svg">
<path opacity="0.24" d="M1 4.5V13.5C1 13.6326 1.05268 13.7598 1.14645 13.8536C1.24021 13.9473 1.36739 14 1.5 14C1.63261 14 1.75979 13.9473 1.85355 13.8536C1.94732 13.7598 2 13.6326 2 13.5V4.5H1Z" fill="white"/>
<path opacity="0.12" fill-rule="evenodd" clip-rule="evenodd" d="M14.8687 13.8685C14.9529 13.7843 15.0002 13.6701 15.0002 13.551V2H3.0002V13.5C2.99855 13.6707 2.96742 13.8399 2.9082 14H14.5512C14.6703 14 14.7845 13.9527 14.8687 13.8685ZM10.0002 7.5H14.0002V8.5H10.0002V7.5ZM10.0002 9.5H14.0002V10.5H10.0002V9.5ZM4.0002 11.5H14.0002V12.5H4.0002V11.5ZM4 3.5H14V6.5H4V3.5ZM9 7.5H4V10.5H9V7.5Z" fill="white"/>
<path opacity="0.3" d="M13 4.5H5V5.5H13V4.5Z" fill="#4072E5"/>
<path d="M13 4.5V5.5H5V4.5H13ZM14 3.5H4V6.5H14V3.5Z" fill="#4072E5"/>
<path opacity="0.6" d="M14 7.5H10V8.5H14V7.5ZM14 9.5H10V10.5H14V9.5ZM14 11.5H4V12.5H14V11.5ZM2 1V3.5H0V13.5C0 13.8978 0.158035 14.2794 0.43934 14.5607C0.720644 14.842 1.10218 15 1.5 15H14.551C14.9353 15 15.3039 14.8473 15.5756 14.5756C15.8473 14.3039 16 13.9353 16 13.551V1H2ZM1 13.5V4.5H2V13.5C2 13.6326 1.94732 13.7598 1.85355 13.8536C1.75979 13.9473 1.63261 14 1.5 14C1.36739 14 1.24021 13.9473 1.14645 13.8536C1.05268 13.7598 1 13.6326 1 13.5ZM15 13.551C15 13.6701 14.9527 13.7843 14.8685 13.8685C14.7843 13.9527 14.6701 14 14.551 14H2.908C2.96722 13.8399 2.99834 13.6707 3 13.5V2H15V13.551Z" fill="white"/>
<path opacity="0.26" d="M8 8.5H5V9.5H8V8.5Z" fill="#66ADFF"/>
<path opacity="0.85" d="M8 8.5V9.5H5V8.5H8ZM9 7.5H4V10.5H9V7.5Z" fill="#66ADFF"/>
</svg>
