<svg width="16" height="16" viewBox="0 0 16 16" fill="none" xmlns="http://www.w3.org/2000/svg">
<path opacity="0.24" d="M1 4V12.5C1 12.6326 1.05268 12.7598 1.14645 12.8536C1.24021 12.9473 1.36739 13 1.5 13C1.63261 13 1.75979 12.9473 1.85355 12.8536C1.94732 12.7598 2 12.6326 2 12.5V4H1Z" fill="white"/>
<path opacity="0.12" fill-rule="evenodd" clip-rule="evenodd" d="M14.8687 12.8685C14.9529 12.7843 15.0002 12.6701 15.0002 12.551V2H3.0002V12.5C2.99855 12.6707 2.96742 12.8399 2.9082 13H14.5512C14.6703 13 14.7845 12.9527 14.8687 12.8685ZM10.0002 7H14.0002V8H10.0002V7ZM10.0002 9H14.0002V10H10.0002V9ZM4.0002 11H14.0002V12H4.0002V11ZM4 7H9V10H4V7ZM14 3H4V6H14V3Z" fill="white"/>
<path opacity="0.3" d="M13 4H5V5H13V4Z" fill="#4072E5"/>
<path d="M13 4V5H5V4H13ZM14 3H4V6H14V3Z" fill="#4072E5"/>
<path opacity="0.6" d="M14 7H10V8H14V7ZM14 9H10V10H14V9ZM14 11H4V12H14V11ZM2 1V3H0V12.5C0 12.8978 0.158035 13.2794 0.43934 13.5607C0.720644 13.842 1.10218 14 1.5 14H14.551C14.9353 14 15.3039 13.8473 15.5756 13.5756C15.8473 13.3039 16 12.9353 16 12.551V1H2ZM1 12.5V4H2V12.5C2 12.6326 1.94732 12.7598 1.85355 12.8536C1.75979 12.9473 1.63261 13 1.5 13C1.36739 13 1.24021 12.9473 1.14645 12.8536C1.05268 12.7598 1 12.6326 1 12.5ZM15 12.551C15 12.6701 14.9527 12.7843 14.8685 12.8685C14.7843 12.9527 14.6701 13 14.551 13H2.908C2.96722 12.8399 2.99834 12.6707 3 12.5V2H15V12.551Z" fill="white"/>
<path opacity="0.26" d="M8 8H5V9H8V8Z" fill="#66ADFF"/>
<path opacity="0.85" d="M8 8V9H5V8H8ZM9 7H4V10H9V7Z" fill="#66ADFF"/>
</svg>
