<svg width="16" height="16" viewBox="0 0 16 16" fill="none" xmlns="http://www.w3.org/2000/svg">
<path opacity="0.6" d="M6 11V14.5C6 14.8978 6.15804 15.2794 6.43934 15.5607C6.72064 15.842 7.10218 16 7.5 16H8.5C8.89782 16 9.27936 15.842 9.56066 15.5607C9.84196 15.2794 10 14.8978 10 14.5V11H6ZM9 14.5C9 14.6326 8.94732 14.7598 8.85355 14.8536C8.75979 14.9473 8.63261 15 8.5 15H7.5C7.36739 15 7.24021 14.9473 7.14645 14.8536C7.05268 14.7598 7 14.6326 7 14.5V14H9V14.5ZM9 13H7V12H9V13Z" fill="white"/>
<g opacity="0.12">
<path d="M8.85355 14.8536C8.94732 14.7598 9 14.6326 9 14.5V14H7V14.5C7 14.6326 7.05268 14.7598 7.14645 14.8536C7.24021 14.9473 7.36739 15 7.5 15H8.5C8.63261 15 8.75979 14.9473 8.85355 14.8536Z" fill="white"/>
<path d="M7 13H9V12H7V13Z" fill="white"/>
</g>
<path opacity="0.8" d="M7 11C6.89168 9.99364 6.40174 9.06709 5.631 8.411C5.14175 7.98301 4.74481 7.45983 4.46439 6.87338C4.18398 6.28694 4.02597 5.64952 4 5C4 3.93913 4.42143 2.92172 5.17157 2.17157C5.92172 1.42143 6.93913 1 8 1C9.06087 1 10.0783 1.42143 10.8284 2.17157C11.5786 2.92172 12 3.93913 12 5C11.9762 5.63791 11.8219 6.26417 11.5468 6.84016C11.2716 7.41616 10.8813 7.92966 10.4 8.349C9.60672 9.01729 9.10463 9.96804 9 11H10C10 9.25 13 8.391 13 5C13 3.67392 12.4732 2.40215 11.5355 1.46447C10.5979 0.526784 9.32608 0 8 0C6.67392 0 5.40215 0.526784 4.46447 1.46447C3.52678 2.40215 3 3.67392 3 5C3 8.391 6 9.328 6 11H7Z" fill="#FAA700"/>
</svg>
