<svg width="16" height="16" viewBox="0 0 16 16" fill="none" xmlns="http://www.w3.org/2000/svg">
<path opacity="0.6" fill-rule="evenodd" clip-rule="evenodd" d="M2 0H9.707L14.1035 4.3965L12.5 6H9V1H3V15H14V7.5L15 6.5V16H2V0ZM13.293 5L10 1.707V5H13.293Z" fill="white"/>
<path opacity="0.75" fill-rule="evenodd" clip-rule="evenodd" d="M5 6H7V5H5V6ZM9.5 9L10.5 8H5V9H9.5ZM5 11H7.5L7.25 12H5V11Z" fill="white"/>
<path opacity="0.24" d="M10 1.70703V5H13.293L10 1.70703Z" fill="white"/>
<path opacity="0.54" d="M13.4994 5.0002L12.9995 5.50012L13.4994 6.00005L13.9994 5.50012L13.4994 5.0002Z" fill="#CC7A52"/>
<path opacity="0.54" d="M14.4994 6.0002L13.9995 6.50012L14.4994 7.00005L14.9994 6.50012L14.4994 6.0002Z" fill="#CC7A52"/>
<path opacity="0.9" d="M14.4998 3.9993L13.5 4.99915L14.9998 6.49892L15.9996 5.49907L14.4998 3.9993Z" fill="#DB2C3A"/>
<path opacity="0.36" d="M8.37517 11.125L8.13817 11.361L7.97217 12.028L8.63917 11.862L8.87517 11.625L8.37517 11.125Z" fill="#CC7A52"/>
<path opacity="0.9" fill-rule="evenodd" clip-rule="evenodd" d="M14.5 7L9 12.5L7 13L7.5 11L13 5.5L14.5 7ZM8.13817 11.361L8.37517 11.125L8.87517 11.625L8.63917 11.862L7.97217 12.028L8.13817 11.361Z" fill="#CC7A52"/>
</svg>
