<svg width="16" height="16" viewBox="0 0 16 16" fill="none" xmlns="http://www.w3.org/2000/svg">
<path opacity="0.24" d="M13.5 5.5L14 5L15 6L14.5 6.5L13.5 5.5Z" fill="white"/>
<path opacity="0.36" fill-rule="evenodd" clip-rule="evenodd" d="M12.5 5.5L13.5001 4.49992C13.7762 4.22382 14.2238 4.22382 14.4999 4.49992L15.5001 5.50007C15.7762 5.77617 15.7762 6.22382 15.5001 6.49992L14.5 7.5L12.5 5.5ZM14 5L13.5 5.5L14.5 6.5L15 6L14 5Z" fill="white"/>
<path opacity="0.4" d="M7.70703 12.2929V11.2929L7.99993 11L8.99994 12L8.70704 12.2929H7.70703Z" fill="#E0AF97"/>
<path opacity="0.8" d="M12.5 5.5L8 10L8.5 10.5L13 6L12.5 5.5Z" fill="#FAA700"/>
<path opacity="0.8" d="M14 7L9.5 11.5L10 12L14.5 7.5L14 7Z" fill="#FAA700"/>
<path opacity="0.64" d="M13 6L8.5 10.5L9.5 11.5L14 7L13 6Z" fill="#FAA700"/>
<path opacity="0.75" d="M7 11.5V13H8.5V12.2929H7.7071V11.5H7Z" fill="white"/>
<path opacity="0.5" d="M7.7071 11.5V11.2929L8 11L9.00001 12L8.70711 12.2929H8.5V13H9L10 12L8 10L7 11V11.5H7.7071Z" fill="#E0AF97"/>
<g opacity="0.75">
<path d="M3 6H6V5H3V6Z" fill="white"/>
<path d="M10 8L9 9H3V8H10Z" fill="white"/>
<path d="M7 11V12H3V11H7Z" fill="white"/>
</g>
<path opacity="0.24" d="M8 1.70703V5H11.293L8 1.70703Z" fill="white"/>
<path opacity="0.6" fill-rule="evenodd" clip-rule="evenodd" d="M1 15V1H7V6H12L12.8535 5.14648L7.70703 0H0V16H13V9L12 10V15H1ZM8 1.70703L11.293 5H8V1.70703Z" fill="white"/>
</svg>
