<svg width="16" height="16" viewBox="0 0 16 16" fill="none" xmlns="http://www.w3.org/2000/svg">
<path opacity="0.6" d="M16 11V0H1V11H8V12.293L5.146 15.146C5.05211 15.2399 4.99937 15.3672 4.99937 15.5C4.99937 15.6328 5.05211 15.7601 5.146 15.854C5.23989 15.9479 5.36722 16.0006 5.5 16.0006C5.63278 16.0006 5.76011 15.9479 5.854 15.854L8 13.707V15.5C8 15.6326 8.05268 15.7598 8.14645 15.8536C8.24021 15.9473 8.36739 16 8.5 16C8.63261 16 8.75979 15.9473 8.85355 15.8536C8.94732 15.7598 9 15.6326 9 15.5V13.707L11.146 15.854C11.2399 15.9479 11.3672 16.0006 11.5 16.0006C11.6328 16.0006 11.7601 15.9479 11.854 15.854C11.9479 15.7601 12.0006 15.6328 12.0006 15.5C12.0006 15.3672 11.9479 15.2399 11.854 15.146L9 12.293V11H16ZM2 10V1H15V10H2Z" fill="white"/>
<path opacity="0.85" d="M14 3.94097L10.036 5.92297L7.036 3.92297L3 5.94097V7.05897L6.964 5.07697L9.964 7.07697L14 5.05897V3.94097Z" fill="#66ADFF"/>
<path opacity="0.51" d="M3 7.05908V8.99999H14V5.05908L9.964 7.07708L6.964 5.07708L3 7.05908Z" fill="#66ADFF"/>
</svg>
