<svg width="16" height="16" viewBox="0 0 16 16" fill="none" xmlns="http://www.w3.org/2000/svg">
<path opacity="0.85" d="M3.99994 8.00003C4.00185 8.61249 4.14506 9.21625 4.4184 9.76433C4.69175 10.3124 5.08787 10.79 5.57594 11.16L4.96794 11.951C4.35696 11.4896 3.86136 10.8927 3.5201 10.2073C3.17884 9.5219 3.00122 8.76668 3.00122 8.00103C3.00122 7.23538 3.17884 6.48016 3.5201 5.79476C3.86136 5.10937 4.35696 4.51248 4.96794 4.05103L5.57594 4.84203C5.08814 5.21182 4.69218 5.68912 4.41884 6.23683C4.14551 6.78454 4.00216 7.38791 3.99994 8.00003ZM0.999938 8.00003C1.00085 6.92702 1.24895 5.86865 1.72499 4.90702C2.20104 3.94539 2.89223 3.10636 3.74494 2.45503L3.13494 1.65503C2.16011 2.39965 1.37013 3.35903 0.826375 4.45861C0.282624 5.55819 -0.000244141 6.76835 -0.000244141 7.99503C-0.000244141 9.22171 0.282624 10.4319 0.826375 11.5314C1.37013 12.631 2.16011 13.5904 3.13494 14.335L3.74494 13.54C2.8929 12.8892 2.20211 12.051 1.7261 11.0903C1.25008 10.1296 1.00161 9.07219 0.999938 8.00003ZM11.0319 4.04903L10.4239 4.84003C10.9134 5.2087 11.3106 5.68605 11.5841 6.23443C11.8576 6.78281 12 7.38723 12 8.00003C12 8.61283 11.8576 9.21725 11.5841 9.76563C11.3106 10.314 10.9134 10.7914 10.4239 11.16L11.0319 11.951C11.6429 11.4896 12.1385 10.8927 12.4798 10.2073C12.821 9.5219 12.9987 8.76668 12.9987 8.00103C12.9987 7.23538 12.821 6.48016 12.4798 5.79476C12.1385 5.10937 11.6429 4.51248 11.0319 4.05103V4.04903ZM9.99994 8.00003C9.99994 8.39559 9.88264 8.78227 9.66288 9.11117C9.44311 9.44007 9.13076 9.69641 8.7653 9.84779C8.39985 9.99916 7.99772 10.0388 7.60976 9.9616C7.2218 9.88443 6.86543 9.69395 6.58572 9.41424C6.30602 9.13454 6.11554 8.77817 6.03837 8.39021C5.9612 8.00225 6.0008 7.60011 6.15218 7.23466C6.30355 6.86921 6.5599 6.55685 6.8888 6.33709C7.2177 6.11733 7.60438 6.00003 7.99994 6.00003C8.53037 6.00003 9.03908 6.21074 9.41415 6.58582C9.78922 6.96089 9.99994 7.4696 9.99994 8.00003ZM8.99994 8.00003C8.99994 7.80225 8.94129 7.60891 8.83141 7.44446C8.72153 7.28001 8.56535 7.15184 8.38262 7.07615C8.1999 7.00046 7.99883 6.98066 7.80485 7.01924C7.61087 7.05783 7.43268 7.15307 7.29283 7.29292C7.15298 7.43278 7.05774 7.61096 7.01915 7.80494C6.98057 7.99892 7.00037 8.19999 7.07606 8.38271C7.15175 8.56544 7.27992 8.72162 7.44437 8.8315C7.60882 8.94138 7.80216 9.00003 7.99994 9.00003C8.26515 9.00003 8.51951 8.89467 8.70704 8.70714C8.89458 8.5196 8.99994 8.26525 8.99994 8.00003ZM12.8649 1.66003L12.2549 2.46003C13.1083 3.11073 13.8 3.94963 14.2761 4.9114C14.7523 5.87317 15 6.93186 15 8.00503C15 9.0782 14.7523 10.1369 14.2761 11.0987C13.8 12.0604 13.1083 12.8993 12.2549 13.55L12.8649 14.35C13.8398 13.6054 14.6297 12.646 15.1735 11.5464C15.7173 10.4469 16.0001 9.23671 16.0001 8.01003C16.0001 6.78335 15.7173 5.57319 15.1735 4.47361C14.6297 3.37403 13.8398 2.41465 12.8649 1.67003V1.66003Z" fill="#FF794C"/>
</svg>
