<svg width="16" height="16" viewBox="0 0 16 16" fill="none" xmlns="http://www.w3.org/2000/svg">
<path opacity="0.85" d="M1 3C1 2.86739 1.05268 2.74021 1.14645 2.64645C1.24021 2.55268 1.36739 2.5 1.5 2.5H3.5C3.63261 2.5 3.75979 2.55268 3.85355 2.64645C3.94732 2.74021 4 2.86739 4 3C4 3.13261 3.94732 3.25979 3.85355 3.35355C3.75979 3.44732 3.63261 3.5 3.5 3.5H1.5C1.36739 3.5 1.24021 3.44732 1.14645 3.35355C1.05268 3.25979 1 3.13261 1 3ZM3.5 5H1.5C1.36739 5 1.24021 5.05268 1.14645 5.14645C1.05268 5.24021 1 5.36739 1 5.5C1 5.63261 1.05268 5.75979 1.14645 5.85355C1.24021 5.94732 1.36739 6 1.5 6H3.5C3.63261 6 3.75979 5.94732 3.85355 5.85355C3.94732 5.75979 4 5.63261 4 5.5C4 5.36739 3.94732 5.24021 3.85355 5.14645C3.75979 5.05268 3.63261 5 3.5 5ZM3.5 7.5H1.5C1.36739 7.5 1.24021 7.55268 1.14645 7.64645C1.05268 7.74021 1 7.86739 1 8C1 8.13261 1.05268 8.25979 1.14645 8.35355C1.24021 8.44732 1.36739 8.5 1.5 8.5H3.5C3.63261 8.5 3.75979 8.44732 3.85355 8.35355C3.94732 8.25979 4 8.13261 4 8C4 7.86739 3.94732 7.74021 3.85355 7.64645C3.75979 7.55268 3.63261 7.5 3.5 7.5ZM3.5 10H1.5C1.36739 10 1.24021 10.0527 1.14645 10.1464C1.05268 10.2402 1 10.3674 1 10.5C1 10.6326 1.05268 10.7598 1.14645 10.8536C1.24021 10.9473 1.36739 11 1.5 11H3.5C3.63261 11 3.75979 10.9473 3.85355 10.8536C3.94732 10.7598 4 10.6326 4 10.5C4 10.3674 3.94732 10.2402 3.85355 10.1464C3.75979 10.0527 3.63261 10 3.5 10ZM3.5 12.5H1.5C1.36739 12.5 1.24021 12.5527 1.14645 12.6464C1.05268 12.7402 1 12.8674 1 13C1 13.1326 1.05268 13.2598 1.14645 13.3536C1.24021 13.4473 1.36739 13.5 1.5 13.5H3.5C3.63261 13.5 3.75979 13.4473 3.85355 13.3536C3.94732 13.2598 4 13.1326 4 13C4 12.8674 3.94732 12.7402 3.85355 12.6464C3.75979 12.5527 3.63261 12.5 3.5 12.5Z" fill="#FF6666"/>
<g opacity="0.6">
<path fill-rule="evenodd" clip-rule="evenodd" d="M3 0H14C14.2652 0 14.5196 0.105357 14.7071 0.292893C14.8946 0.48043 15 0.734784 15 1V15C15 15.2652 14.8946 15.5196 14.7071 15.7071C14.5196 15.8946 14.2652 16 14 16H3C2.73478 16 2.48043 15.8946 2.29289 15.7071C2.10536 15.5196 2 15.2652 2 15V13.5H3V15H9.5V10.5H14V1H3V2.5H2V1C2 0.734784 2.10536 0.48043 2.29289 0.292893C2.48043 0.105357 2.73478 0 3 0ZM13.293 11.5H10.5V14.293L13.293 11.5ZM11.207 15H14V12.207L11.207 15Z" fill="white"/>
<path d="M2 3.5V5H3V3.5H2Z" fill="white"/>
<path d="M3 6H2V7.5H3V6Z" fill="white"/>
<path d="M3 8.5H2V10H3V8.5Z" fill="white"/>
<path d="M3 11H2V12.5H3V11Z" fill="white"/>
</g>
<path opacity="0.75" d="M12 5.5H6V4.5H12V5.5ZM11 6.5H7V7.5H11V6.5Z" fill="white"/>
<path opacity="0.24" d="M10.5 11.5V14.293L13.293 11.5H10.5Z" fill="white"/>
</svg>
