<svg width="16" height="16" viewBox="0 0 16 16" fill="none" xmlns="http://www.w3.org/2000/svg">
<path opacity="0.85" d="M1 2.5C1 2.36739 1.05268 2.24021 1.14645 2.14645C1.24021 2.05268 1.36739 2 1.5 2H3.5C3.63261 2 3.75979 2.05268 3.85355 2.14645C3.94732 2.24021 4 2.36739 4 2.5C4 2.63261 3.94732 2.75979 3.85355 2.85355C3.75979 2.94732 3.63261 3 3.5 3H1.5C1.36739 3 1.24021 2.94732 1.14645 2.85355C1.05268 2.75979 1 2.63261 1 2.5ZM3.5 4.5H1.5C1.36739 4.5 1.24021 4.55268 1.14645 4.64645C1.05268 4.74021 1 4.86739 1 5C1 5.13261 1.05268 5.25979 1.14645 5.35355C1.24021 5.44732 1.36739 5.5 1.5 5.5H3.5C3.63261 5.5 3.75979 5.44732 3.85355 5.35355C3.94732 5.25979 4 5.13261 4 5C4 4.86739 3.94732 4.74021 3.85355 4.64645C3.75979 4.55268 3.63261 4.5 3.5 4.5ZM3.5 7H1.5C1.36739 7 1.24021 7.05268 1.14645 7.14645C1.05268 7.24021 1 7.36739 1 7.5C1 7.63261 1.05268 7.75979 1.14645 7.85355C1.24021 7.94732 1.36739 8 1.5 8H3.5C3.63261 8 3.75979 7.94732 3.85355 7.85355C3.94732 7.75979 4 7.63261 4 7.5C4 7.36739 3.94732 7.24021 3.85355 7.14645C3.75979 7.05268 3.63261 7 3.5 7ZM3.5 9.5H1.5C1.36739 9.5 1.24021 9.55268 1.14645 9.64645C1.05268 9.74021 1 9.86739 1 10C1 10.1326 1.05268 10.2598 1.14645 10.3536C1.24021 10.4473 1.36739 10.5 1.5 10.5H3.5C3.63261 10.5 3.75979 10.4473 3.85355 10.3536C3.94732 10.2598 4 10.1326 4 10C4 9.86739 3.94732 9.74021 3.85355 9.64645C3.75979 9.55268 3.63261 9.5 3.5 9.5ZM3.5 12H1.5C1.36739 12 1.24021 12.0527 1.14645 12.1464C1.05268 12.2402 1 12.3674 1 12.5C1 12.6326 1.05268 12.7598 1.14645 12.8536C1.24021 12.9473 1.36739 13 1.5 13H3.5C3.63261 13 3.75979 12.9473 3.85355 12.8536C3.94732 12.7598 4 12.6326 4 12.5C4 12.3674 3.94732 12.2402 3.85355 12.1464C3.75979 12.0527 3.63261 12 3.5 12Z" fill="#FF6666"/>
<g opacity="0.6">
<path fill-rule="evenodd" clip-rule="evenodd" d="M3 0H14C14.2652 0 14.5196 0.105357 14.7071 0.292893C14.8946 0.48043 15 0.734784 15 1V14C15 14.2652 14.8946 14.5196 14.7071 14.7071C14.5196 14.8946 14.2652 15 14 15H3C2.73478 15 2.48043 14.8946 2.29289 14.7071C2.10536 14.5196 2 14.2652 2 14V13H3V14H9V9H14V1H3V2H2V1C2 0.734784 2.10536 0.48043 2.29289 0.292893C2.48043 0.105357 2.73478 0 3 0ZM13.293 10H10V13.293L13.293 10ZM10.707 14H14V10.707L10.707 14Z" fill="white"/>
<path d="M2 3V4.5H3V3H2Z" fill="white"/>
<path d="M3 5.5H2V7H3V5.5Z" fill="white"/>
<path d="M3 8H2V9.5H3V8Z" fill="white"/>
<path d="M3 10.5H2V12H3V10.5Z" fill="white"/>
</g>
<path opacity="0.75" d="M12 5H6V4H12V5ZM11 6H7V7H11V6Z" fill="white"/>
<path opacity="0.24" d="M10 10V13.293L13.293 10H10Z" fill="white"/>
</svg>
