<svg width="16" height="16" viewBox="0 0 16 16" fill="none" xmlns="http://www.w3.org/2000/svg">
<path opacity="0.24" d="M10 1.70703V5H13.293L10 1.70703Z" fill="white"/>
<path opacity="0.85" d="M4 11H5V12H4V11ZM4 8H5V9H4V8Z" fill="#39BF68"/>
<path opacity="0.85" d="M11.5 14.707L10.1445 13.3516L10.8555 12.6445L11.5 13.293L13.1445 11.6445L13.8555 12.3516L11.5 14.707ZM12 10C10.3438 10 9 11.3438 9 13C9 14.6562 10.3438 16 12 16C13.6562 16 15 14.6562 15 13C15 11.3438 13.6562 10 12 10Z" fill="#39BF68"/>
<g opacity="0.6">
<path fill-rule="evenodd" clip-rule="evenodd" d="M3 1V15H9.76432C10.3137 15.6137 11.1119 16 12 16H2V0H9.70703L15 5.29297V13C15 12.1119 14.6137 11.3137 14 10.7643V6H9V1H3ZM13.293 5L10 1.70703V5H13.293Z" fill="white"/>
<path d="M15 13C15 14.6562 13.6562 16 12 16H15V13Z" fill="white"/>
</g>
<g opacity="0.75">
<path d="M6 9V8H13V9H6Z" fill="white"/>
<path d="M8.53513 11C8.35609 11.3095 8.21733 11.6452 8.12602 12H6V11H8.53513Z" fill="white"/>
<path d="M4 5H8V6H4V5Z" fill="white"/>
</g>
</svg>
