<svg width="16" height="16" viewBox="0 0 16 16" fill="none" xmlns="http://www.w3.org/2000/svg">
<path opacity="0.24" d="M10 1.70703V4.5H12.793L10 1.70703Z" fill="white"/>
<path opacity="0.85" d="M4 12H5V13H4V12ZM4 9.5H5V10.5H4V9.5ZM4 7H5V8H4V7Z" fill="#39BF68"/>
<path opacity="0.85" d="M11 14.707L9.64453 13.3516L10.3555 12.6445L11 13.293L12.6445 11.6445L13.3555 12.3516L11 14.707ZM11.5 10C9.84375 10 8.5 11.3438 8.5 13C8.5 14.6562 9.84375 16 11.5 16C13.1562 16 14.5 14.6562 14.5 13C14.5 11.3438 13.1562 10 11.5 10Z" fill="#39BF68"/>
<g opacity="0.6">
<path fill-rule="evenodd" clip-rule="evenodd" d="M2.5 1V15H9.26432C9.81372 15.6137 10.6119 16 11.5 16H1.5V0H9.70703L14.5 4.79297V13C14.5 12.1119 14.1137 11.3137 13.5 10.7643V5.5H9V1H2.5ZM12.793 4.5L10 1.70703V4.5H12.793Z" fill="white"/>
<path d="M14.5 13C14.5 14.6562 13.1562 16 11.5 16H14.5V13Z" fill="white"/>
</g>
<path opacity="0.75" d="M6 8H12V7H6V8ZM6 9.5V10.5H8.40234C8.73047 10.0898 9.13672 9.75391 9.60156 9.5H6ZM7.5 4.5H4V5.5H7.5V4.5ZM6 12V13H7.5C7.5 12.6523 7.55859 12.3203 7.64062 12H6Z" fill="white"/>
</svg>
