<svg width="16" height="16" viewBox="0 0 16 16" fill="none" xmlns="http://www.w3.org/2000/svg">
<path opacity="0.6" d="M16 6.5L8 2L0 6.5L3 8.188V11C3 12.657 5.239 14 8 14C10.761 14 13 12.657 13 11V8.188L16 6.5ZM8 3.147L13.96 6.5L8 9.853L2.04 6.5L8 3.147ZM12 11C12 11.944 10.289 13 8 13C5.711 13 4 11.944 4 11V8.75L8 11L12 8.75V11Z" fill="white"/>
<path opacity="0.8" d="M1.00004 7.06274L2.00004 7.62541V12.2241C2.42262 12.903 2.59914 13.7065 2.50004 14.5001C2.50004 14.7761 2.05204 15.0001 1.50004 15.0001C0.948043 15.0001 0.500043 14.7761 0.500043 14.5001C0.400943 13.7065 0.577461 12.903 1.00004 12.2241V7.06274Z" fill="#FF794C"/>
<path opacity="0.24" d="M8 13C10.289 13 12 11.944 12 11V8.75L8 11L4 8.75V11C4 11.944 5.711 13 8 13Z" fill="white"/>
<path opacity="0.12" d="M13.96 6.49997L8.00004 3.14697L2.04004 6.49997L8.00004 9.85297L13.96 6.49997Z" fill="white"/>
</svg>
