<svg width="16" height="16" viewBox="0 0 16 16" fill="none" xmlns="http://www.w3.org/2000/svg">
<path opacity="0.6" d="M16 6L8 1.5L0 6L3 7.688V10.5C3 12.157 5.239 13.5 8 13.5C10.761 13.5 13 12.157 13 10.5V7.688L16 6ZM8 2.647L13.96 6L8 9.353L2.04 6L8 2.647ZM12 10.5C12 11.444 10.289 12.5 8 12.5C5.711 12.5 4 11.444 4 10.5V8.25L8 10.5L12 8.25V10.5Z" fill="white"/>
<path opacity="0.8" d="M1.00004 6.56274L2.00004 7.12541V11.7241C2.42262 12.403 2.59914 13.2065 2.50004 14.0001C2.50004 14.2761 2.05204 14.5001 1.50004 14.5001C0.948043 14.5001 0.500043 14.2761 0.500043 14.0001C0.400943 13.2065 0.577461 12.403 1.00004 11.7241V6.56274Z" fill="#FF794C"/>
<path opacity="0.24" d="M8 12.5C10.289 12.5 12 11.444 12 10.5V8.25L8 10.5L4 8.25V10.5C4 11.444 5.711 12.5 8 12.5Z" fill="white"/>
<path opacity="0.12" d="M13.96 5.99997L8.00004 2.64697L2.04004 5.99997L8.00004 9.35297L13.96 5.99997Z" fill="white"/>
</svg>
