<svg width="16" height="16" viewBox="0 0 16 16" fill="none" xmlns="http://www.w3.org/2000/svg">
<path d="M13 10V12H3V10H13ZM14 9H2V13H14V9Z" fill="#4072E5"/>
<path opacity="0.4" d="M13 12V10H3V12H13Z" fill="#4072E5"/>
<path opacity="0.6" d="M15 1H1C0.734784 1 0.48043 1.10536 0.292893 1.29289C0.105357 1.48043 0 1.73478 0 2L0 15H16V2C16 1.73478 15.8946 1.48043 15.7071 1.29289C15.5196 1.10536 15.2652 1 15 1ZM15 14H1V6H15V14ZM15 5H1V2H15V5Z" fill="white"/>
<path opacity="0.85" d="M3 3H2V4H3V3Z" fill="#E24940"/>
<path opacity="0.85" d="M5 3H4V4H5V3Z" fill="#E0A32A"/>
<path opacity="0.85" d="M7 3H6V4H7V3Z" fill="#28AD31"/>
<path opacity="0.12" fill-rule="evenodd" clip-rule="evenodd" d="M1 2H15V5H1V2ZM2 3H3V4H2V3ZM4 3H5V4H4V3ZM7 3H6V4H7V3Z" fill="white"/>
</svg>
