<svg width="18" height="18" viewBox="0 0 18 18" fill="none" xmlns="http://www.w3.org/2000/svg">
<path d="M9.00952 17.5C7.83018 17.5 6.7251 17.2769 5.69427 16.8307C4.66343 16.3846 3.76468 15.7782 2.99802 15.0115C2.23135 14.2448 1.62502 13.3461 1.17902 12.3152C0.732849 11.2846 0.509766 10.1795 0.509766 9C0.509766 7.8205 0.732849 6.71542 1.17902 5.68475C1.62502 4.65392 2.23135 3.75517 2.99802 2.9885C3.76468 2.22183 4.66343 1.61542 5.69427 1.16925C6.7251 0.723084 7.83018 0.5 9.00952 0.5C10.2673 0.5 11.4623 0.764416 12.5943 1.29325C13.7263 1.82208 14.698 2.56533 15.5095 3.523V1.15375H17.0095V6.23075H11.9328V4.73075H14.548C13.8583 3.88075 13.0359 3.21317 12.0808 2.728C11.1256 2.24267 10.1018 2 9.00952 2C7.05952 2 5.40535 2.67917 4.04702 4.0375C2.68868 5.39583 2.00952 7.05 2.00952 9C2.00952 10.95 2.68868 12.6042 4.04702 13.9625C5.40535 15.3208 7.05952 16 9.00952 16C10.7595 16 12.2855 15.4318 13.5875 14.2952C14.8895 13.1587 15.6668 11.727 15.9193 10H17.45C17.2063 12.1487 16.2801 13.9358 14.6713 15.3615C13.0623 16.7872 11.175 17.5 9.00952 17.5ZM11.9828 13.027L8.25977 9.30375V4H9.75952V8.69625L13.0365 11.973L11.9828 13.027Z" fill="white"/>
</svg>
