<svg width="120" height="28" viewBox="0 0 120 28" fill="none" xmlns="http://www.w3.org/2000/svg">
<path d="M6.76172 22H3.04688L3.07031 19.2578H6.76172C7.68359 19.2578 8.46094 19.0508 9.09375 18.6367C9.72656 18.2148 10.2031 17.6016 10.5234 16.7969C10.8516 15.9922 11.0156 15.0195 11.0156 13.8789V13.0469C11.0156 12.1719 10.9219 11.4023 10.7344 10.7383C10.5547 10.0742 10.2852 9.51562 9.92578 9.0625C9.56641 8.60938 9.125 8.26953 8.60156 8.04297C8.07812 7.80859 7.47656 7.69141 6.79688 7.69141H2.97656V4.9375H6.79688C7.9375 4.9375 8.98047 5.13281 9.92578 5.52344C10.8789 5.90625 11.7031 6.45703 12.3984 7.17578C13.0938 7.89453 13.6289 8.75391 14.0039 9.75391C14.3867 10.7461 14.5781 11.8516 14.5781 13.0703V13.8789C14.5781 15.0898 14.3867 16.1953 14.0039 17.1953C13.6289 18.1953 13.0938 19.0547 12.3984 19.7734C11.7109 20.4844 10.8867 21.0352 9.92578 21.4258C8.97266 21.8086 7.91797 22 6.76172 22ZM5.03906 4.9375V22H1.52344V4.9375H5.03906ZM22.9978 22.2344C22.0134 22.2344 21.1306 22.0781 20.3494 21.7656C19.5681 21.4453 18.9041 21.0039 18.3572 20.4414C17.8181 19.8789 17.4041 19.2266 17.115 18.4844C16.8259 17.7344 16.6814 16.9375 16.6814 16.0938V15.625C16.6814 14.6641 16.8181 13.7852 17.0916 12.9883C17.365 12.1914 17.7556 11.5 18.2634 10.9141C18.7791 10.3281 19.4041 9.87891 20.1384 9.56641C20.8728 9.24609 21.7009 9.08594 22.6228 9.08594C23.5212 9.08594 24.3181 9.23438 25.0134 9.53125C25.7087 9.82812 26.2908 10.25 26.7595 10.7969C27.2361 11.3438 27.5955 12 27.8377 12.7656C28.0798 13.5234 28.2009 14.3672 28.2009 15.2969V16.7031H18.1228V14.4531H24.8845V14.1953C24.8845 13.7266 24.7986 13.3086 24.6267 12.9414C24.4627 12.5664 24.2127 12.2695 23.8767 12.0508C23.5408 11.832 23.1111 11.7227 22.5877 11.7227C22.1423 11.7227 21.7595 11.8203 21.4392 12.0156C21.1189 12.2109 20.8572 12.4844 20.6541 12.8359C20.4587 13.1875 20.3103 13.6016 20.2087 14.0781C20.115 14.5469 20.0681 15.0625 20.0681 15.625V16.0938C20.0681 16.6016 20.1384 17.0703 20.2791 17.5C20.4275 17.9297 20.6345 18.3008 20.9002 18.6133C21.1736 18.9258 21.5017 19.168 21.8845 19.3398C22.2752 19.5117 22.7166 19.5977 23.2087 19.5977C23.8181 19.5977 24.3845 19.4805 24.908 19.2461C25.4392 19.0039 25.8962 18.6406 26.2791 18.1562L27.9197 19.9375C27.6541 20.3203 27.2908 20.6875 26.8298 21.0391C26.3767 21.3906 25.8298 21.6797 25.1892 21.9062C24.5486 22.125 23.8181 22.2344 22.9978 22.2344ZM36.1987 22.2344C35.2144 22.2344 34.3316 22.0781 33.5503 21.7656C32.7691 21.4453 32.105 21.0039 31.5581 20.4414C31.0191 19.8789 30.605 19.2266 30.3159 18.4844C30.0269 17.7344 29.8823 16.9375 29.8823 16.0938V15.625C29.8823 14.6641 30.0191 13.7852 30.2925 12.9883C30.5659 12.1914 30.9566 11.5 31.4644 10.9141C31.98 10.3281 32.605 9.87891 33.3394 9.56641C34.0737 9.24609 34.9019 9.08594 35.8237 9.08594C36.7222 9.08594 37.5191 9.23438 38.2144 9.53125C38.9097 9.82812 39.4917 10.25 39.9605 10.7969C40.437 11.3438 40.7964 12 41.0386 12.7656C41.2808 13.5234 41.4019 14.3672 41.4019 15.2969V16.7031H31.3237V14.4531H38.0855V14.1953C38.0855 13.7266 37.9995 13.3086 37.8277 12.9414C37.6636 12.5664 37.4136 12.2695 37.0777 12.0508C36.7417 11.832 36.312 11.7227 35.7886 11.7227C35.3433 11.7227 34.9605 11.8203 34.6402 12.0156C34.3198 12.2109 34.0581 12.4844 33.855 12.8359C33.6597 13.1875 33.5112 13.6016 33.4097 14.0781C33.3159 14.5469 33.2691 15.0625 33.2691 15.625V16.0938C33.2691 16.6016 33.3394 17.0703 33.48 17.5C33.6284 17.9297 33.8355 18.3008 34.1011 18.6133C34.3745 18.9258 34.7027 19.168 35.0855 19.3398C35.4761 19.5117 35.9175 19.5977 36.4097 19.5977C37.0191 19.5977 37.5855 19.4805 38.1089 19.2461C38.6402 19.0039 39.0972 18.6406 39.48 18.1562L41.1206 19.9375C40.855 20.3203 40.4917 20.6875 40.0308 21.0391C39.5777 21.3906 39.0308 21.6797 38.3902 21.9062C37.7495 22.125 37.0191 22.2344 36.1987 22.2344ZM46.9388 11.7578V26.875H43.5638V9.32031H46.6927L46.9388 11.7578ZM54.9661 15.5195V15.7656C54.9661 16.6875 54.8567 17.543 54.638 18.332C54.427 19.1211 54.1145 19.8086 53.7005 20.3945C53.2864 20.9727 52.7708 21.4258 52.1536 21.7539C51.5442 22.0742 50.8411 22.2344 50.0442 22.2344C49.2708 22.2344 48.5989 22.0781 48.0286 21.7656C47.4583 21.4531 46.9778 21.0156 46.5872 20.4531C46.2044 19.8828 45.8958 19.2227 45.6614 18.4727C45.427 17.7227 45.2473 16.918 45.1223 16.0586V15.4141C45.2473 14.4922 45.427 13.6484 45.6614 12.8828C45.8958 12.1094 46.2044 11.4414 46.5872 10.8789C46.9778 10.3086 47.4544 9.86719 48.0169 9.55469C48.5872 9.24219 49.2552 9.08594 50.0208 9.08594C50.8255 9.08594 51.5325 9.23828 52.1419 9.54297C52.7591 9.84766 53.2747 10.2852 53.6888 10.8555C54.1106 11.4258 54.427 12.1055 54.638 12.8945C54.8567 13.6836 54.9661 14.5586 54.9661 15.5195ZM51.5794 15.7656V15.5195C51.5794 14.9805 51.5325 14.4844 51.4388 14.0312C51.3528 13.5703 51.2122 13.168 51.0169 12.8242C50.8294 12.4805 50.5794 12.2148 50.2669 12.0273C49.9622 11.832 49.5911 11.7344 49.1536 11.7344C48.6927 11.7344 48.2981 11.8086 47.97 11.957C47.6497 12.1055 47.388 12.3203 47.1848 12.6016C46.9817 12.8828 46.8294 13.2188 46.7278 13.6094C46.6263 14 46.5638 14.4414 46.5403 14.9336V16.5625C46.5794 17.1406 46.6888 17.6602 46.8684 18.1211C47.0481 18.5742 47.3255 18.9336 47.7005 19.1992C48.0755 19.4648 48.5677 19.5977 49.177 19.5977C49.6223 19.5977 49.9973 19.5 50.302 19.3047C50.6067 19.1016 50.8528 18.8242 51.0403 18.4727C51.2356 18.1211 51.3723 17.7148 51.4505 17.2539C51.5364 16.793 51.5794 16.2969 51.5794 15.7656ZM65.1436 4.9375V22H61.6397V4.9375H65.1436ZM70.3936 4.9375V7.69141H56.4717V4.9375H70.3936ZM79.0359 18.9648V9.32031H82.4109V22H79.2352L79.0359 18.9648ZM79.4109 16.3633L80.407 16.3398C80.407 17.1836 80.3094 17.9688 80.1141 18.6953C79.9187 19.4141 79.6258 20.0391 79.2352 20.5703C78.8445 21.0938 78.3523 21.5039 77.7586 21.8008C77.1648 22.0898 76.4656 22.2344 75.6609 22.2344C75.0437 22.2344 74.4734 22.1484 73.95 21.9766C73.4344 21.7969 72.9891 21.5195 72.6141 21.1445C72.2469 20.7617 71.9578 20.2734 71.7469 19.6797C71.5437 19.0781 71.4422 18.3555 71.4422 17.5117V9.32031H74.8172V17.5352C74.8172 17.9102 74.8602 18.2266 74.9461 18.4844C75.0398 18.7422 75.1687 18.9531 75.3328 19.1172C75.4969 19.2812 75.6883 19.3984 75.907 19.4688C76.1336 19.5391 76.3836 19.5742 76.657 19.5742C77.3523 19.5742 77.8992 19.4336 78.2977 19.1523C78.7039 18.8711 78.9891 18.4883 79.1531 18.0039C79.325 17.5117 79.4109 16.9648 79.4109 16.3633ZM91.44 9.32031V11.7109H84.0572V9.32031H91.44ZM85.8853 6.19141H89.2603V18.1797C89.2603 18.5469 89.3072 18.8281 89.4009 19.0234C89.5025 19.2188 89.6509 19.3555 89.8463 19.4336C90.0416 19.5039 90.2877 19.5391 90.5845 19.5391C90.7955 19.5391 90.983 19.5312 91.147 19.5156C91.3189 19.4922 91.4634 19.4688 91.5806 19.4453L91.5923 21.9297C91.3033 22.0234 90.9908 22.0977 90.6548 22.1523C90.3189 22.207 89.9478 22.2344 89.5416 22.2344C88.7994 22.2344 88.1509 22.1133 87.5963 21.8711C87.0494 21.6211 86.6275 21.2227 86.3306 20.6758C86.0338 20.1289 85.8853 19.4102 85.8853 18.5195V6.19141ZM115.627 12.0859V22H112.252V9.32031H115.427L115.627 12.0859ZM119.447 9.23828L119.388 12.3672C119.224 12.3438 119.025 12.3242 118.791 12.3086C118.564 12.2852 118.357 12.2734 118.17 12.2734C117.693 12.2734 117.279 12.3359 116.927 12.4609C116.584 12.5781 116.295 12.7539 116.06 12.9883C115.834 13.2227 115.662 13.5078 115.545 13.8438C115.435 14.1797 115.373 14.5625 115.357 14.9922L114.677 14.7812C114.677 13.9609 114.759 13.207 114.923 12.5195C115.088 11.8242 115.326 11.2188 115.638 10.7031C115.959 10.1875 116.349 9.78906 116.81 9.50781C117.271 9.22656 117.798 9.08594 118.392 9.08594C118.58 9.08594 118.771 9.10156 118.966 9.13281C119.162 9.15625 119.322 9.19141 119.447 9.23828Z" fill="black"/>
<path d="M110 15.708C109.999 15.0036 109.807 14.3127 109.443 13.7094C109.079 13.1061 108.558 12.6132 107.936 12.2836C107.921 11.5999 107.698 10.9369 107.296 10.3835C106.894 9.83008 106.333 9.41274 105.687 9.18738C105.041 8.96201 104.342 8.93938 103.683 9.12252C103.024 9.30566 102.437 9.68582 102 10.2121C101.563 9.68582 100.976 9.30566 100.317 9.12252C99.6583 8.93938 98.9592 8.96201 98.3134 9.18738C97.6677 9.41274 97.1063 9.83008 96.7045 10.3835C96.3026 10.9369 96.0794 11.5999 96.0649 12.2836C95.4417 12.6123 94.9201 13.1049 94.5562 13.7082C94.1923 14.3116 94 15.0028 94 15.7074C94 16.412 94.1923 17.1032 94.5562 17.7065C94.9201 18.3099 95.4417 18.8024 96.0649 19.1311C96.0792 19.815 96.3021 20.4782 96.7039 21.0318C97.1057 21.5854 97.6671 22.0029 98.3129 22.2284C98.9586 22.454 99.6579 22.4767 100.317 22.2936C100.976 22.1105 101.563 21.7303 102 21.204C102.437 21.7303 103.024 22.1105 103.684 22.2936C104.343 22.4767 105.042 22.454 105.688 22.2284C106.333 22.0029 106.895 21.5854 107.297 21.0318C107.698 20.4782 107.921 19.815 107.936 19.1311C108.558 18.8021 109.08 18.3096 109.443 17.7064C109.807 17.1033 110 16.4124 110 15.708ZM99.4197 20.8692C99.0299 20.8691 98.6506 20.743 98.3384 20.5096C98.0262 20.2763 97.7979 19.9482 97.6875 19.5744C97.752 19.5744 97.8094 19.5789 97.8713 19.5789H98.3875C98.5928 19.5789 98.7897 19.4973 98.9349 19.3521C99.0801 19.2069 99.1616 19.01 99.1616 18.8047C99.1616 18.5994 99.0801 18.4025 98.9349 18.2573C98.7897 18.1121 98.5928 18.0305 98.3875 18.0305H97.8713C97.3232 18.0309 96.7926 17.8374 96.3733 17.4842C95.9541 17.1311 95.6733 16.641 95.5806 16.1007C95.488 15.5605 95.5894 15.0048 95.8669 14.5321C96.1444 14.0594 96.5802 13.7001 97.0972 13.5178C97.2482 13.4644 97.3789 13.3655 97.4713 13.2347C97.5638 13.1039 97.6134 12.9476 97.6133 12.7875V12.3533C97.6133 11.8742 97.8036 11.4147 98.1424 11.076C98.4811 10.7372 98.9406 10.5469 99.4197 10.5469C99.8988 10.5469 100.358 10.7372 100.697 11.076C101.036 11.4147 101.226 11.8742 101.226 12.3533V16.2358C101.078 16.1408 100.923 16.0578 100.762 15.9874C100.573 15.9052 100.36 15.9012 100.169 15.9763C99.9779 16.0513 99.8244 16.1991 99.7422 16.3874C99.6601 16.5756 99.6561 16.7887 99.7311 16.9799C99.8061 17.171 99.954 17.3246 100.142 17.4067C100.523 17.5725 100.835 17.8644 101.025 18.2332C101.216 18.6021 101.274 19.0253 101.189 19.4318C101.104 19.8382 100.882 20.203 100.56 20.4648C100.237 20.7266 99.8349 20.8694 99.4197 20.8692ZM106.129 18.0305H105.613C105.408 18.0305 105.211 18.1121 105.066 18.2573C104.92 18.4025 104.839 18.5994 104.839 18.8047C104.839 19.01 104.92 19.2069 105.066 19.3521C105.211 19.4973 105.408 19.5789 105.613 19.5789H106.129C106.194 19.5789 106.252 19.5789 106.313 19.5744C106.227 19.8658 106.069 20.1309 105.853 20.345C105.638 20.5591 105.371 20.7154 105.079 20.7993C104.787 20.8832 104.479 20.8921 104.182 20.8252C103.886 20.7582 103.611 20.6176 103.384 20.4163C103.156 20.2149 102.983 19.9595 102.88 19.6734C102.778 19.3874 102.749 19.0801 102.796 18.78C102.844 18.4799 102.967 18.1966 103.153 17.9565C103.339 17.7163 103.583 17.527 103.861 17.406C104.05 17.3239 104.198 17.1704 104.273 16.9792C104.348 16.7881 104.344 16.5749 104.261 16.3867C104.179 16.1985 104.026 16.0506 103.835 15.9756C103.643 15.9006 103.43 15.9046 103.242 15.9867C103.081 16.0571 102.926 16.1402 102.778 16.2351V12.3533C102.778 11.8742 102.968 11.4147 103.307 11.076C103.645 10.7372 104.105 10.5469 104.584 10.5469C105.063 10.5469 105.523 10.7372 105.861 11.076C106.2 11.4147 106.39 11.8742 106.39 12.3533V12.7875C106.39 12.9476 106.44 13.1039 106.532 13.2347C106.625 13.3655 106.756 13.4644 106.907 13.5178C107.426 13.6985 107.864 14.0575 108.144 14.531C108.423 15.0045 108.525 15.5618 108.432 16.1037C108.34 16.6456 108.057 17.137 107.636 17.4904C107.215 17.8438 106.682 18.0363 106.132 18.0338L106.129 18.0305ZM107.161 15.1919C107.161 15.3972 107.08 15.5941 106.935 15.7393C106.789 15.8845 106.593 15.9661 106.387 15.9661C105.703 15.9661 105.046 15.6942 104.562 15.2103C104.079 14.7263 103.807 14.0699 103.807 13.3855V13.1275C103.807 12.9221 103.888 12.7252 104.033 12.58C104.179 12.4349 104.375 12.3533 104.581 12.3533C104.786 12.3533 104.983 12.4349 105.128 12.58C105.273 12.7252 105.355 12.9221 105.355 13.1275V13.3855C105.355 13.6593 105.464 13.9218 105.657 14.1154C105.851 14.309 106.113 14.4177 106.387 14.4177C106.593 14.4177 106.789 14.4993 106.935 14.6445C107.08 14.7897 107.161 14.9866 107.161 15.1919ZM100.194 13.3855C100.194 14.0699 99.922 14.7263 99.438 15.2103C98.9541 15.6942 98.2977 15.9661 97.6133 15.9661C97.408 15.9661 97.211 15.8845 97.0659 15.7393C96.9207 15.5941 96.8391 15.3972 96.8391 15.1919C96.8391 14.9866 96.9207 14.7897 97.0659 14.6445C97.211 14.4993 97.408 14.4177 97.6133 14.4177C97.887 14.4177 98.1496 14.309 98.3432 14.1154C98.5368 13.9218 98.6455 13.6593 98.6455 13.3855V13.1275C98.6455 12.9221 98.7271 12.7252 98.8723 12.58C99.0174 12.4349 99.2144 12.3533 99.4197 12.3533C99.625 12.3533 99.8219 12.4349 99.9671 12.58C100.112 12.7252 100.194 12.9221 100.194 13.1275V13.3855Z" fill="url(#paint0_linear_119_2586)"/>
<defs>
<linearGradient id="paint0_linear_119_2586" x1="94" y1="15.7058" x2="110" y2="15.7102" gradientUnits="userSpaceOnUse">
<stop stop-color="#0AE2FF"/>
<stop offset="1" stop-color="#0687E5"/>
</linearGradient>
</defs>
</svg>
