<svg width="18" height="18" viewBox="0 0 18 18" fill="none" xmlns="http://www.w3.org/2000/svg">
<path d="M16.5423 17.577L10.2616 11.296C9.76155 11.7088 9.18655 12.0319 8.53655 12.2653C7.88655 12.4986 7.21414 12.6153 6.5193 12.6153C4.81014 12.6153 3.36364 12.0235 2.1798 10.84C0.995969 9.65652 0.404053 8.21035 0.404053 6.50152C0.404053 4.79285 0.995803 3.34618 2.1793 2.16152C3.3628 0.977016 4.80897 0.384766 6.5178 0.384766C8.22647 0.384766 9.67314 0.976682 10.8578 2.16051C12.0423 3.34435 12.6346 4.79085 12.6346 6.50002C12.6346 7.21418 12.5147 7.89627 12.2751 8.54627C12.0352 9.19627 11.7153 9.7616 11.3153 10.2423L17.5961 16.523L16.5423 17.577ZM6.5193 11.1155C7.8078 11.1155 8.89914 10.6683 9.7933 9.77402C10.6876 8.87985 11.1348 7.78852 11.1348 6.50002C11.1348 5.21152 10.6876 4.12018 9.7933 3.22601C8.89914 2.33168 7.8078 1.88452 6.5193 1.88452C5.2308 1.88452 4.13947 2.33168 3.2453 3.22601C2.35097 4.12018 1.9038 5.21152 1.9038 6.50002C1.9038 7.78852 2.35097 8.87985 3.2453 9.77402C4.13947 10.6683 5.2308 11.1155 6.5193 11.1155Z" fill="#1C1B1F"/>
</svg>
