<svg width="16" height="16" viewBox="0 0 16 16" fill="none" xmlns="http://www.w3.org/2000/svg">
<path opacity="0.24" d="M11 1.70703V4.00006H13.293L11 1.70703Z" fill="white"/>
<path opacity="0.6" fill-rule="evenodd" clip-rule="evenodd" d="M2 0H10.707L15 4.293V8.67133C14.7149 8.31899 14.3776 8.01056 14 7.75777V5H10V1H3V14H7.75777C8.01056 14.3776 8.31899 14.7149 8.67133 15H2V0ZM13.293 4L11 1.707V4H13.293Z" fill="white"/>
<path opacity="0.85" fill-rule="evenodd" clip-rule="evenodd" d="M16 11.5C16 13.9853 13.9853 16 11.5 16C9.01472 16 7 13.9853 7 11.5C7 9.01472 9.01472 7 11.5 7C13.9853 7 16 9.01472 16 11.5ZM11 10.2071V14.5H12V10.2071L13.2929 11.5L14 10.7929L11.5 8.29289L9 10.7929L9.70711 11.5L11 10.2071Z" fill="#39BF68"/>
</svg>
