<svg width="16" height="16" viewBox="0 0 16 16" fill="none" xmlns="http://www.w3.org/2000/svg">
<path opacity="0.24" d="M11 1.70703V4.00006H13.293L11 1.70703Z" fill="white"/>
<path opacity="0.6" fill-rule="evenodd" clip-rule="evenodd" d="M2 0H10.707L15 4.293V8.67133C14.7149 8.31899 14.3776 8.01056 14 7.75777V5H10V1H3V14H7.75777C8.01056 14.3776 8.31899 14.7149 8.67133 15H2V0ZM13.293 4L11 1.707V4H13.293Z" fill="white"/>
<path opacity="0.6" fill-rule="evenodd" clip-rule="evenodd" d="M16 11.5C16 13.9853 13.9853 16 11.5 16C9.01472 16 7 13.9853 7 11.5C7 9.01472 9.01472 7 11.5 7C13.9853 7 16 9.01472 16 11.5ZM10.8524 11.788C10.8074 11.939 10.7904 12.113 10.8014 12.309H10.8004L10.8084 12.542H11.8954V12.374C11.8954 12.246 11.9154 12.134 11.9564 12.037C11.9974 11.94 12.0684 11.847 12.1694 11.759C12.2704 11.671 12.4104 11.573 12.5904 11.467C12.8794 11.298 13.0974 11.102 13.2444 10.88C13.3914 10.658 13.4654 10.394 13.4654 10.089V10.081C13.4654 9.76702 13.3844 9.49302 13.2224 9.25702C13.0604 9.02102 12.8344 8.83602 12.5444 8.70102C12.2544 8.56602 11.9144 8.49902 11.5244 8.49902C11.1074 8.49902 10.7524 8.57202 10.4614 8.71802C10.1704 8.86402 9.94542 9.06302 9.78942 9.31302C9.63342 9.56302 9.54942 9.84902 9.53842 10.171L9.53442 10.208H10.6464L10.6504 10.175C10.6584 10.036 10.6964 9.91102 10.7644 9.80302C10.8324 9.69502 10.9254 9.60902 11.0424 9.54602C11.1594 9.48302 11.2954 9.45202 11.4514 9.45202C11.6074 9.45202 11.7424 9.48002 11.8584 9.53602C11.9744 9.59202 12.0654 9.67102 12.1304 9.77102C12.1954 9.87102 12.2284 9.98702 12.2284 10.118V10.126C12.2284 10.251 12.2084 10.362 12.1674 10.459C12.1264 10.556 12.0554 10.648 11.9544 10.735C11.8534 10.822 11.7154 10.917 11.5414 11.021C11.3534 11.133 11.2024 11.251 11.0894 11.375C10.9764 11.499 10.8974 11.637 10.8524 11.788ZM10.7034 13.858C10.7034 14.038 10.7684 14.19 10.8974 14.314C11.0264 14.438 11.1844 14.5 11.3694 14.5C11.5574 14.5 11.7164 14.438 11.8454 14.314C11.9744 14.19 12.0394 14.038 12.0394 13.858C12.0394 13.678 11.9744 13.526 11.8454 13.402C11.7164 13.278 11.5574 13.216 11.3694 13.216C11.1844 13.216 11.0264 13.278 10.8974 13.402C10.7684 13.526 10.7034 13.678 10.7034 13.858Z" fill="white"/>
</svg>
