<svg width="16" height="16" viewBox="0 0 16 16" fill="none" xmlns="http://www.w3.org/2000/svg">
<g clip-path="url(#clip0_2289_29)">
<path d="M7.9996 0C12.4179 0 15.9996 3.58172 15.9996 8C15.9996 12.4183 12.4179 16 7.9996 16C3.58151 15.9998 -0.000396729 12.4181 -0.000396729 8C-0.000396729 3.58185 3.58151 0.000214404 7.9996 0ZM7.9996 1C4.13379 1.00021 0.999603 4.13414 0.999603 8C0.999603 11.8659 4.13379 14.9998 7.9996 15C11.8656 15 14.9996 11.866 14.9996 8C14.9996 4.13401 11.8656 1 7.9996 1ZM7.9996 8H11.9996V9H6.9996V3H7.9996V8Z" fill="context-fill"/>
</g>
<defs>
<clipPath id="clip0_2289_29">
<rect width="16" height="16" fill="white"/>
</clipPath>
</defs>
</svg>
