<svg width="28" height="28" viewBox="0 0 28 28" fill="none" xmlns="http://www.w3.org/2000/svg">
<path opacity="0.2" d="M25 9H1V3.75C1 3.336 1.336 3 1.75 3H24.25C24.664 3 25 3.336 25 3.75V9Z" fill="white"/>
<path opacity="0.4" d="M4 17H10V21H4V17Z" fill="white"/>
<path d="M11 6C11 6.552 10.552 7 10 7C9.448 7 9 6.552 9 6C9 5.448 9.448 5 10 5C10.552 5 11 5.448 11 6ZM4 5C3.448 5 3 5.448 3 6C3 6.552 3.448 7 4 7C4.552 7 5 6.552 5 6C5 5.448 4.552 5 4 5ZM7 5C6.448 5 6 5.448 6 6C6 6.552 6.448 7 7 7C7.552 7 8 6.552 8 6C8 5.448 7.552 5 7 5ZM3 22H10V21H4V17H10V16H3V22ZM19.5 19C19.451 19 19.404 19.01 19.357 19.014C19.44 19.16 19.5 19.32 19.5 19.5C19.5 20.052 19.052 20.5 18.5 20.5C18.32 20.5 18.16 20.44 18.014 20.357C18.009 20.405 18 20.451 18 20.5C18 21.328 18.672 22 19.5 22C20.328 22 21 21.328 21 20.5C21 19.672 20.328 19 19.5 19ZM24.5 16H23.5C23.224 16 23 16.224 23 16.5V17.5C23 17.776 23.224 18 23.5 18H24.5C24.776 18 25 17.776 25 17.5V16.5C25 16.224 24.776 16 24.5 16ZM23 20.5C23 22.433 21.433 24 19.5 24C17.567 24 16 22.433 16 20.5C16 18.567 17.567 17 19.5 17C21.433 17 23 18.567 23 20.5ZM22 20.5C22 19.122 20.878 18 19.5 18C18.122 18 17 19.122 17 20.5C17 21.878 18.122 23 19.5 23C20.878 23 22 21.878 22 20.5ZM28 15.75V25.25C28 26.216 27.216 27 26.25 27H12.75C11.784 27 11 26.216 11 25.25V25H0V3.75C0 2.784 0.784 2 1.75 2H24.25C25.216 2 26 2.784 26 3.75V14H26.25C27.216 14 28 14.784 28 15.75ZM1 9H25V3.75C25 3.336 24.664 3 24.25 3H1.75C1.336 3 1 3.336 1 3.75V9ZM12.75 14H25V10H1V24H11V15.75C11 14.784 11.784 14 12.75 14ZM27 15.75C27 15.336 26.664 15 26.25 15H12.75C12.336 15 12 15.336 12 15.75V25.25C12 25.664 12.336 26 12.75 26H26.25C26.664 26 27 25.664 27 25.25V15.75Z" fill="white"/>
<path opacity="0.4" fill-rule="evenodd" clip-rule="evenodd" d="M26.7803 15.2197C26.6397 15.079 26.4489 15 26.25 15H12.75C12.5511 15 12.3603 15.079 12.2197 15.2197C12.079 15.3603 12 15.5511 12 15.75V25.25C12 25.4489 12.079 25.6397 12.2197 25.7803C12.3603 25.921 12.5511 26 12.75 26H26.25C26.4489 26 26.6397 25.921 26.7803 25.7803C26.921 25.6397 27 25.4489 27 25.25V15.75C27 15.5511 26.921 15.3603 26.7803 15.2197ZM17.5555 17.5899C18.1311 17.2053 18.8078 17 19.5 17C20.4283 17 21.3185 17.3687 21.9749 18.0251C22.6313 18.6815 23 19.5717 23 20.5C23 21.1922 22.7947 21.8689 22.4101 22.4445C22.0256 23.0201 21.4789 23.4687 20.8394 23.7336C20.1999 23.9985 19.4961 24.0678 18.8172 23.9327C18.1383 23.7977 17.5146 23.4644 17.0251 22.9749C16.5356 22.4854 16.2023 21.8617 16.0673 21.1828C15.9322 20.5039 16.0015 19.8001 16.2664 19.1606C16.5313 18.5211 16.9799 17.9744 17.5555 17.5899ZM24.8536 16.1464C24.9473 16.2402 25 16.3674 25 16.5V17.5C25 17.6326 24.9473 17.7598 24.8536 17.8536C24.7598 17.9473 24.6326 18 24.5 18H23.5C23.3674 18 23.2402 17.9473 23.1464 17.8536C23.0527 17.7598 23 17.6326 23 17.5V16.5C23 16.3674 23.0527 16.2402 23.1464 16.1464C23.2402 16.0527 23.3674 16 23.5 16H24.5C24.6326 16 24.7598 16.0527 24.8536 16.1464Z" fill="white"/>
<path opacity="0.2" fill-rule="evenodd" clip-rule="evenodd" d="M20.8889 18.4213C20.4778 18.1466 19.9945 18 19.5 18C18.837 18 18.2011 18.2634 17.7322 18.7322C17.2634 19.2011 17 19.837 17 20.5C17 20.9945 17.1466 21.4778 17.4213 21.8889C17.696 22.3 18.0865 22.6205 18.5433 22.8097C19.0001 22.9989 19.5028 23.0484 19.9877 22.952C20.4727 22.8555 20.9181 22.6174 21.2678 22.2678C21.6174 21.9181 21.8555 21.4727 21.952 20.9877C22.0484 20.5028 21.9989 20.0001 21.8097 19.5433C21.6205 19.0865 21.3 18.696 20.8889 18.4213ZM19.4028 19.0085C19.4341 19.0044 19.4675 19 19.5 19C19.7967 19 20.0867 19.088 20.3334 19.2528C20.58 19.4176 20.7723 19.6519 20.8858 19.926C20.9993 20.2001 21.0291 20.5017 20.9712 20.7926C20.9133 21.0836 20.7704 21.3509 20.5607 21.5607C20.3509 21.7704 20.0836 21.9133 19.7926 21.9712C19.5017 22.0291 19.2001 21.9993 18.926 21.8858C18.6519 21.7723 18.4176 21.58 18.2528 21.3334C18.088 21.0867 18 20.7967 18 20.5C18 20.4752 18.0036 20.451 18.0071 20.427C18.0106 20.4035 18.014 20.3803 18.014 20.357C18.1606 20.4467 18.3282 20.496 18.5 20.5C18.7652 20.5 19.0196 20.3946 19.2071 20.2071C19.3946 20.0196 19.5 19.7652 19.5 19.5C19.496 19.3282 19.4467 19.1606 19.357 19.014C19.3715 19.0127 19.3869 19.0106 19.4028 19.0085Z" fill="white"/>
</svg>
