<svg width="28" height="28" viewBox="0 0 28 28" fill="none" xmlns="http://www.w3.org/2000/svg">
<path opacity="0.2" d="M1.75 3H24.25C24.664 3 25 3.336 25 3.75V9H1V3.75C1 3.336 1.336 3 1.75 3Z" fill="white"/>
<path opacity="0.4" d="M17.5 19C18.828 19 20.048 19.473 21 20.26C21.445 19.892 21.954 19.6 22.5 19.386V16.5H3.5V22.5H12.382C13.184 20.454 15.173 19 17.5 19Z" fill="white"/>
<path d="M5 6C5 6.552 4.552 7 4 7C3.448 7 3 6.552 3 6C3 5.448 3.448 5 4 5C4.552 5 5 5.448 5 6ZM7 5C6.448 5 6 5.448 6 6C6 6.552 6.448 7 7 7C7.552 7 8 6.552 8 6C8 5.448 7.552 5 7 5ZM10 5C9.448 5 9 5.448 9 6C9 6.552 9.448 7 10 7C10.552 7 11 6.552 11 6C11 5.448 10.552 5 10 5ZM12.607 22H4V17H22V19.62C22.317 19.457 22.651 19.329 23 19.229V16H3V23H12.213C12.312 22.651 12.444 22.317 12.607 22ZM26 3.75V19.213C25.677 19.121 25.344 19.056 25 19.025V10H1V25H12.025C12.056 25.344 12.121 25.677 12.213 26H0V3.75C0 2.784 0.784 2 1.75 2H24.25C25.216 2 26 2.784 26 3.75ZM25 3.75C25 3.336 24.664 3 24.25 3H1.75C1.336 3 1 3.336 1 3.75V9H25V3.75ZM28 24.5C28 26.433 26.433 28 24.5 28C22.738 28 21.295 26.694 21.05 25H20.949C20.704 26.694 19.261 28 17.499 28C15.566 28 13.999 26.433 13.999 24.5C13.999 22.567 15.566 21 17.499 21C19.261 21 20.704 22.306 20.949 24H21.05C21.295 22.306 22.738 21 24.5 21C26.433 21 28 22.567 28 24.5ZM19.949 25H17.5C17.224 25 17 24.776 17 24.5C17 24.224 17.224 24 17.5 24H19.949C19.717 22.86 18.707 22 17.5 22C16.122 22 15 23.122 15 24.5C15 25.878 16.122 27 17.5 27C18.707 27 19.717 26.14 19.949 25ZM27 24.5C27 23.122 25.879 22 24.5 22C23.293 22 22.283 22.86 22.051 24H24.5C24.776 24 25 24.224 25 24.5C25 24.776 24.776 25 24.5 25H22.051C22.283 26.14 23.293 27 24.5 27C25.879 27 27 25.878 27 24.5Z" fill="white"/>
</svg>
