<svg width="28" height="28" viewBox="0 0 28 28" fill="none" xmlns="http://www.w3.org/2000/svg">
<path opacity="0.4" d="M1.5 17.5H9.5C9.5 20.18 8.18 21.5 5.5 21.5C2.82 21.5 1.5 20.18 1.5 17.5ZM23.5 21.5C26.18 21.5 27.5 20.18 27.5 17.5H19.5C19.5 20.18 20.82 21.5 23.5 21.5ZM19.5 28V27.207L17.793 25.5H11.207L9.5 27.207V28H19.5Z" fill="white"/>
<path d="M23.5 5H5.49998C5.22398 5 4.99998 4.776 4.99998 4.5C4.99998 4.224 5.22398 4 5.49998 4H23.5C23.776 4 24 4.224 24 4.5C24 4.776 23.776 5 23.5 5ZM13.5 3H15.5C15.776 3 16 2.776 16 2.5C16 2.224 15.776 2 15.5 2H15V0.5C15 0.224 14.776 0 14.5 0C14.224 0 14 0.224 14 0.5V2H13.5C13.224 2 13 2.224 13 2.5C13 2.776 13.224 3 13.5 3ZM28 17.5C28 20.444 26.444 22 23.5 22C20.556 22 19 20.444 19 17.5C19 17.462 19.013 17.429 19.021 17.394C19.025 17.377 19.02 17.359 19.025 17.342L23.025 5.342C23.093 5.138 23.285 5 23.5 5C23.715 5 23.905 5.138 23.973 5.342L27.973 17.342C27.979 17.36 27.973 17.379 27.978 17.397C27.985 17.431 28 17.464 28 17.5ZM20.194 17H26.807L23.501 7.081L20.194 17ZM26.983 18H20.018C20.168 20.043 21.286 21 23.5 21C25.714 21 26.833 20.043 26.983 18ZM10.001 17.5C10.001 20.444 8.44498 22 5.50098 22C2.55698 22 1.00098 20.444 1.00098 17.5C1.00098 17.462 1.01398 17.429 1.02198 17.394C1.02598 17.377 1.02098 17.359 1.02598 17.342L5.02598 5.342C5.09398 5.138 5.28498 5 5.49998 5C5.71498 5 5.90598 5.138 5.97398 5.342L9.97398 17.342C9.97998 17.36 9.97398 17.379 9.97898 17.397C9.98598 17.431 9.99998 17.464 9.99998 17.5H10.001ZM2.19498 17H8.80798L5.50198 7.081L2.19598 17H2.19498ZM8.98398 18H2.01798C2.16798 20.043 3.28598 21 5.49998 21C7.71398 21 8.83198 20.043 8.98198 18H8.98398ZM15.002 25V6H14.002V25H11.002L9.00198 27V28H10.002V27.414L11.416 26H17.588L19.002 27.414V28H20.002V27L18.002 25H15.002Z" fill="white"/>
</svg>
