<svg width="28" height="28" viewBox="0 0 28 28" fill="none" xmlns="http://www.w3.org/2000/svg">
<path opacity="0.4" d="M1.62793 3.52399L3.43793 13.476H7.49993V7.49999H20.4999V13.476H24.5619L26.3719 3.52399H1.62793Z" fill="white"/>
<path d="M17.5 4.00001C17.372 4.00001 17.244 3.95101 17.146 3.85401L14.146 0.854013C13.951 0.659013 13.951 0.342013 14.146 0.147013C14.341 -0.0479871 14.658 -0.0479871 14.853 0.147013L17.853 3.14701C18.048 3.34201 18.048 3.65901 17.853 3.85401C17.755 3.95201 17.628 4.00001 17.5 4.00001Z" fill="white"/>
<path d="M25 14L27 3H1L3 14H7V27H3V28H25V27H21V14H25ZM3.875 12.951L2.256 4.049H25.743L24.124 12.951H20.999V7H7V12.951H3.875ZM20 27H8V8H20V27Z" fill="white"/>
<path opacity="0.2" d="M20 8H8V27H20V8Z" fill="white"/>
</svg>
