<svg width="28" height="28" viewBox="0 0 28 28" fill="none" xmlns="http://www.w3.org/2000/svg">
<path opacity="0.4" d="M6.00002 1.23798C7.46502 1.38198 8.82202 1.58798 10 1.84698V19.023L8.59202 17.988L8.13002 17.648L7.60302 17.875L5.99902 18.567L6.00002 1.23798Z" fill="white"/>
<path d="M14.5 2.585C12.889 1.097 7.464 0 1 0V25C7.464 25 12.889 26.097 14.5 27.585C16.111 26.097 21.536 25 28 25V0C21.536 0 16.111 1.097 14.5 2.585ZM6 1.239C7.516 1.389 8.861 1.601 10 1.852V19.024L8.592 17.989L8.13 17.649L7.604 17.876L6 18.568V1.239ZM14 26.067C11.636 24.865 7.225 24.095 2 24.008V1.009C3.054 1.028 4.053 1.079 5 1.151V20.09L8 18.795L11 21V2.095C12.388 2.469 13.366 2.899 13.821 3.319L14 3.484V26.067ZM27 24.008C21.775 24.095 17.364 24.865 15 26.067V3.484L15.179 3.319C16.335 2.251 20.818 1.12 27 1.008V24.008Z" fill="white"/>
</svg>
