<svg width="28" height="28" viewBox="0 0 28 28" fill="none" xmlns="http://www.w3.org/2000/svg">
<path opacity="0.2" d="M16.133 16.304C16.377 15.559 16.5 14.787 16.5 14C16.5 13.891 16.493 13.783 16.485 13.676L16.457 13.201L16.112 13.105C12.756 12.172 10.5 9.719 10.5 7C10.5 3.416 14.313 0.5 19 0.5C23.687 0.5 27.5 3.416 27.5 7C27.5 10.111 24.6 12.794 20.603 13.379L20.408 13.408L20.285 13.561C19.21 14.904 17.759 15.857 16.134 16.303L16.133 16.304Z" fill="white"/>
<path opacity="0.2" d="M8.456 9.55499C6.233 9.82699 4.5 11.705 4.5 14C4.5 16.481 6.519 18.5 9 18.5C11.225 18.5 13.065 16.873 13.424 14.749C11.053 13.604 9.253 11.759 8.456 9.55499Z" fill="white"/>
<path d="M12.948 14.512C12.694 16.474 11.03 18 9 18C6.794 18 5 16.206 5 14C5 11.913 6.613 10.213 8.655 10.035C8.517 9.72101 8.399 9.40001 8.304 9.07001C5.875 9.41101 4 11.477 4 14C4 16.761 6.239 19 9 19C11.429 19 13.45 17.267 13.902 14.971C13.574 14.83 13.255 14.678 12.948 14.512Z" fill="white"/>
<path opacity="0.2" d="M9 21.5C2.725 21.5 0.5 23.201 0.5 28H17.5C17.5 23.201 15.275 21.5 9 21.5Z" fill="white"/>
<path d="M9 22C15.725 22 17 24.109 17 28H18C18 22.897 15.56 21 9 21C2.44 21 0 22.897 0 28H1C1 24.109 2.275 22 9 22Z" fill="white"/>
<path d="M19 1C23.411 1 27 3.692 27 7C27 9.86 24.279 12.335 20.53 12.885L20.141 12.942L19.895 13.249C19.078 14.269 18.03 15.049 16.851 15.531C16.95 15.029 17 14.517 17 14C17 13.876 16.992 13.754 16.984 13.632L16.977 13.528L16.935 12.815L16.246 12.624C13.108 11.753 11 9.493 11 7C11 3.692 14.589 1 19 1ZM19 0C14.029 0 10 3.134 10 7C10 10.04 12.497 12.62 15.979 13.587C15.987 13.724 16 13.86 16 14C16 15.07 15.752 16.08 15.321 16.988C17.481 16.652 19.368 15.506 20.675 13.875C24.844 13.264 28 10.421 28 7.001C28 3.134 23.971 0 19 0Z" fill="white"/>
</svg>
