<svg width="28" height="28" viewBox="0 0 28 28" fill="none" xmlns="http://www.w3.org/2000/svg">
<path opacity="0.4" d="M25.5 25.4999H14.5C13.16 25.4999 12.5 26.1599 12.5 27.4999H27.5C27.5 26.1599 26.84 25.4999 25.5 25.4999ZM19.116 14.1159C19.604 14.6039 20.396 14.6039 20.884 14.1159L24.116 10.8839C24.604 10.3959 24.604 9.60394 24.116 9.11594L16.884 1.88394C16.396 1.39594 15.604 1.39594 15.116 1.88394L11.884 5.11594C11.396 5.60394 11.396 6.39594 11.884 6.88394L14.854 9.85394L0.938994 22.9389C0.353994 23.5239 0.353994 24.4749 0.938994 25.0599C1.22199 25.3429 1.59899 25.4989 1.99999 25.4989C2.40099 25.4989 2.77699 25.3429 3.04999 25.0699L16.147 11.1449L19.117 14.1149L19.116 14.1159Z" fill="white"/>
<path d="M25.5 25.0001H14.5C12.888 25.0001 12 25.8881 12 27.5001C12 27.7761 12.224 28.0001 12.5 28.0001H27.5C27.776 28.0001 28 27.7761 28 27.5001C28 25.8881 27.112 25.0001 25.5 25.0001ZM13.041 27.0001C13.17 26.2971 13.62 26.0001 14.5 26.0001H25.5C26.38 26.0001 26.83 26.2971 26.959 27.0001H13.041ZM17.793 13.5001L17.439 13.8541C17.244 14.0491 17.244 14.3661 17.439 14.5611C17.537 14.6591 17.665 14.7071 17.793 14.7071C17.921 14.7071 18.049 14.6581 18.147 14.5611L18.501 14.2071L18.764 14.4701C19.105 14.8111 19.553 14.9821 20.001 14.9821C20.449 14.9821 20.897 14.8111 21.238 14.4701L24.47 11.2381C25.153 10.5551 25.153 9.44605 24.47 8.76305L24.207 8.50005L24.561 8.14605C24.756 7.95105 24.756 7.63406 24.561 7.43905C24.366 7.24405 24.049 7.24405 23.854 7.43905L23.5 7.79306L18.207 2.50005L18.561 2.14605C18.756 1.95105 18.756 1.63405 18.561 1.43905C18.366 1.24405 18.049 1.24405 17.854 1.43905L17.5 1.79305L17.237 1.53005C16.555 0.848055 15.444 0.848055 14.762 1.53005L11.53 4.76205C10.847 5.44505 10.847 6.55405 11.53 7.23705L11.793 7.50005L11.439 7.85405C11.244 8.04906 11.244 8.36605 11.439 8.56105C11.537 8.65905 11.665 8.70705 11.793 8.70705C11.921 8.70705 12.049 8.65805 12.147 8.56105L12.501 8.20705L14.137 9.84305L0.585994 22.5861C-0.195006 23.3671 -0.195006 24.6331 0.585994 25.4141C0.976994 25.8051 1.48799 26.0001 1.99999 26.0001C2.51199 26.0001 3.02399 25.8051 3.41399 25.4141L16.157 11.8641L17.793 13.5001ZM2.70699 24.7071C2.51799 24.8961 2.26699 25.0001 1.99999 25.0001C1.73299 25.0001 1.48199 24.8961 1.29299 24.7071C1.10399 24.5181 0.999994 24.2671 0.999994 24.0001C0.999994 23.7331 1.10399 23.4821 1.27099 23.3141L14.843 10.5501L15.45 11.1571L2.70699 24.7071ZM23.763 9.47005C24.055 9.76205 24.055 10.2391 23.763 10.5311L20.531 13.7631C20.238 14.0561 19.763 14.0561 19.47 13.7631L19.207 13.5001L23.5 9.20705L23.763 9.47005ZM12.238 6.53105C11.946 6.23906 11.946 5.76205 12.238 5.47005L15.47 2.23805C15.616 2.09205 15.808 2.01805 16 2.01805C16.192 2.01805 16.384 2.09105 16.53 2.23805L16.793 2.50105L12.5 6.79405L12.238 6.53105ZM13.208 7.50105L17.501 3.20805L22.794 8.50106L18.501 12.7941L13.208 7.50105Z" fill="white"/>
</svg>
