<svg width="28" height="28" viewBox="0 0 28 28" fill="none" xmlns="http://www.w3.org/2000/svg">
<path opacity="0.2" d="M14 0.5C6.544 0.5 0.5 5.335 0.5 11.3C0.5 15.716 3.817 19.507 8.563 21.181C8.644 21.777 8.7 22.381 8.7 23C8.7 24.222 8.523 25.4 8.219 26.525C10.525 25.6 12.511 24.053 13.984 22.099C13.989 22.099 13.994 22.099 14 22.099C21.456 22.099 27.5 17.264 27.5 11.299C27.5 5.334 21.456 0.5 14 0.5Z" fill="white"/>
<path d="M7.475 27.362L7.737 26.394C8.045 25.256 8.201 24.114 8.201 22.999C8.201 22.553 8.171 22.085 8.106 21.545C3.171 19.697 0 15.703 0 11.3C0 5.069 6.28 0 14 0C21.72 0 28 5.069 28 11.3C28 17.468 21.846 22.498 14.232 22.598C12.7 24.558 10.69 26.074 8.405 26.99L7.474 27.363L7.475 27.362ZM14 1C6.832 1 1 5.62 1 11.3C1 15.36 4.034 19.053 8.729 20.709L9.017 20.811L9.058 21.114C9.156 21.829 9.201 22.428 9.201 23.001C9.201 23.877 9.112 24.768 8.935 25.659C10.752 24.763 12.346 23.442 13.585 21.8L13.735 21.601H13.984C21.168 21.601 27 16.981 27 11.301C27 5.621 21.168 1 14 1Z" fill="white"/>
</svg>
