<svg width="28" height="28" viewBox="0 0 28 28" fill="none" xmlns="http://www.w3.org/2000/svg">
<path opacity="0.2" d="M6 24V5H4V27H14V24H6Z" fill="white"/>
<path opacity="0.4" d="M6.5 23.5V0.5H12.5C13.603 0.5 14.5 1.352 14.5 2.4V23.5H6.5Z" fill="white"/>
<path d="M22 7V16H16V15H21V8H16V7H22ZM25 4V28H3V4H6V0H12.5C13.881 0 15 1.074 15 2.4V4H25ZM7 23H12.5C13.065 23 13.581 23.195 14 23.511V2.4C14 1.628 13.327 1 12.5 1H7V23ZM12.5 27C13.327 27 14 26.327 14 25.5C14 24.673 13.327 24 12.5 24H6V5H4V27H12.5ZM24 5H15V25.5C15 26.065 14.805 26.581 14.489 27H24V5ZM16 19H22V18H16V19ZM16 21H22V22H16V21Z" fill="white"/>
<path opacity="0.4" d="M21 8H16V15H21V8Z" fill="white"/>
</svg>
