<svg width="28" height="28" viewBox="0 0 28 28" fill="none" xmlns="http://www.w3.org/2000/svg">
<path opacity="0.3" d="M2 25.5C1.173 25.5 0.5 24.827 0.5 24V5.5H3.5V24C3.5 24.827 2.827 25.5 2 25.5ZM6.5 5.5V10.5H24.5V5.5H6.5ZM6.5 13.5H14.5V19.5H6.5V13.5Z" fill="white"/>
<path opacity="0.1" d="M3.5 1.5V25.5H26C26.827 25.5 27.5 24.827 27.5 24V1.5H3.5ZM14.5 19.5H6.5V13.5H14.5V19.5ZM24.5 10.5H6.5V5.5H24.5V10.5Z" fill="white"/>
<path d="M24 6V10H7V6H24ZM25 5H6V11H25V5ZM17 14H25V13H17V14ZM17 17H25V16H17V17ZM17 20H25V19H17V20ZM6 23H25V22H6V23ZM3 1V5H0V24C0 25.105 0.895 26 2 26H26C27.105 26 28 25.105 28 24V1H3ZM1 24V6H3V24C3 24.551 2.551 25 2 25C1.449 25 1 24.551 1 24ZM27 24C27 24.551 26.551 25 26 25H3.723C3.895 24.705 4 24.366 4 24V2H27V24ZM14 14V19H7V14H14ZM15 13H6V20H15V13Z" fill="white"/>
</svg>
