<svg width="28" height="28" viewBox="0 0 28 28" fill="none" xmlns="http://www.w3.org/2000/svg">
<path opacity="0.2" d="M9.5 28V23.25C9.5 20.765 10.41 19.75 14 19.75C17.59 19.75 18.5 20.765 18.5 23.25V28M14 11C12.343 11 11 12.343 11 14C11 15.657 12.343 17 14 17C15.657 17 17 15.657 17 14C17 12.343 15.657 11 14 11Z" fill="white"/>
<path d="M3.267 22.983C1.23 20.551 0 17.421 0 14C0 6.268 6.268 0 14 0C21.732 0 28 6.268 28 14C28 17.42 26.77 20.551 24.733 22.983L23.951 22.201C25.793 19.97 26.9 17.112 26.9 14C26.9 6.887 21.113 1.1 14 1.1C6.887 1.1 1.1 6.887 1.1 14C1.1 17.112 2.208 19.97 4.049 22.201L3.267 22.983ZM6.35 14C6.35 9.782 9.782 6.35 14 6.35C18.218 6.35 21.65 9.782 21.65 14C21.65 15.663 21.111 17.199 20.206 18.456L20.993 19.243C22.091 17.781 22.75 15.969 22.75 14C22.75 9.167 18.833 5.25 14 5.25C9.167 5.25 5.25 9.167 5.25 14C5.25 15.97 5.909 17.781 7.007 19.243L7.794 18.456C6.889 17.2 6.35 15.663 6.35 14ZM14 10.5C12.067 10.5 10.5 12.067 10.5 14C10.5 15.933 12.067 17.5 14 17.5C15.933 17.5 17.5 15.933 17.5 14C17.5 12.067 15.933 10.5 14 10.5ZM14 16.5C12.619 16.5 11.5 15.381 11.5 14C11.5 12.619 12.619 11.5 14 11.5C15.381 11.5 16.5 12.619 16.5 14C16.5 15.381 15.381 16.5 14 16.5ZM19 23.25C19 20.334 17.645 19.25 14 19.25C10.355 19.25 9 20.334 9 23.25V28H10V23.25C10 21.134 10.556 20.25 14 20.25C17.444 20.25 18 21.134 18 23.25V28H19V23.25Z" fill="white"/>
</svg>
