<svg width="28" height="28" viewBox="0 0 28 28" fill="none" xmlns="http://www.w3.org/2000/svg">
<path opacity="0.4" d="M25.51 7.49999H18.5V0.48999L25.51 7.49999Z" fill="white"/>
<path fill-rule="evenodd" clip-rule="evenodd" d="M8 8H15V7H8V8ZM19.4994 13L20.4993 12H8V13H19.4994ZM14.4998 18L15.4997 17H8V18H14.4998ZM12 23L12.1667 22H8V23H12ZM3 0H18.717L26 7.283V7.54837C25.8456 7.45885 25.6723 7.41394 25.499 7.41394C25.243 7.41394 24.987 7.51194 24.792 7.70694L24.499 8H18V1H4V27H25V12.5008L26 11.5008V28H3V0ZM24.302 7L19 1.698V7H24.302Z" fill="white"/>
<path opacity="0.6" d="M22.5 10L13 19.5L15.5 22L25 12.5L22.5 10Z" fill="white"/>
<path opacity="0.6" d="M23.5003 9.00039L22.5005 10.0002L23.2507 10.7505L24.2506 9.75063L23.5003 9.00039Z" fill="white"/>
<path opacity="0.6" d="M25.2503 10.7504L24.2505 11.7502L25.0007 12.5005L26.0006 11.5006L25.2503 10.7504Z" fill="white"/>
<path d="M24.25 11.75L14.49 21.509L13.291 21.709L13.491 20.51L23.25 10.75L22.5 10L12.5 20L12 23L15 22.5L25 12.5L24.25 11.75Z" fill="white"/>
<path opacity="0.2" d="M13.491 20.51L13.75 20.25L14.75 21.25L14.49 21.509L13.291 21.709L13.491 20.51Z" fill="white"/>
<path opacity="0.6" d="M25.499 8.5L26.5 9.501L25.25 10.75L24.25 9.75L25.499 8.5Z" fill="white"/>
<path fill-rule="evenodd" clip-rule="evenodd" d="M24.792 7.70694C24.987 7.51194 25.243 7.41394 25.499 7.41394C25.755 7.41394 26.011 7.51194 26.206 7.70694L27.293 8.79394C27.684 9.18394 27.684 9.81694 27.293 10.2079L26.001 11.4999L25.2505 10.7495L26.5 9.501L25.499 8.5L24.2505 9.74947L23.5 8.99894L24.792 7.70694Z" fill="white"/>
</svg>
