<svg width="28" height="28" viewBox="0 0 28 28" fill="none" xmlns="http://www.w3.org/2000/svg">
<path opacity="0.6" d="M5 12.5V17H24V9.5L17.5 12.5L11.5 9.5L5 12.5Z" fill="white"/>
<path d="M24 8.94995L17.509 11.9449L11.509 8.94495L5 11.9499V13.0499L11.491 10.0549L17.491 13.0549L24 10.0499V8.94995Z" fill="white"/>
<path d="M27 2H15V0.5C15 0.224 14.776 0 14.5 0C14.224 0 14 0.224 14 0.5V2H2C1.448 2 1 2.448 1 3H2V20H14V22.293L9.146 27.147C8.951 27.342 8.951 27.659 9.146 27.854C9.341 28.049 9.658 28.049 9.853 27.854L13.999 23.708V27.501C13.999 27.777 14.223 28.001 14.499 28.001C14.775 28.001 14.999 27.777 14.999 27.501V23.708L19.145 27.854C19.243 27.952 19.371 28 19.499 28C19.627 28 19.755 27.951 19.853 27.854C20.048 27.659 20.048 27.342 19.853 27.147L14.999 22.293V20H26.999V3H27.999C27.999 2.448 27.552 2 27 2ZM26 19H3V3H26V19Z" fill="white"/>
</svg>
