<svg width="28" height="28" viewBox="0 0 28 28" fill="none" xmlns="http://www.w3.org/2000/svg">
<path opacity="0.2" d="M3.5 8.49992V5.32792L14.5 0.544922L25.5 5.32792V8.49992H3.5ZM25 23.9999H4V24.9999H25V23.9999ZM27 25.9999H2V26.9999H27V25.9999ZM9 8.99992H6V22.9999H9V8.99992ZM16 8.99992H13V22.9999H16V8.99992ZM23 8.99992H20V22.9999H23V8.99992Z" fill="white"/>
<path d="M26 25V23H24V9H26V5L14.5 0L3 5V9H5V23H3V25H1V28H28V25H26ZM10 9H12V23H10V9ZM13 9H16V23H13V9ZM17 9H19V23H17V9ZM20 9H23V23H20V9ZM4 8V5.656L14.5 1.09L25 5.655V7.999L4 8ZM9 9V23H6V9H9ZM4 24H25V25H4V24ZM27 27H2V26H27V27ZM14.5 4C15.051 4 15.5 4.449 15.5 5C15.5 5.551 15.051 6 14.5 6C13.949 6 13.5 5.551 13.5 5C13.5 4.449 13.949 4 14.5 4ZM14.5 3C13.395 3 12.5 3.895 12.5 5C12.5 6.105 13.395 7 14.5 7C15.605 7 16.5 6.105 16.5 5C16.5 3.895 15.605 3 14.5 3Z" fill="white"/>
</svg>
