<svg width="28" height="28" viewBox="0 0 28 28" fill="none" xmlns="http://www.w3.org/2000/svg">
<path opacity="0.4" d="M1.00806 10.9999L14.0001 3.57593L26.9921 10.9999L14.0001 18.4239L1.00806 10.9999Z" fill="white"/>
<path opacity="0.6" d="M14 18.4239L5.5 13.5669V18.7499C5.5 21.3249 9.393 23.4999 14 23.4999C18.607 23.4999 22.5 21.3249 22.5 18.7499V13.5669L14 18.4239Z" fill="white"/>
<path d="M14 3L0 11L2 12.143V19.653C1.706 19.827 1.5 20.134 1.5 20.5C1.5 20.866 1.706 21.173 2 21.347V21.404C1.668 22.024 1.5 23.373 1.5 25.501C1.5 25.777 1.948 26.001 2.5 26.001C3.052 26.001 3.5 25.777 3.5 25.501C3.5 23.374 3.332 22.024 3 21.404V21.347C3.294 21.173 3.5 20.866 3.5 20.5C3.5 20.134 3.294 19.827 3 19.653V12.714L5 13.857V18.75C5 21.649 9.029 24 14 24C18.971 24 23 21.649 23 18.75V13.857L28 11L14 3ZM22 18.75C22 21.054 18.336 23 14 23C9.664 23 6 21.054 6 18.75V14.429L14 19L22 14.429V18.75ZM14 17.848L2.016 11L14 4.152L25.984 11L14 17.848Z" fill="white"/>
</svg>
