<svg width="28" height="28" viewBox="0 0 28 28" fill="none" xmlns="http://www.w3.org/2000/svg">
<path opacity="0.2" d="M20 8.5H8C6.61929 8.5 5.5 9.61929 5.5 11V18C5.5 19.3807 6.61929 20.5 8 20.5H20C21.3807 20.5 22.5 19.3807 22.5 18V11C22.5 9.61929 21.3807 8.5 20 8.5Z" fill="white"/>
<path opacity="0.4" d="M3 6V25H25V6H3ZM22.5 18C22.5 19.381 21.381 20.5 20 20.5H8C6.619 20.5 5.5 19.381 5.5 18V11C5.5 9.619 6.619 8.5 8 8.5H20C21.381 8.5 22.5 9.619 22.5 11V18Z" fill="white"/>
<path d="M18 22H19V23H18V22ZM16 23H17V22H16V23ZM23 11V18C23 19.657 21.657 21 20 21H8.00002C6.34302 21 5.00002 19.657 5.00002 18V11C5.00002 9.343 6.34302 8 8.00002 8H20C21.657 8 23 9.343 23 11ZM22 11C22 9.897 21.103 9 20 9H8.00002C6.89702 9 6.00002 9.897 6.00002 11V18C6.00002 19.103 6.89702 20 8.00002 20H20C21.103 20 22 19.103 22 18V11ZM26 6.75V24.25C26 25.216 25.216 26 24.25 26H22.618L22.894 26.553C23.141 27.047 22.941 27.648 22.447 27.895C22.303 27.966 22.151 28 22.001 28C21.634 28 21.281 27.798 21.105 27.447L20.381 26H7.61802L6.89402 27.447C6.71802 27.798 6.36602 28 5.99802 28C5.84802 28 5.69502 27.966 5.55202 27.895C5.05802 27.648 4.85802 27.047 5.10502 26.553L5.38102 26H3.74902C2.78302 26 1.99902 25.216 1.99902 24.25V6.75C1.99902 5.784 2.78302 5 3.74902 5H10.292L6.14602 0.853996L6.85302 0.146996L11.707 5.001H16.293L21.146 0.145996L21.853 0.852996L17.707 4.999H24.25C25.216 4.999 26 5.784 26 6.75ZM25 6.75C25 6.336 24.664 6 24.25 6H3.75002C3.33602 6 3.00002 6.336 3.00002 6.75V24.25C3.00002 24.664 3.33602 25 3.75002 25H24.25C24.664 25 25 24.664 25 24.25V6.75ZM20 23H21V22H20V23Z" fill="white"/>
</svg>
