<svg width="28" height="28" viewBox="0 0 28 28" fill="none" xmlns="http://www.w3.org/2000/svg">
<path opacity="0.4" d="M7.5 11.167L1.426 7.66C1.244 7.556 1.073 7.5 0.931 7.5C0.556 7.5 0.5 7.936 0.5 8.194V19.805C0.5 20.064 0.556 20.499 0.931 20.499C1.073 20.499 1.244 20.443 1.426 20.339L7.5 16.833V11.167Z" fill="white"/>
<path opacity="0.2" d="M25.25 5.5H8.75C8.05964 5.5 7.5 6.05964 7.5 6.75V21.25C7.5 21.9404 8.05964 22.5 8.75 22.5H25.25C25.9404 22.5 26.5 21.9404 26.5 21.25V6.75C26.5 6.05964 25.9404 5.5 25.25 5.5Z" fill="white"/>
<path d="M24 10H23V9.00002H24V10ZM28 10V13C28 13.552 27.552 14 27 14V21.25C27 22.216 26.216 23 25.25 23H8.75C7.784 23 7 22.216 7 21.25V17.699L1.676 20.773C1.409 20.927 1.156 21 0.931 21C0.38 21 0 20.561 0 19.805V8.19402C0 7.43802 0.38 6.99902 0.931 6.99902C1.156 6.99902 1.409 7.07202 1.676 7.22602L7 10.3V6.74902C7 5.78302 7.784 4.99902 8.75 4.99902H25.25C26.216 4.99902 27 5.78302 27 6.74902V8.99902C27.552 8.99902 28 9.44702 28 9.99902V10ZM7 11.456L1.176 8.09302C1.109 8.05402 1.055 8.03102 1.016 8.01802C1.007 8.06002 1 8.11902 1 8.19402V19.805C1 19.881 1.007 19.939 1.016 19.981C1.056 19.968 1.109 19.945 1.176 19.906L7 16.543V11.454V11.456ZM26 6.75002C26 6.33602 25.664 6.00002 25.25 6.00002H8.75C8.336 6.00002 8 6.33602 8 6.75002V21.25C8 21.664 8.336 22 8.75 22H25.25C25.664 22 26 21.664 26 21.25V6.75002ZM20.5 9.00002H10.5C10.224 9.00002 10 9.22402 10 9.50002C10 9.77602 10.224 10 10.5 10H20.5C20.776 10 21 9.77602 21 9.50002C21 9.22402 20.776 9.00002 20.5 9.00002Z" fill="white"/>
</svg>
