<svg width="28" height="28" viewBox="0 0 28 28" fill="none" xmlns="http://www.w3.org/2000/svg">
<path opacity="0.2" d="M27 3H1V9H27V3Z" fill="white"/>
<path opacity="0.4" d="M24.5 16.5H3.5V22.5H24.5V16.5Z" fill="white"/>
<path d="M26 2H2C0.895 2 0 2.895 0 4V26H28V4C28 2.895 27.105 2 26 2ZM27 25H1V10H27V25ZM27 9H1V4C1 3.449 1.449 3 2 3H26C26.551 3 27 3.449 27 4V9ZM5 6C5 6.552 4.552 7 4 7C3.448 7 3 6.552 3 6C3 5.448 3.448 5 4 5C4.552 5 5 5.448 5 6ZM8 6C8 6.552 7.552 7 7 7C6.448 7 6 6.552 6 6C6 5.448 6.448 5 7 5C7.552 5 8 5.448 8 6ZM11 6C11 6.552 10.552 7 10 7C9.448 7 9 6.552 9 6C9 5.448 9.448 5 10 5C10.552 5 11 5.448 11 6ZM24 17V22H4V17H24ZM25 16H3V23H25V16Z" fill="white"/>
</svg>
