<svg width="16" height="16" viewBox="0 0 16 16" fill="none" xmlns="http://www.w3.org/2000/svg">
<path d="M1.14129 14.8587H2.36589L12.4092 4.82194L11.8015 4.19195L11.1781 3.59049L1.14129 13.6338V14.8587ZM0 16V13.1468L12.8044 0.348948C12.9258 0.227401 13.0585 0.138856 13.2027 0.0833135C13.3469 0.0277709 13.4937 0 13.6432 0C13.7927 0 13.9376 0.0277709 14.0778 0.0833135C14.218 0.138856 14.3509 0.22959 14.4767 0.355512L15.651 1.53617C15.7768 1.65772 15.8664 1.78916 15.9198 1.93049C15.9733 2.07201 16 2.21819 16 2.36903C16 2.51036 15.9721 2.65425 15.9164 2.80072C15.8609 2.94718 15.7724 3.081 15.651 3.20217L2.85322 16H0ZM12.4092 4.82194L11.8015 4.19195L11.1781 3.59049L12.4092 4.82194Z" fill="#1C1B1F"/>
</svg>
