<svg width="16" height="16" viewBox="0 0 16 16" fill="none" xmlns="http://www.w3.org/2000/svg">
<path d="M9.52646 4.77148C9.82103 4.53127 10.2558 4.54869 10.5304 4.82324L11.1768 5.46973C11.4697 5.76259 11.4696 6.23738 11.1768 6.53027L4.03036 13.6768C3.73748 13.9696 3.26271 13.9696 2.96982 13.6768L2.32333 13.0303C2.03047 12.7374 2.03047 12.2626 2.32333 11.9697L9.46982 4.82324L9.52646 4.77148ZM3.20712 12.5L3.50009 12.793L4.64658 11.6465L4.35361 11.3535L3.20712 12.5ZM12.6251 7L13.0001 8L14.0001 8.375V8.625L13.0001 9L12.6251 10H12.3751L12.0001 9L11.0001 8.625V8.375L12.0001 8L12.3751 7H12.6251ZM8.85361 6.85352L9.14658 7.14648L10.2931 6L10.0001 5.70703L8.85361 6.85352ZM8.00009 3L9.00009 3.375V3.625L8.00009 4L7.62509 5H7.37509L7.00009 4L6.00009 3.625V3.375L7.00009 3L7.37509 2H7.62509L8.00009 3ZM13.0001 3L14.0001 3.375V3.625L13.0001 4L12.6251 5H12.3751L12.0001 4L11.0001 3.625V3.375L12.0001 3L12.3751 2H12.6251L13.0001 3Z" fill="context-fill"/>
</svg>
