<svg width="16" height="16" viewBox="0 0 16 16" fill="none" xmlns="http://www.w3.org/2000/svg">
<path d="M3.2145 6.60975C3.2145 6.77453 3.28192 6.93868 3.4076 7.05916L6.237 9.83537C6.35799 9.95115 6.52455 10.0238 6.67778 10.0238C7.03502 10.0238 7.26836 9.77545 7.26836 9.43141C7.26836 9.25228 7.20451 9.11746 7.09101 9.01031L5.89612 7.85008L4.38538 6.6086L5.89612 5.36421L7.09101 4.20804C7.20451 4.09569 7.26836 3.96607 7.26836 3.78694C7.26836 3.4429 7.03502 3.19458 6.67778 3.19458C6.52455 3.19458 6.35799 3.2672 6.237 3.38298L3.4076 6.16034C3.28192 6.28081 3.2145 6.44496 3.2145 6.60975ZM7.46591 12.1815C7.46591 12.5145 7.71588 12.7904 8.08239 12.7904H9.16822C11.4675 12.7904 12.7855 11.4497 12.7855 9.421C12.7855 7.39851 11.4362 6.00076 9.09014 6.00076H6.21591L4.35441 6.09419C4.06928 6.10917 3.83886 6.32461 3.83886 6.60975C3.83886 6.89488 4.06928 7.11032 4.35441 7.1253L6.21591 7.21874H9.1328C10.7352 7.21874 11.5841 8.10766 11.5841 9.36894C11.5841 10.6302 10.7352 11.5725 9.1328 11.5725H8.08239C7.71588 11.5725 7.46591 11.8485 7.46591 12.1815Z" fill="context-fill"/>
</svg>
