<svg xmlns="http://www.w3.org/2000/svg" viewBox="0 0 16 16" width="16" height="16">
  <g style="transform-box:view-box; transform: translate(50%, 50%) scale(0.77);">
    <g style="transform-box:fill-box; transform: translate(-50%, -50%);">
      <path
        d="M11.625 4.15625C11.625 3.98438 11.5625 3.82031 11.4219 3.6875L7.85156 0.203125C7.73438 0.0859375 7.54688 0.0078125 7.39844 0.0078125C7.02344 0.0078125 6.77344 0.265625 6.77344 0.632812C6.77344 0.8125 6.83594 0.945312 6.94531 1.0625L8.60156 2.66406L10.3984 4.15625L8.60156 5.64062L6.94531 7.25C6.83594 7.35938 6.77344 7.5 6.77344 7.67969C6.77344 8.04688 7.02344 8.30469 7.39844 8.30469C7.54688 8.30469 7.73438 8.22656 7.85156 8.10938L11.4219 4.625C11.5625 4.49219 11.625 4.32812 11.625 4.15625ZM6.30469 10.9688C6.30469 10.625 6.04688 10.3359 5.65625 10.3359L4.41406 10.3359C2.3125 10.3359 1.25781 9.11719 1.25781 7.51562C1.25781 5.91406 2.3125 4.78906 4.41406 4.78906L8.27344 4.78906L10.4062 4.67969C10.7031 4.66406 10.9297 4.44531 10.9297 4.15625C10.9297 3.86719 10.7031 3.64844 10.4062 3.63281L8.27344 3.52344L4.53906 3.52344C1.60938 3.52344 0 5.1875 0 7.59375C0 9.99219 1.55469 11.6016 4.41406 11.6016L5.65625 11.6016C6.04688 11.6016 6.30469 11.3125 6.30469 10.9688Z"
        fill="context-fill" />
    </g>
  </g>
</svg>