<svg width="16" height="16" viewBox="0 0 16 16" fill="none" xmlns="http://www.w3.org/2000/svg">
<path d="M12.7855 6.60975C12.7855 6.44496 12.7233 6.28081 12.5976 6.16034L9.76299 3.38298C9.64721 3.2672 9.47544 3.19458 9.32742 3.19458C8.97017 3.19458 8.73163 3.4429 8.73163 3.78694C8.73163 3.96607 8.80069 4.09569 8.90898 4.20804L10.1039 5.36421L11.6198 6.6086L10.1039 7.85008L8.90898 9.01031C8.80069 9.11746 8.73163 9.25228 8.73163 9.43141C8.73163 9.77545 8.97017 10.0238 9.32742 10.0238C9.47544 10.0238 9.64721 9.95115 9.76299 9.83537L12.5976 7.05916C12.7233 6.93868 12.7855 6.77453 12.7855 6.60975ZM8.53929 12.1815C8.53929 11.8485 8.28411 11.5725 7.9176 11.5725H6.86719C5.26479 11.5725 4.41585 10.6302 4.41585 9.36894C4.41585 8.10766 5.26479 7.21874 6.86719 7.21874H9.78928L11.6456 7.1253C11.9359 7.11032 12.1611 6.89488 12.1611 6.60975C12.1611 6.32461 11.9359 6.10917 11.6456 6.09419L9.78928 6.00076H6.91506C4.56896 6.00076 3.2145 7.39851 3.2145 9.421C3.2145 11.4497 4.53253 12.7904 6.83177 12.7904H7.9176C8.28411 12.7904 8.53929 12.5145 8.53929 12.1815Z" fill="context-fill"/>
</svg>
