<svg xmlns="http://www.w3.org/2000/svg" viewBox="0 0 16 16" width="16" height="16">
  <g style="transform-box:view-box; transform: translate(50%, 50%) scale(0.77);">
    <g style="transform-box:fill-box; transform: translate(-50%, -50%);">
      <path
        d="M0 4.15625C0 4.32812 0.0703125 4.49219 0.210938 4.625L3.77344 8.10938C3.89844 8.22656 4.07812 8.30469 4.23438 8.30469C4.60938 8.30469 4.85156 8.04688 4.85156 7.67969C4.85156 7.5 4.79688 7.35938 4.67969 7.25L3.02344 5.64062L1.23438 4.15625L3.02344 2.66406L4.67969 1.0625C4.79688 0.945312 4.85156 0.8125 4.85156 0.632812C4.85156 0.265625 4.60938 0.0078125 4.23438 0.0078125C4.07812 0.0078125 3.89844 0.0859375 3.77344 0.203125L0.210938 3.6875C0.0703125 3.82031 0 3.98438 0 4.15625ZM5.32812 10.9688C5.32812 11.3125 5.57812 11.6016 5.96875 11.6016L7.21094 11.6016C10.0703 11.6016 11.625 9.99219 11.625 7.59375C11.625 5.1875 10.0234 3.52344 7.09375 3.52344L3.35938 3.52344L1.21875 3.63281C0.929688 3.64844 0.695312 3.86719 0.695312 4.15625C0.695312 4.44531 0.929688 4.66406 1.21875 4.67969L3.35938 4.78906L7.21094 4.78906C9.3125 4.78906 10.3672 5.91406 10.3672 7.51562C10.3672 9.11719 9.3125 10.3359 7.21094 10.3359L5.96875 10.3359C5.57812 10.3359 5.32812 10.625 5.32812 10.9688Z"
        fill="context-fill" />
    </g>
  </g>
</svg>