<svg width="16" height="16" viewBox="0 0 16 16" fill="none" xmlns="http://www.w3.org/2000/svg">
<path d="M3.94568 12.6725H12.2053C13.1683 12.6725 13.7381 12.1027 13.7381 11.0043V5.8928C13.7381 4.7944 13.1631 4.22984 12.0543 4.22984H7.45643C7.12141 4.22984 6.90571 4.13983 6.63708 3.92706L6.34255 3.69372C5.99076 3.41049 5.71781 3.31299 5.20226 3.31299H3.79181C2.84081 3.31299 2.2619 3.87691 2.2619 4.97239V11.0043C2.2619 12.1027 2.83687 12.6725 3.94568 12.6725ZM4.00864 11.5864C3.58132 11.5864 3.34277 11.368 3.34277 10.9153V5.06024C3.34277 4.62479 3.5864 4.39386 4.01486 4.39386H4.91306C5.24809 4.39386 5.4615 4.48273 5.73127 4.69664L6.0258 4.92999C6.37353 5.20915 6.65168 5.31072 7.16724 5.31072H11.9913C12.4187 5.31072 12.6572 5.53428 12.6572 5.987V10.9205C12.6572 11.368 12.4187 11.5864 11.9913 11.5864H4.00864Z" fill="context-fill"/>
<path d="M8.00259 10.7419C8.26018 10.7419 8.47346 10.5304 8.47346 10.2838V8.0028L8.42623 6.99136C8.41646 6.73479 8.21866 6.58334 8.00259 6.58334C7.78766 6.58334 7.59393 6.73479 7.5853 6.99136L7.53807 8.0028V10.2838C7.53807 10.5304 7.74729 10.7419 8.00259 10.7419ZM8.00259 6.09546C7.88389 6.09546 7.77332 6.13405 7.64941 6.25047L6.16469 7.67285C6.08167 7.75702 6.03266 7.8516 6.03266 7.97322C6.03266 8.20668 6.21357 8.37502 6.44424 8.37502C6.56066 8.37502 6.67771 8.32894 6.76188 8.23956L7.35323 7.59566L7.89062 6.97041H8.11456L8.65716 7.59566L9.24965 8.23956C9.32862 8.32894 9.44567 8.37502 9.55688 8.37502C9.79276 8.37502 9.97887 8.20668 9.97887 7.97322C9.97887 7.8516 9.92986 7.75702 9.84684 7.67285L8.35692 6.25047C8.23821 6.13405 8.12764 6.09546 8.00259 6.09546Z" fill="context-fill"/>
</svg>
