<svg width="16" height="16" viewBox="0 0 16 16" fill="none" xmlns="http://www.w3.org/2000/svg">
<path d="M3.77031 12.6794H12.2297C13.3437 12.6794 13.9134 12.1096 13.9134 11.0112V9.79868C13.9134 9.45692 13.7084 9.25075 13.373 9.25075C13.0324 9.25075 12.8326 9.45692 12.8326 9.79868V10.9222C12.8326 11.3749 12.594 11.5933 12.1667 11.5933H3.83328C3.40595 11.5933 3.17261 11.3749 3.17261 10.9222V9.79868C3.17261 9.45692 2.96758 9.25075 2.63217 9.25075C2.29156 9.25075 2.08653 9.45692 2.08653 9.79868V11.0112C2.08653 12.1096 2.6667 12.6794 3.77031 12.6794ZM3.77031 3.30566C2.6667 3.30566 2.08653 3.87543 2.08653 4.97383V5.94693C2.08653 6.28869 2.29156 6.49486 2.63217 6.49486C2.96758 6.49486 3.17261 6.28869 3.17261 5.94693V5.06282C3.17261 4.61531 3.40595 4.39174 3.83328 4.39174H12.1667C12.594 4.39174 12.8326 4.61531 12.8326 5.06282V5.94693C12.8326 6.28869 13.0376 6.49486 13.373 6.49486C13.7136 6.49486 13.9134 6.28869 13.9134 5.94693V4.97383C13.9134 3.87543 13.3437 3.30566 12.2297 3.30566H3.77031ZM2.63217 8.61598C3.0421 8.61598 3.37129 8.27639 3.37129 7.86646C3.37129 7.46173 3.0421 7.12734 2.63217 7.12734C2.22224 7.12734 1.88785 7.46173 1.88785 7.86646C1.88785 8.27639 2.22224 8.61598 2.63217 8.61598ZM13.373 8.61598C13.7777 8.61598 14.1121 8.27639 14.1121 7.86646C14.1121 7.46173 13.7777 7.12734 13.373 7.12734C12.9631 7.12734 12.6287 7.45652 12.6287 7.86646C12.6287 8.27639 12.9631 8.61598 13.373 8.61598Z" fill="context-fill"/>
<path d="M6.41716 10.3212C6.66142 10.3212 6.82798 10.1985 6.91279 9.89598L7.19323 9.05478H8.80681L9.08204 9.89598C9.17205 10.1985 9.33862 10.3212 9.58287 10.3212C9.87613 10.3212 10.0629 10.1408 10.0629 9.86653C10.0629 9.77195 10.0415 9.67229 9.99661 9.52998L8.7616 6.12597C8.63199 5.754 8.37097 5.56738 7.99139 5.56738C7.62043 5.56738 7.36919 5.75286 7.23843 6.12597L6.00343 9.52998C5.95328 9.67229 5.93195 9.77195 5.93195 9.86653C5.93195 10.1408 6.1187 10.3212 6.41716 10.3212ZM7.41997 8.29853L7.96942 6.57767H8.03061L8.58007 8.29853H7.41997Z" fill="context-fill"/>
</svg>
