<svg xmlns="http://www.w3.org/2000/svg" viewBox="0 0 16 16" width="16" height="16">
  <g style="transform-box:view-box; transform: translate(50%, 50%) scale(0.77);">
    <g style="transform-box:fill-box; transform: translate(-50%, -50%);">
      <path
        d="M2.25781 11.3984L12.7734 11.3984C14.1094 11.3984 14.7656 10.7422 14.7656 9.42969L14.7656 7.71094C14.7656 7.34375 14.5625 7.14062 14.2031 7.14062C13.8359 7.14062 13.6406 7.34375 13.6406 7.71094L13.6406 9.375C13.6406 9.96875 13.3203 10.2656 12.7578 10.2656L2.27344 10.2656C1.71094 10.2656 1.39844 9.96875 1.39844 9.375L1.39844 7.71094C1.39844 7.34375 1.19531 7.14062 0.835938 7.14062C0.46875 7.14062 0.265625 7.34375 0.265625 7.71094L0.265625 9.42969C0.265625 10.7422 0.9375 11.3984 2.25781 11.3984ZM2.25781 0.0078125C0.9375 0.0078125 0.265625 0.664062 0.265625 1.97656L0.265625 3.33594C0.265625 3.70312 0.46875 3.90625 0.835938 3.90625C1.19531 3.90625 1.39844 3.70312 1.39844 3.33594L1.39844 2.03125C1.39844 1.44531 1.71094 1.14062 2.27344 1.14062L12.7578 1.14062C13.3203 1.14062 13.6406 1.44531 13.6406 2.03125L13.6406 3.33594C13.6406 3.70312 13.8438 3.90625 14.2031 3.90625C14.5703 3.90625 14.7656 3.70312 14.7656 3.33594L14.7656 1.97656C14.7656 0.664062 14.1094 0.0078125 12.7734 0.0078125ZM0.835938 6.35938C1.29688 6.35938 1.66406 5.97656 1.66406 5.51562C1.66406 5.0625 1.29688 4.6875 0.835938 4.6875C0.375 4.6875 0 5.0625 0 5.51562C0 5.97656 0.375 6.35938 0.835938 6.35938ZM14.2031 6.35938C14.6562 6.35938 15.0312 5.97656 15.0312 5.51562C15.0312 5.0625 14.6562 4.6875 14.2031 4.6875C13.7422 4.6875 13.3672 5.05469 13.3672 5.51562C13.3672 5.97656 13.7422 6.35938 14.2031 6.35938Z"
        fill="context-fill" />
      <path
        d="M5.5 8.58594C5.75 8.58594 5.92969 8.46875 6.03125 8.14844L6.44531 6.92188L8.58594 6.92188L8.99219 8.14844C9.10156 8.46875 9.28125 8.58594 9.53125 8.58594C9.83594 8.58594 10.0391 8.39062 10.0391 8.10938C10.0391 8 10.0156 7.89844 9.96875 7.75L8.29688 3.21875C8.16406 2.85938 7.89062 2.67188 7.50781 2.67188C7.13281 2.67188 6.86719 2.85938 6.73438 3.21875L5.0625 7.75C5.00781 7.89844 4.98438 8 4.98438 8.10938C4.98438 8.39062 5.1875 8.58594 5.5 8.58594ZM6.71875 6.09375L7.47656 3.82812L7.55469 3.82812L8.3125 6.09375Z"
        fill="context-fill" />
    </g>
  </g>
</svg>