<svg width="16" height="16" viewBox="0 0 16 16" fill="none" xmlns="http://www.w3.org/2000/svg">
<path d="M4.5 2.5C5.05228 2.5 5.5 2.94772 5.5 3.5V4.5H6.5V3.5C6.5 2.94772 6.94772 2.5 7.5 2.5H8.5C9.05228 2.5 9.5 2.94772 9.5 3.5V12.499C9.5 13.0513 9.05228 13.499 8.5 13.499H7.5C7.31762 13.499 7.14721 13.4495 7 13.3643C6.85279 13.4495 6.68237 13.499 6.5 13.499H5.5C5.31763 13.499 5.14721 13.4495 5 13.3643C4.85279 13.4495 4.68238 13.499 4.5 13.499H3.5C2.94772 13.499 2.5 13.0513 2.5 12.499V3.5C2.5 2.94772 2.94772 2.5 3.5 2.5H4.5ZM11.3311 4.44141C11.8765 4.35501 12.3892 4.72698 12.4756 5.27246L13.5703 12.1855C13.6567 12.731 13.2847 13.2437 12.7393 13.3301L11.752 13.4863C11.2065 13.5727 10.6938 13.2008 10.6074 12.6553L9.5127 5.74121C9.42644 5.19581 9.79835 4.68404 10.3438 4.59766L11.3311 4.44141ZM10.3955 5.56543L11.502 12.5498L12.6875 12.3623L11.5811 5.37793L10.3955 5.56543ZM3.5 12.499H4.5V3.5H3.5V12.499ZM5.5 12.499H6.5V5.5H5.5V12.499ZM7.5 12.499H8.5V3.5H7.5V12.499Z" fill="context-fill"/>
</svg>
