<svg width="16" height="16" viewBox="0 0 16 16" fill="none" xmlns="http://www.w3.org/2000/svg">
<path d="M11.5003 12.5004L10.7503 14.0004H10.0003L10.7503 12.5004H10.0003V11.0004H11.5003V12.5004ZM14.0003 12.5004L13.2503 14.0004H12.5003L13.2503 12.5004H12.5003V11.0004H14.0003V12.5004ZM9.00031 11.0004H3.50031V10.0004H9.00031V11.0004ZM12.5003 9.00037H3.50031V8.00037H12.5003V9.00037ZM12.5003 7.00037H3.50031V6.00037H12.5003V7.00037ZM2.75031 3.50037H3.50031V5.00037H2.00031V3.50037L2.75031 2.00037H3.50031L2.75031 3.50037ZM5.25031 3.50037H6.00031V5.00037H4.50031V3.50037L5.25031 2.00037H6.00031L5.25031 3.50037Z" fill="context-fill"/>
</svg>
