<svg width="16" height="16" viewBox="0 0 16 16" fill="none" xmlns="http://www.w3.org/2000/svg">
<path d="M13.208 3.3122V10.0806C13.208 11.1894 12.6382 11.7643 11.5398 11.7643H10.7433V8.92593C10.7433 8.20306 10.6568 7.87273 10.2062 7.41177L7.59939 4.75806C7.16965 4.31792 6.80289 4.22105 6.15809 4.22105H5.25673V3.3122C5.25673 2.19818 5.82128 1.62842 6.91968 1.62842H11.5398C12.6382 1.62842 13.208 2.19818 13.208 3.3122ZM8.03128 2.68594C7.79248 2.68594 7.67886 2.86113 7.67886 3.01754V3.13637C7.67886 3.30648 7.80162 3.46797 8.03128 3.46797H10.4345C10.663 3.46797 10.7869 3.30648 10.7869 3.13637V3.01754C10.7869 2.86113 10.6733 2.68594 10.4345 2.68594H8.03128Z" fill="context-fill"/>
<path d="M2.79205 12.6731C2.79205 13.7871 3.35661 14.3569 4.45501 14.3569H9.07508C10.1735 14.3569 10.7433 13.7819 10.7433 12.6731V8.92583C10.7433 8.20296 10.6568 7.87263 10.2062 7.41167L7.59938 4.75796C7.16964 4.31782 6.80288 4.22095 6.15808 4.22095H4.45501C3.35661 4.22095 2.79205 4.79592 2.79205 5.90473V12.6731ZM3.87292 12.6101V5.9677C3.87292 5.54037 4.09649 5.30183 4.5492 5.30183H5.97718V7.9568C5.97718 8.709 6.34674 9.07335 7.09372 9.07335H9.65717V12.6101C9.65717 13.0375 9.4336 13.276 8.98609 13.276H4.544C4.09649 13.276 3.87292 13.0375 3.87292 12.6101ZM7.20049 8.12451C7.01133 8.12451 6.92602 8.0392 6.92602 7.85004V5.4887L9.50978 8.12451H7.20049Z" fill="context-fill"/>
</svg>
