<svg xmlns="http://www.w3.org/2000/svg" viewBox="0 0 16 16" width="16" height="16">
  <g style="transform-box:view-box; transform: translate(50%, 50%) scale(0.77);">
    <g style="transform-box:fill-box; transform: translate(-50%, -50%);">
      <path
        d="M12.6016 1.99219L12.6016 10.3984C12.6016 11.7266 11.9453 12.3906 10.6328 12.3906L9.63281 12.3906L9.63281 8.84375C9.63281 7.97656 9.53906 7.60938 9 7.05469L5.75781 3.74219C5.25 3.21875 4.82812 3.10938 4.07812 3.10938L2.96875 3.10937L2.96875 1.99219C2.96875 0.65625 3.61719 0 4.92969 0L10.6328 0C11.9453 0 12.6016 0.65625 12.6016 1.99219ZM6.25 1.27344C5.96875 1.27344 5.83594 1.46094 5.83594 1.65625L5.83594 1.79688C5.83594 1.99219 5.96875 2.17969 6.25 2.17969L9.32031 2.17969C9.60156 2.17969 9.73438 1.99219 9.73438 1.79688L9.73438 1.65625C9.73438 1.46094 9.60156 1.27344 9.32031 1.27344Z"
        fill="context-fill" />
      <path
        d="M0 13.5078C0 14.8438 0.648438 15.5 1.96094 15.5L7.66406 15.5C8.97656 15.5 9.63281 14.8359 9.63281 13.5078L9.63281 8.84375C9.63281 7.97656 9.53906 7.60938 9 7.05469L5.75781 3.74219C5.25 3.21875 4.82812 3.10938 4.07812 3.10938L1.96094 3.10938C0.648438 3.10938 0 3.77344 0 5.10156ZM1.125 13.4922L1.125 5.11719C1.125 4.55469 1.42969 4.23438 2.02344 4.23438L3.89062 4.23438L3.89062 7.70312C3.89062 8.52344 4.30469 8.92969 5.11719 8.92969L8.5 8.92969L8.5 13.4922C8.5 14.0547 8.19531 14.375 7.60938 14.375L2.01562 14.375C1.42969 14.375 1.125 14.0547 1.125 13.4922ZM5.25 7.88281C5.03125 7.88281 4.9375 7.78906 4.9375 7.57031L4.9375 4.45312L8.28906 7.88281Z"
        fill="context-fill" />
    </g>
  </g>
</svg>