<svg width="16" height="16" viewBox="0 0 16 16" fill="none" xmlns="http://www.w3.org/2000/svg">
<path d="M11.7041 2.51074C12.7128 2.613 13.5 3.46435 13.5 4.5V11.5L13.4893 11.7041C13.3938 12.6457 12.6457 13.3938 11.7041 13.4893L11.5 13.5H4.5C3.46435 13.5 2.613 12.7128 2.51074 11.7041L2.5 11.5V4.5C2.5 3.39543 3.39543 2.5 4.5 2.5H11.5L11.7041 2.51074ZM4.5 3.5C3.94772 3.5 3.5 3.94772 3.5 4.5V11.5C3.5 12.0523 3.94772 12.5 4.5 12.5H11.5C12.0523 12.5 12.5 12.0523 12.5 11.5V4.5C12.5 3.94772 12.0523 3.5 11.5 3.5H4.5ZM5.875 9.25C6.35825 9.25 6.75 9.64175 6.75 10.125C6.75 10.6082 6.35825 11 5.875 11C5.39175 11 5 10.6082 5 10.125C5 9.64175 5.39175 9.25 5.875 9.25ZM5 7C7.20914 7 9 8.79086 9 11H8C8 9.34315 6.65685 8 5 8V7ZM5 5C8.31371 5 11 7.68629 11 11H10C10 8.23858 7.76142 6 5 6V5Z" fill="context-fill"/>
</svg>
