<svg width="16" height="16" viewBox="0 0 16 16" fill="none" xmlns="http://www.w3.org/2000/svg">
<path d="M5.5 8.5C7.70914 8.5 9.5 10.2909 9.5 12.5V13.5H1.5V12.5C1.5 10.2909 3.29086 8.5 5.5 8.5ZM5.5 9.5C3.89489 9.5 2.58421 10.7606 2.50391 12.3457L2.5 12.5H8.5C8.5 10.8431 7.15685 9.5 5.5 9.5ZM10.5 7C12.7091 7.00003 14.5 8.79088 14.5 11V12H10.2236C10.1874 11.6541 10.1132 11.3197 10.0068 11H13.5C13.5 9.34317 12.1568 8.00003 10.5 8C9.71634 8.00002 9.00312 8.30092 8.46875 8.79297C8.20257 8.57953 7.91314 8.39402 7.60449 8.24121C8.33301 7.47683 9.36069 7.00002 10.5 7ZM5.5 4C6.60457 4 7.5 4.89543 7.5 6C7.5 7.10457 6.60457 8 5.5 8C4.39543 8 3.5 7.10457 3.5 6C3.5 4.89543 4.39543 4 5.5 4ZM5.5 5C4.94772 5 4.5 5.44772 4.5 6C4.5 6.55228 4.94772 7 5.5 7C6.05228 7 6.5 6.55228 6.5 6C6.5 5.44772 6.05228 5 5.5 5ZM10.5 2.5C11.6046 2.5 12.5 3.39543 12.5 4.5C12.5 5.60457 11.6046 6.5 10.5 6.5C9.39543 6.5 8.5 5.60457 8.5 4.5C8.5 3.39543 9.39543 2.5 10.5 2.5ZM10.5 3.5C9.94772 3.5 9.5 3.94772 9.5 4.5C9.5 5.05228 9.94772 5.5 10.5 5.5C11.0523 5.5 11.5 5.05228 11.5 4.5C11.5 3.94772 11.0523 3.5 10.5 3.5Z" fill="context-fill"/>
</svg>
