<svg width="16" height="16" viewBox="0 0 16 16" fill="none" xmlns="http://www.w3.org/2000/svg">
<path d="M9.5 2C10.0523 2 10.5 2.44772 10.5 3H11C11.8284 3 12.5 3.67157 12.5 4.5V6.87891L11.5 5.87891V4.5C11.5 4.22386 11.2761 4 11 4H10.5C10.5 4.55228 10.0523 5 9.5 5H6.5C5.94772 5 5.5 4.55228 5.5 4H5C4.72386 4 4.5 4.22386 4.5 4.5V12C4.5 12.2761 4.72386 12.5 5 12.5H11C11.2256 12.5 11.4133 12.3497 11.4756 12.1445L12.5 11.1211V12C12.5 12.8284 11.8284 13.5 11 13.5H5C4.17157 13.5 3.5 12.8284 3.5 12V4.5C3.5 3.67157 4.17157 3 5 3H5.5C5.5 2.44772 5.94772 2 6.5 2H9.5ZM13.207 9L10.8535 11.3535L10.1465 10.6465L11.293 9.5H6V8.5H11.293L10.1465 7.35352L10.8535 6.64648L13.207 9ZM6.5 4H9.5V3H6.5V4Z" fill="context-fill"/>
</svg>
