<svg xmlns="http://www.w3.org/2000/svg" viewBox="0 0 16 16" width="16" height="16">
  <g style="transform-box:view-box; transform: translate(50%, 50%) scale(0.77);">
    <g style="transform-box:fill-box; transform: translate(-50%, -50%);">
      <path
        d="M0 4.96875C0 7.71094 2.22656 9.92969 4.96875 9.92969C6.02344 9.92969 6.99219 9.60156 7.79688 9.03906L10.7031 11.9531C10.8672 12.1094 11.0703 12.1797 11.2812 12.1797C11.7344 12.1797 12.0625 11.8359 12.0625 11.3828C12.0625 11.1641 11.9766 10.9688 11.8438 10.8203L8.95312 7.92188C9.57031 7.09375 9.92969 6.07812 9.92969 4.96875C9.92969 2.22656 7.71094 0 4.96875 0C2.22656 0 0 2.22656 0 4.96875ZM1.20312 4.96875C1.20312 2.88281 2.88281 1.20312 4.96875 1.20312C7.04688 1.20312 8.73438 2.88281 8.73438 4.96875C8.73438 7.04688 7.04688 8.73438 4.96875 8.73438C2.88281 8.73438 1.20312 7.04688 1.20312 4.96875Z"
        fill="context-fill" />

    </g>
  </g>
</svg>