<svg width="16" height="16" viewBox="0 0 16 16" fill="none" xmlns="http://www.w3.org/2000/svg">
<path d="M11.5 8.75C13.0188 8.75 14.25 9.98122 14.25 11.5C14.25 13.0188 13.0188 14.25 11.5 14.25C9.98122 14.25 8.75 13.0188 8.75 11.5C8.75 9.98122 9.98122 8.75 11.5 8.75ZM12.5 5.79297V8.14551C12.2381 8.06754 11.9634 8.01923 11.6797 8.00488L11.5 8V6.5H8.5V3.5H4.5V12.5H8.14551C8.25304 12.8613 8.41721 13.198 8.62793 13.5H3.5V2.5H9.20703L12.5 5.79297ZM11.5 9.625C11.2929 9.625 11.125 9.79289 11.125 10V11.125H10C9.79289 11.125 9.625 11.2929 9.625 11.5C9.625 11.7071 9.79289 11.875 10 11.875H11.125V13C11.125 13.2071 11.2929 13.375 11.5 13.375C11.7071 13.375 11.875 13.2071 11.875 13V11.875H13C13.2071 11.875 13.375 11.7071 13.375 11.5C13.375 11.2929 13.2071 11.125 13 11.125H11.875V10C11.875 9.79289 11.7071 9.625 11.5 9.625ZM9.5 5.5H10.793L9.5 4.20703V5.5Z" fill="context-fill"/>
</svg>
