<svg width="16" height="16" viewBox="0 0 16 16" fill="none" xmlns="http://www.w3.org/2000/svg">
<path d="M11.5 8.75C13.0188 8.75 14.25 9.98122 14.25 11.5C14.25 13.0188 13.0188 14.25 11.5 14.25C9.98122 14.25 8.75 13.0188 8.75 11.5C8.75 9.98122 9.98122 8.75 11.5 8.75ZM11.5 9.625C11.2929 9.625 11.125 9.79289 11.125 10V11.125H10C9.79289 11.125 9.625 11.2929 9.625 11.5C9.625 11.7071 9.79289 11.875 10 11.875H11.125V13C11.125 13.2071 11.2929 13.375 11.5 13.375C11.7071 13.375 11.875 13.2071 11.875 13V11.875H13C13.2071 11.875 13.375 11.7071 13.375 11.5C13.375 11.2929 13.2071 11.125 13 11.125H11.875V10C11.875 9.79289 11.7071 9.625 11.5 9.625ZM7.73242 2.5C8.06677 2.5 8.37899 2.66712 8.56445 2.94531L9.26758 4H12.5C13.0523 4 13.5 4.44772 13.5 5V8.62793C13.198 8.41721 12.8613 8.25304 12.5 8.14551V7H3.5V11.5H8C8 11.8475 8.05118 12.1831 8.14551 12.5H3.5C2.94772 12.5 2.5 12.0523 2.5 11.5V5C2.5 4.44772 2.94772 4 3.5 4H4.23242L4.93555 2.94531C5.12101 2.66712 5.43323 2.5 5.76758 2.5H7.73242ZM5.06445 4.55469C4.87899 4.83288 4.56677 5 4.23242 5H3.5V6H12.5V5H9.26758C8.93323 5 8.62101 4.83288 8.43555 4.55469L7.73242 3.5H5.76758L5.06445 4.55469Z" fill="context-fill"/>
</svg>
