<svg width="16" height="16" viewBox="0 0 16 16" fill="none" xmlns="http://www.w3.org/2000/svg">
<path d="M11.4597 4.0162V4.22491H10.4557V3.93381C10.4557 3.59585 10.2657 3.41215 9.92479 3.41215H5.56737C5.2265 3.41215 5.03645 3.59585 5.03645 3.93381V4.22491H4.02731V4.0162C4.02731 2.96109 4.60837 2.48413 5.56978 2.48413H9.92238C10.9306 2.48413 11.4597 2.96109 11.4597 4.0162Z" fill="context-fill"/>
<path d="M13.4934 5.82077V10.3879C13.4934 11.4331 12.9218 11.9838 11.8766 11.9838H11.3976V11.0069H11.879C12.2497 11.0069 12.453 10.8037 12.453 10.4278V5.78205C12.453 5.41135 12.2497 5.20175 11.879 5.20175H3.61319C3.24249 5.20175 3.03403 5.41135 3.03403 5.78205V10.4278C3.03403 10.8037 3.24249 11.0069 3.61319 11.0069H4.0946V11.9838H3.61561C2.5704 11.9838 1.99886 11.4331 1.99886 10.3879V5.82077C1.99886 4.77557 2.61724 4.22485 3.61561 4.22485H11.8766C12.9218 4.22485 13.4934 4.77557 13.4934 5.82077ZM11.4208 6.34674C11.4208 6.70843 11.1301 7.00435 10.7684 7.00435C10.4067 7.00435 10.116 6.70843 10.116 6.34674C10.116 5.99025 10.4067 5.69433 10.7684 5.69433C11.1301 5.69433 11.4208 5.99025 11.4208 6.34674Z" fill="context-fill"/>
<path d="M5.13903 13.501H10.3531C11.047 13.501 11.3976 13.1817 11.3976 12.4566V8.49512C11.3976 7.76996 11.047 7.45068 10.3531 7.45068H5.13903C4.47634 7.45068 4.09459 7.76996 4.09459 8.49512V12.4566C4.09459 13.1817 4.44511 13.501 5.13903 13.501ZM5.38367 12.5533C5.20174 12.5533 5.09548 12.4534 5.09548 12.2599V8.68771C5.09548 8.49943 5.20174 8.39952 5.38367 8.39952H10.1085C10.2956 8.39952 10.3915 8.49943 10.3915 8.68771V12.2599C10.3915 12.4534 10.2956 12.5533 10.1085 12.5533H5.38367ZM6.17141 10.0068H9.33344C9.54393 10.0068 9.70135 9.84298 9.70135 9.63249C9.70135 9.42835 9.54393 9.27093 9.33344 9.27093H6.17141C5.95458 9.27093 5.79195 9.42835 5.79195 9.63249C5.79195 9.84298 5.95572 10.0068 6.17141 10.0068ZM6.17141 11.6876H9.33344C9.54393 11.6876 9.70135 11.5302 9.70135 11.3261C9.70135 11.1156 9.54393 10.9518 9.33344 10.9518H6.17141C5.95572 10.9518 5.79195 11.1156 5.79195 11.3261C5.79195 11.5302 5.95458 11.6876 6.17141 11.6876Z" fill="context-fill"/>
</svg>
