<svg width="16" height="16" viewBox="0 0 16 16" fill="none" xmlns="http://www.w3.org/2000/svg">
<path d="M5.54947 12.7587H10.4453C11.3924 12.7587 11.8801 12.2865 11.8801 11.3186V6.42798C11.8801 5.4653 11.3924 4.99316 10.4453 4.99316H5.54947C4.60761 4.99316 4.11465 5.4653 4.11465 6.42798V11.3186C4.11465 12.2865 4.60761 12.7587 5.54947 12.7587ZM5.60787 11.6954C5.30483 11.6954 5.17267 11.5783 5.17267 11.2602V6.48638C5.17267 6.16836 5.30483 6.05118 5.60787 6.05118H10.3869C10.6899 6.05118 10.8221 6.16836 10.8221 6.48638V11.2602C10.8221 11.5783 10.6899 11.6954 10.3869 11.6954H5.60787Z" fill="context-fill"/>
<path d="M11.7935 3.77421V1.827C11.7935 1.41047 11.4712 1.30904 11.1574 1.54555L9.84165 2.53299C9.62583 2.69917 9.62468 2.9009 9.84165 3.06708L11.1574 4.04817C11.4701 4.27834 11.7935 4.1769 11.7935 3.77421ZM11.2248 2.42597C11.0231 2.42597 10.8576 2.59659 10.8576 2.79312C10.8576 2.99484 11.0231 3.16026 11.2248 3.16026H11.955C12.9361 3.16026 13.5967 3.86536 13.5967 4.89838V5.68041C13.5967 5.89597 13.7749 6.07409 13.9904 6.07409C14.2048 6.07409 14.383 5.89597 14.383 5.68041V4.89317C14.383 3.42674 13.3927 2.42597 11.9545 2.42597H11.2248Z" fill="context-fill"/>
</svg>
