<svg width="16" height="16" viewBox="0 0 16 16" fill="none" xmlns="http://www.w3.org/2000/svg">
<path d="M10.4453 12.7587C11.3923 12.7587 11.88 12.2865 11.88 11.3186V6.42798C11.88 5.4653 11.3923 4.99316 10.4453 4.99316H5.54944C4.60757 4.99316 4.11462 5.4653 4.11462 6.42798V11.3186C4.11462 12.2865 4.60757 12.7587 5.54944 12.7587H10.4453ZM10.3869 11.6954H5.60783C5.3048 11.6954 5.17264 11.5783 5.17264 11.2602V6.48638C5.17264 6.16836 5.3048 6.05118 5.60783 6.05118H10.3869C10.6899 6.05118 10.8221 6.16836 10.8221 6.48638V11.2602C10.8221 11.5783 10.6899 11.6954 10.3869 11.6954Z" fill="context-fill"/>
<path d="M4.2064 3.77421C4.2064 4.1769 4.52987 4.27834 4.84256 4.04817L6.15309 3.06708C6.37526 2.9009 6.36891 2.69917 6.15309 2.53299L4.84256 1.54555C4.52873 1.30904 4.2064 1.41047 4.2064 1.827V3.77421ZM4.76994 2.42597H4.04022C2.60718 2.42597 1.61694 3.42674 1.61694 4.89317V5.68041C1.61694 5.89597 1.79506 6.07409 2.00948 6.07409C2.22505 6.07409 2.40316 5.89597 2.40316 5.68041V4.89838C2.40316 3.86536 3.05862 3.16026 4.03971 3.16026H4.76994C4.97167 3.16026 5.13709 2.99484 5.13709 2.79312C5.13709 2.59659 4.97167 2.42597 4.76994 2.42597Z" fill="context-fill"/>
</svg>
