<svg xmlns="http://www.w3.org/2000/svg" viewBox="0 0 16 16" width="16" height="16">
  <g style="transform-box:view-box; transform: translate(50%, 50%) scale(0.77);">
    <g style="transform-box:fill-box; transform: translate(-50%, -50%);">
      <path
        d="M16.4688 9.85938C16.2422 10.875 15.2109 11.0859 13.5312 10.4922L8.79112 8.81295L11.641 7.30604ZM5.625 3.48438C5.625 3.96875 5.6875 4.15625 6.05469 4.35156L7.38078 5.05291C6.93284 5.34596 6.64445 5.7426 6.45817 6.28731C6.35814 6.21919 6.23365 6.14924 6.07812 6.07031L5.29688 5.66406C5.125 5.58594 5.03906 5.5625 4.91406 5.5625C4.39844 5.5625 4.26562 5.99219 3.10938 5.99219C1.71875 5.99219 0.609375 4.875 0.609375 3.48438C0.609375 2.08594 1.71875 0.960938 3.10938 0.960938C4.5 0.960938 5.625 2.07812 5.625 3.48438ZM1.72656 3.48438C1.72656 4.25781 2.35156 4.88281 3.10938 4.88281C3.89062 4.88281 4.50781 4.25781 4.50781 3.48438C4.50781 2.70312 3.89062 2.07812 3.10938 2.07812C2.35156 2.07812 1.72656 2.70312 1.72656 3.48438Z"
        fill="context-fill" />
      <path
        d="M3.10938 12.9609C4.5 12.9609 5.625 11.8438 5.625 10.4375C5.625 9.95312 5.6875 9.76562 6.05469 9.57031L16.4688 4.0625C16.2422 3.04688 15.2109 2.83594 13.5312 3.42969L8.30469 5.28125C7.53906 5.54688 7.1875 5.92969 6.98438 6.64062L6.86719 7.08594C6.77344 7.42188 6.60156 7.58594 6.07812 7.85156L5.29688 8.25781C5.125 8.33594 5.03906 8.35938 4.91406 8.35938C4.39844 8.35938 4.26562 7.92969 3.10938 7.92969C1.71875 7.92969 0.609375 9.04688 0.609375 10.4375C0.609375 11.8359 1.71875 12.9609 3.10938 12.9609ZM3.10938 11.8438C2.35156 11.8438 1.72656 11.2188 1.72656 10.4375C1.72656 9.66406 2.35156 9.03906 3.10938 9.03906C3.89062 9.03906 4.50781 9.66406 4.50781 10.4375C4.50781 11.2188 3.89062 11.8438 3.10938 11.8438ZM8.45312 7.14844C8.17188 7.14844 7.91406 6.90625 7.91406 6.60938C7.91406 6.30469 8.17188 6.0625 8.45312 6.0625C8.75781 6.0625 9.00781 6.30469 9.00781 6.60938C9.00781 6.90625 8.75781 7.14844 8.45312 7.14844Z"
        fill="context-fill" />
    </g>
  </g>
</svg>