<svg width="16" height="16" viewBox="0 0 16 16" fill="none" xmlns="http://www.w3.org/2000/svg">
<path d="M14.5303 10.3951C14.3428 11.2477 13.4637 11.4442 12.0864 10.9549L8.07591 9.52776L10.4835 8.25478L14.5303 10.3951ZM5.65574 5.16624C5.65574 5.56779 5.71108 5.73042 6.02998 5.89939L7.0194 6.42268C6.65007 6.67203 6.41628 7.00967 6.26783 7.47653C6.1797 7.41424 6.06713 7.35012 5.92221 7.27531L5.37885 6.99208C5.23463 6.92403 5.16367 6.90384 5.05868 6.90384C4.62945 6.90384 4.5204 7.25982 3.55695 7.25982C2.39622 7.25982 1.46971 6.32697 1.46971 5.16624C1.46971 4.0003 2.39508 3.06567 3.55695 3.06567C4.71997 3.06567 5.65574 3.9951 5.65574 5.16624ZM2.49054 5.16738C2.49054 5.76495 2.97208 6.24648 3.55581 6.24648C4.15744 6.24648 4.63491 5.76495 4.63491 5.16738C4.63491 4.56803 4.15744 4.08421 3.55581 4.08421C2.97208 4.08421 2.49054 4.56803 2.49054 5.16738Z" fill="context-fill"/>
<path d="M3.55695 12.9197C4.71997 12.9197 5.65574 11.9903 5.65574 10.8192C5.65574 10.4176 5.71108 10.255 6.02998 10.086L14.5303 5.59036C14.3428 4.73775 13.4637 4.54122 12.0864 5.0305L7.785 6.56117C7.14692 6.78499 6.851 7.10517 6.68254 7.69994L6.58389 8.0709C6.50543 8.35299 6.36465 8.48172 5.92221 8.71011L5.37885 8.99334C5.23463 9.06139 5.16367 9.08157 5.05868 9.08157C4.62945 9.08157 4.5204 8.7256 3.55695 8.7256C2.39622 8.7256 1.46971 9.65845 1.46971 10.8192C1.46971 11.9851 2.39508 12.9197 3.55695 12.9197ZM3.55581 11.9012C2.97208 11.9012 2.49054 11.4174 2.49054 10.818C2.49054 10.2205 2.97208 9.73893 3.55581 9.73893C4.15744 9.73893 4.63491 10.2205 4.63491 10.818C4.63491 11.4174 4.15744 11.9012 3.55581 11.9012ZM7.89759 8.11597C7.67251 8.11597 7.46646 7.92262 7.46646 7.68483C7.46646 7.4407 7.67251 7.24735 7.89759 7.24735C8.14058 7.24735 8.34142 7.4407 8.34142 7.68483C8.34142 7.92262 8.14058 8.11597 7.89759 8.11597Z" fill="context-fill"/>
</svg>
