<svg width="16" height="16" viewBox="0 0 16 16" fill="none" xmlns="http://www.w3.org/2000/svg">
<path d="M3.05276 7.10974C3.05276 9.3789 4.89383 11.2148 7.16299 11.2148C7.98336 11.2148 8.73964 10.971 9.37631 10.5517L11.5777 12.7583C11.7384 12.9138 11.9446 12.9858 12.1571 12.9858C12.6121 12.9858 12.9472 12.6391 12.9472 12.1852C12.9472 11.9698 12.866 11.7711 12.7238 11.6185L10.5374 9.42689C11 8.77004 11.268 7.97455 11.268 7.10974C11.268 4.84058 9.43215 2.99951 7.16299 2.99951C4.89383 2.99951 3.05276 4.84058 3.05276 7.10974ZM4.20511 7.10974C4.20511 5.47319 5.52644 4.15186 7.16299 4.15186C8.79548 4.15186 10.1209 5.47319 10.1209 7.10974C10.1209 8.74109 8.79548 10.0676 7.16299 10.0676C5.52644 10.0676 4.20511 8.74109 4.20511 7.10974Z" fill="context-fill"/>
<path d="M7.16705 9.09466C7.25757 9.09466 7.33082 9.02141 7.35507 8.93204C7.58841 7.72446 7.71765 7.46623 8.97271 7.29764C9.07999 7.2838 9.14803 7.2042 9.14803 7.10848C9.14803 7.00869 9.07884 6.93658 8.97271 6.91754C7.72857 6.74374 7.53915 6.47105 7.35507 5.29241C7.33603 5.19263 7.25643 5.11938 7.16705 5.11938C7.06727 5.11938 6.99516 5.18856 6.97091 5.29355C6.74392 6.48615 6.61468 6.74146 5.35213 6.91754C5.25234 6.93658 5.17795 7.00869 5.17795 7.10848C5.17795 7.2042 5.2512 7.2786 5.35099 7.29764C6.61125 7.46611 6.78569 7.72788 6.97091 8.92683C6.98995 9.02027 7.06321 9.09466 7.16705 9.09466Z" fill="context-fill"/>
</svg>
