<svg xmlns="http://www.w3.org/2000/svg" viewBox="0 0 16 16" width="16" height="16">
  <g style="transform-box:view-box; transform: translate(50%, 50%) scale(0.77);">
    <g style="transform-box:fill-box; transform: translate(-50%, -50%);">
      <path
        d="M0 4.96875C0 7.71094 2.22656 9.92969 4.96875 9.92969C6.02344 9.92969 6.99219 9.60156 7.79688 9.03906L10.7031 11.9531C10.8672 12.1094 11.0703 12.1797 11.2812 12.1797C11.7344 12.1797 12.0625 11.8359 12.0625 11.3828C12.0625 11.1641 11.9766 10.9688 11.8438 10.8203L8.95312 7.92188C9.57031 7.09375 9.92969 6.07812 9.92969 4.96875C9.92969 2.22656 7.71094 0 4.96875 0C2.22656 0 0 2.22656 0 4.96875ZM1.20312 4.96875C1.20312 2.88281 2.88281 1.20312 4.96875 1.20312C7.04688 1.20312 8.73438 2.88281 8.73438 4.96875C8.73438 7.04688 7.04688 8.73438 4.96875 8.73438C2.88281 8.73438 1.20312 7.04688 1.20312 4.96875Z"
        fill="context-fill" />
      <path
        d="M4.97656 7.47656C5.07812 7.47656 5.16406 7.39062 5.19531 7.28906C5.50781 5.75781 5.66406 5.40625 7.27344 5.1875C7.39844 5.17188 7.47656 5.07812 7.47656 4.96875C7.47656 4.85156 7.39844 4.76562 7.27344 4.74219C5.67188 4.51562 5.42188 4.14062 5.19531 2.65625C5.17188 2.53906 5.07812 2.45312 4.97656 2.45312C4.85938 2.45312 4.77344 2.53125 4.74219 2.65625C4.4375 4.17188 4.28125 4.51562 2.66406 4.74219C2.54688 4.76562 2.46094 4.85156 2.46094 4.96875C2.46094 5.07812 2.54688 5.16406 2.66406 5.1875C4.28125 5.39062 4.51562 5.75781 4.74219 7.28125C4.76562 7.39062 4.85156 7.47656 4.97656 7.47656Z"
        fill="context-fill" />
    </g>
  </g>
</svg>