<svg width="16" height="16" viewBox="0 0 16 16" fill="none" xmlns="http://www.w3.org/2000/svg">
<path d="M12.2888 7.43708V11.2901C12.2888 12.6752 11.514 13.4448 10.1288 13.4448H5.36339C3.97821 13.4448 3.20341 12.6752 3.20341 11.2901V7.43708C3.20341 6.05189 3.97821 5.2771 5.36339 5.2771H6.24482V6.35797H5.39082C4.68394 6.35797 4.28428 6.75876 4.28428 7.46564V11.2615C4.28428 11.9684 4.68394 12.364 5.39082 12.364H10.1014C10.8083 12.364 11.2079 11.9684 11.2079 11.2615V7.46564C11.2079 6.75876 10.8083 6.35797 10.1014 6.35797H9.24219V5.2771H10.1288C11.514 5.2771 12.2888 6.05189 12.2888 7.43708Z" fill="context-fill"/>
<path d="M7.7435 2.54053C7.46573 2.54053 7.23341 2.77221 7.23341 3.03907V7.93997L7.329 9.4615C7.34513 9.68747 7.51753 9.876 7.7435 9.876C7.97469 9.876 8.14709 9.68747 8.16321 9.4615L8.2588 7.93997V3.03907C8.2588 2.77221 8.02648 2.54053 7.7435 2.54053ZM6.03852 7.53194C5.78767 7.53194 5.58772 7.71297 5.58772 7.97297C5.58772 8.10615 5.63672 8.20301 5.73244 8.29873L7.3615 9.85277C7.4929 9.98302 7.61097 10.028 7.7435 10.028C7.88125 10.028 7.99931 9.98302 8.13071 9.85277L9.75977 8.29873C9.85029 8.20301 9.9045 8.10615 9.9045 7.97297C9.9045 7.71297 9.69934 7.53194 9.44848 7.53194C9.31937 7.53194 9.19483 7.58323 9.10432 7.68009L8.4552 8.38583L7.7435 9.25164L7.03701 8.38583L6.38269 7.68009C6.29738 7.58323 6.16764 7.53194 6.03852 7.53194Z" fill="context-fill"/>
</svg>
