<svg xmlns="http://www.w3.org/2000/svg" viewBox="0 0 16 16" width="16" height="16">
  <g style="transform-box:view-box; transform: translate(50%, 50%) scale(0.77);">
    <g style="transform-box:fill-box; transform: translate(-50%, -50%);">
      <path d="M4.16406 11.6953C4.42969 11.6953 4.60156 11.5312 4.59375 11.2891L4.41406 4.88281C4.40625 4.63281 4.23438 4.47656 3.98438 4.47656C3.72656 4.47656 3.54688 4.64062 3.55469 4.88281L3.73438 11.2891C3.74219 11.5391 3.91406 11.6953 4.16406 11.6953ZM5.96875 11.6953C6.23438 11.6953 6.41406 11.5312 6.41406 11.2891L6.41406 4.88281C6.41406 4.64062 6.23438 4.47656 5.96875 4.47656C5.70312 4.47656 5.52344 4.64062 5.52344 4.88281L5.52344 11.2891C5.52344 11.5312 5.70312 11.6953 5.96875 11.6953ZM7.78125 11.6953C8.02344 11.6953 8.20312 11.5391 8.21094 11.2891L8.38281 4.88281C8.39062 4.64062 8.21875 4.47656 7.95312 4.47656C7.70312 4.47656 7.53125 4.64062 7.52344 4.88281L7.35156 11.2891C7.34375 11.5312 7.51562 11.6953 7.78125 11.6953ZM3.24219 2.88281L4.35156 2.88281L4.35156 1.57031C4.35156 1.25 4.57812 1.03906 4.90625 1.03906L7.02344 1.03906C7.34375 1.03906 7.57031 1.25 7.57031 1.57031L7.57031 2.88281L8.6875 2.88281L8.6875 1.49219C8.6875 0.570312 8.08594 0 7.10156 0L4.82031 0C3.84375 0 3.24219 0.570312 3.24219 1.49219ZM0.515625 3.4375L11.4219 3.4375C11.7109 3.4375 11.9375 3.20312 11.9375 2.91406C11.9375 2.625 11.7031 2.39062 11.4219 2.39062L0.515625 2.39062C0.242188 2.39062 0 2.625 0 2.91406C0 3.20312 0.242188 3.4375 0.515625 3.4375ZM3.14844 13.7109L8.79688 13.7109C9.72656 13.7109 10.3281 13.1328 10.375 12.1953L10.7812 3.32031L9.66406 3.32031L9.27344 12.0781C9.25781 12.4297 9.02344 12.6641 8.67969 12.6641L3.25 12.6641C2.92188 12.6641 2.67969 12.4219 2.66406 12.0781L2.25 3.32031L1.15625 3.32031L1.57031 12.2031C1.61719 13.1406 2.20312 13.7109 3.14844 13.7109Z" fill="context-fill"/>
    </g>
  </g>
</svg>