<svg width="16" height="16" viewBox="0 0 16 16" fill="none" xmlns="http://www.w3.org/2000/svg">
<path d="M6.54055 11.924C6.77351 11.924 6.9223 11.7781 6.91595 11.5631L6.76996 6.4517C6.76361 6.23258 6.61254 6.09306 6.39113 6.09306C6.16566 6.09306 6.01281 6.23778 6.01916 6.45284L6.16515 11.5654C6.1715 11.7845 6.32258 11.924 6.54055 11.924ZM8.00001 11.924C8.22954 11.924 8.38467 11.7804 8.38467 11.5665V6.45056C8.38467 6.23664 8.22954 6.09306 8.00001 6.09306C7.77048 6.09306 7.61534 6.23664 7.61534 6.45056V11.5665C7.61534 11.7804 7.77048 11.924 8.00001 11.924ZM9.46467 11.924C9.67744 11.924 9.83372 11.7845 9.84006 11.5654L9.98086 6.45284C9.9872 6.23778 9.83956 6.09306 9.60888 6.09306C9.38748 6.09306 9.2364 6.23778 9.23006 6.4517L9.08927 11.5631C9.08292 11.7781 9.23171 11.924 9.46467 11.924ZM5.70813 4.70102H6.72603V3.67003C6.72603 3.43263 6.89297 3.27952 7.14244 3.27952H8.85237C9.09663 3.27952 9.26357 3.43263 9.26357 3.67003V4.70102H10.2867V3.61341C10.2867 2.82668 9.78192 2.35645 8.92613 2.35645H7.06347C6.21289 2.35645 5.70813 2.82668 5.70813 3.61341V4.70102ZM3.54421 5.29795H12.4558C12.7295 5.29795 12.9387 5.0881 12.9387 4.81439C12.9387 4.54296 12.7243 4.33311 12.4558 4.33311H3.54421C3.28091 4.33311 3.06128 4.54296 3.06128 4.81439C3.06128 5.0881 3.28091 5.29795 3.54421 5.29795ZM5.70508 13.6439H10.3001C11.1012 13.6439 11.606 13.1719 11.6452 12.3645L11.9719 5.20159H10.9522L10.6394 12.2019C10.6267 12.4898 10.4499 12.6722 10.1786 12.6722H5.81616C5.55527 12.6722 5.37334 12.4846 5.36065 12.2019L5.03222 5.20159H4.02815L4.36001 12.3697C4.39924 13.1771 4.89359 13.6439 5.70508 13.6439Z" fill="context-fill"/>
</svg>
