<svg xmlns="http://www.w3.org/2000/svg" viewBox="0 0 16 16" width="16" height="16">
  <g style="transform-box:view-box; transform: translate(50%, 50%) scale(0.77);">
    <g style="transform-box:fill-box; transform: translate(-50%, -50%);">
      <path d="M8.74122 0.189453L0.178723 8.75195C-0.0556521 8.98633-0.0634646 9.40039 0.178723 9.64258C0.428723 9.88477 0.834973 9.88477 1.07716 9.64258L9.63185 1.08789C9.87404 0.845703 9.88185 0.431641 9.63185 0.189453C9.38185-0.0449219 8.98341-0.0527344 8.74122 0.189453ZM9.63185 8.75195L1.07716 0.189453C0.834973-0.0449219 0.42091-0.0527344 0.178723 0.189453C-0.0556521 0.439453-0.0556521 0.845703 0.178723 1.08789L8.74122 9.64258C8.9756 9.88477 9.38966 9.88477 9.63185 9.64258C9.87404 9.39258 9.87404 8.98633 9.63185 8.75195Z" fill="context-fill"/>
    </g>
  </g>
</svg>
