<svg width="16" height="16" viewBox="0 0 16 16" fill="none" xmlns="http://www.w3.org/2000/svg">
<path d="M10.9917 4.12095L4.12602 10.9866C3.89903 11.2136 3.89269 11.6231 4.12945 11.8599C4.37142 12.0966 4.77805 12.0932 5.00796 11.8633L11.8684 5.00288C12.104 4.76726 12.1081 4.36229 11.865 4.12438C11.6218 3.89167 11.2273 3.88533 10.9917 4.12095ZM11.8684 10.9854L5.00796 4.11981C4.77691 3.89396 4.36736 3.88533 4.12945 4.12323C3.89675 4.36635 3.90018 4.77069 4.12602 5.00174L10.9917 11.8622C11.2221 12.0978 11.627 12.0966 11.865 11.8587C12.1029 11.6156 12.104 11.2159 11.8684 10.9854Z" fill="context-fill"/>
</svg>
