<svg width="12" height="12" viewBox="0 0 12 12" fill="none" xmlns="http://www.w3.org/2000/svg">
<path opacity="0.2" d="M10 2H1V3H10V2Z" fill="white"/>
<path opacity="0.4" d="M5 6H2V9H5V6Z" fill="white"/>
<path opacity="0.2" d="M8 10.5C8.82843 10.5 9.5 9.82843 9.5 9C9.5 8.17157 8.82843 7.5 8 7.5C7.17157 7.5 6.5 8.17157 6.5 9C6.5 9.82843 7.17157 10.5 8 10.5Z" fill="white"/>
<path opacity="0.4" d="M11 6.5H5C4.725 6.5 4.5 6.725 4.5 7V11C4.5 11.275 4.725 11.5 5 11.5H11C11.275 11.5 11.5 11.275 11.5 11V7C11.5 6.725 11.275 6.5 11 6.5ZM8 10.5C7.173 10.5 6.5 9.827 6.5 9C6.5 8.173 7.173 7.5 8 7.5C8.827 7.5 9.5 8.173 9.5 9C9.5 9.827 8.827 10.5 8 10.5Z" fill="white"/>
<path d="M11 6V2C11 1.448 10.552 1 10 1H1C0.448 1 0 1.448 0 2V11H4C4 11.552 4.448 12 5 12H11C11.552 12 12 11.552 12 11V7C12 6.448 11.552 6 11 6ZM1 2H10V3H1V2ZM4 7V10H1V4H10V6H5C4.448 6 4 6.448 4 7ZM11 11H5V7H11V11Z" fill="white"/>
<path fill-rule="evenodd" clip-rule="evenodd" d="M8 9.5C8.27614 9.5 8.5 9.27614 8.5 9C8.5 8.72386 8.27614 8.5 8 8.5C7.72386 8.5 7.5 8.72386 7.5 9C7.5 9.27614 7.72386 9.5 8 9.5ZM8 10.5C8.82843 10.5 9.5 9.82843 9.5 9C9.5 8.17157 8.82843 7.5 8 7.5C7.17157 7.5 6.5 8.17157 6.5 9C6.5 9.82843 7.17157 10.5 8 10.5Z" fill="white"/>
</svg>
